<svg width="733" height="231" viewBox="0 0 733 231" fill="none" xmlns="http://www.w3.org/2000/svg">
<rect width="733" height="231" fill="white"/>
<path d="M205.292 193.604L188.849 166.214" stroke="black" stroke-width="2" stroke-linecap="round"/>
<path d="M125.146 119.568H68.1406L28 193.604" stroke="black" stroke-width="2" stroke-linecap="round"/>
<path d="M173.87 161.021L197.526 168.547L196.089 156.005L171.359 148.474L173.87 161.021Z" fill="white"/>
<path d="M28 209.406H205.292" stroke="black" stroke-width="2"/>
<path d="M28 194.354H205.292" stroke="black" stroke-width="2"/>
<path d="M205.292 194.354V209.406" stroke="black" stroke-width="2" stroke-linecap="round"/>
<path d="M28 194.354V209.406" stroke="black" stroke-width="2" stroke-linecap="round"/>
<path d="M114.495 209.406V194.083L113.786 179.76" stroke="black" stroke-width="1.33333" stroke-linecap="round"/>
<path d="M111.083 125.37L110.792 119.448" stroke="black" stroke-width="1.33333" stroke-linecap="round"/>
<path d="M125.547 135.109L136.964 138.526V57.6511L125.547 54.5417" fill="white"/>
<path d="M125.547 135.109L136.964 138.526V57.6511L125.547 54.5417" stroke="black" stroke-width="1.33333"/>
<path d="M204.031 170.917L128.323 147.844Z" fill="white"/>
<path d="M204.031 170.917L128.323 147.844" stroke="black" stroke-width="2"/>
<path d="M137.255 137.906L153.068 127.406" stroke="black" stroke-width="1.33333"/>
<path d="M189.964 102.911L193.401 100.63Z" fill="white"/>
<path d="M189.964 102.911L193.401 100.63" stroke="black" stroke-width="1.33333"/>
<path d="M136.964 57.6511L193.521 43.6147Z" fill="white"/>
<path d="M136.964 57.6511L193.521 43.6147" stroke="black" stroke-width="1.33333" stroke-linecap="round"/>
<path d="M126.005 54.125L183.964 42Z" fill="white"/>
<path d="M126.005 54.125L183.964 42" stroke="black" stroke-width="2" stroke-linecap="round"/>
<path d="M183.844 42.0885L193.016 43.4062Z" fill="white"/>
<path d="M183.844 42.0885L193.016 43.4062" stroke="black" stroke-width="2" stroke-linecap="round"/>
<path d="M204.484 170.938L241.042 122.464Z" fill="white"/>
<mask id="mask0_550_3308" style="mask-type:luminance" maskUnits="userSpaceOnUse" x="192" y="110" width="55" height="73">
<path d="M192.333 110.333H246.625V182.333H192.333V110.333Z" fill="white"/>
</mask>
<g mask="url(#mask0_550_3308)">
<path d="M204.484 170.937L241.042 122.463" stroke="black" stroke-width="2" stroke-linecap="round"/>
</g>
<path d="M240.953 122.729V113.052" stroke="black" stroke-width="2" stroke-linecap="round"/>
<path d="M241.042 111.891L193.401 100.63V43.8542" fill="white"/>
<mask id="mask1_550_3308" style="mask-type:luminance" maskUnits="userSpaceOnUse" x="181" y="41" width="66" height="83">
<path d="M181.667 41H246.625V123.667H181.667V41Z" fill="white"/>
</mask>
<g mask="url(#mask1_550_3308)">
<path d="M241.042 111.891L193.401 100.63V43.8542" stroke="black" stroke-width="2" stroke-linecap="round"/>
</g>
<path d="M204.031 170.578V158.927" stroke="black" stroke-width="0.666667" stroke-linecap="round"/>
<path d="M204.031 158.927L125.547 135.109Z" fill="white"/>
<path d="M204.031 158.927L125.547 135.109" stroke="black" stroke-width="1.33333" stroke-linecap="round"/>
<path d="M204.031 158.927L240.474 113.531Z" fill="white"/>
<mask id="mask2_550_3308" style="mask-type:luminance" maskUnits="userSpaceOnUse" x="196" y="105" width="51" height="63">
<path d="M196.333 105H246.625V167.667H196.333V105Z" fill="white"/>
</mask>
<g mask="url(#mask2_550_3308)">
<path d="M204.031 158.927L240.474 113.531" stroke="black" stroke-width="1.33333" stroke-linecap="round"/>
</g>
<path d="M125.339 54.5155V131.13" stroke="black" stroke-width="2" stroke-linecap="round"/>
<path d="M137.672 110.844V126.615L158.818 122.313L164.911 118.01L137.672 110.844Z" fill="white"/>
<path d="M155.682 127.151L168.224 118.547L187.49 152.776L167.776 147.042L155.682 127.151Z" fill="white"/>
<path d="M180.51 134.651L152.99 127.292V116.412" stroke="black" stroke-width="1.33333"/>
<path d="M152.99 116.412L180.51 123.448" stroke="black" stroke-width="0.666667"/>
<path d="M180.51 123.448V134.651" stroke="black" stroke-width="0.666667"/>
<path d="M180.958 100.729L202.974 106.359Z" fill="white"/>
<path d="M180.958 100.729L202.974 106.359" stroke="black" stroke-width="1.33333"/>
<path d="M202.974 106.359V115.323" stroke="black" stroke-width="1.33333"/>
<path d="M180.51 134.651L202.974 115.323" stroke="black" stroke-width="1.33333"/>
<path d="M180.51 123.448L202.974 106.359Z" fill="white"/>
<path d="M180.51 123.448L202.974 106.359" stroke="black" stroke-width="0.666667"/>
<path d="M152.99 116.411L180.958 100.729" stroke="black" stroke-width="1.33333"/>
<path d="M339.536 169.021L363.188 176.547L361.755 164.005L337.026 156.479L339.536 169.021Z" fill="white"/>
<path d="M291.208 143.109L302.63 146.526V65.6509L291.208 62.5467" fill="white"/>
<path d="M291.208 143.109L302.63 146.526V65.6509L291.208 62.5467" stroke="black" stroke-width="1.33333"/>
<path d="M369.698 178.917L291.531 155.078Z" fill="white"/>
<path d="M369.698 178.917L291.531 155.078" stroke="black" stroke-width="2"/>
<path d="M302.917 145.901L329.214 128.448" stroke="black" stroke-width="1.33333"/>
<path d="M356.651 110.115L359.068 108.63Z" fill="white"/>
<path d="M356.651 110.115L359.068 108.63" stroke="black" stroke-width="1.33333"/>
<path d="M302.63 65.6509L359.188 51.6144Z" fill="white"/>
<path d="M302.63 65.6509L359.188 51.6144" stroke="black" stroke-width="1.33333" stroke-linecap="round"/>
<path d="M291.667 62.125L349.63 50Z" fill="white"/>
<path d="M291.667 62.125L349.63 50" stroke="black" stroke-width="2" stroke-linecap="round"/>
<path d="M349.51 50.0937L358.682 51.4062Z" fill="white"/>
<path d="M349.51 50.0937L358.682 51.4062" stroke="black" stroke-width="2" stroke-linecap="round"/>
<path d="M370.146 178.938L406.703 130.464Z" fill="white"/>
<path d="M370.146 178.938L406.703 130.464" stroke="black" stroke-width="2" stroke-linecap="round"/>
<path d="M406.615 130.729V121.057" stroke="black" stroke-width="2" stroke-linecap="round"/>
<path d="M406.703 119.891L359.068 108.63V51.8542" fill="white"/>
<path d="M406.703 119.891L359.068 108.63V51.8542" stroke="black" stroke-width="2" stroke-linecap="round"/>
<path d="M369.698 178.578V166.927" stroke="black" stroke-width="0.666667" stroke-linecap="round"/>
<path d="M369.698 166.927L291.208 143.109Z" fill="white"/>
<path d="M369.698 166.927L291.208 143.109" stroke="black" stroke-width="1.33333" stroke-linecap="round"/>
<path d="M369.698 166.927L406.135 121.531Z" fill="white"/>
<path d="M369.698 166.927L406.135 121.531" stroke="black" stroke-width="1.33333" stroke-linecap="round"/>
<path d="M291 62.5156V155.078" stroke="black" stroke-width="2" stroke-linecap="round"/>
<path d="M94.4271 167.927H132.51" stroke="black" stroke-width="0.666667"/>
<path d="M132.51 167.927V179.771H94.4271V167.927" stroke="black" stroke-width="1.33333"/>
<path d="M98.8542 126.161H123.604" stroke="black" stroke-width="1.33333"/>
<path d="M94.4271 167.927L98.8542 126.161" stroke="black" stroke-width="1.33333"/>
<path d="M132.51 167.927L123.604 126.161" stroke="black" stroke-width="1.33333"/>
<path d="M367.693 138.438L328.974 127.875V93.3177" stroke="black" stroke-width="1.33333"/>
<path d="M328.974 93.3177L367.693 138.438" stroke="black" stroke-width="0.666667"/>
<path d="M339.531 90.1353L374.38 130.74" stroke="black" stroke-width="1.33333"/>
<path d="M367.693 138.463L374.38 130.765" stroke="black" stroke-width="0.666667" stroke-linecap="square"/>
<path d="M328.922 93.3176L339.505 90.1458" stroke="black" stroke-width="0.666667" stroke-linecap="square"/>
<mask id="mask3_550_3308" style="mask-type:luminance" maskUnits="userSpaceOnUse" x="479" y="82" width="216" height="96">
<path d="M479 82.5083H694.625V177.175H479V82.5083Z" fill="white"/>
</mask>
<g mask="url(#mask3_550_3308)">
<path d="M487.016 90.279L524.214 169.253L687.797 169.237" stroke="black" stroke-width="1.33333"/>
</g>
<mask id="mask4_550_3308" style="mask-type:luminance" maskUnits="userSpaceOnUse" x="656" y="139" width="39" height="43">
<path d="M656.333 139.842H694.625V181.175H656.333V139.842Z" fill="white"/>
</mask>
<g mask="url(#mask4_550_3308)">
<path d="M687.797 169.238L668.63 151.357" stroke="black" stroke-width="2"/>
</g>
<path d="M607.859 94.6594L603.198 89.9042L486.307 90.1073" stroke="black" stroke-width="2"/>
<mask id="mask5_550_3308" style="mask-type:luminance" maskUnits="userSpaceOnUse" x="475" y="91" width="220" height="93">
<path d="M475 91.8418H694.625V183.79H475V91.8418Z" fill="white"/>
</mask>
<g mask="url(#mask5_550_3308)">
<path d="M487.016 104.284L524.214 182.79L687.797 182.774" stroke="black" stroke-width="2" stroke-linecap="round"/>
</g>
<path d="M487.016 103.816V90.2792" stroke="black" stroke-width="2" stroke-linecap="square"/>
<mask id="mask6_550_3308" style="mask-type:luminance" maskUnits="userSpaceOnUse" x="685" y="167" width="5" height="17">
<path d="M685.667 167.842H689.667V183.79H685.667V167.842Z" fill="white"/>
</mask>
<g mask="url(#mask6_550_3308)">
<path d="M687.797 169.237V182.774" stroke="black" stroke-width="2"/>
</g>
<mask id="mask7_550_3308" style="mask-type:luminance" maskUnits="userSpaceOnUse" x="523" y="167" width="3" height="17">
<path d="M523 167.842H525.667V183.79H523V167.842Z" fill="white"/>
</mask>
<g mask="url(#mask7_550_3308)">
<path d="M524.214 182.79V168.675" stroke="black" stroke-width="1.33333"/>
</g>
<path d="M516.344 151.472V133.988" stroke="black" stroke-width="0.666667" stroke-linecap="square"/>
<path d="M516.344 133.988H668.339" stroke="black" stroke-width="0.666667" stroke-linecap="square"/>
<path d="M668.339 133.988V151.472" stroke="black" stroke-width="2" stroke-linecap="square"/>
<path d="M668.339 151.472H516.344" stroke="black" stroke-width="1.33333" stroke-linecap="square"/>
<path d="M668.354 133.581L662.323 127.55" stroke="black" stroke-width="2" stroke-linecap="round"/>
<path d="M516.344 133.988L512.677 127.503" stroke="black" stroke-width="0.666667" stroke-linecap="square"/>
<path d="M512.536 127.785V143.857" stroke="black" stroke-width="2" stroke-linecap="round"/>
<path d="M512.464 127.503H661.854" stroke="black" stroke-width="2" stroke-linecap="square"/>
<path d="M506.927 131.316V115.581" stroke="black" stroke-width="0.666667" stroke-linecap="square"/>
<path d="M506.927 115.581H648.443" stroke="black" stroke-width="0.666667" stroke-linecap="square"/>
<path d="M648.443 115.581V127.503" stroke="black" stroke-width="2" stroke-linecap="square"/>
<path d="M512.63 131.31L506.927 131.316" stroke="black" stroke-width="1.33333" stroke-linecap="square"/>
<path d="M648.536 115.17L642.974 109.847" stroke="black" stroke-width="2" stroke-linecap="round"/>
<path d="M506.927 115.581L503.625 109.743" stroke="black" stroke-width="0.666667" stroke-linecap="square"/>
<path d="M503.443 110.826L503.385 124.649" stroke="black" stroke-width="2" stroke-linecap="round"/>
<path d="M503.438 109.743H642.604" stroke="black" stroke-width="2" stroke-linecap="square"/>
<path d="M499.656 115.425V100.56" stroke="black" stroke-width="0.666667" stroke-linecap="square"/>
<path d="M499.656 100.561H628.854" stroke="black" stroke-width="0.666667" stroke-linecap="square"/>
<path d="M628.854 100.561V107.951" stroke="black" stroke-width="2" stroke-linecap="square"/>
<path d="M502.052 115.425H499.656" stroke="black" stroke-width="1.33333" stroke-linecap="square"/>
<path d="M628.875 100.211L623.865 94.9614" stroke="black" stroke-width="2" stroke-linecap="round"/>
<path d="M499.656 100.561L496.542 95.0501" stroke="black" stroke-width="0.666667" stroke-linecap="square"/>
<path d="M496.37 95.2897V108.951" stroke="black" stroke-width="2" stroke-linecap="round"/>
<path d="M496.359 95.05H623.344" stroke="black" stroke-width="2" stroke-linecap="square"/>
<path d="M173.182 108.464L112.74 72.0209H82.5156" stroke="black" stroke-width="0.666667"/>
<path d="M171.068 109.417L178.255 111.49L173.068 106.099L171.068 109.417Z" fill="black"/>
<path d="M111.849 131.573L112.74 72.0209" stroke="black" stroke-width="0.666667"/>
<path d="M109.958 130.219L111.792 137.479L113.833 130.281L109.958 130.219Z" fill="black"/>
<path d="M357.286 110.37L394.568 68.5936H425.677" stroke="black" stroke-width="0.666667"/>
<path d="M356.74 108.115L353.375 114.792L359.63 110.693L356.74 108.115Z" fill="black"/>
<path d="M631.406 125.081L574.516 57.5292H539.849" stroke="black" stroke-width="0.666667"/>
<path d="M629.094 125.3L635.234 129.581L632.057 122.805L629.094 125.3Z" fill="black"/>
<path d="M594.958 107.305L574.516 57.5291" stroke="black" stroke-width="0.666667" stroke-linecap="square"/>
<path d="M592.688 106.81L597.224 112.758L596.271 105.336L592.688 106.81Z" fill="black"/>
<path d="M573.625 92.1958L574.516 57.5291" stroke="black" stroke-width="0.666667" stroke-linecap="square"/>
<path d="M571.75 90.8262L573.5 98.097L575.62 90.9251L571.75 90.8262Z" fill="black"/>
<path d="M38.7526 71.2062C38.7109 70.5187 38.5026 69.9562 38.2318 69.5604C37.7526 68.9146 36.7943 68.4771 35.8151 68.4771C33.9193 68.4771 32.5026 70.1437 32.5026 72.4771C32.5026 74.7271 33.8984 76.3312 35.7943 76.3312C37.4609 76.3312 38.7109 75.1437 38.8568 73.2687H37.3568C37.1484 74.5604 36.7734 74.9354 35.8359 74.9354C34.6068 74.9354 34.0443 74.1229 34.0443 72.4771C34.0443 70.7271 34.5859 69.8521 35.7943 69.8521C36.7318 69.8521 37.1276 70.2271 37.2734 71.3729H38.7734L38.7526 71.2062Z" fill="black"/>
<path d="M40.9818 65.9353H39.6693V76.0186H41.1693V65.9353H40.9818Z" fill="black"/>
<path d="M48.9418 72.7271C48.9418 71.6646 48.8584 71.0187 48.6709 70.4979C48.2126 69.3521 46.9626 68.4771 45.6501 68.4771C43.7126 68.4771 42.2543 70.1437 42.2543 72.4354C42.2543 74.7479 43.6501 76.3312 45.6293 76.3312C47.2334 76.3312 48.5251 75.2479 48.8376 73.5396H47.3376C46.9834 74.6437 46.5668 74.9354 45.6709 74.9354C44.9626 74.9354 44.5043 74.6646 44.1293 74.0812C43.8584 73.6854 43.8168 73.4146 43.7959 72.8937H48.9418V72.7271ZM43.8376 71.8104C43.9209 70.5187 44.5251 69.8521 45.6501 69.8521C46.7751 69.8521 47.3584 70.5604 47.3584 71.6229H43.8376V71.8104Z" fill="black"/>
<path d="M56.4593 74.9979C56.3551 75.0396 56.2926 75.0396 56.2301 75.0396C55.8343 75.0396 55.8134 75.0187 55.8134 74.6646V70.5604C55.8134 69.3312 54.7301 68.4771 53.0009 68.4771C51.9801 68.4771 51.0218 68.8104 50.5426 69.3312C50.2093 69.7062 50.0218 70.2271 49.9801 71.1021H51.5009C51.6051 70.0812 51.9176 69.8521 52.9593 69.8521C53.9801 69.8521 54.3134 70.0604 54.3134 70.7271V71.0187C54.3134 71.4979 54.2718 71.4771 53.3551 71.6021C51.7926 71.8104 51.5426 71.8521 51.1259 72.0396C50.3134 72.3729 49.6884 73.1854 49.6884 74.0812C49.6884 75.3521 50.7718 76.3312 52.1884 76.3312C53.0634 76.3312 53.9176 75.9562 54.3968 75.5187C54.4384 75.8521 54.9801 76.3312 55.7093 76.3312C55.9384 76.3312 56.0843 76.2896 56.6468 76.1646V74.9562L56.4593 74.9979ZM54.3134 73.6437C54.3134 74.0187 54.2718 74.1021 53.9384 74.4146C53.4801 74.8312 53.0843 74.9979 52.4176 74.9979C51.5634 74.9979 51.2509 74.7687 51.2509 74.0604C51.2509 73.3312 51.5426 73.1229 52.7301 72.9562C53.9176 72.7896 54.1468 72.7479 54.3134 72.6646V73.6437Z" fill="black"/>
<path d="M60.1434 68.6645H59.1643V66.7478H57.6851V68.6645H56.7268V69.9353H57.6851V75.0395C57.6851 75.7686 58.3518 76.3311 59.2268 76.3311C59.5184 76.3311 59.7684 76.2895 60.3309 76.2061V74.8936C59.9768 74.977 59.8309 74.9978 59.6018 74.9978C59.1226 74.9978 59.1643 75.0395 59.1643 74.5603V69.9353H60.3309V68.6645H60.1434Z" fill="black"/>
<path d="M66.4751 70.8104C66.4751 69.4354 65.3709 68.4771 63.7668 68.4771C62.1418 68.4771 60.8709 69.4979 60.8709 70.7896C60.8709 71.8937 61.6418 72.5812 63.2876 72.9771L64.3293 73.2271C65.1001 73.4146 65.2043 73.5187 65.2043 74.0187C65.2043 74.6854 64.7668 74.9354 63.7876 74.9354C63.1834 74.9354 62.8084 74.8104 62.5376 74.5187C62.3709 74.3312 62.3293 74.2687 62.2459 73.5812H60.7043C60.7668 75.3729 61.8709 76.3312 63.7043 76.3312C65.4543 76.3312 66.7668 75.2896 66.7668 73.9354C66.7668 72.8937 65.9959 72.1437 64.6001 71.8104L63.5376 71.5604C62.6209 71.3312 62.4334 71.2271 62.4334 70.7479C62.4334 70.0812 62.8084 69.8521 63.7251 69.8521C64.6209 69.8521 64.8918 70.0812 64.9126 70.9771H66.4751V70.8104Z" fill="black"/>
<path d="M436.643 65.4275V66.4483L436.977 66.3233C436.414 65.4692 435.664 65.0525 434.789 65.0525C433.102 65.0525 431.727 66.8025 431.727 69.0525C431.727 70.2192 432.06 71.1983 432.664 71.9067C433.185 72.5108 433.997 72.9067 434.706 72.9067C435.539 72.9067 436.289 72.4692 436.872 71.5942L436.539 71.4692V71.8442C436.539 73.6983 436.206 74.1983 434.831 74.1983C433.872 74.1983 433.581 74.0108 433.435 73.0317H431.935C432.06 74.5108 433.289 75.5108 434.81 75.5108C435.831 75.5108 436.81 75.115 437.268 74.5525C437.81 73.9067 438.06 72.9067 438.06 71.2817V65.24H436.643V65.4275ZM434.893 66.4275C436.06 66.4275 436.539 67.24 436.539 69.0108C436.539 70.7192 436.06 71.5108 434.893 71.5108C433.747 71.5108 433.268 70.6983 433.268 68.99C433.268 67.2817 433.747 66.4275 434.893 66.4275Z" fill="black"/>
<path d="M445.473 72.4275V65.24H443.994V69.3858C443.994 70.8233 443.452 71.5733 442.286 71.5733C441.411 71.5733 441.036 71.2192 441.036 70.3858V65.24H439.536V70.8233C439.536 71.99 440.598 72.9067 441.952 72.9067C442.994 72.9067 443.786 72.49 444.432 71.5733L444.098 71.4483V72.5942H445.473V72.4275Z" fill="black"/>
<path d="M452.303 67.3858C452.303 66.0108 451.199 65.0525 449.595 65.0525C447.97 65.0525 446.699 66.0733 446.699 67.365C446.699 68.4692 447.47 69.1567 449.116 69.5525L450.157 69.8025C450.928 69.99 451.032 70.0942 451.032 70.5942C451.032 71.2608 450.595 71.5108 449.616 71.5108C449.012 71.5108 448.637 71.3858 448.366 71.0942C448.199 70.9067 448.157 70.8442 448.074 70.1567H446.532C446.595 71.9483 447.699 72.9067 449.532 72.9067C451.282 72.9067 452.595 71.865 452.595 70.5108C452.595 69.4692 451.824 68.7192 450.428 68.3858L449.366 68.1358C448.449 67.9067 448.262 67.8025 448.262 67.3233C448.262 66.6567 448.637 66.4275 449.553 66.4275C450.449 66.4275 450.72 66.6567 450.741 67.5525H452.303V67.3858Z" fill="black"/>
<path d="M458.97 67.3858C458.97 66.0108 457.866 65.0525 456.262 65.0525C454.637 65.0525 453.366 66.0733 453.366 67.365C453.366 68.4692 454.137 69.1567 455.782 69.5525L456.824 69.8025C457.595 69.99 457.699 70.0942 457.699 70.5942C457.699 71.2608 457.262 71.5108 456.282 71.5108C455.678 71.5108 455.303 71.3858 455.032 71.0942C454.866 70.9067 454.824 70.8442 454.741 70.1567H453.199C453.262 71.9483 454.366 72.9067 456.199 72.9067C457.949 72.9067 459.262 71.865 459.262 70.5108C459.262 69.4692 458.491 68.7192 457.095 68.3858L456.032 68.1358C455.116 67.9067 454.928 67.8025 454.928 67.3233C454.928 66.6567 455.303 66.4275 456.22 66.4275C457.116 66.4275 457.387 66.6567 457.407 67.5525H458.97V67.3858Z" fill="black"/>
<path d="M466.637 69.3025C466.637 68.24 466.553 67.5942 466.366 67.0733C465.907 65.9275 464.657 65.0525 463.345 65.0525C461.407 65.0525 459.949 66.7192 459.949 69.0108C459.949 71.3233 461.345 72.9067 463.324 72.9067C464.928 72.9067 466.22 71.8233 466.532 70.115H465.032C464.678 71.2192 464.262 71.5108 463.366 71.5108C462.657 71.5108 462.199 71.24 461.824 70.6567C461.553 70.2608 461.512 69.99 461.491 69.4692H466.637V69.3025ZM461.532 68.3858C461.616 67.0942 462.22 66.4275 463.345 66.4275C464.47 66.4275 465.053 67.1358 465.053 68.1983H461.532V68.3858Z" fill="black"/>
<path d="M470.425 65.2399H469.446V63.3232H467.967V65.2399H467.008V66.5107H467.967V71.6149C467.967 72.3441 468.633 72.9066 469.508 72.9066C469.8 72.9066 470.05 72.8649 470.612 72.7816V71.4691C470.258 71.5524 470.112 71.5732 469.883 71.5732C469.404 71.5732 469.446 71.6149 469.446 71.1357V66.5107H470.612V65.2399H470.425Z" fill="black"/>
<path d="M508.135 53.9167V61.0834H509.635V57.2917C509.656 55.6042 510.156 55.0209 511.865 55.0834V53.6042C511.49 53.5417 511.385 53.5417 511.26 53.5417C510.531 53.5417 509.844 54.0209 509.198 55.0626L509.531 55.1876V53.7292H508.135V53.9167Z" fill="black"/>
<path d="M513.846 53.7292H512.534V61.0833H514.034V53.7292H513.846ZM513.846 51H512.534V52.7708H514.034V51H513.846Z" fill="black"/>
<path d="M515.327 51.1875V61.0833H516.723V60.0208L516.39 60.1458C516.91 60.9583 517.765 61.3958 518.744 61.3958C520.577 61.3958 521.973 59.7083 521.973 57.3958C521.973 55.125 520.64 53.5417 518.785 53.5417C517.827 53.5417 517.015 53.9583 516.494 54.7292L516.827 54.875V51H515.327V51.1875ZM518.577 54.9375C519.827 54.9375 520.41 55.8333 520.41 57.5C520.41 59.1042 519.785 60 518.577 60C517.39 60 516.827 59.1042 516.827 57.4792C516.827 55.8333 517.39 54.9375 518.577 54.9375Z" fill="black"/>
<path d="M528.24 55.8751C528.24 54.5001 527.136 53.5417 525.532 53.5417C523.907 53.5417 522.636 54.5626 522.636 55.8542C522.636 56.9584 523.407 57.6459 525.053 58.0417L526.095 58.2917C526.865 58.4792 526.97 58.5834 526.97 59.0834C526.97 59.7501 526.532 60.0001 525.553 60.0001C524.949 60.0001 524.574 59.8751 524.303 59.5834C524.136 59.3959 524.095 59.3334 524.011 58.6459H522.47C522.532 60.4376 523.636 61.3959 525.47 61.3959C527.22 61.3959 528.532 60.3542 528.532 59.0001C528.532 57.9584 527.761 57.2084 526.365 56.8751L525.303 56.6251C524.386 56.3959 524.199 56.2917 524.199 55.8126C524.199 55.1459 524.574 54.9167 525.49 54.9167C526.386 54.9167 526.657 55.1459 526.678 56.0417H528.24V55.8751Z" fill="black"/>
</svg>
