<svg width="391" height="259" viewBox="0 0 391 259" fill="none" xmlns="http://www.w3.org/2000/svg">
<rect width="391" height="259" fill="white"/>
<path d="M56.3105 199.688L56.5501 141.911" stroke="black" stroke-width="2"/>
<path d="M56.5502 101.469V57.8021L86.0918 28.2604L115.634 57.8021V92.9844" stroke="black" stroke-width="2"/>
<path d="M115.425 141.911L115.634 200.578C115.634 200.578 84.0867 167.099 56.7585 197.469C52.7585 201.911 61.2012 208.578 76.7585 202.354C91.6127 196.411 95.4252 186.354 95.4252 186.354" stroke="black" stroke-width="2"/>
<path d="M86.0918 28.2603L78.5084 57.802" stroke="black" stroke-width="2"/>
<path d="M78.5085 57.8022C78.5085 57.8022 57.2012 72.1355 57.2012 103.245" stroke="black" stroke-width="1.33333"/>
<path d="M115.633 57.8022C115.633 57.8022 77.1386 85.849 62.399 121.151" stroke="black" stroke-width="2"/>
<path d="M62.3991 121.151C58.8418 129.672 56.6699 138.615 56.7585 147.688" stroke="black" stroke-width="2"/>
<path d="M114.566 92.578C112.571 94.1562 110.17 96.2812 107.493 98.8801" stroke="black" stroke-width="2"/>
<path d="M107.493 98.8802C88.7637 117.057 56.6126 158.49 56.3105 199.688" stroke="black" stroke-width="2"/>
<path d="M56.7584 101.911C56.7584 101.911 58.9772 113.469 62.0918 121.021" stroke="black" stroke-width="2"/>
<path d="M107.868 99.2448C107.868 99.2448 114.977 129.911 115.425 149.469" stroke="black" stroke-width="2"/>
<path d="M115.868 144.135C115.868 144.135 86.0918 162.771 82.5345 184.135" stroke="black" stroke-width="2"/>
<path d="M56.5502 57.802H78.5085" stroke="black" stroke-width="1.33333"/>
<path d="M215.625 199.688L215.859 141.911" stroke="black" stroke-width="2"/>
<path d="M215.859 101.469V57.8021L245.401 28.2604L274.943 57.8021V92.9844" stroke="black" stroke-width="2"/>
<path d="M274.734 141.911L274.943 200.578C274.943 200.578 243.401 167.099 216.068 197.469C212.068 201.911 220.516 208.578 236.068 202.354C250.927 196.411 254.734 186.354 254.734 186.354" stroke="black" stroke-width="2"/>
<path d="M229.734 65.5261C223.708 72.7501 216.516 85.1667 216.516 103.245" stroke="black" stroke-width="1.33333"/>
<path d="M274.943 57.8022C274.943 57.8022 236.453 85.849 221.714 121.151" stroke="black" stroke-width="2"/>
<path d="M221.714 121.151C218.156 129.672 215.984 138.615 216.068 147.688" stroke="black" stroke-width="2"/>
<path d="M273.875 92.578C271.88 94.1562 269.479 96.2812 266.807 98.8801" stroke="black" stroke-width="2"/>
<path d="M266.807 98.8802C248.078 117.057 215.922 158.49 215.625 199.688" stroke="black" stroke-width="2"/>
<path d="M216.068 101.911C216.068 101.911 218.292 113.469 221.401 121.021" stroke="black" stroke-width="2"/>
<path d="M267.182 99.2448C267.182 99.2448 274.292 129.911 274.734 149.469" stroke="black" stroke-width="2"/>
<path d="M275.182 144.135C275.182 144.135 246.557 161.912 241.667 184.135" stroke="black" stroke-width="2"/>
<path d="M215.859 57.802H226.109" stroke="black" stroke-width="1.33333"/>
<path d="M243.891 29.9114L226.526 57.802L230.109 65.0208L243.891 29.9114Z" stroke="black" stroke-width="1.33333"/>
<path d="M36.8333 236.571C36.8125 234.925 35.5417 233.821 33.6042 233.821C31.6667 233.821 30.2083 235.009 30.2083 236.55C30.2083 237.863 31.0625 238.675 33.0625 239.154L34.2917 239.446C35.2292 239.675 35.3958 239.842 35.3958 240.425C35.3958 241.238 34.8125 241.592 33.6458 241.592C32.9167 241.592 32.4375 241.425 32.1042 241.071C31.8958 240.842 31.8542 240.717 31.75 239.946H30C30.0625 242.071 31.3333 243.175 33.5417 243.175C35.6458 243.175 37.1667 241.946 37.1667 240.342C37.1667 239.092 36.2917 238.217 34.625 237.821L33.3333 237.529C32.25 237.259 31.9583 237.092 31.9583 236.488C31.9583 235.717 32.4792 235.404 33.5625 235.404C34.6458 235.404 35.0208 235.696 35.0625 236.759H36.8333V236.571Z" fill="black"/>
<path d="M41.7083 234.071H40.5V231.759H38.8125V234.071H37.6875V235.509H38.8125V241.654C38.8125 242.529 39.5833 243.175 40.625 243.175C40.9792 243.175 41.2708 243.134 41.8958 243.029V241.529C41.5208 241.634 41.3333 241.654 41.0625 241.654C40.5 241.654 40.5 241.654 40.5 241.071V235.509H41.8958V234.071H41.7083Z" fill="black"/>
<path d="M50.6563 241.654C50.5105 241.696 50.448 241.696 50.3647 241.696C49.9063 241.696 49.823 241.634 49.823 241.217V236.279C49.823 234.8 48.5522 233.821 46.4897 233.821C45.2605 233.821 44.1355 234.217 43.573 234.842C43.1772 235.279 42.9688 235.884 42.948 236.904H44.6355C44.7605 235.696 45.198 235.404 46.448 235.404C47.6563 235.404 48.1355 235.675 48.1355 236.488V236.842C48.1147 237.404 48.0105 237.446 46.9272 237.592C45.0313 237.821 44.7397 237.884 44.2397 238.092C43.2605 238.509 42.573 239.425 42.573 240.509C42.573 242.029 43.823 243.175 45.5105 243.175C46.573 243.175 47.5522 242.759 48.2188 242.154C48.2605 242.634 48.8855 243.175 49.7397 243.175C50.0313 243.175 50.198 243.134 50.823 242.988V241.613L50.6563 241.654ZM48.1355 239.988C48.1355 240.425 48.0522 240.571 47.6355 240.946C47.0938 241.446 46.5938 241.654 45.8022 241.654C44.7605 241.654 44.3438 241.321 44.3438 240.488C44.3438 239.592 44.7397 239.321 46.1772 239.113C47.5938 238.925 47.8647 238.863 48.1355 238.759V239.988Z" fill="black"/>
<path d="M51.9273 234.238V242.8H53.6357V238.009C53.6357 236.279 54.344 235.342 55.719 235.342C56.7815 235.342 57.2607 235.8 57.2607 236.821V242.8H58.9482V236.279C58.9482 234.904 57.7398 233.821 56.1357 233.821C54.8857 233.821 53.9273 234.342 53.1982 235.529L53.5107 235.654V234.071H51.9273V234.238Z" fill="black"/>
<path d="M67.8025 230.779H66.2817V235.3L66.615 235.175C66.0525 234.321 65.0317 233.821 63.9067 233.821C61.7192 233.821 60.115 235.738 60.115 238.425C60.115 241.258 61.6775 243.175 63.9484 243.175C65.0942 243.175 66.0317 242.696 66.74 241.654L66.4275 241.529V242.8H67.99V230.779H67.8025ZM64.1359 235.425C65.5734 235.425 66.2817 236.508 66.2817 238.529C66.2817 240.467 65.5525 241.571 64.1359 241.571C62.6775 241.571 61.865 240.446 61.865 238.488C61.865 236.55 62.6775 235.425 64.1359 235.425Z" fill="black"/>
<path d="M77.3444 241.654C77.1985 241.696 77.136 241.696 77.0527 241.696C76.5944 241.696 76.511 241.634 76.511 241.217V236.279C76.511 234.8 75.2402 233.821 73.1777 233.821C71.9485 233.821 70.8235 234.217 70.261 234.842C69.8652 235.279 69.6569 235.884 69.636 236.904H71.3235C71.4485 235.696 71.886 235.404 73.136 235.404C74.3444 235.404 74.8235 235.675 74.8235 236.488V236.842C74.8027 237.404 74.6985 237.446 73.6152 237.592C71.7194 237.821 71.4277 237.884 70.9277 238.092C69.9485 238.509 69.261 239.425 69.261 240.509C69.261 242.029 70.511 243.175 72.1985 243.175C73.261 243.175 74.2402 242.759 74.9069 242.154C74.9485 242.634 75.5735 243.175 76.4277 243.175C76.7194 243.175 76.886 243.134 77.511 242.988V241.613L77.3444 241.654ZM74.8235 239.988C74.8235 240.425 74.7402 240.571 74.3235 240.946C73.7819 241.446 73.2819 241.654 72.4902 241.654C71.4485 241.654 71.0319 241.321 71.0319 240.488C71.0319 239.592 71.4277 239.321 72.8652 239.113C74.2819 238.925 74.5527 238.863 74.8235 238.759V239.988Z" fill="black"/>
<path d="M78.5945 234.238V242.8H80.3028V238.279C80.3237 236.259 80.9695 235.529 82.9903 235.592V233.884C82.5945 233.842 82.4695 233.821 82.3028 233.821C81.4278 233.821 80.6362 234.384 79.8653 235.634L80.1987 235.759V234.071H78.5945V234.238Z" fill="black"/>
<path d="M90.9225 230.779H89.4017V235.3L89.735 235.175C89.1725 234.321 88.1517 233.821 87.0267 233.821C84.8392 233.821 83.235 235.738 83.235 238.425C83.235 241.258 84.7975 243.175 87.0683 243.175C88.2142 243.175 89.1517 242.696 89.86 241.654L89.5475 241.529V242.8H91.11V230.779H90.9225ZM87.2558 235.425C88.6933 235.425 89.4017 236.508 89.4017 238.529C89.4017 240.467 88.6725 241.571 87.2558 241.571C85.7975 241.571 84.985 240.446 84.985 238.488C84.985 236.55 85.7975 235.425 87.2558 235.425Z" fill="black"/>
<path d="M104.267 230.779H102.746V235.3L103.079 235.175C102.517 234.321 101.496 233.821 100.371 233.821C98.1832 233.821 96.579 235.738 96.579 238.425C96.579 241.258 98.1415 243.175 100.412 243.175C101.558 243.175 102.496 242.696 103.204 241.654L102.892 241.529V242.8H104.454V230.779H104.267ZM100.6 235.425C102.037 235.425 102.746 236.508 102.746 238.529C102.746 240.467 102.017 241.571 100.6 241.571C99.1415 241.571 98.329 240.446 98.329 238.488C98.329 236.55 99.1415 235.425 100.6 235.425Z" fill="black"/>
<path d="M106.163 234.238V242.8H107.871V238.279C107.892 236.259 108.538 235.529 110.558 235.592V233.884C110.163 233.842 110.038 233.821 109.871 233.821C108.996 233.821 108.204 234.384 107.433 235.634L107.767 235.759V234.071H106.163V234.238Z" fill="black"/>
<path d="M112.97 234.071H111.449V242.8H113.157V234.071H112.97ZM112.97 230.779H111.428V232.821H113.157V230.779H112.97Z" fill="black"/>
<path d="M116.563 230.779H115.022V242.8H116.73V230.779H116.563Z" fill="black"/>
<path d="M120.115 230.779H118.574V242.8H120.282V230.779H120.115Z" fill="black"/>
<path d="M177.271 234.237V235.446L177.583 235.321C176.917 234.321 176.063 233.821 175 233.821C172.958 233.821 171.375 235.883 171.375 238.571C171.375 239.987 171.75 241.133 172.479 241.987C173.104 242.717 174.042 243.175 174.896 243.175C175.917 243.175 176.75 242.675 177.458 241.612L177.146 241.487V241.925C177.146 244.154 176.708 244.821 175.042 244.821C173.917 244.821 173.5 244.55 173.333 243.404H171.625C171.771 245.133 173.188 246.279 175.021 246.279C176.25 246.279 177.396 245.842 177.938 245.175C178.583 244.383 178.875 243.217 178.875 241.258V234.071H177.271V234.237ZM175.125 235.404C176.542 235.404 177.146 236.425 177.146 238.55C177.146 240.571 176.521 241.592 175.125 241.592C173.75 241.592 173.125 240.55 173.125 238.487C173.125 236.446 173.75 235.404 175.125 235.404Z" fill="black"/>
<path d="M180.813 234.237V242.8H182.521V238.279C182.542 236.258 183.188 235.529 185.208 235.592V233.883C184.813 233.842 184.688 233.821 184.521 233.821C183.646 233.821 182.854 234.383 182.083 235.633L182.417 235.758V234.071H180.813V234.237Z" fill="black"/>
<path d="M189.578 233.821C187.203 233.821 185.599 235.675 185.599 238.487C185.599 241.321 187.203 243.175 189.599 243.175C191.953 243.175 193.557 241.321 193.557 238.55C193.557 235.654 192.016 233.821 189.578 233.821ZM189.599 235.404C191.099 235.404 191.807 236.467 191.807 238.55C191.807 240.529 191.057 241.592 189.599 241.592C188.099 241.592 187.37 240.529 187.37 238.487C187.37 236.467 188.099 235.404 189.599 235.404Z" fill="black"/>
<path d="M202.016 242.633V234.071H200.308V238.987C200.308 240.696 199.599 241.654 198.224 241.654C197.162 241.654 196.662 241.175 196.662 240.175V234.071H194.974V240.696C194.974 242.092 196.203 243.175 197.828 243.175C199.058 243.175 199.974 242.696 200.766 241.592L200.433 241.446V242.8H202.016V242.633Z" fill="black"/>
<path d="M203.953 234.237V242.8H205.662V238.008C205.662 236.279 206.37 235.342 207.745 235.342C208.808 235.342 209.287 235.8 209.287 236.821V242.8H210.974V236.279C210.974 234.904 209.766 233.821 208.162 233.821C206.912 233.821 205.953 234.342 205.224 235.529L205.537 235.654V234.071H203.953V234.237Z" fill="black"/>
<path d="M219.829 230.779H218.308V235.3L218.641 235.175C218.079 234.321 217.058 233.821 215.933 233.821C213.745 233.821 212.141 235.738 212.141 238.425C212.141 241.258 213.704 243.175 215.975 243.175C217.12 243.175 218.058 242.696 218.766 241.654L218.454 241.529V242.8H220.016V230.779H219.829ZM216.162 235.425C217.6 235.425 218.308 236.508 218.308 238.529C218.308 240.467 217.579 241.571 216.162 241.571C214.704 241.571 213.891 240.446 213.891 238.488C213.891 236.55 214.704 235.425 216.162 235.425Z" fill="black"/>
<path d="M229.381 234.071H228.173V232.925C228.173 232.363 228.298 232.258 228.923 232.258C229.027 232.258 229.089 232.258 229.569 232.279V230.842C229.089 230.758 228.902 230.738 228.631 230.738C227.402 230.738 226.464 231.613 226.464 232.821V234.071H225.36V235.508H226.464V242.8H228.173V235.508H229.569V234.071H229.381Z" fill="black"/>
<path d="M234.058 233.821C231.683 233.821 230.079 235.675 230.079 238.487C230.079 241.321 231.683 243.175 234.079 243.175C236.433 243.175 238.037 241.321 238.037 238.55C238.037 235.654 236.496 233.821 234.058 233.821ZM234.079 235.404C235.579 235.404 236.287 236.467 236.287 238.55C236.287 240.529 235.537 241.592 234.079 241.592C232.579 241.592 231.85 240.529 231.85 238.487C231.85 236.467 232.579 235.404 234.079 235.404Z" fill="black"/>
<path d="M239.517 234.237V242.8H241.225V238.279C241.246 236.258 241.892 235.529 243.912 235.592V233.883C243.517 233.842 243.392 233.821 243.225 233.821C242.35 233.821 241.558 234.383 240.787 235.633L241.121 235.758V234.071H239.517V234.237Z" fill="black"/>
<path d="M249.23 246.279H250.751V241.737L250.438 241.862C251.147 242.737 252.063 243.175 253.168 243.175C255.334 243.175 256.918 241.258 256.918 238.571C256.918 235.758 255.376 233.821 253.147 233.821C252.001 233.821 250.959 234.383 250.334 235.383L250.647 235.508V234.071H249.043V246.279H249.23ZM252.918 235.425C254.397 235.425 255.168 236.55 255.168 238.55C255.168 240.446 254.376 241.571 252.918 241.571C251.501 241.571 250.751 240.467 250.751 238.487C250.751 236.529 251.501 235.425 252.918 235.425Z" fill="black"/>
<path d="M259.71 230.779H258.168V242.8H259.876V230.779H259.71Z" fill="black"/>
<path d="M269.386 241.654C269.241 241.696 269.178 241.696 269.095 241.696C268.636 241.696 268.553 241.633 268.553 241.217V236.279C268.553 234.8 267.282 233.821 265.22 233.821C263.991 233.821 262.866 234.217 262.303 234.842C261.907 235.279 261.699 235.883 261.678 236.904H263.366C263.491 235.696 263.928 235.404 265.178 235.404C266.386 235.404 266.866 235.675 266.866 236.487V236.842C266.845 237.404 266.741 237.446 265.657 237.592C263.761 237.821 263.47 237.883 262.97 238.092C261.991 238.508 261.303 239.425 261.303 240.508C261.303 242.029 262.553 243.175 264.241 243.175C265.303 243.175 266.282 242.758 266.949 242.154C266.991 242.633 267.616 243.175 268.47 243.175C268.761 243.175 268.928 243.133 269.553 242.987V241.612L269.386 241.654ZM266.866 239.987C266.866 240.425 266.782 240.571 266.366 240.946C265.824 241.446 265.324 241.654 264.532 241.654C263.491 241.654 263.074 241.321 263.074 240.487C263.074 239.592 263.47 239.321 264.907 239.112C266.324 238.925 266.595 238.862 266.866 238.758V239.987Z" fill="black"/>
<path d="M276.908 236.571C276.887 234.925 275.616 233.821 273.678 233.821C271.741 233.821 270.283 235.008 270.283 236.55C270.283 237.862 271.137 238.675 273.137 239.154L274.366 239.446C275.303 239.675 275.47 239.842 275.47 240.425C275.47 241.237 274.887 241.592 273.72 241.592C272.991 241.592 272.512 241.425 272.178 241.071C271.97 240.842 271.928 240.717 271.824 239.946H270.074C270.137 242.071 271.408 243.175 273.616 243.175C275.72 243.175 277.241 241.946 277.241 240.342C277.241 239.092 276.366 238.217 274.699 237.821L273.408 237.529C272.324 237.258 272.033 237.092 272.033 236.487C272.033 235.717 272.553 235.404 273.637 235.404C274.72 235.404 275.095 235.696 275.137 236.758H276.908V236.571Z" fill="black"/>
<path d="M281.783 234.071H280.574V231.758H278.887V234.071H277.762V235.508H278.887V241.654C278.887 242.529 279.658 243.175 280.699 243.175C281.053 243.175 281.345 243.133 281.97 243.029V241.529C281.595 241.633 281.408 241.654 281.137 241.654C280.574 241.654 280.574 241.654 280.574 241.071V235.508H281.97V234.071H281.783Z" fill="black"/>
<path d="M284.564 234.071H283.043V242.8H284.751V234.071H284.564ZM284.564 230.779H283.022V232.821H284.751V230.779H284.564Z" fill="black"/>
<path d="M293.428 237.05C293.366 236.237 293.137 235.592 292.824 235.112C292.241 234.342 291.116 233.821 289.949 233.821C287.678 233.821 286.033 235.8 286.033 238.571C286.033 241.279 287.658 243.175 289.928 243.175C291.928 243.175 293.366 241.8 293.553 239.571H291.845C291.595 241.092 291.095 241.592 289.97 241.592C288.491 241.592 287.783 240.55 287.783 238.571C287.783 236.487 288.47 235.404 289.928 235.404C291.053 235.404 291.553 235.883 291.762 237.237H293.449L293.428 237.05Z" fill="black"/>
<path d="M324.93 17.6748V18.5706L325.305 18.4456C324.785 17.6956 324.097 17.2998 323.305 17.2998C321.785 17.2998 320.514 18.904 320.514 20.9248C320.514 21.9665 320.826 22.8831 321.368 23.5081C321.826 24.0706 322.576 24.404 323.243 24.404C323.993 24.404 324.68 24.029 325.201 23.2373L324.847 23.0915V23.4248C324.847 25.1123 324.597 25.5498 323.347 25.5498C322.493 25.5498 322.243 25.3831 322.139 24.4873H320.701C320.805 25.8415 321.951 26.7581 323.326 26.7581C324.243 26.7581 325.16 26.404 325.555 25.904C326.035 25.2998 326.285 24.404 326.285 22.9248V17.4873H324.93V17.6748ZM323.41 18.5915C324.451 18.5915 324.847 19.2998 324.847 20.8831C324.847 22.4248 324.451 23.1331 323.41 23.1331C322.368 23.1331 321.972 22.404 321.972 20.8623C321.972 19.3206 322.368 18.5915 323.41 18.5915Z" fill="black"/>
<path d="M327.582 17.6748V24.1331H329.019V20.6956C329.019 19.1748 329.457 18.6748 331.04 18.7373V17.3623C330.665 17.3206 330.561 17.2998 330.436 17.2998C329.79 17.2998 329.144 17.7373 328.582 18.6748L328.936 18.7998V17.4873H327.582V17.6748Z" fill="black"/>
<path d="M332.765 17.4874H331.557V24.1332H332.973V17.4874H332.765ZM332.765 15.0291H331.557V16.6541H332.973V15.0291H332.765Z" fill="black"/>
<path d="M334.262 17.6748V24.1331H335.679V20.4873C335.679 19.1956 336.158 18.5498 337.179 18.5498C337.992 18.5498 338.262 18.8415 338.262 19.5915V24.1331H339.679V19.1956C339.679 18.154 338.7 17.2998 337.492 17.2998C336.554 17.2998 335.804 17.7165 335.242 18.5915L335.596 18.7165V17.4873H334.262V17.6748Z" fill="black"/>
<path d="M346.247 15.0291H345.039V18.4666L345.393 18.3207C344.976 17.6957 344.164 17.2999 343.33 17.2999C341.684 17.2999 340.414 18.7999 340.414 20.7999C340.414 22.9249 341.664 24.4041 343.351 24.4041C344.226 24.4041 344.955 24.0291 345.497 23.2582L345.143 23.1332V24.1332H346.455V15.0291H346.247ZM343.497 18.5916C344.559 18.5916 345.039 19.3624 345.039 20.8832C345.039 22.3416 344.559 23.1124 343.497 23.1124C342.393 23.1124 341.872 22.3207 341.872 20.8624C341.872 19.3832 342.393 18.5916 343.497 18.5916Z" fill="black"/>
<path d="M350.942 15.1957V24.1332H352.359V20.4874C352.359 19.1957 352.817 18.5499 353.859 18.5499C354.192 18.5499 354.359 18.5916 354.588 18.7791C354.88 18.9874 354.942 19.1541 354.942 19.5916V24.1332H356.359V19.1957C356.359 18.1541 355.401 17.2999 354.172 17.2999C353.276 17.2999 352.588 17.6332 352.005 18.4041L352.359 18.5291V15.0291H350.942V15.1957Z" fill="black"/>
<path d="M363.344 21.154C363.344 20.1748 363.281 19.6123 363.094 19.1331C362.698 18.1123 361.531 17.2998 360.344 17.2998C358.594 17.2998 357.26 18.8206 357.26 20.8831C357.26 22.9665 358.552 24.404 360.323 24.404C361.76 24.404 362.969 23.404 363.26 21.8623H361.844C361.51 22.8831 361.156 23.1331 360.364 23.1331C359.719 23.1331 359.323 22.8831 358.989 22.3623C358.76 21.9873 358.739 21.779 358.719 21.3206H363.344V21.154ZM358.739 20.3206C358.823 19.1748 359.323 18.5915 360.344 18.5915C361.364 18.5915 361.844 19.1956 361.844 20.154H358.76L358.739 20.3206Z" fill="black"/>
<path d="M364.266 17.6748V24.1331H365.703V20.6956C365.703 19.1748 366.141 18.6748 367.724 18.7373V17.3623C367.349 17.3206 367.245 17.2998 367.12 17.2998C366.474 17.2998 365.828 17.7373 365.266 18.6748L365.62 18.7998V17.4873H364.266V17.6748Z" fill="black"/>
<path d="M374.012 21.154C374.012 20.1748 373.949 19.6123 373.762 19.1331C373.366 18.1123 372.199 17.2998 371.012 17.2998C369.262 17.2998 367.928 18.8206 367.928 20.8831C367.928 22.9665 369.22 24.404 370.991 24.404C372.428 24.404 373.637 23.404 373.928 21.8623H372.512C372.178 22.8831 371.824 23.1331 371.032 23.1331C370.387 23.1331 369.991 22.8831 369.657 22.3623C369.428 21.9873 369.407 21.779 369.387 21.3206H374.012V21.154ZM369.407 20.3206C369.491 19.1748 369.991 18.5915 371.012 18.5915C372.032 18.5915 372.512 19.1956 372.512 20.154H369.428L369.407 20.3206Z" fill="black"/>
<path d="M315.417 21.4688H287.859L233.193 51.2449" stroke="black" stroke-width="0.666667"/>
</svg>
