<svg width="528" height="189" viewBox="0 0 528 189" fill="none" xmlns="http://www.w3.org/2000/svg">
<rect width="528" height="189" fill="white"/>
<path d="M45.1354 61.7917L38.4844 48.125L32.1823 61.7917V69.125H174.635V61.7917L167.984 48.125L161.682 61.7917" stroke="black" stroke-width="1.33333"/>
<path d="M45.1354 61.7917L51.4323 48.125L58.0833 61.7917" stroke="black" stroke-width="1.33333"/>
<path d="M58.0833 61.7917L64.3802 48.125L71.0313 61.7917" stroke="black" stroke-width="1.33333"/>
<path d="M71.0312 61.7917L77.3333 48.125L83.9844 61.7917" stroke="black" stroke-width="1.33333"/>
<path d="M83.9844 61.7917L90.2813 48.125L96.9323 61.7917" stroke="black" stroke-width="1.33333"/>
<path d="M96.9323 61.7917L103.234 48.125L109.88 61.7917" stroke="black" stroke-width="1.33333"/>
<path d="M109.88 61.7917L116.182 48.125L122.833 61.7917" stroke="black" stroke-width="1.33333"/>
<path d="M122.833 61.7917L129.135 48.125L135.786 61.7917" stroke="black" stroke-width="1.33333"/>
<path d="M135.786 61.7917L142.083 48.125L148.734 61.7917" stroke="black" stroke-width="1.33333"/>
<path d="M148.734 61.7917L155.031 48.125L161.682 61.7917" stroke="black" stroke-width="1.33333"/>
<path d="M364.771 61.7917V69.125H507.219V61.7917" stroke="black" stroke-width="1.33333"/>
<path d="M199.135 61.7917V69.125H341.583V61.7917" stroke="black" stroke-width="1.33333"/>
<path d="M270.359 61.7917L267.031 54.9583L263.885 61.7917" stroke="black" stroke-width="1.33333"/>
<path d="M205.609 61.7917L202.286 54.9583L199.135 61.7917" stroke="black" stroke-width="1.33333"/>
<path d="M205.609 61.7917L208.76 54.9583L212.083 61.7917" stroke="black" stroke-width="1.33333"/>
<path d="M212.083 61.7917L215.234 54.9583L218.557 61.7917" stroke="black" stroke-width="1.33333"/>
<path d="M218.557 61.7917L221.708 54.9583L225.031 61.7917" stroke="black" stroke-width="1.33333"/>
<path d="M225.031 61.7917L228.182 54.9583L231.51 61.7917" stroke="black" stroke-width="1.33333"/>
<path d="M231.51 61.7917L234.656 54.9583L237.984 61.7917" stroke="black" stroke-width="1.33333"/>
<path d="M237.984 61.7917L241.135 54.9583L244.458 61.7917" stroke="black" stroke-width="1.33333"/>
<path d="M244.458 61.7917L247.609 54.9583L250.932 61.7917" stroke="black" stroke-width="1.33333"/>
<path d="M250.932 61.7917L254.083 54.9583L257.406 61.7917" stroke="black" stroke-width="1.33333"/>
<path d="M257.406 61.7917L260.557 54.9583L263.885 61.7917" stroke="black" stroke-width="1.33333"/>
<path d="M341.583 61.7917L338.26 54.9583L335.109 61.7917" stroke="black" stroke-width="1.33333"/>
<path d="M276.833 61.7917L273.51 54.9583L270.359 61.7917" stroke="black" stroke-width="1.33333"/>
<path d="M276.833 61.7917L279.984 54.9583L283.307 61.7917" stroke="black" stroke-width="1.33333"/>
<path d="M283.307 61.7917L286.458 54.9583L289.786 61.7917" stroke="black" stroke-width="1.33333"/>
<path d="M289.786 61.7917L292.932 54.9583L296.26 61.7917" stroke="black" stroke-width="1.33333"/>
<path d="M296.26 61.7917L299.406 54.9583L302.734 61.7917" stroke="black" stroke-width="1.33333"/>
<path d="M302.734 61.7917L305.885 54.9583L309.208 61.7917" stroke="black" stroke-width="1.33333"/>
<path d="M309.208 61.7917L312.359 54.9583L315.682 61.7917" stroke="black" stroke-width="1.33333"/>
<path d="M315.682 61.7917L318.833 54.9583L322.156 61.7917" stroke="black" stroke-width="1.33333"/>
<path d="M322.156 61.7917L325.307 54.9583L328.635 61.7917" stroke="black" stroke-width="1.33333"/>
<path d="M328.635 61.7917L331.786 54.9583L335.109 61.7917" stroke="black" stroke-width="1.33333"/>
<path d="M400.385 61.7917L398.719 58.375L397.146 61.7917" stroke="black" stroke-width="1.33333"/>
<path d="M368.01 61.7917L366.349 58.375L364.771 61.7917" stroke="black" stroke-width="1.33333"/>
<path d="M368.01 61.7917L369.583 58.375L371.245 61.7917" stroke="black" stroke-width="1.33333"/>
<path d="M371.245 61.7917L372.823 58.375L374.484 61.7917" stroke="black" stroke-width="1.33333"/>
<path d="M374.484 61.7917L376.057 58.375L377.719 61.7917" stroke="black" stroke-width="1.33333"/>
<path d="M377.719 61.7917L379.297 58.375L380.958 61.7917" stroke="black" stroke-width="1.33333"/>
<path d="M380.958 61.7917L382.531 58.375L384.198 61.7917" stroke="black" stroke-width="1.33333"/>
<path d="M384.198 61.7917L385.771 58.375L387.432 61.7917" stroke="black" stroke-width="1.33333"/>
<path d="M387.432 61.7917L389.01 58.375L390.672 61.7917" stroke="black" stroke-width="1.33333"/>
<path d="M390.672 61.7917L392.245 58.375L393.911 61.7917" stroke="black" stroke-width="1.33333"/>
<path d="M393.911 61.7917L395.484 58.375L397.146 61.7917" stroke="black" stroke-width="1.33333"/>
<path d="M435.995 61.7917L434.333 58.375L432.76 61.7917" stroke="black" stroke-width="1.33333"/>
<path d="M403.62 61.7917L401.958 58.375L400.385 61.7917" stroke="black" stroke-width="1.33333"/>
<path d="M403.62 61.7917L405.198 58.375L406.859 61.7917" stroke="black" stroke-width="1.33333"/>
<path d="M406.859 61.7917L408.432 58.375L410.094 61.7917" stroke="black" stroke-width="1.33333"/>
<path d="M410.094 61.7917L411.672 58.375L413.333 61.7917" stroke="black" stroke-width="1.33333"/>
<path d="M413.333 61.7917L414.911 58.375L416.573 61.7917" stroke="black" stroke-width="1.33333"/>
<path d="M416.573 61.7917L418.146 58.375L419.807 61.7917" stroke="black" stroke-width="1.33333"/>
<path d="M419.807 61.7917L421.385 58.375L423.047 61.7917" stroke="black" stroke-width="1.33333"/>
<path d="M423.047 61.7917L424.62 58.375L426.286 61.7917" stroke="black" stroke-width="1.33333"/>
<path d="M426.286 61.7917L427.859 58.375L429.521 61.7917" stroke="black" stroke-width="1.33333"/>
<path d="M429.521 61.7917L431.094 58.375L432.76 61.7917" stroke="black" stroke-width="1.33333"/>
<path d="M471.609 61.7917L469.948 58.375L468.37 61.7917" stroke="black" stroke-width="1.33333"/>
<path d="M439.234 61.7917L437.573 58.375L435.995 61.7917" stroke="black" stroke-width="1.33333"/>
<path d="M439.234 61.7917L440.807 58.375L442.474 61.7917" stroke="black" stroke-width="1.33333"/>
<path d="M442.474 61.7917L444.047 58.375L445.708 61.7917" stroke="black" stroke-width="1.33333"/>
<path d="M445.708 61.7917L447.286 58.375L448.948 61.7917" stroke="black" stroke-width="1.33333"/>
<path d="M448.948 61.7917L450.521 58.375L452.182 61.7917" stroke="black" stroke-width="1.33333"/>
<path d="M452.182 61.7917L453.76 58.375L455.422 61.7917" stroke="black" stroke-width="1.33333"/>
<path d="M455.422 61.7917L456.995 58.375L458.656 61.7917" stroke="black" stroke-width="1.33333"/>
<path d="M458.656 61.7917L460.234 58.375L461.896 61.7917" stroke="black" stroke-width="1.33333"/>
<path d="M461.896 61.7917L463.474 58.375L465.135 61.7917" stroke="black" stroke-width="1.33333"/>
<path d="M465.135 61.7917L466.708 58.375L468.37 61.7917" stroke="black" stroke-width="1.33333"/>
<path d="M507.219 61.7917L505.563 58.375L503.984 61.7917" stroke="black" stroke-width="1.33333"/>
<path d="M474.849 61.7917L473.182 58.375L471.609 61.7917" stroke="black" stroke-width="1.33333"/>
<path d="M474.849 61.7917L476.422 58.375L478.083 61.7917" stroke="black" stroke-width="1.33333"/>
<path d="M478.083 61.7917L479.661 58.375L481.323 61.7917" stroke="black" stroke-width="1.33333"/>
<path d="M481.323 61.7917L482.896 58.375L484.563 61.7917" stroke="black" stroke-width="1.33333"/>
<path d="M484.562 61.7917L486.135 58.375L487.797 61.7917" stroke="black" stroke-width="1.33333"/>
<path d="M487.797 61.7917L489.37 58.375L491.036 61.7917" stroke="black" stroke-width="1.33333"/>
<path d="M491.036 61.7917L492.609 58.375L494.271 61.7917" stroke="black" stroke-width="1.33333"/>
<path d="M494.271 61.7917L495.849 58.375L497.51 61.7917" stroke="black" stroke-width="1.33333"/>
<path d="M497.51 61.7917L499.083 58.375L500.745 61.7917" stroke="black" stroke-width="1.33333"/>
<path d="M500.745 61.7917L502.323 58.375L503.984 61.7917" stroke="black" stroke-width="1.33333"/>
<path d="M45.1354 144.682L38.4844 131.016L32.1823 144.682V152.016H174.635V144.682L167.984 131.016L161.682 144.682" stroke="black" stroke-width="1.33333"/>
<path d="M45.1354 144.682L51.4323 131.016L58.0833 144.682" stroke="black" stroke-width="1.33333"/>
<path d="M58.0833 144.682L64.3802 131.016L71.0313 144.682" stroke="black" stroke-width="1.33333"/>
<path d="M71.0312 144.682L77.3333 131.016L83.9844 144.682" stroke="black" stroke-width="1.33333"/>
<path d="M83.9844 144.682L90.2813 131.016L96.9323 144.682" stroke="black" stroke-width="1.33333"/>
<path d="M96.9323 144.682L103.234 131.016L109.88 144.682" stroke="black" stroke-width="1.33333"/>
<path d="M109.88 144.682L116.182 131.016L122.833 144.682" stroke="black" stroke-width="1.33333"/>
<path d="M122.833 144.682L129.135 131.016L135.786 144.682" stroke="black" stroke-width="1.33333"/>
<path d="M135.786 144.682L142.083 131.016L148.734 144.682" stroke="black" stroke-width="1.33333"/>
<path d="M148.734 144.682L155.031 131.016L161.682 144.682" stroke="black" stroke-width="1.33333"/>
<path d="M377.719 144.682L374.083 137.208" stroke="black" stroke-width="1.33333"/>
<path d="M368.182 137.286L364.771 144.682V152.016H507.219V144.682" stroke="black" stroke-width="1.33333"/>
<path d="M371.068 136.562L369.755 133.87L368.182 137.286" stroke="black" stroke-width="1.33333"/>
<path d="M371.12 136.62L372.422 133.792L374.083 137.208" stroke="black" stroke-width="1.33333"/>
<path d="M390.672 144.682L387.036 137.208" stroke="black" stroke-width="1.33333"/>
<path d="M381.13 137.286L377.719 144.682" stroke="black" stroke-width="1.33333"/>
<path d="M384.016 136.562L382.708 133.87L381.13 137.286" stroke="black" stroke-width="1.33333"/>
<path d="M384.068 136.62L385.37 133.792L387.036 137.208" stroke="black" stroke-width="1.33333"/>
<path d="M403.62 144.682L399.984 137.208" stroke="black" stroke-width="1.33333"/>
<path d="M394.083 137.286L390.672 144.682" stroke="black" stroke-width="1.33333"/>
<path d="M396.969 136.562L395.656 133.87L394.083 137.286" stroke="black" stroke-width="1.33333"/>
<path d="M397.021 136.62L398.323 133.792L399.984 137.208" stroke="black" stroke-width="1.33333"/>
<path d="M416.573 144.682L412.932 137.208" stroke="black" stroke-width="1.33333"/>
<path d="M407.031 137.286L403.62 144.682" stroke="black" stroke-width="1.33333"/>
<path d="M409.917 136.562L408.604 133.87L407.031 137.286" stroke="black" stroke-width="1.33333"/>
<path d="M409.969 136.62L411.271 133.792L412.932 137.208" stroke="black" stroke-width="1.33333"/>
<path d="M429.521 144.682L425.885 137.208" stroke="black" stroke-width="1.33333"/>
<path d="M419.979 137.286L416.573 144.682" stroke="black" stroke-width="1.33333"/>
<path d="M422.865 136.562L421.557 133.87L419.979 137.286" stroke="black" stroke-width="1.33333"/>
<path d="M422.917 136.62L424.219 133.792L425.885 137.208" stroke="black" stroke-width="1.33333"/>
<path d="M442.474 144.682L438.833 137.208" stroke="black" stroke-width="1.33333"/>
<path d="M432.932 137.286L429.521 144.682" stroke="black" stroke-width="1.33333"/>
<path d="M435.818 136.562L434.505 133.87L432.932 137.286" stroke="black" stroke-width="1.33333"/>
<path d="M435.87 136.62L437.172 133.792L438.833 137.208" stroke="black" stroke-width="1.33333"/>
<path d="M455.422 144.682L451.786 137.208" stroke="black" stroke-width="1.33333"/>
<path d="M445.88 137.286L442.474 144.682" stroke="black" stroke-width="1.33333"/>
<path d="M448.766 136.562L447.458 133.87L445.88 137.286" stroke="black" stroke-width="1.33333"/>
<path d="M448.818 136.62L450.12 133.792L451.786 137.208" stroke="black" stroke-width="1.33333"/>
<path d="M468.37 144.682L464.734 137.208" stroke="black" stroke-width="1.33333"/>
<path d="M458.828 137.286L455.422 144.682" stroke="black" stroke-width="1.33333"/>
<path d="M461.719 136.562L460.406 133.87L458.828 137.286" stroke="black" stroke-width="1.33333"/>
<path d="M461.771 136.62L463.073 133.792L464.734 137.208" stroke="black" stroke-width="1.33333"/>
<path d="M481.323 144.682L477.688 137.208" stroke="black" stroke-width="1.33333"/>
<path d="M471.781 137.286L468.37 144.682" stroke="black" stroke-width="1.33333"/>
<path d="M474.667 136.562L473.354 133.87L471.781 137.286" stroke="black" stroke-width="1.33333"/>
<path d="M474.719 136.62L476.021 133.792L477.688 137.208" stroke="black" stroke-width="1.33333"/>
<path d="M494.271 144.682L490.635 137.208" stroke="black" stroke-width="1.33333"/>
<path d="M484.729 137.286L481.323 144.682" stroke="black" stroke-width="1.33333"/>
<path d="M487.62 136.562L486.307 133.87L484.729 137.286" stroke="black" stroke-width="1.33333"/>
<path d="M487.672 136.62L488.974 133.792L490.635 137.208" stroke="black" stroke-width="1.33333"/>
<path d="M507.219 144.682L503.583 137.208" stroke="black" stroke-width="1.33333"/>
<path d="M497.682 137.286L494.271 144.682" stroke="black" stroke-width="1.33333"/>
<path d="M500.568 136.562L499.255 133.87L497.682 137.286" stroke="black" stroke-width="1.33333"/>
<path d="M500.62 136.62L501.922 133.792L503.583 137.208" stroke="black" stroke-width="1.33333"/>
<path d="M33.141 80.1194V88.6819H34.9327V84.161C34.9535 82.1402 35.641 81.411 37.766 81.4735V79.7652C37.3285 79.7235 37.2035 79.7027 37.0368 79.7027C36.1202 79.7027 35.2868 80.2652 34.4743 81.5152L34.8285 81.6402V79.9527H33.141V80.1194Z" fill="black"/>
<path d="M40.2979 79.9527H38.6937V88.6819H40.4854V79.9527H40.2979ZM40.2979 76.661H38.6937V78.7027H40.4854V76.661H40.2979Z" fill="black"/>
<path d="M48.09 80.1194V81.3277L48.4233 81.2027C47.715 80.2027 46.8192 79.7027 45.6942 79.7027C43.5692 79.7027 41.9025 81.7652 41.9025 84.4527C41.9025 85.8694 42.2983 87.0152 43.0483 87.8694C43.715 88.5985 44.6942 89.0569 45.6108 89.0569C46.6525 89.0569 47.5483 88.5569 48.2983 87.4944L47.965 87.3694V87.8069C47.965 90.036 47.5067 90.7027 45.7567 90.7027C44.5692 90.7027 44.1317 90.4319 43.965 89.286H42.1525C42.3192 91.0152 43.7983 92.161 45.715 92.161C47.0067 92.161 48.215 91.7235 48.7983 91.0569C49.465 90.2652 49.7775 89.0985 49.7775 87.1402V79.9527H48.09V80.1194ZM45.84 81.286C47.3192 81.286 47.965 82.3069 47.965 84.4319C47.965 86.4527 47.2983 87.4735 45.84 87.4735C44.4025 87.4735 43.7358 86.4319 43.7358 84.3694C43.7358 82.3277 44.4025 81.286 45.84 81.286Z" fill="black"/>
<path d="M51.8266 76.8485V88.6819H53.5975V83.8902C53.5975 82.161 54.3475 81.2235 55.8058 81.2235C56.2641 81.2235 56.5558 81.3069 56.8891 81.536C57.3058 81.8277 57.41 82.0985 57.41 82.7027V88.6819H59.2016V82.161C59.2016 80.7652 57.9516 79.7027 56.2433 79.7027C54.9933 79.7027 54.0975 80.1194 53.2641 81.1402L53.5975 81.2652V76.661H51.8266V76.8485Z" fill="black"/>
<path d="M64.4591 79.9527H63.1883V77.6402H61.4174V79.9527H60.2299V81.3902H61.4174V87.536C61.4174 88.411 62.23 89.0569 63.3133 89.0569C63.6883 89.0569 63.98 89.0152 64.6466 88.911V87.411C64.2508 87.5152 64.0633 87.536 63.7716 87.536C63.1675 87.536 63.1883 87.536 63.1883 86.9527V81.3902H64.6466V79.9527H64.4591Z" fill="black"/>
<path d="M79.0082 88.5152L81.654 79.9527H79.6957L77.8832 86.6402H78.279L76.4874 79.9527H74.5082L72.779 86.6402H73.154L71.2999 79.9527H69.3832L72.029 88.6819H73.904L75.6332 81.9319H75.2582L77.0915 88.6819H78.9665L79.0082 88.5152Z" fill="black"/>
<path d="M90.6378 87.536C90.492 87.5777 90.4295 87.5777 90.3462 87.5777C89.8462 87.5777 89.7628 87.5152 89.7628 87.0985V82.161C89.7628 80.6819 88.4503 79.7027 86.2837 79.7027C84.992 79.7027 83.8045 80.0985 83.2003 80.7235C82.8045 81.161 82.5753 81.7652 82.5545 82.786H84.3253C84.4712 81.5777 84.9087 81.286 86.2212 81.286C87.492 81.286 87.992 81.5569 87.992 82.3694V82.7235C87.9712 83.286 87.867 83.3277 86.7212 83.4735C84.742 83.7027 84.4503 83.7652 83.9087 83.9735C82.8878 84.3902 82.1587 85.3069 82.1587 86.3902C82.1587 87.911 83.4712 89.0569 85.242 89.0569C86.367 89.0569 87.3878 88.6402 88.0962 88.036C88.1378 88.5152 88.7837 89.0569 89.6795 89.0569C89.992 89.0569 90.1795 89.0152 90.8253 88.8694V87.4944L90.6378 87.536ZM87.992 85.8694C87.992 86.3069 87.9087 86.4527 87.492 86.8277C86.9087 87.3277 86.367 87.536 85.5545 87.536C84.4712 87.536 84.0128 87.2027 84.0128 86.3694C84.0128 85.4735 84.4295 85.2027 85.9503 84.9944C87.4295 84.8069 87.7212 84.7444 87.992 84.6402V85.8694Z" fill="black"/>
<path d="M97.312 80.1194L94.8745 86.6402H95.2703L92.937 79.9527H91.062L94.1036 88.536L93.562 89.8694C93.3328 90.4527 93.2286 90.5152 92.6453 90.5152C92.4161 90.5152 92.2078 90.4735 91.7078 90.3694V91.8902C92.0411 92.0569 92.4786 92.161 92.8536 92.161C93.2911 92.161 93.9161 91.9735 94.2911 91.7235C94.7286 91.411 95.0203 90.9319 95.2911 90.2652L99.2703 79.9527H97.3745L97.312 80.1194Z" fill="black"/>
<path d="M178.875 13.7035C178.667 13.7452 178.563 13.7452 178.458 13.7452C177.771 13.7452 177.646 13.6827 177.646 13.266V8.3285C177.646 6.84933 175.792 5.87016 172.75 5.87016C170.958 5.87016 169.313 6.266 168.458 6.891C167.896 7.3285 167.583 7.93266 167.542 8.9535H170.042C170.229 7.74516 170.854 7.4535 172.688 7.4535C174.479 7.4535 175.167 7.72433 175.167 8.53683V8.891C175.146 9.4535 175 9.49516 173.396 9.641C170.625 9.87016 170.188 9.93266 169.438 10.141C168 10.5577 167 11.4743 167 12.5577C167 14.0785 168.833 15.2243 171.333 15.2243C172.875 15.2243 174.313 14.8077 175.292 14.2035C175.375 14.6827 176.271 15.2243 177.542 15.2243C177.958 15.2243 178.208 15.1827 179.125 15.0368V13.6618L178.875 13.7035ZM175.167 12.0368C175.167 12.4743 175.042 12.6202 174.458 12.9952C173.646 13.4952 172.896 13.7035 171.75 13.7035C170.229 13.7035 169.583 13.3702 169.583 12.5368C169.583 11.641 170.167 11.3702 172.292 11.1618C174.375 10.9743 174.792 10.9118 175.167 10.8077V12.0368Z" fill="black"/>
<path d="M180.348 3.01599V14.8493H182.66V13.5993L182.181 13.7243C183.14 14.7035 184.598 15.2243 186.306 15.2243C189.556 15.2243 191.931 13.2243 191.931 10.4535C191.931 7.72432 189.681 5.87016 186.41 5.87016C184.702 5.87016 183.306 6.34932 182.39 7.30766L182.848 7.43266V2.82849H180.348V3.01599ZM186.035 7.47432C188.223 7.47432 189.348 8.59932 189.348 10.5993C189.348 12.4952 188.16 13.6202 186.035 13.6202C183.931 13.6202 182.848 12.516 182.848 10.5368C182.848 8.57849 183.931 7.47432 186.035 7.47432Z" fill="black"/>
<path d="M193.779 6.28683V14.8493H196.3V10.3285C196.321 8.30766 197.3 7.5785 200.258 7.641V5.93266C199.675 5.891 199.488 5.87016 199.238 5.87016C197.967 5.87016 196.8 6.43266 195.675 7.68266L196.133 7.80766V6.12016H193.779V6.28683Z" fill="black"/>
<path d="M212.861 13.7035C212.653 13.7452 212.549 13.7452 212.445 13.7452C211.757 13.7452 211.632 13.6827 211.632 13.266V8.3285C211.632 6.84933 209.778 5.87016 206.736 5.87016C204.945 5.87016 203.299 6.266 202.445 6.891C201.882 7.3285 201.57 7.93266 201.528 8.9535H204.028C204.216 7.74516 204.841 7.4535 206.674 7.4535C208.466 7.4535 209.153 7.72433 209.153 8.53683V8.891C209.132 9.4535 208.986 9.49516 207.382 9.641C204.611 9.87016 204.174 9.93266 203.424 10.141C201.986 10.5577 200.986 11.4743 200.986 12.5577C200.986 14.0785 202.82 15.2243 205.32 15.2243C206.861 15.2243 208.299 14.8077 209.278 14.2035C209.361 14.6827 210.257 15.2243 211.528 15.2243C211.945 15.2243 212.195 15.1827 213.111 15.0368V13.6618L212.861 13.7035ZM209.153 12.0368C209.153 12.4743 209.028 12.6202 208.445 12.9952C207.632 13.4952 206.882 13.7035 205.736 13.7035C204.216 13.7035 203.57 13.3702 203.57 12.5368C203.57 11.641 204.153 11.3702 206.278 11.1618C208.361 10.9743 208.778 10.9118 209.153 10.8077V12.0368Z" fill="black"/>
<path d="M223.918 8.62016C223.897 6.97433 222.043 5.87016 219.189 5.87016C216.314 5.87016 214.189 7.05766 214.189 8.59933C214.189 9.91183 215.439 10.7243 218.355 11.2035L220.209 11.4952C221.564 11.7243 221.814 11.891 221.814 12.4743C221.814 13.2868 220.959 13.641 219.23 13.641C218.168 13.641 217.48 13.4743 216.98 13.1202C216.668 12.891 216.605 12.766 216.439 11.9952H213.876C213.959 14.1202 215.855 15.2243 219.064 15.2243C222.168 15.2243 224.418 13.9952 224.418 12.391C224.418 11.141 223.126 10.266 220.668 9.87016L218.793 9.5785C217.189 9.30766 216.772 9.141 216.772 8.53683C216.772 7.766 217.522 7.4535 219.126 7.4535C220.689 7.4535 221.251 7.74516 221.314 8.80766H223.918V8.62016Z" fill="black"/>
<path d="M228.636 6.12016H226.407V14.8493H228.907V6.12016H228.636ZM228.636 2.82849H226.386V4.87016H228.907V2.82849H228.636Z" fill="black"/>
<path d="M237.295 14.6827L242.128 6.12016H239.378L235.795 13.0993H236.337L232.941 6.12016H230.191L234.712 14.8493H237.212L237.295 14.6827Z" fill="black"/>
<path d="M254.43 10.9327C254.43 9.641 254.284 8.891 253.93 8.266C253.117 6.891 250.992 5.87016 248.68 5.87016C245.242 5.87016 242.763 7.8285 242.763 10.5993C242.763 13.3702 245.159 15.2243 248.638 15.2243C251.451 15.2243 253.659 13.9535 254.201 11.9535H251.742C251.097 13.2243 250.284 13.641 248.701 13.641C247.451 13.641 246.597 13.3077 245.93 12.5993C245.451 12.1202 245.367 11.766 245.347 11.0993H254.43V10.9327ZM245.388 9.84933C245.555 8.28683 246.68 7.4535 248.659 7.4535C250.659 7.4535 251.763 8.3285 251.763 9.66183H245.409L245.388 9.84933Z" fill="black"/>
<path d="M262.983 18.3285H265.212V13.7868L264.754 13.9118C265.775 14.7868 267.15 15.2243 268.754 15.2243C271.941 15.2243 274.275 13.3077 274.275 10.6202C274.275 7.80766 271.983 5.87016 268.712 5.87016C267.046 5.87016 265.504 6.43266 264.587 7.43266L265.046 7.55766V6.12016H262.691V18.3285H262.983ZM268.4 7.47433C270.566 7.47433 271.691 8.59933 271.691 10.5993C271.691 12.4952 270.525 13.6202 268.4 13.6202C266.296 13.6202 265.212 12.516 265.212 10.5368C265.212 8.5785 266.296 7.47433 268.4 7.47433Z" fill="black"/>
<path d="M276.123 6.28683V14.8493H278.644V10.3285C278.664 8.30766 279.644 7.5785 282.602 7.641V5.93266C282.019 5.891 281.831 5.87016 281.581 5.87016C280.31 5.87016 279.144 6.43266 278.019 7.68266L278.477 7.80766V6.12016H276.123V6.28683Z" fill="black"/>
<path d="M289.017 5.87016C285.538 5.87016 283.184 7.72433 283.184 10.5368C283.184 13.3702 285.538 15.2243 289.038 15.2243C292.517 15.2243 294.872 13.3702 294.872 10.5993C294.872 7.7035 292.601 5.87016 289.017 5.87016ZM289.038 7.4535C291.247 7.4535 292.288 8.516 292.288 10.5993C292.288 12.5785 291.205 13.641 289.038 13.641C286.851 13.641 285.767 12.5785 285.767 10.5368C285.767 8.516 286.851 7.4535 289.038 7.4535Z" fill="black"/>
<path d="M304.928 6.28683V7.49516L305.386 7.37016C304.407 6.37016 303.136 5.87016 301.574 5.87016C298.595 5.87016 296.24 7.93266 296.24 10.6202C296.24 12.0368 296.803 13.1827 297.865 14.0368C298.782 14.766 300.178 15.2243 301.428 15.2243C302.928 15.2243 304.157 14.7243 305.199 13.6618L304.74 13.5368V13.9743C304.74 16.2035 304.095 16.8702 301.657 16.8702C299.97 16.8702 299.365 16.5993 299.136 15.4535H296.615C296.824 17.1827 298.928 18.3285 301.595 18.3285C303.407 18.3285 305.115 17.891 305.907 17.2243C306.845 16.4327 307.261 15.266 307.261 13.3077V6.12016H304.928V6.28683ZM301.761 7.4535C303.845 7.4535 304.74 8.47433 304.74 10.5993C304.74 12.6202 303.824 13.641 301.761 13.641C299.74 13.641 298.824 12.5993 298.824 10.5368C298.824 8.49516 299.74 7.4535 301.761 7.4535Z" fill="black"/>
<path d="M310.109 6.28683V14.8493H312.63V10.3285C312.651 8.30766 313.63 7.5785 316.588 7.641V5.93266C316.005 5.891 315.818 5.87016 315.568 5.87016C314.297 5.87016 313.13 6.43266 312.005 7.68266L312.463 7.80766V6.12016H310.109V6.28683Z" fill="black"/>
<path d="M328.941 10.9327C328.941 9.641 328.795 8.891 328.441 8.266C327.629 6.891 325.504 5.87016 323.191 5.87016C319.754 5.87016 317.275 7.8285 317.275 10.5993C317.275 13.3702 319.67 15.2243 323.15 15.2243C325.962 15.2243 328.17 13.9535 328.712 11.9535H326.254C325.608 13.2243 324.795 13.641 323.212 13.641C321.962 13.641 321.108 13.3077 320.441 12.5993C319.962 12.1202 319.879 11.766 319.858 11.0993H328.941V10.9327ZM319.9 9.84933C320.066 8.28683 321.191 7.4535 323.17 7.4535C325.17 7.4535 326.275 8.3285 326.275 9.66183H319.92L319.9 9.84933Z" fill="black"/>
<path d="M340.248 8.62016C340.227 6.97433 338.373 5.87016 335.518 5.87016C332.643 5.87016 330.518 7.05766 330.518 8.59933C330.518 9.91183 331.768 10.7243 334.685 11.2035L336.539 11.4952C337.893 11.7243 338.143 11.891 338.143 12.4743C338.143 13.2868 337.289 13.641 335.56 13.641C334.498 13.641 333.81 13.4743 333.31 13.1202C332.998 12.891 332.935 12.766 332.768 11.9952H330.206C330.289 14.1202 332.185 15.2243 335.393 15.2243C338.498 15.2243 340.748 13.9952 340.748 12.391C340.748 11.141 339.456 10.266 336.998 9.87016L335.123 9.5785C333.518 9.30766 333.102 9.141 333.102 8.53683C333.102 7.766 333.852 7.4535 335.456 7.4535C337.018 7.4535 337.581 7.74516 337.643 8.80766H340.248V8.62016Z" fill="black"/>
<path d="M352.008 8.62016C351.987 6.97433 350.133 5.87016 347.278 5.87016C344.403 5.87016 342.278 7.05766 342.278 8.59933C342.278 9.91183 343.528 10.7243 346.445 11.2035L348.299 11.4952C349.653 11.7243 349.903 11.891 349.903 12.4743C349.903 13.2868 349.049 13.641 347.32 13.641C346.258 13.641 345.57 13.4743 345.07 13.1202C344.758 12.891 344.695 12.766 344.528 11.9952H341.966C342.049 14.1202 343.945 15.2243 347.153 15.2243C350.258 15.2243 352.508 13.9952 352.508 12.391C352.508 11.141 351.216 10.266 348.758 9.87016L346.883 9.5785C345.278 9.30766 344.862 9.141 344.862 8.53683C344.862 7.766 345.612 7.4535 347.216 7.4535C348.778 7.4535 349.341 7.74516 349.403 8.80766H352.008V8.62016Z" fill="black"/>
<path d="M356.726 6.12016H354.497V14.8493H356.997V6.12016H356.726ZM356.726 2.82849H354.476V4.87016H356.997V2.82849H356.726Z" fill="black"/>
<path d="M364.822 5.87016C361.343 5.87016 358.989 7.72433 358.989 10.5368C358.989 13.3702 361.343 15.2243 364.843 15.2243C368.322 15.2243 370.677 13.3702 370.677 10.5993C370.677 7.7035 368.406 5.87016 364.822 5.87016ZM364.843 7.4535C367.052 7.4535 368.093 8.516 368.093 10.5993C368.093 12.5785 367.01 13.641 364.843 13.641C362.656 13.641 361.572 12.5785 361.572 10.5368C361.572 8.516 362.656 7.4535 364.843 7.4535Z" fill="black"/>
<path d="M372.858 6.28683V14.8493H375.379V10.0577C375.379 8.3285 376.441 7.391 378.462 7.391C380.025 7.391 380.733 7.84933 380.733 8.87016V14.8493H383.212V8.3285C383.212 6.9535 381.42 5.87016 379.045 5.87016C377.212 5.87016 375.837 6.391 374.754 7.5785L375.212 7.7035V6.12016H372.858V6.28683Z" fill="black"/>
<mask id="mask0_544_297" style="mask-type:luminance" maskUnits="userSpaceOnUse" x="31" y="160" width="82" height="14">
<path d="M31.3333 160H112.667V173.292H31.3333V160Z" fill="white"/>
</mask>
<g mask="url(#mask0_544_297)">
<path d="M41.6618 169.127L44.3077 160.564H42.3493L40.5368 167.252H40.9327L39.141 160.564H37.1618L35.4327 167.252H35.8077L33.9535 160.564H32.0368L34.6827 169.293H36.5577L38.2868 162.543H37.9118L39.7452 169.293H41.6202L41.6618 169.127Z" fill="black"/>
<path d="M45.2706 160.731V169.293H47.0623V164.773C47.0831 162.752 47.7706 162.023 49.8956 162.085V160.377C49.4581 160.335 49.3331 160.314 49.1664 160.314C48.2498 160.314 47.4164 160.877 46.6039 162.127L46.9581 162.252V160.564H45.2706V160.731Z" fill="black"/>
<path d="M54.4692 160.314C51.99 160.314 50.3025 162.168 50.3025 164.981C50.3025 167.814 51.99 169.668 54.49 169.668C56.9692 169.668 58.6567 167.814 58.6567 165.043C58.6567 162.148 57.0317 160.314 54.4692 160.314ZM54.49 161.898C56.0733 161.898 56.8025 162.96 56.8025 165.043C56.8025 167.023 56.0317 168.085 54.49 168.085C52.9275 168.085 52.1567 167.023 52.1567 164.981C52.1567 162.96 52.9275 161.898 54.49 161.898Z" fill="black"/>
<path d="M60.2267 160.731V169.293H62.0183V164.502C62.0183 162.773 62.7683 161.835 64.2267 161.835C65.3308 161.835 65.8308 162.293 65.8308 163.314V169.293H67.6017V162.773C67.6017 161.398 66.3308 160.314 64.6433 160.314C63.3308 160.314 62.3308 160.835 61.56 162.023L61.8933 162.148V160.564H60.2267V160.731Z" fill="black"/>
<path d="M75.1716 160.731V161.939L75.5049 161.814C74.7966 160.814 73.9008 160.314 72.7758 160.314C70.6508 160.314 68.9841 162.377 68.9841 165.064C68.9841 166.481 69.3799 167.627 70.1299 168.481C70.7966 169.21 71.7758 169.668 72.6924 169.668C73.7341 169.668 74.6299 169.168 75.3799 168.106L75.0466 167.981V168.418C75.0466 170.648 74.5883 171.314 72.8383 171.314C71.6508 171.314 71.2133 171.043 71.0466 169.898H69.2341C69.4008 171.627 70.8799 172.773 72.7966 172.773C74.0883 172.773 75.2966 172.335 75.8799 171.668C76.5466 170.877 76.8591 169.71 76.8591 167.752V160.564H75.1716V160.731ZM72.9216 161.898C74.4008 161.898 75.0466 162.918 75.0466 165.043C75.0466 167.064 74.3799 168.085 72.9216 168.085C71.4841 168.085 70.8174 167.043 70.8174 164.981C70.8174 162.939 71.4841 161.898 72.9216 161.898Z" fill="black"/>
<path d="M92.0786 169.127L94.7244 160.564H92.7661L90.9536 167.252H91.3494L89.5578 160.564H87.5786L85.8494 167.252H86.2244L84.3703 160.564H82.4536L85.0994 169.293H86.9744L88.7036 162.543H88.3286L90.1619 169.293H92.0369L92.0786 169.127Z" fill="black"/>
<path d="M103.708 168.148C103.562 168.189 103.5 168.189 103.417 168.189C102.917 168.189 102.833 168.127 102.833 167.71V162.773C102.833 161.293 101.521 160.314 99.3541 160.314C98.0624 160.314 96.8749 160.71 96.2708 161.335C95.8749 161.773 95.6458 162.377 95.6249 163.398H97.3958C97.5416 162.189 97.9791 161.898 99.2916 161.898C100.562 161.898 101.062 162.168 101.062 162.981V163.335C101.042 163.898 100.937 163.939 99.7916 164.085C97.8124 164.314 97.5208 164.377 96.9791 164.585C95.9583 165.002 95.2291 165.918 95.2291 167.002C95.2291 168.523 96.5416 169.668 98.3124 169.668C99.4374 169.668 100.458 169.252 101.167 168.648C101.208 169.127 101.854 169.668 102.75 169.668C103.062 169.668 103.25 169.627 103.896 169.481V168.106L103.708 168.148ZM101.062 166.481C101.062 166.918 100.979 167.064 100.562 167.439C99.9791 167.939 99.4374 168.148 98.6249 168.148C97.5416 168.148 97.0833 167.814 97.0833 166.981C97.0833 166.085 97.4999 165.814 99.0208 165.606C100.5 165.418 100.792 165.356 101.062 165.252V166.481Z" fill="black"/>
<path d="M110.382 160.731L107.945 167.252H108.341L106.007 160.564H104.132L107.174 169.148L106.632 170.481C106.403 171.064 106.299 171.127 105.716 171.127C105.487 171.127 105.278 171.085 104.778 170.981V172.502C105.112 172.668 105.549 172.773 105.924 172.773C106.362 172.773 106.987 172.585 107.362 172.335C107.799 172.023 108.091 171.543 108.362 170.877L112.341 160.564H110.445L110.382 160.731Z" fill="black"/>
</g>
<path d="M244.945 138.724C243.258 140.807 242.154 143.849 242.154 146.369C242.154 148.89 243.258 151.932 244.987 154.078H246.362C244.674 151.474 243.904 148.932 243.904 146.369C243.904 143.828 244.674 141.244 246.362 138.661H244.987L244.945 138.724Z" fill="black"/>
<path d="M254.269 144.453C254.248 142.807 252.915 141.703 250.894 141.703C248.852 141.703 247.31 142.89 247.31 144.432C247.31 145.744 248.227 146.557 250.31 147.036L251.623 147.328C252.581 147.557 252.769 147.724 252.769 148.307C252.769 149.119 252.144 149.474 250.915 149.474C250.165 149.474 249.665 149.307 249.31 148.953C249.102 148.724 249.04 148.599 248.935 147.828H247.102C247.165 149.953 248.498 151.057 250.81 151.057C253.019 151.057 254.623 149.828 254.623 148.224C254.623 146.974 253.685 146.099 251.956 145.703L250.602 145.411C249.456 145.14 249.165 144.974 249.165 144.369C249.165 143.599 249.706 143.286 250.831 143.286C251.956 143.286 252.373 143.578 252.394 144.64H254.269V144.453Z" fill="black"/>
<path d="M257.502 138.661H255.898V150.682H257.69V147.328L258.815 146.244L261.731 150.682H263.898L260.19 145.057L263.148 142.244L263.023 141.953H261.148L257.335 145.536L257.69 145.682V138.661H257.502Z" fill="black"/>
<path d="M266.048 141.953H264.444V150.682H266.235V141.953H266.048ZM266.048 138.661H264.444V140.703H266.235V138.661H266.048Z" fill="black"/>
<path d="M268.173 154.161H269.757V149.619L269.423 149.744C270.153 150.619 271.132 151.057 272.278 151.057C274.569 151.057 276.215 149.14 276.215 146.453C276.215 143.64 274.59 141.703 272.257 141.703C271.069 141.703 269.965 142.265 269.298 143.265L269.632 143.39V141.953H267.965V154.161H268.173ZM272.028 143.307C273.569 143.307 274.382 144.432 274.382 146.432C274.382 148.328 273.548 149.453 272.028 149.453C270.528 149.453 269.757 148.349 269.757 146.369C269.757 144.411 270.528 143.307 272.028 143.307Z" fill="black"/>
<path d="M278.285 154.036C279.972 151.932 281.077 148.89 281.077 146.369C281.077 143.849 279.972 140.807 278.243 138.661H276.889C278.556 141.265 279.327 143.828 279.327 146.369C279.327 148.932 278.556 151.494 276.889 154.078H278.243L278.285 154.036Z" fill="black"/>
<path d="M407 8L515 8V39" stroke="black" stroke-width="1.33333"/>
<path d="M155 8H13V39" stroke="black" stroke-width="1.33333"/>
</svg>
