<svg width="458" height="101" viewBox="0 0 458 101" fill="none" xmlns="http://www.w3.org/2000/svg">
<g clip-path="url(#clip0_545_529)">
<rect width="458" height="101" fill="white"/>
<path d="M440.443 18.1354V41.6875H261.333V18.1354H440.443Z" fill="black"/>
<path d="M440.443 18.1354V41.6875H261.333V18.1354H440.443Z" stroke="black" stroke-width="1.33333"/>
<path d="M9 24.4792V41.6875H188.083V24.4792" stroke="black" stroke-width="1.33333"/>
<path d="M178.667 30.4115L175.432 15.5052C170.891 11.2083 167.292 15.5052 167.292 15.5052L162.385 28.8021" stroke="black" stroke-width="1.33333"/>
<path d="M178.667 28.8021L183.573 15.5052L188.193 25.0833" stroke="black" stroke-width="1.33333"/>
<path d="M17.1927 28.3542L12.9583 16.2135L9 24.4792" stroke="black" stroke-width="1.33333"/>
<path d="M17.1927 28.3542L21.099 16.2135L25.3333 28.3542" stroke="black" stroke-width="1.33333"/>
<path d="M25.3333 28.3542L29.2396 16.2135L33.474 28.3542" stroke="black" stroke-width="1.33333"/>
<path d="M33.474 28.3542L37.3802 16.2135L41.7761 32.8021" stroke="black" stroke-width="1.33333"/>
<path d="M41.776 32.8021L45.5208 16.2135L49.6979 24.4792" stroke="black" stroke-width="1.33333"/>
<path d="M49.6979 24.4792L53.6614 16.2135L57.8385 24.4792" stroke="black" stroke-width="1.33333"/>
<path d="M16.1875 55.0151C16.1667 53.3693 14.8958 52.2651 12.9583 52.2651C11.0208 52.2651 9.56249 53.4526 9.56249 54.9943C9.56249 56.3068 10.4167 57.1193 12.4167 57.5984L13.6458 57.8901C14.5833 58.1193 14.75 58.2859 14.75 58.8693C14.75 59.6818 14.1667 60.0359 13 60.0359C12.2708 60.0359 11.7917 59.8693 11.4583 59.5151C11.25 59.2859 11.2083 59.1609 11.1042 58.3901H9.35416C9.41666 60.5151 10.6875 61.6193 12.8958 61.6193C15 61.6193 16.5208 60.3901 16.5208 58.7859C16.5208 57.5359 15.6458 56.6609 13.9792 56.2651L12.6875 55.9734C11.6042 55.7026 11.3125 55.5359 11.3125 54.9318C11.3125 54.1609 11.8333 53.8484 12.9167 53.8484C14 53.8484 14.375 54.1401 14.4167 55.2026H16.1875V55.0151Z" fill="black"/>
<path d="M19.3958 52.5151H17.875V61.2443H19.5833V52.5151H19.3958ZM19.3958 49.2234H17.8542V51.2651H19.5833V49.2234H19.3958Z" fill="black"/>
<path d="M28.4687 49.2234H26.9478V53.7443L27.2812 53.6193C26.7187 52.7651 25.6978 52.2651 24.5728 52.2651C22.3853 52.2651 20.7812 54.1818 20.7812 56.8693C20.7812 59.7026 22.3437 61.6193 24.6145 61.6193C25.7603 61.6193 26.6978 61.1401 27.4062 60.0984L27.0937 59.9734V61.2443H28.6562V49.2234H28.4687ZM24.802 53.8693C26.2395 53.8693 26.9478 54.9526 26.9478 56.9734C26.9478 58.9109 26.2187 60.0151 24.802 60.0151C23.3437 60.0151 22.5312 58.8901 22.5312 56.9318C22.5312 54.9943 23.3437 53.8693 24.802 53.8693Z" fill="black"/>
<path d="M37.823 57.3276C37.823 56.0359 37.7397 55.2859 37.4897 54.6609C36.948 53.2859 35.4897 52.2651 33.9272 52.2651C31.5938 52.2651 29.9063 54.2234 29.9063 56.9943C29.9063 59.7651 31.5313 61.6193 33.9063 61.6193C35.823 61.6193 37.323 60.3484 37.698 58.3484H36.0105C35.573 59.6193 35.0105 60.0359 33.948 60.0359C33.0938 60.0359 32.5105 59.7026 32.0522 58.9943C31.7397 58.5151 31.6772 58.1609 31.6563 57.4943H37.823V57.3276ZM31.698 56.2443C31.8022 54.6818 32.573 53.8484 33.9063 53.8484C35.2813 53.8484 36.0313 54.7234 36.0313 56.0568H31.698V56.2443Z" fill="black"/>
<path d="M47.5212 61.0776L50.8128 52.5151H48.9378L46.5003 59.4943H46.8753L44.5628 52.5151H42.6878L45.7712 61.2443H47.4587L47.5212 61.0776Z" fill="black"/>
<path d="M53.1878 52.5151H51.667V61.2443H53.3753V52.5151H53.1878ZM53.1878 49.2234H51.6461V51.2651H53.3753V49.2234H53.1878Z" fill="black"/>
<path d="M62.719 57.3276C62.719 56.0359 62.6357 55.2859 62.3857 54.6609C61.844 53.2859 60.3857 52.2651 58.8232 52.2651C56.4898 52.2651 54.8023 54.2234 54.8023 56.9943C54.8023 59.7651 56.4273 61.6193 58.8023 61.6193C60.719 61.6193 62.219 60.3484 62.594 58.3484H60.9065C60.469 59.6193 59.9065 60.0359 58.844 60.0359C57.9898 60.0359 57.4065 59.7026 56.9482 58.9943C56.6357 58.5151 56.5732 58.1609 56.5523 57.4943H62.719V57.3276ZM56.594 56.2443C56.6982 54.6818 57.469 53.8484 58.8023 53.8484C60.1773 53.8484 60.9273 54.7234 60.9273 56.0568H56.594V56.2443Z" fill="black"/>
<path d="M72.2816 61.0776L74.7816 52.5151H72.9275L71.1983 59.2026H71.5733L69.8858 52.5151H67.9691L66.3233 59.2026H66.6983L64.9275 52.5151H63.0941L65.615 61.2443H67.4066L69.0733 54.4943H68.6983L70.4483 61.2443H72.24L72.2816 61.0776Z" fill="black"/>
<path d="M78.2087 59.2234H76.3545V61.2443H78.3962V59.2234H78.2087ZM78.2087 52.5151H76.3545V54.5151H78.3962V52.5151H78.2087Z" fill="black"/>
<path d="M9.91666 72.0151V80.5776H11.625V76.0568C11.6458 74.0359 12.2917 73.3068 14.3125 73.3693V71.6609C13.9167 71.6193 13.7917 71.5984 13.625 71.5984C12.75 71.5984 11.9583 72.1609 11.1875 73.4109L11.5208 73.5359V71.8484H9.91666V72.0151Z" fill="black"/>
<path d="M22.8905 79.4318C22.7447 79.4734 22.6822 79.4734 22.5988 79.4734C22.1405 79.4734 22.0572 79.4109 22.0572 78.9943V74.0568C22.0572 72.5776 20.7863 71.5984 18.7238 71.5984C17.4947 71.5984 16.3697 71.9943 15.8072 72.6193C15.4113 73.0568 15.203 73.6609 15.1822 74.6818H16.8697C16.9947 73.4734 17.4322 73.1818 18.6822 73.1818C19.8905 73.1818 20.3697 73.4526 20.3697 74.2651V74.6193C20.3488 75.1818 20.2447 75.2234 19.1613 75.3693C17.2655 75.5984 16.9738 75.6609 16.4738 75.8693C15.4947 76.2859 14.8072 77.2026 14.8072 78.2859C14.8072 79.8068 16.0572 80.9526 17.7447 80.9526C18.8072 80.9526 19.7863 80.5359 20.453 79.9318C20.4947 80.4109 21.1197 80.9526 21.9738 80.9526C22.2655 80.9526 22.4322 80.9109 23.0572 80.7651V79.3901L22.8905 79.4318ZM20.3697 77.7651C20.3697 78.2026 20.2863 78.3484 19.8697 78.7234C19.328 79.2234 18.828 79.4318 18.0363 79.4318C16.9947 79.4318 16.578 79.0984 16.578 78.2651C16.578 77.3693 16.9738 77.0984 18.4113 76.8901C19.828 76.7026 20.0988 76.6401 20.3697 76.5359V77.7651Z" fill="black"/>
<path d="M32.2657 80.4109L34.7657 71.8484H32.9115L31.1823 78.5359H31.5573L29.8698 71.8484H27.9532L26.3073 78.5359H26.6823L24.9115 71.8484H23.0782L25.599 80.5776H27.3907L29.0573 73.8276H28.6823L30.4323 80.5776H32.224L32.2657 80.4109Z" fill="black"/>
<path d="M46.4115 74.3484C46.3907 72.7026 45.1198 71.5984 43.1823 71.5984C41.2448 71.5984 39.7865 72.7859 39.7865 74.3276C39.7865 75.6401 40.6407 76.4526 42.6407 76.9318L43.8698 77.2234C44.8073 77.4526 44.974 77.6193 44.974 78.2026C44.974 79.0151 44.3907 79.3693 43.224 79.3693C42.4948 79.3693 42.0157 79.2026 41.6823 78.8484C41.474 78.6193 41.4323 78.4943 41.3282 77.7234H39.5782C39.6407 79.8484 40.9115 80.9526 43.1198 80.9526C45.224 80.9526 46.7448 79.7234 46.7448 78.1193C46.7448 76.8693 45.8698 75.9943 44.2032 75.5984L42.9115 75.3068C41.8282 75.0359 41.5365 74.8693 41.5365 74.2651C41.5365 73.4943 42.0573 73.1818 43.1407 73.1818C44.224 73.1818 44.599 73.4734 44.6407 74.5359H46.4115V74.3484Z" fill="black"/>
<path d="M55.1198 80.4109V71.8484H53.4115V76.7651C53.4115 78.4734 52.7032 79.4318 51.3282 79.4318C50.2657 79.4318 49.7657 78.9526 49.7657 77.9526V71.8484H48.0782V78.4734C48.0782 79.8693 49.3073 80.9526 50.9323 80.9526C52.1615 80.9526 53.0782 80.4734 53.8698 79.3693L53.5365 79.2234V80.5776H55.1198V80.4109Z" fill="black"/>
<path d="M57.0367 72.0151V80.5776H58.745V76.0568C58.7658 74.0359 59.4117 73.3068 61.4325 73.3693V71.6609C61.0367 71.6193 60.9117 71.5984 60.745 71.5984C59.87 71.5984 59.0783 72.1609 58.3075 73.4109L58.6408 73.5359V71.8484H57.0367V72.0151Z" fill="black"/>
<path d="M65.573 71.8484H64.3647V70.7026C64.3647 70.1401 64.4897 70.0359 65.1147 70.0359C65.2188 70.0359 65.2813 70.0359 65.7605 70.0568V68.6193C65.2813 68.5359 65.0938 68.5151 64.823 68.5151C63.5938 68.5151 62.6563 69.3901 62.6563 70.5984V71.8484H61.5522V73.2859H62.6563V80.5776H64.3647V73.2859H65.7605V71.8484H65.573Z" fill="black"/>
<path d="M74.4585 79.4318C74.3127 79.4734 74.2502 79.4734 74.1668 79.4734C73.7085 79.4734 73.6252 79.4109 73.6252 78.9943V74.0568C73.6252 72.5776 72.3543 71.5984 70.2918 71.5984C69.0627 71.5984 67.9377 71.9943 67.3752 72.6193C66.9793 73.0568 66.771 73.6609 66.7502 74.6818H68.4377C68.5627 73.4734 69.0002 73.1818 70.2502 73.1818C71.4585 73.1818 71.9377 73.4526 71.9377 74.2651V74.6193C71.9168 75.1818 71.8127 75.2234 70.7293 75.3693C68.8335 75.5984 68.5418 75.6609 68.0418 75.8693C67.0627 76.2859 66.3752 77.2026 66.3752 78.2859C66.3752 79.8068 67.6252 80.9526 69.3127 80.9526C70.3752 80.9526 71.3543 80.5359 72.021 79.9318C72.0627 80.4109 72.6877 80.9526 73.5418 80.9526C73.8335 80.9526 74.0002 80.9109 74.6252 80.7651V79.3901L74.4585 79.4318ZM71.9377 77.7651C71.9377 78.2026 71.8543 78.3484 71.4377 78.7234C70.896 79.2234 70.396 79.4318 69.6043 79.4318C68.5627 79.4318 68.146 79.0984 68.146 78.2651C68.146 77.3693 68.5418 77.0984 69.9793 76.8901C71.396 76.7026 71.6668 76.6401 71.9377 76.5359V77.7651Z" fill="black"/>
<path d="M82.5003 74.8276C82.4378 74.0151 82.2087 73.3693 81.8962 72.8901C81.3128 72.1193 80.1878 71.5984 79.0212 71.5984C76.7503 71.5984 75.1045 73.5776 75.1045 76.3484C75.1045 79.0568 76.7295 80.9526 79.0003 80.9526C81.0003 80.9526 82.4378 79.5776 82.6253 77.3484H80.917C80.667 78.8693 80.167 79.3693 79.042 79.3693C77.5628 79.3693 76.8545 78.3276 76.8545 76.3484C76.8545 74.2651 77.542 73.1818 79.0003 73.1818C80.1253 73.1818 80.6253 73.6609 80.8337 75.0151H82.5212L82.5003 74.8276Z" fill="black"/>
<path d="M91.167 76.6609C91.167 75.3693 91.0837 74.6193 90.8337 73.9943C90.292 72.6193 88.8337 71.5984 87.2712 71.5984C84.9378 71.5984 83.2503 73.5568 83.2503 76.3276C83.2503 79.0984 84.8753 80.9526 87.2503 80.9526C89.167 80.9526 90.667 79.6818 91.042 77.6818H89.3545C88.917 78.9526 88.3545 79.3693 87.292 79.3693C86.4378 79.3693 85.8545 79.0359 85.3962 78.3276C85.0837 77.8484 85.0212 77.4943 85.0003 76.8276H91.167V76.6609ZM85.042 75.5776C85.1462 74.0151 85.917 73.1818 87.2503 73.1818C88.6253 73.1818 89.3753 74.0568 89.3753 75.3901H85.042V75.5776Z" fill="black"/>
<path d="M268.521 55.0151C268.5 53.3693 267.229 52.2651 265.292 52.2651C263.354 52.2651 261.896 53.4526 261.896 54.9943C261.896 56.3068 262.75 57.1193 264.75 57.5984L265.979 57.8901C266.917 58.1193 267.083 58.2859 267.083 58.8693C267.083 59.6818 266.5 60.0359 265.333 60.0359C264.604 60.0359 264.125 59.8693 263.792 59.5151C263.583 59.2859 263.542 59.1609 263.438 58.3901H261.688C261.75 60.5151 263.021 61.6193 265.229 61.6193C267.333 61.6193 268.854 60.3901 268.854 58.7859C268.854 57.5359 267.979 56.6609 266.313 56.2651L265.021 55.9734C263.938 55.7026 263.646 55.5359 263.646 54.9318C263.646 54.1609 264.167 53.8484 265.25 53.8484C266.333 53.8484 266.708 54.1401 266.75 55.2026H268.521V55.0151Z" fill="black"/>
<path d="M271.729 52.5151H270.208V61.2443H271.917V52.5151H271.729ZM271.729 49.2234H270.188V51.2651H271.917V49.2234H271.729Z" fill="black"/>
<path d="M280.802 49.2234H279.281V53.7443L279.615 53.6193C279.052 52.7651 278.031 52.2651 276.906 52.2651C274.719 52.2651 273.115 54.1818 273.115 56.8693C273.115 59.7026 274.677 61.6193 276.948 61.6193C278.094 61.6193 279.031 61.1401 279.74 60.0984L279.427 59.9734V61.2443H280.99V49.2234H280.802ZM277.135 53.8693C278.573 53.8693 279.281 54.9526 279.281 56.9734C279.281 58.9109 278.552 60.0151 277.135 60.0151C275.677 60.0151 274.865 58.8901 274.865 56.9318C274.865 54.9943 275.677 53.8693 277.135 53.8693Z" fill="black"/>
<path d="M290.156 57.3276C290.156 56.0359 290.073 55.2859 289.823 54.6609C289.281 53.2859 287.823 52.2651 286.261 52.2651C283.927 52.2651 282.24 54.2234 282.24 56.9943C282.24 59.7651 283.865 61.6193 286.24 61.6193C288.156 61.6193 289.656 60.3484 290.031 58.3484H288.344C287.906 59.6193 287.344 60.0359 286.281 60.0359C285.427 60.0359 284.844 59.7026 284.386 58.9943C284.073 58.5151 284.011 58.1609 283.99 57.4943H290.156V57.3276ZM284.031 56.2443C284.136 54.6818 284.906 53.8484 286.24 53.8484C287.615 53.8484 288.365 54.7234 288.365 56.0568H284.031V56.2443Z" fill="black"/>
<path d="M299.855 61.0776L303.146 52.5151H301.271L298.834 59.4943H299.209L296.896 52.5151H295.021L298.105 61.2443H299.792L299.855 61.0776Z" fill="black"/>
<path d="M305.521 52.5151H304V61.2443H305.709V52.5151H305.521ZM305.521 49.2234H303.979V51.2651H305.709V49.2234H305.521Z" fill="black"/>
<path d="M315.052 57.3276C315.052 56.0359 314.969 55.2859 314.719 54.6609C314.177 53.2859 312.719 52.2651 311.157 52.2651C308.823 52.2651 307.136 54.2234 307.136 56.9943C307.136 59.7651 308.761 61.6193 311.136 61.6193C313.052 61.6193 314.552 60.3484 314.927 58.3484H313.24C312.802 59.6193 312.24 60.0359 311.177 60.0359C310.323 60.0359 309.74 59.7026 309.282 58.9943C308.969 58.5151 308.907 58.1609 308.886 57.4943H315.052V57.3276ZM308.927 56.2443C309.032 54.6818 309.802 53.8484 311.136 53.8484C312.511 53.8484 313.261 54.7234 313.261 56.0568H308.927V56.2443Z" fill="black"/>
<path d="M324.615 61.0776L327.115 52.5151H325.261L323.532 59.2026H323.907L322.219 52.5151H320.302L318.657 59.2026H319.032L317.261 52.5151H315.427L317.948 61.2443H319.74L321.407 54.4943H321.032L322.782 61.2443H324.573L324.615 61.0776Z" fill="black"/>
<path d="M330.542 59.2234H328.688V61.2443H330.729V59.2234H330.542ZM330.542 52.5151H328.688V54.5151H330.729V52.5151H330.542Z" fill="black"/>
<path d="M262.188 84.0568H263.708V79.5151L263.396 79.6401C264.104 80.5151 265.021 80.9526 266.125 80.9526C268.292 80.9526 269.875 79.0359 269.875 76.3484C269.875 73.5359 268.333 71.5984 266.104 71.5984C264.958 71.5984 263.917 72.1609 263.292 73.1609L263.604 73.2859V71.8484H262V84.0568H262.188ZM265.875 73.2026C267.354 73.2026 268.125 74.3276 268.125 76.3276C268.125 78.2234 267.333 79.3484 265.875 79.3484C264.458 79.3484 263.708 78.2443 263.708 76.2651C263.708 74.3068 264.458 73.2026 265.875 73.2026Z" fill="black"/>
<path d="M271.146 72.0151V80.5776H272.854V76.0568C272.875 74.0359 273.521 73.3068 275.542 73.3693V71.6609C275.146 71.6193 275.021 71.5984 274.854 71.5984C273.979 71.5984 273.188 72.1609 272.417 73.4109L272.75 73.5359V71.8484H271.146V72.0151Z" fill="black"/>
<path d="M277.953 71.8484H276.432V80.5776H278.141V71.8484H277.953ZM277.953 68.5568H276.411V70.5984H278.141V68.5568H277.953Z" fill="black"/>
<path d="M280.047 72.0151V80.5776H281.755V75.1401C281.755 73.9318 282.463 73.1193 283.547 73.1193C284.526 73.1193 284.901 73.5568 284.901 74.6193V80.5776H286.609V75.1401C286.609 73.9318 287.318 73.1193 288.401 73.1193C289.38 73.1193 289.755 73.5776 289.755 74.6193V80.5776H291.484V74.1193C291.484 72.6193 290.443 71.5984 288.859 71.5984C287.755 71.5984 286.943 71.9943 286.318 72.7443C285.922 72.0359 285.13 71.5984 284.047 71.5984C282.922 71.5984 282.026 72.0568 281.318 73.0776L281.63 73.2026V71.8484H280.047V72.0151Z" fill="black"/>
<path d="M300.812 76.6609C300.812 75.3693 300.729 74.6193 300.479 73.9943C299.937 72.6193 298.479 71.5984 296.917 71.5984C294.583 71.5984 292.896 73.5568 292.896 76.3276C292.896 79.0984 294.521 80.9526 296.896 80.9526C298.812 80.9526 300.312 79.6818 300.687 77.6818H299C298.562 78.9526 298 79.3693 296.937 79.3693C296.083 79.3693 295.5 79.0359 295.042 78.3276C294.729 77.8484 294.667 77.4943 294.646 76.8276H300.812V76.6609ZM294.687 75.5776C294.792 74.0151 295.562 73.1818 296.896 73.1818C298.271 73.1818 299.021 74.0568 299.021 75.3901H294.687V75.5776Z" fill="black"/>
<path d="M302.25 72.0151V80.5776H303.958V76.0568C303.979 74.0359 304.625 73.3068 306.646 73.3693V71.6609C306.25 71.6193 306.125 71.5984 305.958 71.5984C305.083 71.5984 304.292 72.1609 303.521 73.4109L303.854 73.5359V71.8484H302.25V72.0151Z" fill="black"/>
<path d="M315.036 76.6609C315.036 75.3693 314.953 74.6193 314.703 73.9943C314.161 72.6193 312.703 71.5984 311.141 71.5984C308.807 71.5984 307.12 73.5568 307.12 76.3276C307.12 79.0984 308.745 80.9526 311.12 80.9526C313.036 80.9526 314.536 79.6818 314.911 77.6818H313.224C312.786 78.9526 312.224 79.3693 311.161 79.3693C310.307 79.3693 309.724 79.0359 309.266 78.3276C308.953 77.8484 308.891 77.4943 308.87 76.8276H315.036V76.6609ZM308.911 75.5776C309.016 74.0151 309.786 73.1818 311.12 73.1818C312.495 73.1818 313.245 74.0568 313.245 75.3901H308.911V75.5776Z" fill="black"/>
<path d="M323.474 68.5568H321.953V73.0776L322.286 72.9526C321.724 72.0984 320.703 71.5984 319.578 71.5984C317.391 71.5984 315.786 73.5151 315.786 76.2026C315.786 79.0359 317.349 80.9526 319.62 80.9526C320.766 80.9526 321.703 80.4734 322.411 79.4318L322.099 79.3068V80.5776H323.661V68.5568H323.474ZM319.807 73.2026C321.245 73.2026 321.953 74.2859 321.953 76.3068C321.953 78.2443 321.224 79.3484 319.807 79.3484C318.349 79.3484 317.536 78.2234 317.536 76.2651C317.536 74.3276 318.349 73.2026 319.807 73.2026Z" fill="black"/>
<path d="M336.589 75.0568C336.61 75.6401 336.464 76.2651 336.256 76.6401L334.422 74.4109C335.964 73.5359 336.547 72.7234 336.547 71.5776C336.547 70.0984 335.276 68.8901 333.756 68.8901C332.235 68.8901 330.839 70.1609 330.839 71.5776C330.839 72.3276 331.172 73.0359 332.047 74.1193C330.172 75.2026 329.547 76.1193 329.547 77.5776C329.547 79.5151 331.047 80.9526 333.006 80.9526C333.818 80.9526 334.672 80.7026 335.256 80.3276C335.589 80.1193 335.86 79.8901 336.318 79.4318L337.256 80.5776H339.464L337.36 77.9734C337.86 77.2026 338.256 76.0151 338.256 74.8901H336.589V75.0568ZM333.589 73.3693C332.61 72.2651 332.526 72.1193 332.526 71.5568C332.526 70.7234 332.881 70.3484 333.714 70.3484C334.526 70.3484 334.922 70.7443 334.922 71.5359C334.922 72.2443 334.526 72.6193 333.485 73.2859L333.589 73.3693ZM335.443 78.0776C334.547 79.0359 334.006 79.3484 333.172 79.3484C332.026 79.3484 331.256 78.6193 331.256 77.4734C331.256 76.5776 331.693 76.0568 332.985 75.2443L335.36 78.2026L335.443 78.0776Z" fill="black"/>
<path d="M351.209 74.3484C351.188 72.7026 349.917 71.5984 347.98 71.5984C346.042 71.5984 344.584 72.7859 344.584 74.3276C344.584 75.6401 345.438 76.4526 347.438 76.9318L348.667 77.2234C349.605 77.4526 349.771 77.6193 349.771 78.2026C349.771 79.0151 349.188 79.3693 348.021 79.3693C347.292 79.3693 346.813 79.2026 346.48 78.8484C346.271 78.6193 346.23 78.4943 346.125 77.7234H344.375C344.438 79.8484 345.709 80.9526 347.917 80.9526C350.021 80.9526 351.542 79.7234 351.542 78.1193C351.542 76.8693 350.667 75.9943 349 75.5984L347.709 75.3068C346.625 75.0359 346.334 74.8693 346.334 74.2651C346.334 73.4943 346.855 73.1818 347.938 73.1818C349.021 73.1818 349.396 73.4734 349.438 74.5359H351.209V74.3484Z" fill="black"/>
<path d="M360.584 79.4318C360.438 79.4734 360.375 79.4734 360.292 79.4734C359.834 79.4734 359.75 79.4109 359.75 78.9943V74.0568C359.75 72.5776 358.48 71.5984 356.417 71.5984C355.188 71.5984 354.063 71.9943 353.5 72.6193C353.105 73.0568 352.896 73.6609 352.875 74.6818H354.563C354.688 73.4734 355.125 73.1818 356.375 73.1818C357.584 73.1818 358.063 73.4526 358.063 74.2651V74.6193C358.042 75.1818 357.938 75.2234 356.855 75.3693C354.959 75.5984 354.667 75.6609 354.167 75.8693C353.188 76.2859 352.5 77.2026 352.5 78.2859C352.5 79.8068 353.75 80.9526 355.438 80.9526C356.5 80.9526 357.48 80.5359 358.146 79.9318C358.188 80.4109 358.813 80.9526 359.667 80.9526C359.959 80.9526 360.125 80.9109 360.75 80.7651V79.3901L360.584 79.4318ZM358.063 77.7651C358.063 78.2026 357.98 78.3484 357.563 78.7234C357.021 79.2234 356.521 79.4318 355.73 79.4318C354.688 79.4318 354.271 79.0984 354.271 78.2651C354.271 77.3693 354.667 77.0984 356.105 76.8901C357.521 76.7026 357.792 76.6401 358.063 76.5359V77.7651Z" fill="black"/>
<path d="M361.855 72.0151V80.5776H363.563V75.7859C363.563 74.0568 364.271 73.1193 365.646 73.1193C366.709 73.1193 367.188 73.5776 367.188 74.5984V80.5776H368.876V74.0568C368.876 72.6818 367.667 71.5984 366.063 71.5984C364.813 71.5984 363.855 72.1193 363.126 73.3068L363.438 73.4318V71.8484H361.855V72.0151Z" fill="black"/>
<path d="M377.73 68.5568H376.209V73.0776L376.542 72.9526C375.98 72.0984 374.959 71.5984 373.834 71.5984C371.647 71.5984 370.042 73.5151 370.042 76.2026C370.042 79.0359 371.605 80.9526 373.876 80.9526C375.022 80.9526 375.959 80.4734 376.667 79.4318L376.355 79.3068V80.5776H377.917V68.5568H377.73ZM374.063 73.2026C375.501 73.2026 376.209 74.2859 376.209 76.3068C376.209 78.2443 375.48 79.3484 374.063 79.3484C372.605 79.3484 371.792 78.2234 371.792 76.2651C371.792 74.3276 372.605 73.2026 374.063 73.2026Z" fill="black"/>
<path d="M387.084 76.6609C387.084 75.3693 387.001 74.6193 386.751 73.9943C386.209 72.6193 384.751 71.5984 383.188 71.5984C380.855 71.5984 379.168 73.5568 379.168 76.3276C379.168 79.0984 380.793 80.9526 383.168 80.9526C385.084 80.9526 386.584 79.6818 386.959 77.6818H385.272C384.834 78.9526 384.272 79.3693 383.209 79.3693C382.355 79.3693 381.772 79.0359 381.313 78.3276C381.001 77.8484 380.938 77.4943 380.918 76.8276H387.084V76.6609ZM380.959 75.5776C381.063 74.0151 381.834 73.1818 383.168 73.1818C384.543 73.1818 385.293 74.0568 385.293 75.3901H380.959V75.5776Z" fill="black"/>
<path d="M395.522 68.5568H394.001V73.0776L394.334 72.9526C393.772 72.0984 392.751 71.5984 391.626 71.5984C389.439 71.5984 387.834 73.5151 387.834 76.2026C387.834 79.0359 389.397 80.9526 391.668 80.9526C392.814 80.9526 393.751 80.4734 394.459 79.4318L394.147 79.3068V80.5776H395.709V68.5568H395.522ZM391.855 73.2026C393.293 73.2026 394.001 74.2859 394.001 76.3068C394.001 78.2443 393.272 79.3484 391.855 79.3484C390.397 79.3484 389.584 78.2234 389.584 76.2651C389.584 74.3276 390.397 73.2026 391.855 73.2026Z" fill="black"/>
<path d="M57.8385 24.4792L61.8021 16.2135L79.5573 15.2031C79.5573 15.2031 85.3906 24.151 96.6667 24.8021C119.51 26.1094 122.078 16.8177 122.078 16.8177C122.078 16.8177 135.109 15.4687 141.776 15.4687C148.443 15.4687 147.583 22.1042 152 21.6354C156.417 21.1615 159.151 15.5052 159.151 15.5052L162.385 30.4115" stroke="black" stroke-width="1.33333"/>
<path d="M310.172 24.4792L314.135 16.2135L331.891 15.2031C331.891 15.2031 337.724 24.151 349 24.8021C371.844 26.1094 374.411 16.8177 374.411 16.8177C374.411 16.8177 387.443 15.4687 394.109 15.4687C400.776 15.4687 399.917 22.1042 404.333 21.6354C408.75 21.1615 411.484 15.5052 411.484 15.5052L414.719 30.4115V28.8021L419.625 15.5052C419.625 15.5052 423.224 11.2083 427.766 15.5052L431 30.4115V28.8021L435.906 15.5052L440.526 25.0833L440.417 24.4792V41.6875H261.333V25.6615L265.292 16.2135L269.526 28.3542L273.432 16.2135L277.667 28.3542L281.573 16.2135L285.807 28.3542L289.714 16.2135L294.109 32.8021L297.854 16.2135L302.031 24.4792L305.995 16.2135L310.172 24.4792Z" fill="white"/>
<mask id="mask0_545_529" style="mask-type:luminance" maskUnits="userSpaceOnUse" x="253" y="11" width="191" height="39">
<path d="M253.333 11H443.651V49.6667H253.333V11Z" fill="white"/>
</mask>
<g mask="url(#mask0_545_529)">
<path d="M310.172 24.4792L314.135 16.2135L331.891 15.2031C331.891 15.2031 337.724 24.151 349 24.8021C371.844 26.1094 374.411 16.8177 374.411 16.8177C374.411 16.8177 387.443 15.4687 394.109 15.4687C400.776 15.4687 399.917 22.1042 404.333 21.6354C408.75 21.1615 411.484 15.5052 411.484 15.5052L414.719 30.4115V28.8021L419.625 15.5052C419.625 15.5052 423.224 11.2083 427.766 15.5052L431 30.4115V28.8021L435.906 15.5052L440.526 25.0833L440.417 24.4792V41.6875H261.333V25.6615L265.292 16.2135L269.526 28.3542L273.432 16.2135L277.667 28.3542L281.573 16.2135L285.807 28.3542L289.714 16.2135L294.109 32.8021L297.854 16.2135L302.031 24.4792L305.995 16.2135L310.172 24.4792Z" stroke="black" stroke-width="1.33333"/>
</g>
<path d="M440.443 18.1354V10.9948H261.333V18.1354H440.443Z" fill="white"/>
<path d="M261.333 18.1354H440.443" stroke="black" stroke-width="1.33333"/>
</g>
<defs>
<clipPath id="clip0_545_529">
<rect width="458" height="101" fill="white"/>
</clipPath>
</defs>
</svg>
