<svg width="268" height="77" viewBox="0 0 268 77" fill="none" xmlns="http://www.w3.org/2000/svg">
<rect width="268" height="77" fill="white"/>
<mask id="mask0_552_3481" style="mask-type:luminance" maskUnits="userSpaceOnUse" x="57" y="11" width="63" height="63">
<path d="M57 11H119.641V73.6667H57V11Z" fill="white"/>
</mask>
<g mask="url(#mask0_552_3481)">
<path d="M70.3073 46.4896C74.0313 55.6771 83.0417 62.1562 93.5573 62.1562C107.411 62.1562 118.641 50.9271 118.641 37.0729C118.641 23.224 107.411 11.9948 93.5573 11.9948C79.7083 11.9948 68.4792 23.224 68.4792 37.0729" stroke="black" stroke-width="2"/>
</g>
<path d="M53.8958 53.5312V37.0729H70.349V53.5312H53.8958Z" stroke="black" stroke-width="2"/>
<mask id="mask1_552_3481" style="mask-type:luminance" maskUnits="userSpaceOnUse" x="62" y="28" width="58" height="41">
<path d="M62.3333 28.3333H119.641V68.3333H62.3333V28.3333Z" fill="white"/>
</mask>
<g mask="url(#mask1_552_3481)">
<path d="M118.641 37.0728C118.641 50.0155 106.5 60.5051 93.5573 60.5051C80.6198 60.5051 70.349 50.0155 70.349 37.0728" stroke="black" stroke-width="1.33333"/>
</g>
<path d="M48.0625 37.073H26.6302" stroke="black" stroke-width="0.666667"/>
<path d="M17.8542 32C17.1042 32 16.2708 32.3958 15.8542 32.9375C15.3333 33.6667 15 34.875 15 36.375C15 39.125 16.1458 40.7708 17.8542 40.7708C19.5417 40.7708 20.6875 39.125 20.6875 36.4583C20.6875 34.875 20.3542 33.6875 19.8333 32.9375C19.4167 32.375 18.6042 32 17.8542 32ZM17.8542 33.2917C18.9167 33.2917 19.2083 34.1667 19.2083 36.3542C19.2083 38.6667 18.9375 39.5417 17.8333 39.5417C16.7917 39.5417 16.5 38.625 16.5 36.3958C16.5 34.1667 16.7917 33.2917 17.8542 33.2917Z" fill="black"/>
<mask id="mask2_552_3481" style="mask-type:luminance" maskUnits="userSpaceOnUse" x="180" y="0" width="65" height="64">
<path d="M180.667 0H244.641V63.1719H180.667V0Z" fill="white"/>
</mask>
<g mask="url(#mask2_552_3481)">
<path d="M194.661 46.5104C198.385 55.6927 207.391 62.1719 217.911 62.1719C231.766 62.1719 242.99 50.9427 242.99 37.0937C242.99 23.2448 231.766 12.0156 217.911 12.0156C204.063 12.0156 192.833 23.2448 192.833 37.0937" stroke="black" stroke-width="2"/>
</g>
<mask id="mask3_552_3481" style="mask-type:luminance" maskUnits="userSpaceOnUse" x="166" y="25" width="42" height="39">
<path d="M166 25.3335H207.333V63.172H166V25.3335Z" fill="white"/>
</mask>
<g mask="url(#mask3_552_3481)">
<path d="M178.245 53.5471V43.318L194.703 37.094V53.5471H178.245Z" stroke="black" stroke-width="2"/>
</g>
<path d="M172.411 37.0938H150.984" stroke="black" stroke-width="0.666667"/>
<path d="M147.771 44.8382H144.914V41.6667H143.171V44.8382H140V46.4953H143.171V49.6667H144.914V46.4953H148.114V44.8382H147.771Z" fill="black"/>
<path d="M152.651 52.9429L173.333 45.146" stroke="black" stroke-width="0.666667"/>
<mask id="mask4_552_3481" style="mask-type:luminance" maskUnits="userSpaceOnUse" x="186" y="29" width="59" height="35">
<path d="M186 29.3335H244.641V63.172H186V29.3335Z" fill="white"/>
</mask>
<g mask="url(#mask4_552_3481)">
<path d="M194.703 37.0939C194.703 50.0314 204.974 60.521 217.911 60.521C230.854 60.521 242.99 50.0314 242.99 37.0939" stroke="black" stroke-width="1.33333"/>
</g>
<mask id="mask5_552_3481" style="mask-type:luminance" maskUnits="userSpaceOnUse" x="59" y="11" width="61" height="60">
<path d="M59.6667 11H119.641V71H59.6667V11Z" fill="white"/>
</mask>
<g mask="url(#mask5_552_3481)">
<path d="M84.7969 25.3594C81.2344 28.0312 78.9323 32.2812 78.9323 37.0729C78.9323 45.1562 85.4792 51.7031 93.5573 51.7031C99.6198 51.7031 104.818 48.0208 107.042 42.7708" stroke="black" stroke-width="3.33333"/>
</g>
<path d="M102.932 41.651L110.766 44.9635L108.505 39.3906L102.932 41.651Z" fill="black"/>
<mask id="mask6_552_3481" style="mask-type:luminance" maskUnits="userSpaceOnUse" x="183" y="6" width="62" height="58">
<path d="M183.333 6.66675H244.641V63.172H183.333V6.66675Z" fill="white"/>
</mask>
<g mask="url(#mask6_552_3481)">
<path d="M209.151 26.2656C205.589 28.9375 203.286 33.1927 203.286 37.9844C203.286 46.0625 209.833 52.6094 217.911 52.6094C223.974 52.6094 229.172 48.9271 231.391 43.6771" stroke="black" stroke-width="3.33333"/>
</g>
<path d="M227.286 42.5573L235.12 45.8698L232.859 40.2969L227.286 42.5573Z" fill="black"/>
</svg>
