<svg width="715" height="510" viewBox="0 0 715 510" fill="none" xmlns="http://www.w3.org/2000/svg">
<g clip-path="url(#clip0_550_2710)">
<rect width="715" height="510" fill="white"/>
<path d="M57.2812 89.0677H155.417" stroke="black" stroke-width="0.666667"/>
<path d="M155.417 89.0677L133.016 49.599H81.8125L57.2812 89.0677" stroke="black" stroke-width="1.33333"/>
<path d="M57.2812 89.0677V92.2656H155.729V89.0677" stroke="black" stroke-width="1.33333"/>
<path d="M94.2604 50.3073L79.6823 88.7969" stroke="black" stroke-width="0.666667"/>
<path d="M120.484 50.3073L134.88 88.7969" stroke="black" stroke-width="0.666667"/>
<path d="M79.4167 94.6667V121.333" stroke="black" stroke-width="0.666667"/>
<path d="M135.417 94.6667V121.333" stroke="black" stroke-width="0.666667"/>
<path d="M100.484 112.797H83.9479" stroke="black" stroke-width="0.666667"/>
<path d="M84.7917 111.573L80.1667 112.812L84.7917 114.052V111.573Z" fill="black"/>
<path d="M114.349 112.797H130.88" stroke="black" stroke-width="0.666667"/>
<path d="M130.036 111.573L134.661 112.812L130.036 114.052V111.573Z" fill="black"/>
<path d="M80.2135 179.776H133.281" stroke="black" stroke-width="0.666667"/>
<path d="M118.349 140.307H94.8802" stroke="black" stroke-width="1.33333"/>
<path d="M77.2812 182.979H136.214" stroke="black" stroke-width="1.33333"/>
<path d="M95.151 140.266V132.198H94.0833" stroke="black" stroke-width="1.33333" stroke-linecap="square"/>
<path d="M77.4792 185.375V215.245" stroke="black" stroke-width="0.666667"/>
<path d="M92.151 206.708H82.0156" stroke="black" stroke-width="0.666667"/>
<path d="M82.8594 205.484L78.2344 206.724L82.8594 207.964V205.484Z" fill="black"/>
<path d="M94.0833 132.333L77.5469 164.266V182.734" stroke="black" stroke-width="1.33333" stroke-linecap="square"/>
<path d="M95.4167 132.266L80.4792 164.333V179.531" stroke="black" stroke-width="0.666667" stroke-linecap="round"/>
<path d="M80.4792 164.266H77.5469" stroke="black" stroke-width="0.666667" stroke-linecap="round"/>
<path d="M118.615 140.266V132.198H119.682" stroke="black" stroke-width="1.33333" stroke-linecap="square"/>
<path d="M136.281 185.375V215.245" stroke="black" stroke-width="0.666667"/>
<path d="M121.615 206.708H131.75" stroke="black" stroke-width="0.666667"/>
<path d="M130.901 205.484L135.531 206.724L130.901 207.964V205.484Z" fill="black"/>
<path d="M119.682 132.333L136.214 164.266V182.734" stroke="black" stroke-width="1.33333" stroke-linecap="square"/>
<path d="M133.281 179.531V164.333L118.349 132.266" stroke="black" stroke-width="0.666667" stroke-linecap="round"/>
<path d="M133.281 164.266H136.214" stroke="black" stroke-width="0.666667" stroke-linecap="round"/>
<path d="M80.4792 179.464L94.8802 140" stroke="black" stroke-width="0.666667" stroke-linecap="square"/>
<path d="M133.016 179.198L118.349 140" stroke="black" stroke-width="0.666667" stroke-linecap="square"/>
<path d="M193.016 226.667V18.6666H18.349V226.667H193.016Z" stroke="black" stroke-width="1.33333"/>
<path d="M32.4114 40.2486H33.7031V36.4153L33.3698 36.5403C33.9531 37.2695 34.7656 37.6445 35.6614 37.6445C37.4739 37.6445 38.8489 36.0195 38.8489 33.7903C38.8489 31.4361 37.5156 29.7903 35.6614 29.7903C34.7031 29.7903 33.8073 30.2694 33.2864 31.0819L33.6198 31.2278V29.9778H32.2031V40.2486H32.4114ZM35.4739 31.1861C36.7031 31.1861 37.2864 32.0819 37.2864 33.7486C37.2864 35.3528 36.6823 36.2486 35.4739 36.2486C34.2864 36.2486 33.7031 35.3528 33.7031 33.7278C33.7031 32.0819 34.2864 31.1861 35.4739 31.1861Z" fill="black"/>
<path d="M39.8248 30.1653V37.332H41.3248V33.5403C41.3456 31.8528 41.8456 31.2694 43.5539 31.3319V29.8528C43.1789 29.7903 43.0748 29.7903 42.9498 29.7903C42.2206 29.7903 41.5331 30.2694 40.8873 31.3111L41.2206 31.4361V29.9778H39.8248V30.1653Z" fill="black"/>
<path d="M47.1606 29.7903C45.1814 29.7903 43.8064 31.3736 43.8064 33.7278C43.8064 36.082 45.1814 37.6445 47.1814 37.6445C49.1398 37.6445 50.5148 36.0611 50.5148 33.7694C50.5148 31.3528 49.1814 29.7903 47.1606 29.7903ZM47.1814 31.1653C48.4314 31.1653 48.9731 32.0194 48.9731 33.7486C48.9731 35.4153 48.4106 36.2486 47.1814 36.2486C45.9314 36.2486 45.3689 35.4153 45.3689 33.7278C45.3689 32.0194 45.9314 31.1653 47.1814 31.1653Z" fill="black"/>
<path d="M51.4698 27.4362V37.332H52.8656V36.2695L52.5323 36.3945C53.0531 37.207 53.9073 37.6445 54.8864 37.6445C56.7198 37.6445 58.1156 35.957 58.1156 33.6445C58.1156 31.3737 56.7823 29.7903 54.9281 29.7903C53.9698 29.7903 53.1573 30.207 52.6364 30.9778L52.9698 31.1237V27.2487H51.4698V27.4362ZM54.7198 31.1862C55.9698 31.1862 56.5531 32.082 56.5531 33.7487C56.5531 35.3528 55.9281 36.2487 54.7198 36.2487C53.5323 36.2487 52.9698 35.3528 52.9698 33.7278C52.9698 32.082 53.5323 31.1862 54.7198 31.1862Z" fill="black"/>
<path d="M60.3831 27.2487H59.0706V37.332H60.5706V27.2487H60.3831Z" fill="black"/>
<path d="M68.3431 34.0403C68.3431 32.9778 68.2598 32.3319 68.0723 31.8111C67.6139 30.6653 66.3639 29.7903 65.0514 29.7903C63.1139 29.7903 61.6556 31.4569 61.6556 33.7486C61.6556 36.0611 63.0514 37.6445 65.0306 37.6445C66.6348 37.6445 67.9264 36.5611 68.2389 34.8528H66.7389C66.3848 35.957 65.9681 36.2486 65.0723 36.2486C64.3639 36.2486 63.9056 35.9778 63.5306 35.3945C63.2598 34.9986 63.2181 34.7278 63.1973 34.207H68.3431V34.0403ZM63.2389 33.1236C63.3223 31.8319 63.9264 31.1653 65.0514 31.1653C66.1764 31.1653 66.7598 31.8736 66.7598 32.9361H63.2389V33.1236Z" fill="black"/>
<path d="M69.4648 30.1653V37.332H70.9856V32.7694C70.9856 31.7486 71.5273 31.1236 72.4231 31.1236C73.2564 31.1236 73.5273 31.4569 73.5273 32.3528V37.332H75.0273V32.7694C75.0273 31.7486 75.5689 31.1236 76.4856 31.1236C77.2981 31.1236 77.5689 31.4569 77.5689 32.3528V37.332H79.0898V31.9153C79.0898 30.6653 78.1731 29.7903 76.8606 29.7903C75.9439 29.7903 75.2356 30.1236 74.7564 30.7069C74.4439 30.1653 73.7564 29.7903 72.8398 29.7903C71.9023 29.7903 71.1314 30.1861 70.5481 31.0194L70.8814 31.1653V29.9778H69.4648V30.1653Z" fill="black"/>
<path d="M82.6964 35.582H81.1131V37.332H82.8839V35.582H82.6964ZM82.6964 29.9778H81.1131V31.7278H82.8839V29.9778H82.6964Z" fill="black"/>
<path d="M185.417 473.194V385.725H41.4167V473.194H185.417Z" stroke="black" stroke-width="1.33333" stroke-linecap="round"/>
<path d="M74.4844 386.793V473.012" stroke="black" stroke-width="0.666667" stroke-linecap="round"/>
<path d="M86.2136 386.793V473.194" stroke="black" stroke-width="0.666667" stroke-linecap="round"/>
<path d="M86.0938 382.111V348.001" stroke="black" stroke-width="0.666667" stroke-linecap="round"/>
<path d="M74.8386 382.168V348.064" stroke="black" stroke-width="0.666667" stroke-linecap="round"/>
<path d="M89.9323 355.658H105.771" stroke="black" stroke-width="0.666667" stroke-linecap="round"/>
<path d="M93.724 357.569L86.5312 355.642L93.724 353.715V357.569Z" fill="black"/>
<path d="M71.1146 355.715H55.2761" stroke="black" stroke-width="0.666667" stroke-linecap="round"/>
<path d="M67.3229 357.632L74.5209 355.705L67.3229 353.772V357.632Z" fill="black"/>
<path d="M41.3337 351.75V358.792H42.8962V348.792H41.792C41.3337 350.458 41.2504 350.479 39.2504 350.729V351.917H41.3337V351.75Z" fill="black"/>
<path d="M45.9971 349.167V350.646L46.3929 352.604H47.2262L47.6221 350.646V348.979H45.9971V349.167ZM48.1221 349.167V350.646L48.5179 352.604H49.3512L49.7471 350.646V348.979H48.1221V349.167Z" fill="black"/>
<path d="M38.5208 294.958V302.125H40.0417V297.563C40.0417 296.542 40.5833 295.917 41.4792 295.917C42.3125 295.917 42.5833 296.25 42.5833 297.146V302.125H44.0833V297.563C44.0833 296.542 44.625 295.917 45.5417 295.917C46.3542 295.917 46.625 296.25 46.625 297.146V302.125H48.1458V296.708C48.1458 295.458 47.2292 294.583 45.9167 294.583C45 294.583 44.2917 294.917 43.8125 295.5C43.5 294.958 42.8125 294.583 41.8958 294.583C40.9583 294.583 40.1875 294.979 39.6042 295.813L39.9375 295.958V294.771H38.5208V294.958Z" fill="black"/>
<path d="M56.0234 301.104C55.9192 301.146 55.8567 301.146 55.7942 301.146C55.3984 301.146 55.3775 301.125 55.3775 300.771V296.667C55.3775 295.438 54.2942 294.583 52.565 294.583C51.5442 294.583 50.5859 294.917 50.1067 295.438C49.7734 295.813 49.5859 296.333 49.5442 297.208H51.065C51.1692 296.188 51.4817 295.958 52.5234 295.958C53.5442 295.958 53.8775 296.167 53.8775 296.833V297.125C53.8775 297.604 53.8359 297.583 52.9192 297.708C51.3567 297.917 51.1067 297.958 50.69 298.146C49.8775 298.479 49.2525 299.292 49.2525 300.188C49.2525 301.458 50.3359 302.438 51.7525 302.438C52.6275 302.438 53.4817 302.063 53.9609 301.625C54.0025 301.958 54.5442 302.438 55.2734 302.438C55.5025 302.438 55.6484 302.396 56.2109 302.271V301.063L56.0234 301.104ZM53.8775 299.75C53.8775 300.125 53.8359 300.208 53.5025 300.521C53.0442 300.938 52.6484 301.104 51.9817 301.104C51.1275 301.104 50.815 300.875 50.815 300.167C50.815 299.438 51.1067 299.229 52.2942 299.063C53.4817 298.896 53.7109 298.854 53.8775 298.771V299.75Z" fill="black"/>
<path d="M57.0409 294.958V302.125H58.5409V298.333C58.5617 296.646 59.0617 296.063 60.77 296.125V294.646C60.395 294.583 60.2909 294.583 60.1659 294.583C59.4367 294.583 58.7492 295.063 58.1034 296.104L58.4367 296.229V294.771H57.0409V294.958Z" fill="black"/>
<path d="M62.6267 292.042H61.335V302.125H62.8142V299.292L63.6684 298.458L65.96 302.125H67.7725L64.8142 297.396L67.46 294.771H65.5017L62.4809 297.792L62.8142 297.917V292.042H62.6267Z" fill="black"/>
<path d="M78.25 301.104C78.1459 301.146 78.0834 301.146 78.0209 301.146C77.625 301.146 77.6042 301.125 77.6042 300.771V296.667C77.6042 295.438 76.5209 294.583 74.7917 294.583C73.7709 294.583 72.8125 294.917 72.3334 295.438C72 295.813 71.8125 296.333 71.7709 297.208H73.2917C73.3959 296.188 73.7084 295.958 74.75 295.958C75.7709 295.958 76.1042 296.167 76.1042 296.833V297.125C76.1042 297.604 76.0625 297.583 75.1459 297.708C73.5834 297.917 73.3334 297.958 72.9167 298.146C72.1042 298.479 71.4792 299.292 71.4792 300.188C71.4792 301.458 72.5625 302.438 73.9792 302.438C74.8542 302.438 75.7084 302.063 76.1875 301.625C76.2292 301.958 76.7709 302.438 77.5 302.438C77.7292 302.438 77.875 302.396 78.4375 302.271V301.063L78.25 301.104ZM76.1042 299.75C76.1042 300.125 76.0625 300.208 75.7292 300.521C75.2709 300.938 74.875 301.104 74.2084 301.104C73.3542 301.104 73.0417 300.875 73.0417 300.167C73.0417 299.438 73.3334 299.229 74.5209 299.063C75.7084 298.896 75.9375 298.854 76.1042 298.771V299.75Z" fill="black"/>
<path d="M82.9742 294.958V302.125H84.4742V298.333C84.495 296.646 84.995 296.063 86.7034 296.125V294.646C86.3284 294.583 86.2242 294.583 86.0992 294.583C85.37 294.583 84.6825 295.063 84.0367 296.104L84.37 296.229V294.771H82.9742V294.958Z" fill="black"/>
<path d="M93.7059 298.833C93.7059 297.771 93.6225 297.125 93.435 296.604C92.9767 295.458 91.7267 294.583 90.4142 294.583C88.4767 294.583 87.0184 296.25 87.0184 298.542C87.0184 300.854 88.4142 302.438 90.3934 302.438C91.9975 302.438 93.2892 301.354 93.6017 299.646H92.1017C91.7475 300.75 91.3309 301.042 90.435 301.042C89.7267 301.042 89.2684 300.771 88.8934 300.188C88.6225 299.792 88.5809 299.521 88.56 299H93.7059V298.833ZM88.6017 297.917C88.685 296.625 89.2892 295.958 90.4142 295.958C91.5392 295.958 92.1225 296.667 92.1225 297.729H88.6017V297.917Z" fill="black"/>
<path d="M97.5359 294.771H96.5567V293.875C96.5567 293.396 96.64 293.333 97.1609 293.333C97.2442 293.333 97.2859 293.333 97.7234 293.375V292.104C97.2859 292.021 97.14 292 96.9109 292C95.89 292 95.0775 292.771 95.0775 293.771V294.771H94.14V296.042H95.0775V302.125H96.5567V296.042H97.7234V294.771H97.5359Z" fill="black"/>
<path d="M104.826 298.833C104.826 297.771 104.743 297.125 104.555 296.604C104.097 295.458 102.847 294.583 101.534 294.583C99.5967 294.583 98.1384 296.25 98.1384 298.542C98.1384 300.854 99.5342 302.438 101.513 302.438C103.118 302.438 104.409 301.354 104.722 299.646H103.222C102.868 300.75 102.451 301.042 101.555 301.042C100.847 301.042 100.388 300.771 100.013 300.188C99.7425 299.792 99.7009 299.521 99.68 299H104.826V298.833ZM99.7217 297.917C99.805 296.625 100.409 295.958 101.534 295.958C102.659 295.958 103.243 296.667 103.243 297.729H99.7217V297.917Z" fill="black"/>
<path d="M105.948 294.958V302.125H107.448V298.333C107.468 296.646 107.968 296.063 109.677 296.125V294.646C109.302 294.583 109.198 294.583 109.073 294.583C108.343 294.583 107.656 295.063 107.01 296.104L107.343 296.229V294.771H105.948V294.958Z" fill="black"/>
<path d="M116.679 298.833C116.679 297.771 116.596 297.125 116.408 296.604C115.95 295.458 114.7 294.583 113.388 294.583C111.45 294.583 109.992 296.25 109.992 298.542C109.992 300.854 111.388 302.438 113.367 302.438C114.971 302.438 116.263 301.354 116.575 299.646H115.075C114.721 300.75 114.304 301.042 113.408 301.042C112.7 301.042 112.242 300.771 111.867 300.188C111.596 299.792 111.554 299.521 111.533 299H116.679V298.833ZM111.575 297.917C111.658 296.625 112.263 295.958 113.388 295.958C114.513 295.958 115.096 296.667 115.096 297.729H111.575V297.917Z" fill="black"/>
<path d="M117.801 294.958V302.125H119.322V298.104C119.322 296.667 119.863 295.917 121.009 295.917C121.905 295.917 122.259 296.271 122.259 297.104V302.125H123.759V296.667C123.759 295.521 122.697 294.583 121.343 294.583C120.322 294.583 119.488 295.042 118.884 296L119.218 296.146V294.771H117.801V294.958Z" fill="black"/>
<path d="M130.943 297.313C130.902 296.625 130.693 296.063 130.423 295.667C129.943 295.021 128.985 294.583 128.006 294.583C126.11 294.583 124.693 296.25 124.693 298.583C124.693 300.833 126.089 302.438 127.985 302.438C129.652 302.438 130.902 301.25 131.048 299.375H129.548C129.339 300.667 128.964 301.042 128.027 301.042C126.798 301.042 126.235 300.229 126.235 298.583C126.235 296.833 126.777 295.958 127.985 295.958C128.923 295.958 129.318 296.333 129.464 297.479H130.964L130.943 297.313Z" fill="black"/>
<path d="M138.173 298.833C138.173 297.771 138.089 297.125 137.902 296.604C137.443 295.458 136.193 294.583 134.881 294.583C132.943 294.583 131.485 296.25 131.485 298.542C131.485 300.854 132.881 302.438 134.86 302.438C136.464 302.438 137.756 301.354 138.068 299.646H136.568C136.214 300.75 135.798 301.042 134.902 301.042C134.193 301.042 133.735 300.771 133.36 300.188C133.089 299.792 133.048 299.521 133.027 299H138.173V298.833ZM133.068 297.917C133.152 296.625 133.756 295.958 134.881 295.958C136.006 295.958 136.589 296.667 136.589 297.729H133.068V297.917Z" fill="black"/>
<path d="M39.8125 308.042H38.5V318.125H40V308.042H39.8125Z" fill="black"/>
<path d="M42.7517 310.771H41.4392V318.125H42.9392V310.771H42.7517ZM42.7517 308.042H41.4392V309.812H42.9392V308.042H42.7517Z" fill="black"/>
<path d="M44.4409 310.958V318.125H45.9617V314.104C45.9617 312.667 46.5034 311.917 47.6492 311.917C48.545 311.917 48.8992 312.271 48.8992 313.104V318.125H50.3992V312.667C50.3992 311.521 49.3367 310.583 47.9825 310.583C46.9617 310.583 46.1284 311.042 45.5242 312L45.8575 312.146V310.771H44.4409V310.958Z" fill="black"/>
<path d="M58.1458 314.833C58.1458 313.771 58.0625 313.125 57.875 312.604C57.4167 311.458 56.1667 310.583 54.8542 310.583C52.9167 310.583 51.4583 312.25 51.4583 314.542C51.4583 316.854 52.8542 318.438 54.8333 318.438C56.4375 318.438 57.7292 317.354 58.0417 315.646H56.5417C56.1875 316.75 55.7708 317.042 54.875 317.042C54.1667 317.042 53.7083 316.771 53.3333 316.188C53.0625 315.792 53.0208 315.521 53 315H58.1458V314.833ZM53.0417 313.917C53.125 312.625 53.7292 311.958 54.8542 311.958C55.9792 311.958 56.5625 312.667 56.5625 313.729H53.0417V313.917Z" fill="black"/>
<path d="M62.9742 310.958V318.125H64.495V314.104C64.495 312.667 65.0367 311.917 66.1825 311.917C67.0784 311.917 67.4325 312.271 67.4325 313.104V318.125H68.9325V312.667C68.9325 311.521 67.87 310.583 66.5159 310.583C65.495 310.583 64.6617 311.042 64.0575 312L64.3909 312.146V310.771H62.9742V310.958Z" fill="black"/>
<path d="M76.6792 314.833C76.6792 313.771 76.5959 313.125 76.4084 312.604C75.95 311.458 74.7 310.583 73.3875 310.583C71.45 310.583 69.9917 312.25 69.9917 314.542C69.9917 316.854 71.3875 318.438 73.3667 318.438C74.9709 318.438 76.2625 317.354 76.575 315.646H75.075C74.7209 316.75 74.3042 317.042 73.4084 317.042C72.7 317.042 72.2417 316.771 71.8667 316.188C71.5959 315.792 71.5542 315.521 71.5334 315H76.6792V314.833ZM71.575 313.917C71.6584 312.625 72.2625 311.958 73.3875 311.958C74.5125 311.958 75.0959 312.667 75.0959 313.729H71.575V313.917Z" fill="black"/>
<path d="M81.0925 314.458L83.655 310.771H81.9467L80.3842 313.167L78.8009 310.771H77.0717L79.53 314.396L76.9467 318.125H78.655L80.3217 315.604L81.9884 318.125H83.7175L81.1759 314.333L81.0925 314.458Z" fill="black"/>
<path d="M87.1342 310.771H86.155V308.854H84.6759V310.771H83.7175V312.042H84.6759V317.146C84.6759 317.875 85.3425 318.437 86.2175 318.437C86.5092 318.437 86.7592 318.396 87.3217 318.312V317C86.9675 317.083 86.8217 317.104 86.5925 317.104C86.1134 317.104 86.155 317.146 86.155 316.667V312.042H87.3217V310.771H87.1342Z" fill="black"/>
<path d="M94.5475 310.771H93.5684V308.854H92.0892V310.771H91.1309V312.042H92.0892V317.146C92.0892 317.875 92.7559 318.437 93.6309 318.437C93.9225 318.437 94.1725 318.396 94.735 318.312V317C94.3809 317.083 94.235 317.104 94.0059 317.104C93.5267 317.104 93.5684 317.146 93.5684 316.667V312.042H94.735V310.771H94.5475Z" fill="black"/>
<path d="M98.4834 310.583C96.5042 310.583 95.1292 312.167 95.1292 314.521C95.1292 316.875 96.5042 318.438 98.5042 318.438C100.463 318.438 101.838 316.854 101.838 314.563C101.838 312.146 100.504 310.583 98.4834 310.583ZM98.5042 311.958C99.7542 311.958 100.296 312.813 100.296 314.542C100.296 316.208 99.7334 317.042 98.5042 317.042C97.2542 317.042 96.6917 316.208 96.6917 314.521C96.6917 312.813 97.2542 311.958 98.5042 311.958Z" fill="black"/>
<path d="M110.958 310.958L109.02 316.396H109.395L107.562 310.771H105.978L108.395 317.979L107.978 319.083C107.791 319.583 107.749 319.583 107.291 319.583C107.103 319.583 106.937 319.542 106.499 319.458V320.771C106.77 320.917 107.145 321.042 107.437 321.042C107.812 321.042 108.333 320.854 108.624 320.646C108.958 320.396 109.228 319.979 109.437 319.417L112.603 310.771H111.02L110.958 310.958Z" fill="black"/>
<path d="M116.27 310.583C114.291 310.583 112.916 312.167 112.916 314.521C112.916 316.875 114.291 318.438 116.291 318.438C118.249 318.438 119.624 316.854 119.624 314.563C119.624 312.146 118.291 310.583 116.27 310.583ZM116.291 311.958C117.541 311.958 118.083 312.813 118.083 314.542C118.083 316.208 117.52 317.042 116.291 317.042C115.041 317.042 114.478 316.208 114.478 314.521C114.478 312.813 115.041 311.958 116.291 311.958Z" fill="black"/>
<path d="M126.663 317.958V310.771H125.183V314.917C125.183 316.354 124.642 317.104 123.475 317.104C122.6 317.104 122.225 316.75 122.225 315.917V310.771H120.725V316.354C120.725 317.521 121.788 318.438 123.142 318.438C124.183 318.438 124.975 318.021 125.621 317.104L125.288 316.979V318.125H126.663V317.958Z" fill="black"/>
<path d="M128.201 310.958V318.125H129.701V314.333C129.722 312.646 130.222 312.063 131.93 312.125V310.646C131.555 310.583 131.451 310.583 131.326 310.583C130.597 310.583 129.909 311.063 129.263 312.104L129.597 312.229V310.771H128.201V310.958Z" fill="black"/>
<path d="M44.25 329.313C44.2083 328.625 44 328.063 43.7292 327.667C43.25 327.021 42.2917 326.583 41.3125 326.583C39.4167 326.583 38 328.25 38 330.583C38 332.833 39.3958 334.438 41.2917 334.438C42.9583 334.438 44.2083 333.25 44.3542 331.375H42.8542C42.6458 332.667 42.2708 333.042 41.3333 333.042C40.1042 333.042 39.5417 332.229 39.5417 330.583C39.5417 328.833 40.0833 327.958 41.2917 327.958C42.2292 327.958 42.625 328.333 42.7708 329.479H44.2708L44.25 329.313Z" fill="black"/>
<path d="M51.0625 333.958V326.771H49.5833V330.917C49.5833 332.354 49.0417 333.104 47.875 333.104C47 333.104 46.625 332.75 46.625 331.917V326.771H45.125V332.354C45.125 333.521 46.1875 334.438 47.5417 334.438C48.5833 334.438 49.375 334.021 50.0208 333.104L49.6875 332.979V334.125H51.0625V333.958Z" fill="black"/>
<path d="M55.2675 326.771H54.2883V324.854H52.8092V326.771H51.8508V328.042H52.8092V333.146C52.8092 333.875 53.4758 334.437 54.3508 334.437C54.6425 334.437 54.8925 334.396 55.455 334.312V333C55.1008 333.083 54.955 333.104 54.7258 333.104C54.2467 333.104 54.2883 333.146 54.2883 332.667V328.042H55.455V326.771H55.2675Z" fill="black"/>
<path d="M61.3059 324.042H59.9934V334.125H61.4934V324.042H61.3059Z" fill="black"/>
<path d="M64.2451 326.771H62.9326V334.125H64.4326V326.771H64.2451ZM64.2451 324.042H62.9326V325.812H64.4326V324.042H64.2451Z" fill="black"/>
<path d="M65.9342 326.958V334.125H67.455V330.104C67.455 328.667 67.9967 327.917 69.1425 327.917C70.0383 327.917 70.3925 328.271 70.3925 329.104V334.125H71.8925V328.667C71.8925 327.521 70.83 326.583 69.4758 326.583C68.455 326.583 67.6217 327.042 67.0175 328L67.3508 328.146V326.771H65.9342V326.958Z" fill="black"/>
<path d="M79.6392 330.833C79.6392 329.771 79.5559 329.125 79.3684 328.604C78.9101 327.458 77.6601 326.583 76.3476 326.583C74.4101 326.583 72.9517 328.25 72.9517 330.542C72.9517 332.854 74.3476 334.438 76.3267 334.438C77.9309 334.438 79.2226 333.354 79.5351 331.646H78.0351C77.6809 332.75 77.2642 333.042 76.3684 333.042C75.6601 333.042 75.2017 332.771 74.8267 332.188C74.5559 331.792 74.5142 331.521 74.4934 331H79.6392V330.833ZM74.5351 329.917C74.6184 328.625 75.2226 327.958 76.3476 327.958C77.4726 327.958 78.0559 328.667 78.0559 329.729H74.5351V329.917Z" fill="black"/>
<path d="M97.4807 206.11L100.043 202.422H98.3349L96.7724 204.818L95.189 202.422H93.4599L95.9182 206.047L93.3349 209.776H95.0432L96.7099 207.255L98.3765 209.776H100.106L97.564 205.985L97.4807 206.11Z" fill="black"/>
<path d="M107.252 205.86H104.668V203.089H103.356V205.86H100.585V207.151H103.356V209.901H104.668V207.151H107.439V205.86H107.252Z" fill="black"/>
<path d="M112.496 205.443C112.757 204.807 113.069 204.349 113.434 204.068C113.793 203.781 114.272 203.63 114.871 203.63C115.215 203.63 115.538 203.688 115.83 203.797C116.116 203.912 116.423 204.083 116.746 204.318V204.714C116.246 204.328 115.741 204.13 115.246 204.13C114.923 204.13 114.653 204.203 114.434 204.339C114.225 204.479 114.022 204.719 113.83 205.047C113.689 205.287 113.449 205.854 113.121 206.755C113.647 207.953 114.376 208.547 115.309 208.547C115.835 208.547 116.314 208.37 116.746 208.005V208.38C116.272 208.854 115.741 209.089 115.163 209.089C114.772 209.089 114.408 208.974 114.08 208.735C113.746 208.5 113.361 207.995 112.934 207.214C112.668 207.729 112.366 208.115 112.038 208.36C111.705 208.61 111.293 208.735 110.809 208.735C110.184 208.735 109.653 208.516 109.225 208.068C108.793 207.615 108.58 207.026 108.58 206.318C108.58 205.615 108.778 205.042 109.184 204.61C109.585 204.167 110.059 203.943 110.6 203.943C110.986 203.943 111.319 204.057 111.6 204.276C111.887 204.485 112.189 204.875 112.496 205.443ZM112.288 205.943C112.08 205.458 111.835 205.104 111.559 204.88C111.293 204.662 110.96 204.547 110.559 204.547C110.1 204.547 109.71 204.708 109.392 205.026C109.085 205.349 108.934 205.781 108.934 206.318C108.934 206.901 109.085 207.37 109.392 207.714C109.694 208.063 110.043 208.235 110.434 208.235C110.845 208.235 111.215 208.047 111.538 207.672C111.731 207.438 111.981 206.86 112.288 205.943Z" fill="black"/>
<path d="M107.258 112.332L109.821 108.645H108.112L106.55 111.04L104.967 108.645H103.237L105.696 112.27L103.112 115.999H104.821L106.487 113.478L108.154 115.999H109.883L107.342 112.207L107.258 112.332Z" fill="black"/>
<path d="M246.479 466.085H341.828" stroke="black" stroke-width="1.33333"/>
<path d="M352.547 395.043H273.188" stroke="black" stroke-width="2"/>
<mask id="mask0_550_2710" style="mask-type:luminance" maskUnits="userSpaceOnUse" x="229" y="454" width="124" height="19">
<path d="M229.667 454.085H352.333V472.845H229.667V454.085Z" fill="white"/>
</mask>
<g mask="url(#mask0_550_2710)">
<path d="M241.016 471.751L340.995 471.845V465.908" stroke="black" stroke-width="2"/>
</g>
<path d="M273.187 394.965V380.444H271.271" stroke="black" stroke-width="2" stroke-linecap="square"/>
<mask id="mask1_550_2710" style="mask-type:luminance" maskUnits="userSpaceOnUse" x="229" y="368" width="54" height="105">
<path d="M229.667 368.751H283V472.845H229.667V368.751Z" fill="white"/>
</mask>
<g mask="url(#mask1_550_2710)">
<path d="M270.813 380.882L241.51 438.163V471.402" stroke="black" stroke-width="2" stroke-linecap="square"/>
</g>
<mask id="mask2_550_2710" style="mask-type:luminance" maskUnits="userSpaceOnUse" x="239" y="372" width="43" height="101">
<path d="M239 372.751H281.667V472.845H239V372.751Z" fill="white"/>
</mask>
<g mask="url(#mask2_550_2710)">
<path d="M273.188 380.444L246.786 438.283V465.642" stroke="black" stroke-width="1.33333" stroke-linecap="round"/>
</g>
<path d="M246.786 438.163H241.51" stroke="black" stroke-width="0.666667" stroke-linecap="round"/>
<path d="M246.948 465.819L273.188 394.965" stroke="black" stroke-width="0.666667" stroke-linecap="square"/>
<path d="M341.281 465.642L352.484 395.085" stroke="black" stroke-width="0.666667" stroke-linecap="square"/>
<path d="M253.88 461.996V360.897" stroke="black" stroke-width="0.666667" stroke-linecap="round"/>
<path d="M241.562 433.194V360.955" stroke="black" stroke-width="0.666667" stroke-linecap="round"/>
<path d="M257.724 371.215H273.562" stroke="black" stroke-width="0.666667" stroke-linecap="round"/>
<path d="M261.516 373.126L254.318 371.199L261.516 369.272V373.126Z" fill="black"/>
<path d="M237.839 371.277H222" stroke="black" stroke-width="0.666667" stroke-linecap="round"/>
<path d="M234.047 373.189L241.24 371.262L234.047 369.335V373.189Z" fill="black"/>
<mask id="mask3_550_2710" style="mask-type:luminance" maskUnits="userSpaceOnUse" x="329" y="383" width="36" height="90">
<path d="M329.667 383.418H364.333V472.845H329.667V383.418Z" fill="white"/>
</mask>
<g mask="url(#mask3_550_2710)">
<path d="M342.057 471.595L352.547 395.043" stroke="black" stroke-width="2" stroke-linecap="square"/>
</g>
<path d="M253.88 465.548L277.349 394.793" stroke="black" stroke-width="0.666667" stroke-linecap="square"/>
<path d="M240.745 308.917V316.083H242.266V311.521C242.266 310.5 242.807 309.875 243.703 309.875C244.536 309.875 244.807 310.208 244.807 311.104V316.083H246.307V311.521C246.307 310.5 246.849 309.875 247.766 309.875C248.578 309.875 248.849 310.208 248.849 311.104V316.083H250.37V310.667C250.37 309.417 249.453 308.542 248.141 308.542C247.224 308.542 246.516 308.875 246.036 309.458C245.724 308.917 245.036 308.542 244.12 308.542C243.182 308.542 242.411 308.937 241.828 309.771L242.161 309.917V308.729H240.745V308.917Z" fill="black"/>
<path d="M258.247 315.062C258.143 315.104 258.081 315.104 258.018 315.104C257.622 315.104 257.601 315.083 257.601 314.729V310.625C257.601 309.396 256.518 308.542 254.789 308.542C253.768 308.542 252.81 308.875 252.331 309.396C251.997 309.771 251.81 310.292 251.768 311.167H253.289C253.393 310.146 253.706 309.917 254.747 309.917C255.768 309.917 256.101 310.125 256.101 310.792V311.083C256.101 311.562 256.06 311.542 255.143 311.667C253.581 311.875 253.331 311.917 252.914 312.104C252.101 312.437 251.476 313.25 251.476 314.146C251.476 315.417 252.56 316.396 253.976 316.396C254.851 316.396 255.706 316.021 256.185 315.583C256.226 315.917 256.768 316.396 257.497 316.396C257.726 316.396 257.872 316.354 258.435 316.229V315.021L258.247 315.062ZM256.101 313.708C256.101 314.083 256.06 314.167 255.726 314.479C255.268 314.896 254.872 315.062 254.206 315.062C253.351 315.062 253.039 314.833 253.039 314.125C253.039 313.396 253.331 313.187 254.518 313.021C255.706 312.854 255.935 312.812 256.101 312.729V313.708Z" fill="black"/>
<path d="M260.411 306H259.119V316.083H260.598V313.25L261.452 312.417L263.744 316.083H265.556L262.598 311.354L265.244 308.729H263.286L260.265 311.75L260.598 311.875V306H260.411Z" fill="black"/>
<path d="M272.223 312.792C272.223 311.729 272.14 311.083 271.952 310.562C271.494 309.417 270.244 308.542 268.931 308.542C266.994 308.542 265.536 310.208 265.536 312.5C265.536 314.812 266.931 316.396 268.911 316.396C270.515 316.396 271.806 315.312 272.119 313.604H270.619C270.265 314.708 269.848 315 268.952 315C268.244 315 267.786 314.729 267.411 314.146C267.14 313.75 267.098 313.479 267.077 312.958H272.223V312.792ZM267.119 311.875C267.202 310.583 267.806 309.917 268.931 309.917C270.056 309.917 270.64 310.625 270.64 311.687H267.119V311.875Z" fill="black"/>
<path d="M279.718 308.729H278.739V306.812H277.26V308.729H276.301V310H277.26V315.104C277.26 315.833 277.926 316.396 278.801 316.396C279.093 316.396 279.343 316.354 279.906 316.271V314.958C279.551 315.042 279.406 315.063 279.176 315.063C278.697 315.063 278.739 315.104 278.739 314.625V310H279.906V308.729H279.718Z" fill="black"/>
<path d="M280.758 306.188V316.083H282.258V312.063C282.258 310.625 282.821 309.875 283.966 309.875C284.341 309.875 284.529 309.917 284.8 310.125C285.112 310.354 285.196 310.583 285.196 311.063V316.083H286.696V310.625C286.696 309.458 285.675 308.542 284.3 308.542C283.321 308.542 282.571 308.896 281.925 309.75L282.258 309.875V306H280.758V306.188Z" fill="black"/>
<path d="M294.463 312.792C294.463 311.729 294.38 311.083 294.192 310.562C293.734 309.417 292.484 308.542 291.171 308.542C289.234 308.542 287.776 310.208 287.776 312.5C287.776 314.812 289.171 316.396 291.151 316.396C292.755 316.396 294.046 315.312 294.359 313.604H292.859C292.505 314.708 292.088 315 291.192 315C290.484 315 290.026 314.729 289.651 314.146C289.38 313.75 289.338 313.479 289.317 312.958H294.463V312.792ZM289.359 311.875C289.442 310.583 290.046 309.917 291.171 309.917C292.296 309.917 292.88 310.625 292.88 311.687H289.359V311.875Z" fill="black"/>
<path d="M305.021 311.271C304.979 310.583 304.771 310.021 304.5 309.625C304.021 308.979 303.062 308.542 302.083 308.542C300.187 308.542 298.771 310.208 298.771 312.542C298.771 314.792 300.166 316.396 302.062 316.396C303.729 316.396 304.979 315.208 305.125 313.333H303.625C303.416 314.625 303.041 315 302.104 315C300.875 315 300.312 314.187 300.312 312.542C300.312 310.792 300.854 309.917 302.062 309.917C303 309.917 303.396 310.292 303.541 311.437H305.041L305.021 311.271Z" fill="black"/>
<path d="M308.854 308.542C306.875 308.542 305.5 310.125 305.5 312.479C305.5 314.833 306.875 316.396 308.875 316.396C310.833 316.396 312.208 314.812 312.208 312.521C312.208 310.104 310.875 308.542 308.854 308.542ZM308.875 309.917C310.125 309.917 310.666 310.771 310.666 312.5C310.666 314.167 310.104 315 308.875 315C307.625 315 307.062 314.167 307.062 312.479C307.062 310.771 307.625 309.917 308.875 309.917Z" fill="black"/>
<path d="M313.371 308.917V316.083H314.871V312.292C314.892 310.604 315.392 310.021 317.101 310.083V308.604C316.726 308.542 316.621 308.542 316.496 308.542C315.767 308.542 315.08 309.021 314.434 310.062L314.767 310.187V308.729H313.371V308.917Z" fill="black"/>
<path d="M317.811 308.917V316.083H319.332V312.062C319.332 310.625 319.874 309.875 321.02 309.875C321.916 309.875 322.27 310.229 322.27 311.062V316.083H323.77V310.625C323.77 309.479 322.707 308.542 321.353 308.542C320.332 308.542 319.499 309 318.895 309.958L319.228 310.104V308.729H317.811V308.917Z" fill="black"/>
<path d="M331.516 312.792C331.516 311.729 331.433 311.083 331.246 310.562C330.787 309.417 329.537 308.542 328.225 308.542C326.287 308.542 324.829 310.208 324.829 312.5C324.829 314.812 326.225 316.396 328.204 316.396C329.808 316.396 331.1 315.312 331.412 313.604H329.912C329.558 314.708 329.141 315 328.246 315C327.537 315 327.079 314.729 326.704 314.146C326.433 313.75 326.391 313.479 326.371 312.958H331.516V312.792ZM326.412 311.875C326.496 310.583 327.1 309.917 328.225 309.917C329.35 309.917 329.933 310.625 329.933 311.687H326.412V311.875Z" fill="black"/>
<path d="M332.638 308.917V316.083H334.138V312.292C334.159 310.604 334.659 310.021 336.367 310.083V308.604C335.992 308.542 335.888 308.542 335.763 308.542C335.034 308.542 334.346 309.021 333.701 310.062L334.034 310.187V308.729H332.638V308.917Z" fill="black"/>
<path d="M337.307 314.521V316.083H338.099V316.146C338.099 317.063 338.141 317.146 337.307 317.188V318.042C338.391 318.063 339.099 317.25 339.099 316.125V314.333H337.307V314.521Z" fill="black"/>
<path d="M347.158 308.729H346.179V306.812H344.7V308.729H343.741V310H344.7V315.104C344.7 315.833 345.366 316.396 346.241 316.396C346.533 316.396 346.783 316.354 347.346 316.271V314.958C346.991 315.042 346.846 315.063 346.616 315.063C346.137 315.063 346.179 315.104 346.179 314.625V310H347.346V308.729H347.158Z" fill="black"/>
<path d="M348.198 306.188V316.083H349.698V312.063C349.698 310.625 350.261 309.875 351.406 309.875C351.781 309.875 351.969 309.917 352.24 310.125C352.552 310.354 352.636 310.583 352.636 311.063V316.083H354.136V310.625C354.136 309.458 353.115 308.542 351.74 308.542C350.761 308.542 350.011 308.896 349.365 309.75L349.698 309.875V306H348.198V306.188Z" fill="black"/>
<path d="M361.903 312.792C361.903 311.729 361.82 311.083 361.632 310.562C361.174 309.417 359.924 308.542 358.611 308.542C356.674 308.542 355.216 310.208 355.216 312.5C355.216 314.812 356.611 316.396 358.591 316.396C360.195 316.396 361.486 315.312 361.799 313.604H360.299C359.945 314.708 359.528 315 358.632 315C357.924 315 357.466 314.729 357.091 314.146C356.82 313.75 356.778 313.479 356.757 312.958H361.903V312.792ZM356.799 311.875C356.882 310.583 357.486 309.917 358.611 309.917C359.736 309.917 360.32 310.625 360.32 311.687H356.799V311.875Z" fill="black"/>
<path d="M363.025 308.917V316.083H364.546V312.062C364.546 310.625 365.087 309.875 366.233 309.875C367.129 309.875 367.483 310.229 367.483 311.062V316.083H368.983V310.625C368.983 309.479 367.921 308.542 366.566 308.542C365.546 308.542 364.712 309 364.108 309.958L364.441 310.104V308.729H363.025V308.917Z" fill="black"/>
<path d="M374.145 308.917V316.083H375.666V312.062C375.666 310.625 376.207 309.875 377.353 309.875C378.249 309.875 378.603 310.229 378.603 311.062V316.083H380.103V310.625C380.103 309.479 379.041 308.542 377.686 308.542C376.666 308.542 375.832 309 375.228 309.958L375.561 310.104V308.729H374.145V308.917Z" fill="black"/>
<path d="M384.454 308.542C382.475 308.542 381.1 310.125 381.1 312.479C381.1 314.833 382.475 316.396 384.475 316.396C386.433 316.396 387.808 314.812 387.808 312.521C387.808 310.104 386.475 308.542 384.454 308.542ZM384.475 309.917C385.725 309.917 386.266 310.771 386.266 312.5C386.266 314.167 385.704 315 384.475 315C383.225 315 382.662 314.167 382.662 312.479C382.662 310.771 383.225 309.917 384.475 309.917Z" fill="black"/>
<path d="M391.638 308.729H390.659V306.812H389.18V308.729H388.221V310H389.18V315.104C389.18 315.833 389.846 316.396 390.721 316.396C391.013 316.396 391.263 316.354 391.826 316.271V314.958C391.471 315.042 391.326 315.063 391.096 315.063C390.617 315.063 390.659 315.104 390.659 314.625V310H391.826V308.729H391.638Z" fill="black"/>
<path d="M398.97 312.792C398.97 311.729 398.886 311.083 398.699 310.562C398.241 309.417 396.991 308.542 395.678 308.542C393.741 308.542 392.282 310.208 392.282 312.5C392.282 314.812 393.678 316.396 395.657 316.396C397.261 316.396 398.553 315.312 398.866 313.604H397.366C397.011 314.708 396.595 315 395.699 315C394.991 315 394.532 314.729 394.157 314.146C393.886 313.75 393.845 313.479 393.824 312.958H398.97V312.792ZM393.866 311.875C393.949 310.583 394.553 309.917 395.678 309.917C396.803 309.917 397.386 310.625 397.386 311.687H393.866V311.875Z" fill="black"/>
<path d="M243.411 324.729H242.432V322.812H240.953V324.729H239.995V326H240.953V331.104C240.953 331.833 241.62 332.396 242.495 332.396C242.786 332.396 243.036 332.354 243.599 332.271V330.958C243.245 331.042 243.099 331.063 242.87 331.063C242.391 331.063 242.432 331.104 242.432 330.625V326H243.599V324.729H243.411Z" fill="black"/>
<path d="M244.451 322.188V332.083H245.951V328.063C245.951 326.625 246.514 325.875 247.66 325.875C248.035 325.875 248.222 325.917 248.493 326.125C248.806 326.354 248.889 326.583 248.889 327.063V332.083H250.389V326.625C250.389 325.458 249.368 324.542 247.993 324.542C247.014 324.542 246.264 324.896 245.618 325.75L245.951 325.875V322H244.451V322.188Z" fill="black"/>
<path d="M258.156 328.792C258.156 327.729 258.073 327.083 257.886 326.562C257.427 325.417 256.177 324.542 254.865 324.542C252.927 324.542 251.469 326.208 251.469 328.5C251.469 330.812 252.865 332.396 254.844 332.396C256.448 332.396 257.74 331.312 258.052 329.604H256.552C256.198 330.708 255.781 331 254.886 331C254.177 331 253.719 330.729 253.344 330.146C253.073 329.75 253.031 329.479 253.011 328.958H258.156V328.792ZM253.052 327.875C253.136 326.583 253.74 325.917 254.865 325.917C255.99 325.917 256.573 326.625 256.573 327.687H253.052V327.875Z" fill="black"/>
<path d="M268.86 322H267.547V325.813L267.881 325.667C267.422 324.958 266.526 324.542 265.61 324.542C263.797 324.542 262.401 326.167 262.401 328.396C262.401 330.771 263.756 332.396 265.651 332.396C266.61 332.396 267.401 331.979 268.006 331.104L267.672 331V332.083H269.047V322H268.86ZM265.797 325.938C266.985 325.938 267.547 326.813 267.547 328.5C267.547 330.104 266.985 331 265.797 331C264.568 331 263.943 330.104 263.943 328.479C263.943 326.833 264.568 325.938 265.797 325.938Z" fill="black"/>
<path d="M271.669 324.729H270.356V332.083H271.856V324.729H271.669ZM271.669 322H270.356V323.771H271.856V322H271.669Z" fill="black"/>
<path d="M278.65 326.875C278.65 325.5 277.546 324.542 275.941 324.542C274.316 324.542 273.046 325.562 273.046 326.854C273.046 327.958 273.816 328.646 275.462 329.042L276.504 329.292C277.275 329.479 277.379 329.583 277.379 330.083C277.379 330.75 276.941 331 275.962 331C275.358 331 274.983 330.875 274.712 330.583C274.546 330.396 274.504 330.333 274.421 329.646H272.879C272.941 331.437 274.046 332.396 275.879 332.396C277.629 332.396 278.941 331.354 278.941 330C278.941 328.958 278.171 328.208 276.775 327.875L275.712 327.625C274.796 327.396 274.608 327.292 274.608 326.812C274.608 326.146 274.983 325.917 275.9 325.917C276.796 325.917 277.066 326.146 277.087 327.042H278.65V326.875Z" fill="black"/>
<path d="M282.691 324.729H281.712V322.812H280.233V324.729H279.275V326H280.233V331.104C280.233 331.833 280.9 332.396 281.775 332.396C282.066 332.396 282.316 332.354 282.879 332.271V330.958C282.525 331.042 282.379 331.063 282.15 331.063C281.671 331.063 281.712 331.104 281.712 330.625V326H282.879V324.729H282.691Z" fill="black"/>
<path d="M290.127 331.062C290.023 331.104 289.961 331.104 289.898 331.104C289.502 331.104 289.481 331.083 289.481 330.729V326.625C289.481 325.396 288.398 324.542 286.669 324.542C285.648 324.542 284.69 324.875 284.211 325.396C283.877 325.771 283.69 326.292 283.648 327.167H285.169C285.273 326.146 285.586 325.917 286.627 325.917C287.648 325.917 287.981 326.125 287.981 326.792V327.083C287.981 327.562 287.94 327.542 287.023 327.667C285.461 327.875 285.211 327.917 284.794 328.104C283.981 328.437 283.356 329.25 283.356 330.146C283.356 331.417 284.44 332.396 285.856 332.396C286.731 332.396 287.586 332.021 288.065 331.583C288.106 331.917 288.648 332.396 289.377 332.396C289.606 332.396 289.752 332.354 290.315 332.229V331.021L290.127 331.062ZM287.981 329.708C287.981 330.083 287.94 330.167 287.606 330.479C287.148 330.896 286.752 331.062 286.086 331.062C285.231 331.062 284.919 330.833 284.919 330.125C284.919 329.396 285.211 329.187 286.398 329.021C287.586 328.854 287.815 328.812 287.981 328.729V329.708Z" fill="black"/>
<path d="M291.145 324.917V332.083H292.666V328.062C292.666 326.625 293.207 325.875 294.353 325.875C295.249 325.875 295.603 326.229 295.603 327.062V332.083H297.103V326.625C297.103 325.479 296.041 324.542 294.686 324.542C293.666 324.542 292.832 325 292.228 325.958L292.561 326.104V324.729H291.145V324.917Z" fill="black"/>
<path d="M304.287 327.271C304.246 326.583 304.037 326.021 303.766 325.625C303.287 324.979 302.329 324.542 301.35 324.542C299.454 324.542 298.037 326.208 298.037 328.542C298.037 330.792 299.433 332.396 301.329 332.396C302.996 332.396 304.246 331.208 304.391 329.333H302.891C302.683 330.625 302.308 331 301.371 331C300.141 331 299.579 330.187 299.579 328.542C299.579 326.792 300.121 325.917 301.329 325.917C302.266 325.917 302.662 326.292 302.808 327.437H304.308L304.287 327.271Z" fill="black"/>
<path d="M311.516 328.792C311.516 327.729 311.433 327.083 311.246 326.562C310.787 325.417 309.537 324.542 308.225 324.542C306.287 324.542 304.829 326.208 304.829 328.5C304.829 330.812 306.225 332.396 308.204 332.396C309.808 332.396 311.1 331.312 311.412 329.604H309.912C309.558 330.708 309.141 331 308.246 331C307.537 331 307.079 330.729 306.704 330.146C306.433 329.75 306.391 329.479 306.371 328.958H311.516V328.792ZM306.412 327.875C306.496 326.583 307.1 325.917 308.225 325.917C309.35 325.917 309.933 326.625 309.933 327.687H306.412V327.875Z" fill="black"/>
<path d="M319.053 324.729H318.074V323.833C318.074 323.354 318.157 323.292 318.678 323.292C318.761 323.292 318.803 323.292 319.241 323.333V322.063C318.803 321.979 318.657 321.958 318.428 321.958C317.407 321.958 316.595 322.729 316.595 323.729V324.729H315.657V326H316.595V332.083H318.074V326H319.241V324.729H319.053Z" fill="black"/>
<path d="M320.051 324.917V332.083H321.551V328.292C321.572 326.604 322.072 326.021 323.781 326.083V324.604C323.406 324.542 323.301 324.542 323.176 324.542C322.447 324.542 321.76 325.021 321.114 326.062L321.447 326.187V324.729H320.051V324.917Z" fill="black"/>
<path d="M327.387 324.542C325.408 324.542 324.033 326.125 324.033 328.479C324.033 330.833 325.408 332.396 327.408 332.396C329.366 332.396 330.741 330.812 330.741 328.521C330.741 326.104 329.408 324.542 327.387 324.542ZM327.408 325.917C328.658 325.917 329.2 326.771 329.2 328.5C329.2 330.167 328.637 331 327.408 331C326.158 331 325.596 330.167 325.596 328.479C325.596 326.771 326.158 325.917 327.408 325.917Z" fill="black"/>
<path d="M331.905 324.917V332.083H333.426V327.521C333.426 326.5 333.967 325.875 334.863 325.875C335.696 325.875 335.967 326.208 335.967 327.104V332.083H337.467V327.521C337.467 326.5 338.009 325.875 338.926 325.875C339.738 325.875 340.009 326.208 340.009 327.104V332.083H341.53V326.667C341.53 325.417 340.613 324.542 339.301 324.542C338.384 324.542 337.676 324.875 337.196 325.458C336.884 324.917 336.196 324.542 335.28 324.542C334.342 324.542 333.571 324.937 332.988 325.771L333.321 325.917V324.729H331.905V324.917Z" fill="black"/>
<path d="M349.385 324.729H348.406V322.812H346.926V324.729H345.968V326H346.926V331.104C346.926 331.833 347.593 332.396 348.468 332.396C348.76 332.396 349.01 332.354 349.572 332.271V330.958C349.218 331.042 349.072 331.063 348.843 331.063C348.364 331.063 348.406 331.104 348.406 330.625V326H349.572V324.729H349.385Z" fill="black"/>
<path d="M350.425 322.188V332.083H351.925V328.063C351.925 326.625 352.487 325.875 353.633 325.875C354.008 325.875 354.196 325.917 354.466 326.125C354.779 326.354 354.862 326.583 354.862 327.063V332.083H356.362V326.625C356.362 325.458 355.341 324.542 353.966 324.542C352.987 324.542 352.237 324.896 351.591 325.75L351.925 325.875V322H350.425V322.188Z" fill="black"/>
<path d="M364.13 328.792C364.13 327.729 364.046 327.083 363.859 326.562C363.401 325.417 362.151 324.542 360.838 324.542C358.901 324.542 357.442 326.208 357.442 328.5C357.442 330.812 358.838 332.396 360.817 332.396C362.421 332.396 363.713 331.312 364.026 329.604H362.526C362.171 330.708 361.755 331 360.859 331C360.151 331 359.692 330.729 359.317 330.146C359.046 329.75 359.005 329.479 358.984 328.958H364.13V328.792ZM359.026 327.875C359.109 326.583 359.713 325.917 360.838 325.917C361.963 325.917 362.546 326.625 362.546 327.687H359.026V327.875Z" fill="black"/>
<path d="M371.854 324.542C369.875 324.542 368.5 326.125 368.5 328.479C368.5 330.833 369.875 332.396 371.875 332.396C373.833 332.396 375.208 330.812 375.208 328.521C375.208 326.104 373.875 324.542 371.854 324.542ZM371.875 325.917C373.125 325.917 373.666 326.771 373.666 328.5C373.666 330.167 373.104 331 371.875 331C370.625 331 370.062 330.167 370.062 328.479C370.062 326.771 370.625 325.917 371.875 325.917Z" fill="black"/>
<path d="M382.246 331.917V324.729H380.767V328.875C380.767 330.312 380.226 331.062 379.059 331.062C378.184 331.062 377.809 330.708 377.809 329.875V324.729H376.309V330.312C376.309 331.479 377.371 332.396 378.726 332.396C379.767 332.396 380.559 331.979 381.205 331.062L380.871 330.937V332.083H382.246V331.917Z" fill="black"/>
<path d="M386.451 324.729H385.472V322.812H383.993V324.729H383.035V326H383.993V331.104C383.993 331.833 384.66 332.396 385.535 332.396C385.826 332.396 386.076 332.354 386.639 332.271V330.958C386.285 331.042 386.139 331.063 385.91 331.063C385.431 331.063 385.472 331.104 385.472 330.625V326H386.639V324.729H386.451Z" fill="black"/>
<path d="M392.783 326.875C392.783 325.5 391.679 324.542 390.075 324.542C388.45 324.542 387.179 325.562 387.179 326.854C387.179 327.958 387.95 328.646 389.596 329.042L390.637 329.292C391.408 329.479 391.512 329.583 391.512 330.083C391.512 330.75 391.075 331 390.096 331C389.491 331 389.116 330.875 388.846 330.583C388.679 330.396 388.637 330.333 388.554 329.646H387.012C387.075 331.437 388.179 332.396 390.012 332.396C391.762 332.396 393.075 331.354 393.075 330C393.075 328.958 392.304 328.208 390.908 327.875L389.846 327.625C388.929 327.396 388.741 327.292 388.741 326.812C388.741 326.146 389.116 325.917 390.033 325.917C390.929 325.917 391.2 326.146 391.221 327.042H392.783V326.875Z" fill="black"/>
<path d="M395.429 324.729H394.116V332.083H395.616V324.729H395.429ZM395.429 322H394.116V323.771H395.616V322H395.429Z" fill="black"/>
<path d="M402.993 322H401.681V325.813L402.014 325.667C401.556 324.958 400.66 324.542 399.743 324.542C397.931 324.542 396.535 326.167 396.535 328.396C396.535 330.771 397.889 332.396 399.785 332.396C400.743 332.396 401.535 331.979 402.139 331.104L401.806 331V332.083H403.181V322H402.993ZM399.931 325.938C401.118 325.938 401.681 326.813 401.681 328.5C401.681 330.104 401.118 331 399.931 331C398.701 331 398.076 330.104 398.076 328.479C398.076 326.833 398.701 325.938 399.931 325.938Z" fill="black"/>
<path d="M410.823 328.792C410.823 327.729 410.74 327.083 410.552 326.562C410.094 325.417 408.844 324.542 407.531 324.542C405.594 324.542 404.136 326.208 404.136 328.5C404.136 330.812 405.531 332.396 407.511 332.396C409.115 332.396 410.406 331.312 410.719 329.604H409.219C408.865 330.708 408.448 331 407.552 331C406.844 331 406.386 330.729 406.011 330.146C405.74 329.75 405.698 329.479 405.677 328.958H410.823V328.792ZM405.719 327.875C405.802 326.583 406.406 325.917 407.531 325.917C408.656 325.917 409.24 326.625 409.24 327.687H405.719V327.875Z" fill="black"/>
<path d="M246.036 342.875C246.036 341.5 244.932 340.542 243.328 340.542C241.703 340.542 240.432 341.562 240.432 342.854C240.432 343.958 241.203 344.646 242.849 345.042L243.891 345.292C244.661 345.479 244.766 345.583 244.766 346.083C244.766 346.75 244.328 347 243.349 347C242.745 347 242.37 346.875 242.099 346.583C241.932 346.396 241.891 346.333 241.807 345.646H240.266C240.328 347.437 241.432 348.396 243.266 348.396C245.016 348.396 246.328 347.354 246.328 346C246.328 344.958 245.557 344.208 244.161 343.875L243.099 343.625C242.182 343.396 241.995 343.292 241.995 342.812C241.995 342.146 242.37 341.917 243.286 341.917C244.182 341.917 244.453 342.146 244.474 343.042H246.036V342.875Z" fill="black"/>
<path d="M253.286 347.917V340.729H251.807V344.875C251.807 346.312 251.266 347.062 250.099 347.062C249.224 347.062 248.849 346.708 248.849 345.875V340.729H247.349V346.312C247.349 347.479 248.411 348.396 249.766 348.396C250.807 348.396 251.599 347.979 252.245 347.062L251.911 346.937V348.083H253.286V347.917Z" fill="black"/>
<path d="M254.825 340.917V348.083H256.325V344.292C256.346 342.604 256.846 342.021 258.554 342.083V340.604C258.179 340.542 258.075 340.542 257.95 340.542C257.221 340.542 256.533 341.021 255.887 342.062L256.221 342.187V340.729H254.825V340.917Z" fill="black"/>
<path d="M261.973 340.729H260.994V339.833C260.994 339.354 261.077 339.292 261.598 339.292C261.681 339.292 261.723 339.292 262.161 339.333V338.063C261.723 337.979 261.577 337.958 261.348 337.958C260.327 337.958 259.515 338.729 259.515 339.729V340.729H258.577V342H259.515V348.083H260.994V342H262.161V340.729H261.973Z" fill="black"/>
<path d="M269.367 347.062C269.263 347.104 269.201 347.104 269.138 347.104C268.742 347.104 268.721 347.083 268.721 346.729V342.625C268.721 341.396 267.638 340.542 265.909 340.542C264.888 340.542 263.93 340.875 263.451 341.396C263.117 341.771 262.93 342.292 262.888 343.167H264.409C264.513 342.146 264.826 341.917 265.867 341.917C266.888 341.917 267.221 342.125 267.221 342.792V343.083C267.221 343.562 267.18 343.542 266.263 343.667C264.701 343.875 264.451 343.917 264.034 344.104C263.221 344.437 262.596 345.25 262.596 346.146C262.596 347.417 263.68 348.396 265.096 348.396C265.971 348.396 266.826 348.021 267.305 347.583C267.346 347.917 267.888 348.396 268.617 348.396C268.846 348.396 268.992 348.354 269.555 348.229V347.021L269.367 347.062ZM267.221 345.708C267.221 346.083 267.18 346.167 266.846 346.479C266.388 346.896 265.992 347.062 265.326 347.062C264.471 347.062 264.159 346.833 264.159 346.125C264.159 345.396 264.451 345.187 265.638 345.021C266.826 344.854 267.055 344.812 267.221 344.729V345.708Z" fill="black"/>
<path d="M276.114 343.271C276.072 342.583 275.864 342.021 275.593 341.625C275.114 340.979 274.156 340.542 273.176 340.542C271.281 340.542 269.864 342.208 269.864 344.542C269.864 346.792 271.26 348.396 273.156 348.396C274.822 348.396 276.072 347.208 276.218 345.333H274.718C274.51 346.625 274.135 347 273.197 347C271.968 347 271.406 346.187 271.406 344.542C271.406 342.792 271.947 341.917 273.156 341.917C274.093 341.917 274.489 342.292 274.635 343.437H276.135L276.114 343.271Z" fill="black"/>
<path d="M283.343 344.792C283.343 343.729 283.26 343.083 283.072 342.562C282.614 341.417 281.364 340.542 280.051 340.542C278.114 340.542 276.656 342.208 276.656 344.5C276.656 346.812 278.051 348.396 280.031 348.396C281.635 348.396 282.926 347.312 283.239 345.604H281.739C281.385 346.708 280.968 347 280.072 347C279.364 347 278.906 346.729 278.531 346.146C278.26 345.75 278.218 345.479 278.197 344.958H283.343V344.792ZM278.239 343.875C278.322 342.583 278.926 341.917 280.051 341.917C281.176 341.917 281.76 342.625 281.76 343.687H278.239V343.875Z" fill="black"/>
<path d="M290.838 340.729H289.859V338.812H288.38V340.729H287.421V342H288.38V347.104C288.38 347.833 289.046 348.396 289.921 348.396C290.213 348.396 290.463 348.354 291.026 348.271V346.958C290.671 347.042 290.526 347.063 290.296 347.063C289.817 347.063 289.859 347.104 289.859 346.625V342H291.026V340.729H290.838Z" fill="black"/>
<path d="M294.774 340.542C292.795 340.542 291.42 342.125 291.42 344.479C291.42 346.833 292.795 348.396 294.795 348.396C296.753 348.396 298.128 346.812 298.128 344.521C298.128 342.104 296.795 340.542 294.774 340.542ZM294.795 341.917C296.045 341.917 296.586 342.771 296.586 344.5C296.586 346.167 296.024 347 294.795 347C293.545 347 292.982 346.167 292.982 344.479C292.982 342.771 293.545 341.917 294.795 341.917Z" fill="black"/>
<path d="M305.665 340.729H304.686V338.812H303.206V340.729H302.248V342H303.206V347.104C303.206 347.833 303.873 348.396 304.748 348.396C305.04 348.396 305.29 348.354 305.852 348.271V346.958C305.498 347.042 305.352 347.063 305.123 347.063C304.644 347.063 304.686 347.104 304.686 346.625V342H305.852V340.729H305.665Z" fill="black"/>
<path d="M306.705 338.188V348.083H308.205V344.063C308.205 342.625 308.767 341.875 309.913 341.875C310.288 341.875 310.476 341.917 310.746 342.125C311.059 342.354 311.142 342.583 311.142 343.063V348.083H312.642V342.625C312.642 341.458 311.621 340.542 310.246 340.542C309.267 340.542 308.517 340.896 307.871 341.75L308.205 341.875V338H306.705V338.188Z" fill="black"/>
<path d="M320.41 344.792C320.41 343.729 320.326 343.083 320.139 342.562C319.681 341.417 318.431 340.542 317.118 340.542C315.181 340.542 313.722 342.208 313.722 344.5C313.722 346.812 315.118 348.396 317.097 348.396C318.701 348.396 319.993 347.312 320.306 345.604H318.806C318.451 346.708 318.035 347 317.139 347C316.431 347 315.972 346.729 315.597 346.146C315.326 345.75 315.285 345.479 315.264 344.958H320.41V344.792ZM315.306 343.875C315.389 342.583 315.993 341.917 317.118 341.917C318.243 341.917 318.826 342.625 318.826 343.687H315.306V343.875Z" fill="black"/>
<path d="M325.238 340.917V348.083H326.738V344.292C326.759 342.604 327.259 342.021 328.967 342.083V340.604C328.592 340.542 328.488 340.542 328.363 340.542C327.634 340.542 326.946 341.021 326.301 342.062L326.634 342.187V340.729H325.238V340.917Z" fill="black"/>
<path d="M335.97 344.792C335.97 343.729 335.886 343.083 335.699 342.562C335.241 341.417 333.991 340.542 332.678 340.542C330.741 340.542 329.282 342.208 329.282 344.5C329.282 346.812 330.678 348.396 332.657 348.396C334.261 348.396 335.553 347.312 335.866 345.604H334.366C334.011 346.708 333.595 347 332.699 347C331.991 347 331.532 346.729 331.157 346.146C330.886 345.75 330.845 345.479 330.824 344.958H335.97V344.792ZM330.866 343.875C330.949 342.583 331.553 341.917 332.678 341.917C333.803 341.917 334.386 342.625 334.386 343.687H330.866V343.875Z" fill="black"/>
<path d="M339.8 340.729H338.821V339.833C338.821 339.354 338.904 339.292 339.425 339.292C339.508 339.292 339.55 339.292 339.987 339.333V338.063C339.55 337.979 339.404 337.958 339.175 337.958C338.154 337.958 337.341 338.729 337.341 339.729V340.729H336.404V342H337.341V348.083H338.821V342H339.987V340.729H339.8Z" fill="black"/>
<path d="M347.09 344.792C347.09 343.729 347.006 343.083 346.819 342.562C346.361 341.417 345.111 340.542 343.798 340.542C341.861 340.542 340.402 342.208 340.402 344.5C340.402 346.812 341.798 348.396 343.777 348.396C345.381 348.396 346.673 347.312 346.986 345.604H345.486C345.131 346.708 344.715 347 343.819 347C343.111 347 342.652 346.729 342.277 346.146C342.006 345.75 341.965 345.479 341.944 344.958H347.09V344.792ZM341.986 343.875C342.069 342.583 342.673 341.917 343.798 341.917C344.923 341.917 345.506 342.625 345.506 343.687H341.986V343.875Z" fill="black"/>
<path d="M348.211 340.917V348.083H349.711V344.292C349.732 342.604 350.232 342.021 351.941 342.083V340.604C351.566 340.542 351.461 340.542 351.336 340.542C350.607 340.542 349.92 341.021 349.274 342.062L349.607 342.187V340.729H348.211V340.917Z" fill="black"/>
<path d="M358.943 344.792C358.943 343.729 358.86 343.083 358.672 342.562C358.214 341.417 356.964 340.542 355.651 340.542C353.714 340.542 352.256 342.208 352.256 344.5C352.256 346.812 353.651 348.396 355.631 348.396C357.235 348.396 358.526 347.312 358.839 345.604H357.339C356.985 346.708 356.568 347 355.672 347C354.964 347 354.506 346.729 354.131 346.146C353.86 345.75 353.818 345.479 353.797 344.958H358.943V344.792ZM353.839 343.875C353.922 342.583 354.526 341.917 355.651 341.917C356.776 341.917 357.36 342.625 357.36 343.687H353.839V343.875Z" fill="black"/>
<path d="M360.065 340.917V348.083H361.586V344.062C361.586 342.625 362.127 341.875 363.273 341.875C364.169 341.875 364.523 342.229 364.523 343.062V348.083H366.023V342.625C366.023 341.479 364.961 340.542 363.606 340.542C362.586 340.542 361.752 341 361.148 341.958L361.481 342.104V340.729H360.065V340.917Z" fill="black"/>
<path d="M373.207 343.271C373.166 342.583 372.957 342.021 372.686 341.625C372.207 340.979 371.249 340.542 370.27 340.542C368.374 340.542 366.957 342.208 366.957 344.542C366.957 346.792 368.353 348.396 370.249 348.396C371.916 348.396 373.166 347.208 373.311 345.333H371.811C371.603 346.625 371.228 347 370.291 347C369.061 347 368.499 346.187 368.499 344.542C368.499 342.792 369.041 341.917 370.249 341.917C371.186 341.917 371.582 342.292 371.728 343.437H373.228L373.207 343.271Z" fill="black"/>
<path d="M380.436 344.792C380.436 343.729 380.353 343.083 380.166 342.562C379.707 341.417 378.457 340.542 377.145 340.542C375.207 340.542 373.749 342.208 373.749 344.5C373.749 346.812 375.145 348.396 377.124 348.396C378.728 348.396 380.02 347.312 380.332 345.604H378.832C378.478 346.708 378.061 347 377.166 347C376.457 347 375.999 346.729 375.624 346.146C375.353 345.75 375.311 345.479 375.291 344.958H380.436V344.792ZM375.332 343.875C375.416 342.583 376.02 341.917 377.145 341.917C378.27 341.917 378.853 342.625 378.853 343.687H375.332V343.875Z" fill="black"/>
<path d="M386.556 338H385.244V348.083H386.744V338H386.556Z" fill="black"/>
<path d="M389.496 340.729H388.183V348.083H389.683V340.729H389.496ZM389.496 338H388.183V339.771H389.683V338H389.496Z" fill="black"/>
<path d="M391.185 340.917V348.083H392.706V344.062C392.706 342.625 393.247 341.875 394.393 341.875C395.289 341.875 395.643 342.229 395.643 343.062V348.083H397.143V342.625C397.143 341.479 396.081 340.542 394.726 340.542C393.706 340.542 392.872 341 392.268 341.958L392.601 342.104V340.729H391.185V340.917Z" fill="black"/>
<path d="M404.89 344.792C404.89 343.729 404.806 343.083 404.619 342.562C404.161 341.417 402.911 340.542 401.598 340.542C399.661 340.542 398.202 342.208 398.202 344.5C398.202 346.812 399.598 348.396 401.577 348.396C403.181 348.396 404.473 347.312 404.786 345.604H403.286C402.931 346.708 402.515 347 401.619 347C400.911 347 400.452 346.729 400.077 346.146C399.806 345.75 399.765 345.479 399.744 344.958H404.89V344.792ZM399.786 343.875C399.869 342.583 400.473 341.917 401.598 341.917C402.723 341.917 403.306 342.625 403.306 343.687H399.786V343.875Z" fill="black"/>
<path d="M360.703 368.667H359.391V378.75H360.891V368.667H360.703Z" fill="black"/>
<path d="M368.663 375.458C368.663 374.396 368.58 373.75 368.392 373.229C367.934 372.083 366.684 371.208 365.371 371.208C363.434 371.208 361.976 372.875 361.976 375.167C361.976 377.479 363.371 379.063 365.351 379.063C366.955 379.063 368.246 377.979 368.559 376.271H367.059C366.705 377.375 366.288 377.667 365.392 377.667C364.684 377.667 364.226 377.396 363.851 376.813C363.58 376.417 363.538 376.146 363.517 375.625H368.663V375.458ZM363.559 374.542C363.642 373.25 364.246 372.583 365.371 372.583C366.496 372.583 367.08 373.292 367.08 374.354H363.559V374.542Z" fill="black"/>
<path d="M372.451 371.396H371.472V369.479H369.993V371.396H369.035V372.667H369.993V377.771C369.993 378.5 370.66 379.062 371.535 379.062C371.826 379.062 372.076 379.021 372.639 378.937V377.625C372.285 377.708 372.139 377.729 371.91 377.729C371.431 377.729 371.472 377.771 371.472 377.292V372.667H372.639V371.396H372.451Z" fill="black"/>
<path d="M382.51 374.083C382.562 373.599 382.594 373.198 382.594 372.875C382.594 372.099 382.38 371.495 381.969 371.063C381.562 370.635 381.021 370.417 380.344 370.417C379.885 370.417 379.5 370.51 379.198 370.688C378.89 370.854 378.62 371.115 378.385 371.458H378.094C378.422 370.766 378.781 370.266 379.156 369.958C379.542 369.656 380.015 369.5 380.573 369.5C380.958 369.5 381.333 369.609 381.698 369.813C382.068 370.021 382.37 370.365 382.594 370.833C382.828 371.307 382.948 371.953 382.948 372.771C382.948 374.302 382.609 375.677 381.948 376.896C381.198 378.271 380.245 378.958 379.094 378.958C378.411 378.958 377.87 378.76 377.469 378.375C377.078 377.974 376.885 377.438 376.885 376.771C376.885 376.328 376.969 375.875 377.135 375.417C377.297 374.948 377.521 374.542 377.802 374.208C378.078 373.88 378.364 373.615 378.656 373.417C378.958 373.224 379.265 373.078 379.573 372.979C379.875 372.885 380.177 372.833 380.469 372.833C380.828 372.833 381.146 372.906 381.427 373.042C381.713 373.182 381.958 373.349 382.156 373.542C382.276 373.667 382.396 373.849 382.51 374.083ZM382.406 374.667C382.239 374.182 381.979 373.813 381.635 373.563C381.302 373.318 380.932 373.188 380.531 373.188C380.14 373.188 379.755 373.328 379.385 373.604C379.01 373.87 378.682 374.344 378.406 375.021C378.125 375.703 377.989 376.37 377.989 377.021C377.989 377.521 378.104 377.911 378.344 378.188C378.578 378.453 378.885 378.583 379.26 378.583C379.786 378.583 380.328 378.302 380.885 377.729C381.588 377.01 382.099 375.99 382.406 374.667Z" fill="black"/>
<path d="M393.887 373.688H387.22V374.979H394.074V373.688H393.887ZM393.887 375.979H387.22V377.271H394.074V375.979H393.887Z" fill="black"/>
<path d="M414.88 374.229H406.102V375.542H415V374.229H414.88Z" fill="black"/>
<path d="M419.083 371.958V379H420.646V369H419.542C419.083 370.667 419 370.688 417 370.938V372.125H419.083V371.958Z" fill="black"/>
<path d="M277 374L280.5 368L284.5 374H277Z" stroke="black"/>
<path d="M397 378L400.5 372L404.5 378H397Z" stroke="black"/>
<path d="M463.88 464.015H559.229" stroke="black" stroke-width="1.33333"/>
<path d="M569.948 392.974H490.589" stroke="black" stroke-width="2"/>
<mask id="mask4_550_2710" style="mask-type:luminance" maskUnits="userSpaceOnUse" x="446" y="452" width="124" height="21">
<path d="M446 452.015H570V472.109H446V452.015Z" fill="white"/>
</mask>
<g mask="url(#mask4_550_2710)">
<path d="M458.417 469.682L558.396 469.776V463.838" stroke="black" stroke-width="2"/>
</g>
<path d="M490.589 392.896V378.375H488.672" stroke="black" stroke-width="2" stroke-linecap="square"/>
<mask id="mask5_550_2710" style="mask-type:luminance" maskUnits="userSpaceOnUse" x="447" y="366" width="54" height="107">
<path d="M447.333 366.682H500.667V472.109H447.333V366.682Z" fill="white"/>
</mask>
<g mask="url(#mask5_550_2710)">
<path d="M488.214 378.812L458.906 436.094V469.333" stroke="black" stroke-width="2" stroke-linecap="square"/>
</g>
<path d="M490.589 378.375L464.188 436.213V463.573" stroke="black" stroke-width="1.33333" stroke-linecap="round"/>
<path d="M464.188 436.094H458.906" stroke="black" stroke-width="0.666667" stroke-linecap="round"/>
<path d="M464.349 463.75L490.589 392.896" stroke="black" stroke-width="0.666667" stroke-linecap="square"/>
<path d="M558.682 463.573L569.88 393.015" stroke="black" stroke-width="0.666667" stroke-linecap="square"/>
<path d="M533.88 459.927V343.89" stroke="black" stroke-width="0.666667" stroke-linecap="round"/>
<path d="M458.964 431.125V343.953" stroke="black" stroke-width="0.666667" stroke-linecap="round"/>
<mask id="mask6_550_2710" style="mask-type:luminance" maskUnits="userSpaceOnUse" x="547" y="381" width="35" height="92">
<path d="M547.333 381.349H582V472.109H547.333V381.349Z" fill="white"/>
</mask>
<g mask="url(#mask6_550_2710)">
<path d="M559.458 469.526L569.948 392.974" stroke="black" stroke-width="2" stroke-linecap="square"/>
</g>
<path d="M533.88 463.479L550.948 392.724" stroke="black" stroke-width="0.666667" stroke-linecap="square"/>
<path d="M464.88 354.682H478.573" stroke="black" stroke-width="0.666667" stroke-linecap="round"/>
<path d="M514.458 354.682H532.458" stroke="black" stroke-width="0.666667" stroke-linecap="round"/>
<path d="M527.016 356.515L533.953 354.656L527.016 352.797V356.515Z" fill="black"/>
<path d="M466.151 352.844L459.214 354.703L466.151 356.562V352.844Z" fill="black"/>
<path d="M487.925 354.792L490.487 351.104H488.779L487.216 353.5L485.633 351.104H483.904L486.362 354.729L483.779 358.459H485.487L487.154 355.938L488.821 358.459H490.55L488.008 354.667L487.925 354.792Z" fill="black"/>
<path d="M499.892 354H492V355H500V354H499.892Z" fill="black"/>
<path d="M512.946 353.792C512.998 353.308 513.029 352.907 513.029 352.584C513.029 351.808 512.815 351.204 512.404 350.771C511.998 350.344 511.456 350.125 510.779 350.125C510.321 350.125 509.935 350.219 509.633 350.396C509.326 350.563 509.055 350.823 508.821 351.167H508.529C508.857 350.474 509.217 349.974 509.592 349.667C509.977 349.365 510.451 349.209 511.008 349.209C511.394 349.209 511.769 349.318 512.133 349.521C512.503 349.73 512.805 350.073 513.029 350.542C513.263 351.016 513.383 351.662 513.383 352.48C513.383 354.011 513.045 355.386 512.383 356.605C511.633 357.98 510.68 358.667 509.529 358.667C508.847 358.667 508.305 358.469 507.904 358.084C507.513 357.683 507.321 357.146 507.321 356.48C507.321 356.037 507.404 355.584 507.571 355.125C507.732 354.657 507.956 354.25 508.237 353.917C508.513 353.589 508.8 353.323 509.092 353.125C509.394 352.933 509.701 352.787 510.008 352.688C510.31 352.594 510.612 352.542 510.904 352.542C511.263 352.542 511.581 352.615 511.862 352.75C512.149 352.891 512.394 353.058 512.592 353.25C512.711 353.375 512.831 353.558 512.946 353.792ZM512.842 354.375C512.675 353.891 512.414 353.521 512.071 353.271C511.737 353.026 511.368 352.896 510.967 352.896C510.576 352.896 510.19 353.037 509.821 353.313C509.446 353.579 509.118 354.052 508.842 354.73C508.56 355.412 508.425 356.079 508.425 356.73C508.425 357.23 508.539 357.62 508.779 357.896C509.013 358.162 509.321 358.292 509.696 358.292C510.222 358.292 510.763 358.011 511.321 357.438C512.024 356.719 512.534 355.698 512.842 354.375Z" fill="black"/>
<path d="M549.531 416.917L580.125 391.135H598.573" stroke="black" stroke-width="0.666667"/>
<path d="M549.318 414.693L545.208 420.583L551.714 417.536L549.318 414.693Z" fill="black"/>
<path d="M611.33 389.202C611.285 388.514 611.059 387.952 610.766 387.556C610.247 386.91 609.208 386.473 608.147 386.473C606.093 386.473 604.558 388.139 604.558 390.473C604.558 392.723 606.07 394.327 608.125 394.327C609.93 394.327 611.285 393.139 611.443 391.264H609.818C609.592 392.556 609.186 392.931 608.17 392.931C606.838 392.931 606.228 392.118 606.228 390.473C606.228 388.723 606.815 387.848 608.125 387.848C609.14 387.848 609.569 388.223 609.727 389.368H611.353L611.33 389.202Z" fill="black"/>
<path d="M618.712 393.848V386.66H617.109V390.806C617.109 392.243 616.522 392.993 615.258 392.993C614.31 392.993 613.904 392.639 613.904 391.806V386.66H612.278V392.243C612.278 393.41 613.43 394.327 614.897 394.327C616.026 394.327 616.884 393.91 617.583 392.993L617.222 392.868V394.014H618.712V393.848Z" fill="black"/>
<path d="M623.269 386.66H622.208V384.744H620.605V386.66H619.566V387.931H620.605V393.035C620.605 393.764 621.327 394.327 622.275 394.327C622.591 394.327 622.862 394.285 623.472 394.202V392.889C623.088 392.973 622.93 392.994 622.682 392.994C622.162 392.994 622.208 393.035 622.208 392.556V387.931H623.472V386.66H623.269Z" fill="black"/>
<path d="M629.812 383.931H628.389V394.014H630.015V383.931H629.812Z" fill="black"/>
<path d="M632.997 386.66H631.574V394.014H633.2V386.66H632.997ZM632.997 383.931H631.574V385.702H633.2V383.931H632.997Z" fill="black"/>
<path d="M634.827 386.848V394.014H636.475V389.993C636.475 388.556 637.062 387.806 638.303 387.806C639.274 387.806 639.658 388.16 639.658 388.993V394.014H641.283V388.556C641.283 387.41 640.132 386.473 638.665 386.473C637.559 386.473 636.656 386.931 636.001 387.889L636.362 388.035V386.66H634.827V386.848Z" fill="black"/>
<path d="M649.678 390.723C649.678 389.66 649.587 389.014 649.384 388.493C648.887 387.348 647.533 386.473 646.111 386.473C644.011 386.473 642.431 388.139 642.431 390.431C642.431 392.743 643.944 394.327 646.088 394.327C647.826 394.327 649.226 393.243 649.565 391.535H647.939C647.556 392.639 647.104 392.931 646.133 392.931C645.366 392.931 644.869 392.66 644.463 392.077C644.169 391.681 644.124 391.41 644.102 390.889H649.678V390.723ZM644.147 389.806C644.237 388.514 644.892 387.848 646.111 387.848C647.33 387.848 647.962 388.556 647.962 389.618H644.147V389.806Z" fill="black"/>
<path d="M657.844 386.66H656.783V385.764C656.783 385.285 656.874 385.223 657.438 385.223C657.528 385.223 657.573 385.223 658.047 385.264V383.994C657.573 383.91 657.415 383.889 657.167 383.889C656.061 383.889 655.18 384.66 655.18 385.66V386.66H654.165V387.931H655.18V394.014H656.783V387.931H658.047V386.66H657.844Z" fill="black"/>
<path d="M662.064 386.473C659.919 386.473 658.429 388.056 658.429 390.41C658.429 392.764 659.919 394.327 662.087 394.327C664.209 394.327 665.699 392.743 665.699 390.452C665.699 388.035 664.254 386.473 662.064 386.473ZM662.087 387.848C663.441 387.848 664.028 388.702 664.028 390.431C664.028 392.098 663.418 392.931 662.087 392.931C660.732 392.931 660.123 392.098 660.123 390.41C660.123 388.702 660.732 387.848 662.087 387.848Z" fill="black"/>
<path d="M666.959 386.848V394.014H668.584V390.223C668.607 388.535 669.149 387.952 671 388.014V386.535C670.594 386.473 670.481 386.473 670.345 386.473C669.555 386.473 668.81 386.952 668.11 387.993L668.472 388.118V386.66H666.959V386.848Z" fill="black"/>
<path d="M605.078 402.848V410.015H606.598V405.994C606.598 404.556 607.139 403.806 608.284 403.806C609.179 403.806 609.533 404.16 609.533 404.994V410.015H611.031V404.556C611.031 403.41 609.97 402.473 608.617 402.473C607.597 402.473 606.764 402.931 606.161 403.89L606.494 404.035V402.66H605.078V402.848Z" fill="black"/>
<path d="M618.771 406.723C618.771 405.66 618.688 405.015 618.5 404.494C618.042 403.348 616.793 402.473 615.482 402.473C613.546 402.473 612.09 404.14 612.09 406.431C612.09 408.744 613.484 410.327 615.461 410.327C617.064 410.327 618.355 409.244 618.667 407.535H617.168C616.814 408.64 616.398 408.931 615.503 408.931C614.795 408.931 614.337 408.66 613.963 408.077C613.692 407.681 613.651 407.41 613.63 406.89H618.771V406.723ZM613.671 405.806C613.755 404.515 614.358 403.848 615.482 403.848C616.606 403.848 617.189 404.556 617.189 405.619H613.671V405.806Z" fill="black"/>
<path d="M623.18 406.348L625.74 402.66H624.033L622.472 405.056L620.891 402.66H619.163L621.619 406.285L619.038 410.015H620.745L622.41 407.494L624.075 410.015H625.803L623.263 406.223L623.18 406.348Z" fill="black"/>
<path d="M629.216 402.66H628.238V400.744H626.76V402.66H625.803V403.931H626.76V409.035C626.76 409.764 627.426 410.327 628.3 410.327C628.592 410.327 628.842 410.285 629.404 410.202V408.889C629.05 408.973 628.904 408.994 628.675 408.994C628.196 408.994 628.238 409.035 628.238 408.556V403.931H629.404V402.66H629.216Z" fill="black"/>
<path d="M639.682 405.202C639.641 404.515 639.433 403.952 639.162 403.556C638.683 402.91 637.726 402.473 636.748 402.473C634.853 402.473 633.438 404.14 633.438 406.473C633.438 408.723 634.833 410.327 636.727 410.327C638.392 410.327 639.641 409.14 639.786 407.265H638.288C638.08 408.556 637.705 408.931 636.768 408.931C635.54 408.931 634.978 408.119 634.978 406.473C634.978 404.723 635.52 403.848 636.727 403.848C637.663 403.848 638.059 404.223 638.205 405.369H639.703L639.682 405.202Z" fill="black"/>
<path d="M643.512 402.473C641.535 402.473 640.161 404.056 640.161 406.41C640.161 408.765 641.535 410.327 643.533 410.327C645.489 410.327 646.863 408.744 646.863 406.452C646.863 404.035 645.531 402.473 643.512 402.473ZM643.533 403.848C644.782 403.848 645.323 404.702 645.323 406.431C645.323 408.098 644.761 408.931 643.533 408.931C642.284 408.931 641.722 408.098 641.722 406.41C641.722 404.702 642.284 403.848 643.533 403.848Z" fill="black"/>
<path d="M648.025 402.848V410.015H649.524V406.223C649.545 404.535 650.044 403.952 651.751 404.015V402.535C651.377 402.473 651.272 402.473 651.148 402.473C650.419 402.473 649.732 402.952 649.087 403.994L649.42 404.119V402.66H648.025V402.848Z" fill="black"/>
<path d="M652.461 402.848V410.015H653.981V405.994C653.981 404.556 654.522 403.806 655.667 403.806C656.562 403.806 656.916 404.16 656.916 404.994V410.015H658.414V404.556C658.414 403.41 657.353 402.473 656 402.473C654.98 402.473 654.147 402.931 653.544 403.89L653.877 404.035V402.66H652.461V402.848Z" fill="black"/>
<path d="M666.154 406.723C666.154 405.66 666.07 405.015 665.883 404.494C665.425 403.348 664.176 402.473 662.865 402.473C660.929 402.473 659.472 404.14 659.472 406.431C659.472 408.744 660.867 410.327 662.844 410.327C664.447 410.327 665.737 409.244 666.05 407.535H664.551C664.197 408.64 663.781 408.931 662.886 408.931C662.178 408.931 661.72 408.66 661.346 408.077C661.075 407.681 661.033 407.41 661.013 406.89H666.154V406.723ZM661.054 405.806C661.137 404.515 661.741 403.848 662.865 403.848C663.989 403.848 664.572 404.556 664.572 405.619H661.054V405.806Z" fill="black"/>
<path d="M667.274 402.848V410.015H668.773V406.223C668.794 404.535 669.293 403.952 671 404.015V402.535C670.625 402.473 670.521 402.473 670.396 402.473C669.668 402.473 668.981 402.952 668.336 403.994L668.669 404.119V402.66H667.274V402.848Z" fill="black"/>
<path d="M466.348 309.771H465.036V317.125H466.536V309.771H466.348ZM466.348 307.042H465.036V308.812H466.536V307.042H466.348Z" fill="black"/>
<path d="M470.746 309.771H469.767V308.875C469.767 308.396 469.85 308.333 470.371 308.333C470.454 308.333 470.496 308.333 470.933 308.375V307.104C470.496 307.021 470.35 307 470.121 307C469.1 307 468.287 307.771 468.287 308.771V309.771H467.35V311.042H468.287V317.125H469.767V311.042H470.933V309.771H470.746Z" fill="black"/>
<path d="M478.742 313.458L481.305 309.771H479.597L478.034 312.167L476.451 309.771H474.722L477.18 313.396L474.597 317.125H476.305L477.972 314.604L479.638 317.125H481.367L478.826 313.333L478.742 313.458Z" fill="black"/>
<path d="M492.22 312.062H485.553V313.354H492.407V312.062H492.22ZM492.22 314.354H485.553V315.646H492.407V314.354H492.22Z" fill="black"/>
<path d="M503.192 307.042H501.88V310.854L502.213 310.708C501.755 310 500.859 309.583 499.942 309.583C498.13 309.583 496.734 311.208 496.734 313.437C496.734 315.812 498.088 317.437 499.984 317.437C500.942 317.437 501.734 317.021 502.338 316.146L502.005 316.042V317.125H503.38V307.042H503.192ZM500.13 310.979C501.317 310.979 501.88 311.854 501.88 313.542C501.88 315.146 501.317 316.042 500.13 316.042C498.901 316.042 498.276 315.146 498.276 313.521C498.276 311.875 498.901 310.979 500.13 310.979Z" fill="black"/>
<path d="M511.022 313.833C511.022 312.771 510.939 312.125 510.752 311.604C510.293 310.458 509.043 309.583 507.731 309.583C505.793 309.583 504.335 311.25 504.335 313.542C504.335 315.854 505.731 317.437 507.71 317.437C509.314 317.437 510.606 316.354 510.918 314.646H509.418C509.064 315.75 508.647 316.042 507.752 316.042C507.043 316.042 506.585 315.771 506.21 315.187C505.939 314.792 505.897 314.521 505.877 314H511.022V313.833ZM505.918 312.917C506.002 311.625 506.606 310.958 507.731 310.958C508.856 310.958 509.439 311.667 509.439 312.729H505.918V312.917Z" fill="black"/>
<path d="M517.436 311.917C517.436 310.542 516.332 309.583 514.727 309.583C513.102 309.583 511.832 310.604 511.832 311.896C511.832 313 512.602 313.687 514.248 314.083L515.29 314.333C516.061 314.521 516.165 314.625 516.165 315.125C516.165 315.792 515.727 316.042 514.748 316.042C514.144 316.042 513.769 315.917 513.498 315.625C513.332 315.437 513.29 315.375 513.207 314.687H511.665C511.727 316.479 512.832 317.437 514.665 317.437C516.415 317.437 517.727 316.396 517.727 315.042C517.727 314 516.957 313.25 515.561 312.917L514.498 312.667C513.582 312.437 513.394 312.333 513.394 311.854C513.394 311.187 513.769 310.958 514.686 310.958C515.582 310.958 515.852 311.187 515.873 312.083H517.436V311.917Z" fill="black"/>
<path d="M520.082 309.771H518.769V317.125H520.269V309.771H520.082ZM520.082 307.042H518.769V308.812H520.269V307.042H520.082Z" fill="black"/>
<path d="M521.771 309.958V317.125H523.271V313.333C523.292 311.646 523.792 311.062 525.5 311.125V309.646C525.125 309.583 525.021 309.583 524.896 309.583C524.167 309.583 523.479 310.062 522.833 311.104L523.167 311.229V309.771H521.771V309.958Z" fill="black"/>
<path d="M532.502 313.833C532.502 312.771 532.419 312.125 532.232 311.604C531.773 310.458 530.523 309.583 529.211 309.583C527.273 309.583 525.815 311.25 525.815 313.542C525.815 315.854 527.211 317.437 529.19 317.437C530.794 317.437 532.086 316.354 532.398 314.646H530.898C530.544 315.75 530.127 316.042 529.232 316.042C528.523 316.042 528.065 315.771 527.69 315.187C527.419 314.792 527.377 314.521 527.357 314H532.502V313.833ZM527.398 312.917C527.482 311.625 528.086 310.958 529.211 310.958C530.336 310.958 530.919 311.667 530.919 312.729H527.398V312.917Z" fill="black"/>
<path d="M539.499 307.042H538.187V310.854L538.52 310.708C538.062 310 537.166 309.583 536.249 309.583C534.437 309.583 533.041 311.208 533.041 313.437C533.041 315.812 534.395 317.437 536.291 317.437C537.249 317.437 538.041 317.021 538.645 316.146L538.312 316.042V317.125H539.687V307.042H539.499ZM536.437 310.979C537.624 310.979 538.187 311.854 538.187 313.542C538.187 315.146 537.624 316.042 536.437 316.042C535.207 316.042 534.582 315.146 534.582 313.521C534.582 311.875 535.207 310.979 536.437 310.979Z" fill="black"/>
<path d="M550.619 307.042H549.307V310.854L549.64 310.708C549.182 310 548.286 309.583 547.369 309.583C545.557 309.583 544.161 311.208 544.161 313.437C544.161 315.812 545.515 317.437 547.411 317.437C548.369 317.437 549.161 317.021 549.765 316.146L549.432 316.042V317.125H550.807V307.042H550.619ZM547.557 310.979C548.744 310.979 549.307 311.854 549.307 313.542C549.307 315.146 548.744 316.042 547.557 316.042C546.327 316.042 545.702 315.146 545.702 313.521C545.702 311.875 546.327 310.979 547.557 310.979Z" fill="black"/>
<path d="M553.428 309.771H552.116V317.125H553.616V309.771H553.428ZM553.428 307.042H552.116V308.812H553.616V307.042H553.428Z" fill="black"/>
<path d="M560.409 311.917C560.409 310.542 559.305 309.583 557.701 309.583C556.076 309.583 554.805 310.604 554.805 311.896C554.805 313 555.576 313.687 557.222 314.083L558.263 314.333C559.034 314.521 559.138 314.625 559.138 315.125C559.138 315.792 558.701 316.042 557.722 316.042C557.117 316.042 556.742 315.917 556.472 315.625C556.305 315.437 556.263 315.375 556.18 314.687H554.638C554.701 316.479 555.805 317.437 557.638 317.437C559.388 317.437 560.701 316.396 560.701 315.042C560.701 314 559.93 313.25 558.534 312.917L557.472 312.667C556.555 312.437 556.367 312.333 556.367 311.854C556.367 311.187 556.742 310.958 557.659 310.958C558.555 310.958 558.826 311.187 558.847 312.083H560.409V311.917Z" fill="black"/>
<path d="M564.451 309.771H563.472V307.854H561.992V309.771H561.034V311.042H561.992V316.146C561.992 316.875 562.659 317.437 563.534 317.437C563.826 317.437 564.076 317.396 564.638 317.312V316C564.284 316.083 564.138 316.104 563.909 316.104C563.43 316.104 563.472 316.146 563.472 315.667V311.042H564.638V309.771H564.451Z" fill="black"/>
<path d="M571.887 316.104C571.782 316.146 571.72 316.146 571.657 316.146C571.262 316.146 571.241 316.125 571.241 315.771V311.667C571.241 310.437 570.157 309.583 568.428 309.583C567.407 309.583 566.449 309.917 565.97 310.437C565.637 310.812 565.449 311.333 565.407 312.208H566.928C567.032 311.187 567.345 310.958 568.387 310.958C569.407 310.958 569.741 311.167 569.741 311.833V312.125C569.741 312.604 569.699 312.583 568.782 312.708C567.22 312.917 566.97 312.958 566.553 313.146C565.741 313.479 565.116 314.292 565.116 315.187C565.116 316.458 566.199 317.437 567.616 317.437C568.491 317.437 569.345 317.062 569.824 316.625C569.866 316.958 570.407 317.437 571.137 317.437C571.366 317.437 571.512 317.396 572.074 317.271V316.062L571.887 316.104ZM569.741 314.75C569.741 315.125 569.699 315.208 569.366 315.521C568.907 315.937 568.512 316.104 567.845 316.104C566.991 316.104 566.678 315.875 566.678 315.167C566.678 314.437 566.97 314.229 568.157 314.062C569.345 313.896 569.574 313.854 569.741 313.771V314.75Z" fill="black"/>
<path d="M572.904 309.958V317.125H574.425V313.104C574.425 311.667 574.967 310.917 576.112 310.917C577.008 310.917 577.362 311.271 577.362 312.104V317.125H578.862V311.667C578.862 310.521 577.8 309.583 576.446 309.583C575.425 309.583 574.592 310.042 573.987 311L574.321 311.146V309.771H572.904V309.958Z" fill="black"/>
<path d="M586.047 312.312C586.005 311.625 585.797 311.062 585.526 310.667C585.047 310.021 584.088 309.583 583.109 309.583C581.213 309.583 579.797 311.25 579.797 313.583C579.797 315.833 581.192 317.437 583.088 317.437C584.755 317.437 586.005 316.25 586.151 314.375H584.651C584.442 315.667 584.067 316.042 583.13 316.042C581.901 316.042 581.338 315.229 581.338 313.583C581.338 311.833 581.88 310.958 583.088 310.958C584.026 310.958 584.422 311.333 584.567 312.479H586.067L586.047 312.312Z" fill="black"/>
<path d="M593.276 313.833C593.276 312.771 593.192 312.125 593.005 311.604C592.547 310.458 591.297 309.583 589.984 309.583C588.047 309.583 586.588 311.25 586.588 313.542C586.588 315.854 587.984 317.437 589.963 317.437C591.567 317.437 592.859 316.354 593.172 314.646H591.672C591.317 315.75 590.901 316.042 590.005 316.042C589.297 316.042 588.838 315.771 588.463 315.187C588.192 314.792 588.151 314.521 588.13 314H593.276V313.833ZM588.172 312.917C588.255 311.625 588.859 310.958 589.984 310.958C591.109 310.958 591.692 311.667 591.692 312.729H588.172V312.917Z" fill="black"/>
<path d="M597.896 307.229V317.125H599.292V316.062L598.958 316.187C599.479 317 600.333 317.437 601.312 317.437C603.146 317.437 604.542 315.75 604.542 313.437C604.542 311.167 603.208 309.583 601.354 309.583C600.396 309.583 599.583 310 599.062 310.771L599.396 310.917V307.042H597.896V307.229ZM601.146 310.979C602.396 310.979 602.979 311.875 602.979 313.542C602.979 315.146 602.354 316.042 601.146 316.042C599.958 316.042 599.396 315.146 599.396 313.521C599.396 311.875 599.958 310.979 601.146 310.979Z" fill="black"/>
<path d="M607.642 307.229L604.434 317.396H605.538L608.809 307.042H607.705L607.642 307.229Z" fill="black"/>
<path d="M609.224 309.958V317.125H610.745V313.104C610.745 311.667 611.287 310.917 612.432 310.917C613.328 310.917 613.682 311.271 613.682 312.104V317.125H615.182V311.667C615.182 310.521 614.12 309.583 612.766 309.583C611.745 309.583 610.912 310.042 610.307 311L610.641 311.146V309.771H609.224V309.958Z" fill="black"/>
<path d="M467.973 325.583C465.994 325.583 464.619 327.167 464.619 329.521C464.619 331.875 465.994 333.437 467.994 333.437C469.952 333.437 471.327 331.854 471.327 329.562C471.327 327.146 469.994 325.583 467.973 325.583ZM467.994 326.958C469.244 326.958 469.786 327.812 469.786 329.542C469.786 331.208 469.223 332.042 467.994 332.042C466.744 332.042 466.182 331.208 466.182 329.521C466.182 327.812 466.744 326.958 467.994 326.958Z" fill="black"/>
<path d="M478.366 332.958V325.771H476.887V329.917C476.887 331.354 476.345 332.104 475.178 332.104C474.303 332.104 473.928 331.75 473.928 330.917V325.771H472.428V331.354C472.428 332.521 473.491 333.437 474.845 333.437C475.887 333.437 476.678 333.021 477.324 332.104L476.991 331.979V333.125H478.366V332.958Z" fill="black"/>
<path d="M482.571 325.771H481.592V323.854H480.112V325.771H479.154V327.042H480.112V332.146C480.112 332.875 480.779 333.437 481.654 333.437C481.946 333.437 482.196 333.396 482.758 333.312V332C482.404 332.083 482.258 332.104 482.029 332.104C481.55 332.104 481.592 332.146 481.592 331.667V327.042H482.758V325.771H482.571Z" fill="black"/>
<path d="M488.902 327.917C488.902 326.542 487.798 325.583 486.194 325.583C484.569 325.583 483.298 326.604 483.298 327.896C483.298 329 484.069 329.687 485.715 330.083L486.757 330.333C487.527 330.521 487.632 330.625 487.632 331.125C487.632 331.792 487.194 332.042 486.215 332.042C485.611 332.042 485.236 331.917 484.965 331.625C484.798 331.437 484.757 331.375 484.673 330.687H483.132C483.194 332.479 484.298 333.437 486.132 333.437C487.882 333.437 489.194 332.396 489.194 331.042C489.194 330 488.423 329.25 487.027 328.917L485.965 328.667C485.048 328.437 484.861 328.333 484.861 327.854C484.861 327.187 485.236 326.958 486.152 326.958C487.048 326.958 487.319 327.187 487.34 328.083H488.902V327.917Z" fill="black"/>
<path d="M491.548 325.771H490.236V333.125H491.736V325.771H491.548ZM491.548 323.042H490.236V324.812H491.736V323.042H491.548Z" fill="black"/>
<path d="M499.112 323.042H497.8V326.854L498.133 326.708C497.675 326 496.779 325.583 495.862 325.583C494.05 325.583 492.654 327.208 492.654 329.437C492.654 331.812 494.008 333.437 495.904 333.437C496.862 333.437 497.654 333.021 498.258 332.146L497.925 332.042V333.125H499.3V323.042H499.112ZM496.05 326.979C497.237 326.979 497.8 327.854 497.8 329.542C497.8 331.146 497.237 332.042 496.05 332.042C494.821 332.042 494.196 331.146 494.196 329.521C494.196 327.875 494.821 326.979 496.05 326.979Z" fill="black"/>
<path d="M506.942 329.833C506.942 328.771 506.859 328.125 506.672 327.604C506.213 326.458 504.963 325.583 503.651 325.583C501.713 325.583 500.255 327.25 500.255 329.542C500.255 331.854 501.651 333.437 503.63 333.437C505.234 333.437 506.526 332.354 506.838 330.646H505.338C504.984 331.75 504.567 332.042 503.672 332.042C502.963 332.042 502.505 331.771 502.13 331.187C501.859 330.792 501.817 330.521 501.797 330H506.942V329.833ZM501.838 328.917C501.922 327.625 502.526 326.958 503.651 326.958C504.776 326.958 505.359 327.667 505.359 328.729H501.838V328.917Z" fill="black"/>
<path d="M517.062 327.917C517.062 326.542 515.958 325.583 514.354 325.583C512.729 325.583 511.458 326.604 511.458 327.896C511.458 329 512.229 329.687 513.875 330.083L514.917 330.333C515.687 330.521 515.792 330.625 515.792 331.125C515.792 331.792 515.354 332.042 514.375 332.042C513.771 332.042 513.396 331.917 513.125 331.625C512.958 331.437 512.917 331.375 512.833 330.687H511.292C511.354 332.479 512.458 333.437 514.292 333.437C516.042 333.437 517.354 332.396 517.354 331.042C517.354 330 516.583 329.25 515.187 328.917L514.125 328.667C513.208 328.437 513.021 328.333 513.021 327.854C513.021 327.187 513.396 326.958 514.312 326.958C515.208 326.958 515.479 327.187 515.5 328.083H517.062V327.917Z" fill="black"/>
<path d="M524.312 332.958V325.771H522.833V329.917C522.833 331.354 522.292 332.104 521.125 332.104C520.25 332.104 519.875 331.75 519.875 330.917V325.771H518.375V331.354C518.375 332.521 519.437 333.437 520.792 333.437C521.833 333.437 522.625 333.021 523.271 332.104L522.937 331.979V333.125H524.312V332.958Z" fill="black"/>
<path d="M525.851 325.958V333.125H527.351V329.333C527.372 327.646 527.872 327.062 529.58 327.125V325.646C529.205 325.583 529.101 325.583 528.976 325.583C528.247 325.583 527.559 326.062 526.913 327.104L527.247 327.229V325.771H525.851V325.958Z" fill="black"/>
<path d="M532.999 325.771H532.02V324.875C532.02 324.396 532.103 324.333 532.624 324.333C532.707 324.333 532.749 324.333 533.187 324.375V323.104C532.749 323.021 532.603 323 532.374 323C531.353 323 530.541 323.771 530.541 324.771V325.771H529.603V327.042H530.541V333.125H532.02V327.042H533.187V325.771H532.999Z" fill="black"/>
<path d="M540.393 332.104C540.289 332.146 540.227 332.146 540.164 332.146C539.768 332.146 539.747 332.125 539.747 331.771V327.667C539.747 326.437 538.664 325.583 536.935 325.583C535.914 325.583 534.956 325.917 534.477 326.437C534.143 326.812 533.956 327.333 533.914 328.208H535.435C535.539 327.187 535.852 326.958 536.893 326.958C537.914 326.958 538.247 327.167 538.247 327.833V328.125C538.247 328.604 538.206 328.583 537.289 328.708C535.727 328.917 535.477 328.958 535.06 329.146C534.247 329.479 533.622 330.292 533.622 331.187C533.622 332.458 534.706 333.437 536.122 333.437C536.997 333.437 537.852 333.062 538.331 332.625C538.372 332.958 538.914 333.437 539.643 333.437C539.872 333.437 540.018 333.396 540.581 333.271V332.062L540.393 332.104ZM538.247 330.75C538.247 331.125 538.206 331.208 537.872 331.521C537.414 331.937 537.018 332.104 536.352 332.104C535.497 332.104 535.185 331.875 535.185 331.167C535.185 330.437 535.477 330.229 536.664 330.062C537.852 329.896 538.081 329.854 538.247 329.771V330.75Z" fill="black"/>
<path d="M547.14 328.312C547.098 327.625 546.89 327.062 546.619 326.667C546.14 326.021 545.182 325.583 544.202 325.583C542.307 325.583 540.89 327.25 540.89 329.583C540.89 331.833 542.286 333.437 544.182 333.437C545.848 333.437 547.098 332.25 547.244 330.375H545.744C545.536 331.667 545.161 332.042 544.223 332.042C542.994 332.042 542.432 331.229 542.432 329.583C542.432 327.833 542.973 326.958 544.182 326.958C545.119 326.958 545.515 327.333 545.661 328.479H547.161L547.14 328.312Z" fill="black"/>
<path d="M554.369 329.833C554.369 328.771 554.286 328.125 554.098 327.604C553.64 326.458 552.39 325.583 551.077 325.583C549.14 325.583 547.682 327.25 547.682 329.542C547.682 331.854 549.077 333.437 551.057 333.437C552.661 333.437 553.952 332.354 554.265 330.646H552.765C552.411 331.75 551.994 332.042 551.098 332.042C550.39 332.042 549.932 331.771 549.557 331.187C549.286 330.792 549.244 330.521 549.223 330H554.369V329.833ZM549.265 328.917C549.348 327.625 549.952 326.958 551.077 326.958C552.202 326.958 552.786 327.667 552.786 328.729H549.265V328.917Z" fill="black"/>
<path d="M560.782 327.917C560.782 326.542 559.678 325.583 558.074 325.583C556.449 325.583 555.178 326.604 555.178 327.896C555.178 329 555.949 329.687 557.595 330.083L558.637 330.333C559.407 330.521 559.512 330.625 559.512 331.125C559.512 331.792 559.074 332.042 558.095 332.042C557.491 332.042 557.116 331.917 556.845 331.625C556.678 331.437 556.637 331.375 556.553 330.687H555.012C555.074 332.479 556.178 333.437 558.012 333.437C559.762 333.437 561.074 332.396 561.074 331.042C561.074 330 560.303 329.25 558.907 328.917L557.845 328.667C556.928 328.437 556.741 328.333 556.741 327.854C556.741 327.187 557.116 326.958 558.032 326.958C558.928 326.958 559.199 327.187 559.22 328.083H560.782V327.917Z" fill="black"/>
<path d="M568.531 325.771H567.552V323.854H566.072V325.771H565.114V327.042H566.072V332.146C566.072 332.875 566.739 333.437 567.614 333.437C567.906 333.437 568.156 333.396 568.718 333.312V332C568.364 332.083 568.218 332.104 567.989 332.104C567.51 332.104 567.552 332.146 567.552 331.667V327.042H568.718V325.771H568.531Z" fill="black"/>
<path d="M569.571 323.229V333.125H571.071V329.104C571.071 327.667 571.633 326.917 572.779 326.917C573.154 326.917 573.342 326.958 573.612 327.167C573.925 327.396 574.008 327.625 574.008 328.104V333.125H575.508V327.667C575.508 326.5 574.487 325.583 573.112 325.583C572.133 325.583 571.383 325.937 570.737 326.792L571.071 326.917V323.042H569.571V323.229Z" fill="black"/>
<path d="M583.276 329.833C583.276 328.771 583.192 328.125 583.005 327.604C582.547 326.458 581.297 325.583 579.984 325.583C578.047 325.583 576.588 327.25 576.588 329.542C576.588 331.854 577.984 333.437 579.963 333.437C581.567 333.437 582.859 332.354 583.172 330.646H581.672C581.317 331.75 580.901 332.042 580.005 332.042C579.297 332.042 578.838 331.771 578.463 331.187C578.192 330.792 578.151 330.521 578.13 330H583.276V329.833ZM578.172 328.917C578.255 327.625 578.859 326.958 579.984 326.958C581.109 326.958 581.692 327.667 581.692 328.729H578.172V328.917Z" fill="black"/>
<path d="M584.397 325.958V333.125H585.918V329.104C585.918 327.667 586.46 326.917 587.606 326.917C588.502 326.917 588.856 327.271 588.856 328.104V333.125H590.356V327.667C590.356 326.521 589.293 325.583 587.939 325.583C586.918 325.583 586.085 326.042 585.481 327L585.814 327.146V325.771H584.397V325.958Z" fill="black"/>
<path d="M593.936 331.375H592.352V333.125H594.123V331.375H593.936ZM593.936 325.771H592.352V327.521H594.123V325.771H593.936Z" fill="black"/>
<path d="M500.375 358C500.414 357.277 500.562 356.648 500.82 356.113C501.082 355.578 501.59 355.092 502.344 354.654L503.469 354.004C503.973 353.711 504.326 353.461 504.529 353.254C504.85 352.93 505.01 352.559 505.01 352.141C505.01 351.652 504.863 351.266 504.57 350.98C504.277 350.691 503.887 350.547 503.398 350.547C502.676 350.547 502.176 350.82 501.898 351.367C501.75 351.66 501.668 352.066 501.652 352.586H500.58C500.592 351.855 500.727 351.26 500.984 350.799C501.441 349.986 502.248 349.58 503.404 349.58C504.365 349.58 505.066 349.84 505.508 350.359C505.953 350.879 506.176 351.457 506.176 352.094C506.176 352.766 505.939 353.34 505.467 353.816C505.193 354.094 504.703 354.43 503.996 354.824L503.193 355.27C502.811 355.48 502.51 355.682 502.291 355.873C501.9 356.213 501.654 356.59 501.553 357.004H506.135V358H500.375Z" fill="black"/>
<path d="M33.7708 255.875C33.7708 254.5 32.6667 253.542 31.0625 253.542C29.4375 253.542 28.1667 254.562 28.1667 255.854C28.1667 256.958 28.9375 257.646 30.5833 258.042L31.625 258.292C32.3958 258.479 32.5 258.583 32.5 259.083C32.5 259.75 32.0625 260 31.0833 260C30.4792 260 30.1042 259.875 29.8333 259.583C29.6667 259.396 29.625 259.333 29.5417 258.646H28C28.0625 260.437 29.1667 261.396 31 261.396C32.75 261.396 34.0625 260.354 34.0625 259C34.0625 257.958 33.2917 257.208 31.8958 256.875L30.8333 256.625C29.9167 256.396 29.7292 256.292 29.7292 255.812C29.7292 255.146 30.1042 254.917 31.0208 254.917C31.9167 254.917 32.1875 255.146 32.2083 256.042H33.7708V255.875Z" fill="black"/>
<path d="M38.0417 253.542C36.0625 253.542 34.6875 255.125 34.6875 257.479C34.6875 259.833 36.0625 261.396 38.0625 261.396C40.0208 261.396 41.3958 259.812 41.3958 257.521C41.3958 255.104 40.0625 253.542 38.0417 253.542ZM38.0625 254.917C39.3125 254.917 39.8542 255.771 39.8542 257.5C39.8542 259.167 39.2917 260 38.0625 260C36.8125 260 36.25 259.167 36.25 257.479C36.25 255.771 36.8125 254.917 38.0625 254.917Z" fill="black"/>
<path d="M43.8508 251H42.5383V261.083H44.0383V251H43.8508Z" fill="black"/>
<path d="M51.3942 260.917V253.729H49.915V257.875C49.915 259.312 49.3733 260.062 48.2067 260.062C47.3317 260.062 46.9567 259.708 46.9567 258.875V253.729H45.4567V259.312C45.4567 260.479 46.5192 261.396 47.8733 261.396C48.915 261.396 49.7067 260.979 50.3525 260.062L50.0192 259.937V261.083H51.3942V260.917Z" fill="black"/>
<path d="M55.5992 253.729H54.62V251.812H53.1408V253.729H52.1825V255H53.1408V260.104C53.1408 260.833 53.8075 261.396 54.6825 261.396C54.9742 261.396 55.2242 261.354 55.7867 261.271V259.958C55.4325 260.042 55.2867 260.063 55.0575 260.063C54.5783 260.063 54.62 260.104 54.62 259.625V255H55.7867V253.729H55.5992Z" fill="black"/>
<path d="M57.91 253.729H56.5975V261.083H58.0975V253.729H57.91ZM57.91 251H56.5975V252.771H58.0975V251H57.91Z" fill="black"/>
<path d="M62.495 253.542C60.5158 253.542 59.1408 255.125 59.1408 257.479C59.1408 259.833 60.5158 261.396 62.5158 261.396C64.4741 261.396 65.8491 259.812 65.8491 257.521C65.8491 255.104 64.5158 253.542 62.495 253.542ZM62.5158 254.917C63.7658 254.917 64.3075 255.771 64.3075 257.5C64.3075 259.167 63.745 260 62.5158 260C61.2658 260 60.7033 259.167 60.7033 257.479C60.7033 255.771 61.2658 254.917 62.5158 254.917Z" fill="black"/>
<path d="M67.0125 253.917V261.083H68.5333V257.062C68.5333 255.625 69.075 254.875 70.2208 254.875C71.1166 254.875 71.4708 255.229 71.4708 256.062V261.083H72.9708V255.625C72.9708 254.479 71.9083 253.542 70.5541 253.542C69.5333 253.542 68.7 254 68.0958 254.958L68.4291 255.104V253.729H67.0125V253.917Z" fill="black"/>
<path d="M76.5508 259.333H74.9675V261.083H76.7383V259.333H76.5508ZM76.5508 253.729H74.9675V255.479H76.7383V253.729H76.5508Z" fill="black"/>
</g>
<defs>
<clipPath id="clip0_550_2710">
<rect width="715" height="510" fill="white"/>
</clipPath>
</defs>
</svg>
