<svg width="443" height="348" viewBox="0 0 443 348" fill="none" xmlns="http://www.w3.org/2000/svg">
<rect width="443" height="348" fill="white"/>
<path d="M133.167 321.927L160.885 330.745L159.208 316.047L130.224 307.229L133.167 321.927Z" fill="white"/>
<path d="M89.9219 295.568V200.792L76.5365 197.151" fill="white"/>
<path d="M89.9219 295.568V200.792L76.5365 197.151" stroke="black" stroke-width="1.33333"/>
<path d="M90.2552 294.839L124.75 271.943Z" fill="white"/>
<path d="M90.2552 294.839L124.75 271.943" stroke="black" stroke-width="1.33333"/>
<path d="M127.401 270.182L144.714 258.687Z" fill="white"/>
<path d="M127.401 270.182L144.714 258.687" stroke="black" stroke-width="1.33333"/>
<path d="M156.057 251.156L147.417 256.891L144.714 258.688" fill="white"/>
<path d="M156.057 251.156L147.417 256.891L144.714 258.688" stroke="black" stroke-width="1.33333"/>
<path d="M89.9219 200.792L156.198 184.344Z" fill="white"/>
<path d="M89.9219 200.792L156.198 184.344" stroke="black" stroke-width="1.33333" stroke-linecap="round"/>
<path d="M77.0729 196.661L144.995 182.453Z" fill="white"/>
<path d="M77.0729 196.661L144.995 182.453" stroke="black" stroke-width="2" stroke-linecap="round"/>
<path d="M144.859 182.557L155.599 184.099Z" fill="white"/>
<path d="M144.859 182.557L155.599 184.099" stroke="black" stroke-width="2" stroke-linecap="round"/>
<path d="M169.042 333.547L211.88 276.745Z" fill="white"/>
<mask id="mask0_549_2228" style="mask-type:luminance" maskUnits="userSpaceOnUse" x="157" y="264" width="67" height="71">
<path d="M157 264.667H223.667V334.547H157V264.667Z" fill="white"/>
</mask>
<g mask="url(#mask0_549_2228)">
<path d="M169.042 333.547L211.88 276.745" stroke="black" stroke-width="2" stroke-linecap="round"/>
</g>
<path d="M211.776 277.057V265.719" stroke="black" stroke-width="2" stroke-linecap="round"/>
<path d="M211.88 264.354L156.057 251.156V184.625" fill="white"/>
<path d="M211.88 264.354L156.057 251.156V184.625" stroke="black" stroke-width="2" stroke-linecap="round"/>
<path d="M78.849 197.885L79.1198 297.094Z" fill="white"/>
<path d="M78.849 197.885L79.1198 297.094" stroke="black" stroke-width="0.666667"/>
<path d="M87.4583 200.62L87.2448 297.005Z" fill="white"/>
<path d="M87.4583 200.62L87.2448 297.005" stroke="black" stroke-width="0.666667"/>
<path d="M80.4583 197.677L145.974 183.401Z" fill="white"/>
<path d="M80.4583 197.677L145.974 183.401" stroke="black" stroke-width="0.666667"/>
<path d="M87.4583 199.641L152.417 184.24Z" fill="white"/>
<path d="M87.4583 199.641L152.417 184.24" stroke="black" stroke-width="0.666667"/>
<path d="M85.4167 304.891L167.818 330.958Z" fill="white"/>
<mask id="mask1_549_2228" style="mask-type:luminance" maskUnits="userSpaceOnUse" x="81" y="300" width="91" height="35">
<path d="M81 300.667H171.667V334.547H81V300.667Z" fill="white"/>
</mask>
<g mask="url(#mask1_549_2228)">
<path d="M85.4167 304.891L167.818 330.958" stroke="black" stroke-width="0.666667"/>
</g>
<path d="M87.2448 297.005L168.271 321.964Z" fill="white"/>
<path d="M87.2448 297.005L168.271 321.964" stroke="black" stroke-width="0.666667"/>
<path d="M168.51 322.484L211.776 268.797Z" fill="white"/>
<path d="M168.51 322.484L211.776 268.797" stroke="black" stroke-width="0.666667"/>
<path d="M168.51 330.328L211.495 273.839Z" fill="white"/>
<mask id="mask2_549_2228" style="mask-type:luminance" maskUnits="userSpaceOnUse" x="163" y="270" width="53" height="65">
<path d="M163.667 270H215.667V334.547H163.667V270Z" fill="white"/>
</mask>
<g mask="url(#mask2_549_2228)">
<path d="M168.51 330.328L211.495 273.839" stroke="black" stroke-width="0.666667"/>
</g>
<path d="M168.51 333.125V319.474" stroke="black" stroke-width="0.666667" stroke-linecap="round"/>
<path d="M168.51 319.474L89.5937 295.406Z" fill="white"/>
<path d="M168.51 319.474L89.5937 295.406" stroke="black" stroke-width="1.33333" stroke-linecap="round"/>
<path d="M168.51 319.474L211.214 266.276Z" fill="white"/>
<path d="M168.51 319.474L211.214 266.276" stroke="black" stroke-width="1.33333" stroke-linecap="round"/>
<path d="M90.2552 294.839L81.2187 301.443" stroke="black" stroke-width="0.666667" stroke-linecap="round"/>
<path d="M273.37 111.411H320.484" stroke="black" stroke-width="2" stroke-linecap="round"/>
<path d="M235 142.078L273.177 111.411" stroke="black" stroke-width="2" stroke-linecap="round"/>
<path d="M235 158.531H419.677" stroke="black" stroke-width="2"/>
<path d="M235 155.724H419.677" stroke="black" stroke-width="0.666667"/>
<path d="M235 142.854H313.844" stroke="black" stroke-width="2"/>
<path d="M333.62 142.854H419.677" stroke="black" stroke-width="2"/>
<path d="M235 145.661L311.651 145.688" stroke="black" stroke-width="0.666667"/>
<path d="M335.484 145.521L419.677 145.661" stroke="black" stroke-width="0.666667"/>
<path d="M419.677 142.854V158.531" stroke="black" stroke-width="2" stroke-linecap="round"/>
<path d="M235 142.854V158.531" stroke="black" stroke-width="2" stroke-linecap="round"/>
<path d="M323.844 113.104L323.854 143.188V155.021" stroke="black" stroke-width="1.33333" stroke-linecap="round"/>
<path d="M327.151 111.411L333.844 141.854C333.844 141.854 333.51 153.411 323.844 153.411C314.177 153.411 313.865 141.854 313.865 141.854L320.484 111.411" stroke="black" stroke-width="2"/>
<path d="M311.651 145.687C311.651 145.687 313.568 155.385 323.844 155.411C334.234 155.437 335.76 145.635 335.76 145.635" stroke="black" stroke-width="0.666667" stroke-linecap="round"/>
<path d="M327.151 111.411H379.594L419.677 142.078" stroke="black" stroke-width="2" stroke-linecap="round"/>
<path d="M320.76 111.104C320.76 111.104 322.427 113.104 323.844 113.104C325.26 113.104 326.927 111.411 326.927 111.411" stroke="black" stroke-width="1.33333" stroke-linecap="round"/>
<path d="M397.729 78.1302C397.729 78.1302 399.036 77.3855 398.323 74.9896Z" fill="white"/>
<path d="M397.729 78.1302C397.729 78.1302 399.036 77.3855 398.323 74.9896" stroke="black" stroke-width="2"/>
<path d="M393.109 68.901C392.734 68.2395 391.292 68.6927 391.292 68.6927Z" fill="white"/>
<path d="M393.109 68.901C392.734 68.2395 391.292 68.6927 391.292 68.6927" stroke="black" stroke-width="2"/>
<path d="M397.094 78.5625C397.094 78.5625 397.958 77.2031 398.141 75.3802Z" fill="white"/>
<path d="M397.094 78.5625C397.094 78.5625 397.958 77.2031 398.141 75.3802" stroke="black" stroke-width="2"/>
<path d="M391.292 68.6927L325.99 132.766C325.99 132.766 324.901 135.245 326.214 137.188C327.531 139.135 329.839 138.625 329.839 138.625L397.729 78.1302C397.729 78.1302 396.359 80.6407 392.302 75.8698C388.687 71.6198 391.292 68.6927 391.292 68.6927Z" fill="white"/>
<path d="M391.292 68.6927L325.99 132.766C325.99 132.766 324.901 135.245 326.214 137.187C327.531 139.135 329.839 138.625 329.839 138.625L397.729 78.1302C397.729 78.1302 396.359 80.6406 392.302 75.8697C388.687 71.6197 391.292 68.6927 391.292 68.6927Z" stroke="black" stroke-width="2"/>
<path d="M378.891 81.0208C378.891 81.0208 377.964 83.9948 380.323 87.3073C382.437 90.2448 384.995 89.4635 384.995 89.4635" fill="white"/>
<path d="M378.891 81.0208C378.891 81.0208 377.964 83.9948 380.323 87.3073C382.437 90.2448 384.995 89.4635 384.995 89.4635" stroke="black" stroke-width="1.33333"/>
<path d="M394.63 77.75L328.604 137.938Z" fill="white"/>
<path d="M394.63 77.75L328.604 137.938" stroke="black" stroke-width="0.666667"/>
<path d="M397.198 76.4062L400.292 73.3802H404.12L424.979 38.9948L391.922 70.0885" fill="white"/>
<path d="M397.198 76.4062L400.292 73.3802H404.12L424.979 38.9948L391.922 70.0885" stroke="black" stroke-width="2"/>
<path d="M402.005 71.9166L420.974 41.2968Z" fill="white"/>
<path d="M402.005 71.9166L420.974 41.2968" stroke="black" stroke-width="0.666667"/>
<path d="M394.245 77.9166C394.245 77.9166 395.802 76.0781 395.771 73.7448Z" fill="white"/>
<path d="M394.245 77.9166C394.245 77.9166 395.802 76.0781 395.771 73.7448" stroke="black" stroke-width="0.666667"/>
<path d="M397.146 78.0416C397.146 78.0416 397.63 76.0208 395.089 72.75C393.349 70.5156 391.219 69.5625 391.219 69.5625" stroke="black" stroke-width="1.33333"/>
<path d="M79.1198 295.594V303.094C79.1198 303.094 80.0417 303.359 85.4167 304.891" stroke="black" stroke-width="0.666667" stroke-linecap="round"/>
<mask id="mask3_549_2228" style="mask-type:luminance" maskUnits="userSpaceOnUse" x="65" y="292" width="115" height="43">
<path d="M65 292.667H179.667V334.547H65V292.667Z" fill="white"/>
</mask>
<g mask="url(#mask3_549_2228)">
<path d="M76.4948 304.443L167.984 333.526" stroke="black" stroke-width="2" stroke-linecap="round"/>
</g>
<path d="M114.12 285.693L128.234 270.932L115.37 261.083" stroke="black" stroke-width="1.33333" stroke-linecap="round"/>
<path d="M124.682 271.76L112.568 262.536L105.818 284.193L110.255 287.156L124.682 271.76Z" fill="white"/>
<path d="M124.682 271.76L112.568 262.536L105.818 284.193L110.255 287.156L124.682 271.76Z" stroke="black" stroke-width="0.666667" stroke-linecap="round"/>
<path d="M105.818 284.193L112.568 262.537L115.37 261.083" stroke="black" stroke-width="1.33333" stroke-linecap="round"/>
<path d="M124.75 271.943L127.719 270.891" stroke="black" stroke-width="0.666667" stroke-linecap="round"/>
<path d="M110.917 287.094L114.12 285.693" stroke="black" stroke-width="1.33333" stroke-linecap="round"/>
<path d="M121.12 285.391L133.417 275.193L132.219 271.292L141.219 269.792L134.917 284.792L134.62 278.495L122.016 291.391L121.12 285.391Z" stroke="black" stroke-width="0.666667" stroke-linecap="square"/>
<path d="M273.254 177.96V187.856H274.65V186.794L274.317 186.919C274.838 187.731 275.692 188.169 276.671 188.169C278.504 188.169 279.9 186.481 279.9 184.169C279.9 181.898 278.567 180.314 276.713 180.314C275.754 180.314 274.942 180.731 274.421 181.502L274.754 181.648V177.773H273.254V177.96ZM276.504 181.71C277.754 181.71 278.338 182.606 278.338 184.273C278.338 185.877 277.713 186.773 276.504 186.773C275.317 186.773 274.754 185.877 274.754 184.252C274.754 182.606 275.317 181.71 276.504 181.71Z" fill="black"/>
<path d="M280.876 180.689V187.856H282.376V184.064C282.397 182.377 282.897 181.793 284.605 181.856V180.377C284.23 180.314 284.126 180.314 284.001 180.314C283.272 180.314 282.584 180.793 281.938 181.835L282.272 181.96V180.502H280.876V180.689Z" fill="black"/>
<path d="M291.608 184.564C291.608 183.502 291.524 182.856 291.337 182.335C290.878 181.189 289.628 180.314 288.316 180.314C286.378 180.314 284.92 181.981 284.92 184.273C284.92 186.585 286.316 188.168 288.295 188.168C289.899 188.168 291.191 187.085 291.503 185.377H290.003C289.649 186.481 289.233 186.773 288.337 186.773C287.628 186.773 287.17 186.502 286.795 185.918C286.524 185.523 286.483 185.252 286.462 184.731H291.608V184.564ZM286.503 183.648C286.587 182.356 287.191 181.689 288.316 181.689C289.441 181.689 290.024 182.398 290.024 183.46H286.503V183.648Z" fill="black"/>
<path d="M299.125 186.835C299.021 186.877 298.958 186.877 298.896 186.877C298.5 186.877 298.479 186.856 298.479 186.502V182.398C298.479 181.168 297.396 180.314 295.667 180.314C294.646 180.314 293.687 180.648 293.208 181.168C292.875 181.543 292.687 182.064 292.646 182.939H294.167C294.271 181.918 294.583 181.689 295.625 181.689C296.646 181.689 296.979 181.898 296.979 182.564V182.856C296.979 183.335 296.937 183.314 296.021 183.439C294.458 183.648 294.208 183.689 293.792 183.877C292.979 184.21 292.354 185.023 292.354 185.918C292.354 187.189 293.437 188.168 294.854 188.168C295.729 188.168 296.583 187.793 297.062 187.356C297.104 187.689 297.646 188.168 298.375 188.168C298.604 188.168 298.75 188.127 299.312 188.002V186.793L299.125 186.835ZM296.979 185.481C296.979 185.856 296.937 185.939 296.604 186.252C296.146 186.668 295.75 186.835 295.083 186.835C294.229 186.835 293.917 186.606 293.917 185.898C293.917 185.168 294.208 184.96 295.396 184.793C296.583 184.627 296.812 184.585 296.979 184.502V185.481Z" fill="black"/>
<path d="M301.288 177.773H299.997V187.856H301.476V185.023L302.33 184.189L304.622 187.856H306.434L303.476 183.127L306.122 180.502H304.163L301.143 183.523L301.476 183.648V177.773H301.288Z" fill="black"/>
<path d="M313.183 180.502H312.203V178.585H310.724V180.502H309.766V181.773H310.724V186.877C310.724 187.606 311.391 188.169 312.266 188.169C312.558 188.169 312.808 188.127 313.37 188.044V186.731C313.016 186.814 312.87 186.835 312.641 186.835C312.162 186.835 312.203 186.877 312.203 186.398V181.773H313.37V180.502H313.183Z" fill="black"/>
<path d="M314.223 177.96V187.856H315.723V183.835C315.723 182.398 316.285 181.648 317.431 181.648C317.806 181.648 317.993 181.689 318.264 181.898C318.577 182.127 318.66 182.356 318.66 182.835V187.856H320.16V182.398C320.16 181.231 319.139 180.314 317.764 180.314C316.785 180.314 316.035 180.669 315.389 181.523L315.723 181.648V177.773H314.223V177.96Z" fill="black"/>
<path d="M327.927 184.564C327.927 183.502 327.844 182.856 327.657 182.335C327.198 181.189 325.948 180.314 324.636 180.314C322.698 180.314 321.24 181.981 321.24 184.273C321.24 186.585 322.636 188.168 324.615 188.168C326.219 188.168 327.511 187.085 327.823 185.377H326.323C325.969 186.481 325.552 186.773 324.657 186.773C323.948 186.773 323.49 186.502 323.115 185.918C322.844 185.523 322.802 185.252 322.782 184.731H327.927V184.564ZM322.823 183.648C322.907 182.356 323.511 181.689 324.636 181.689C325.761 181.689 326.344 182.398 326.344 183.46H322.823V183.648Z" fill="black"/>
<path d="M339.048 184.564C339.048 183.502 338.964 182.856 338.777 182.335C338.318 181.189 337.068 180.314 335.756 180.314C333.818 180.314 332.36 181.981 332.36 184.273C332.36 186.585 333.756 188.168 335.735 188.168C337.339 188.168 338.631 187.085 338.943 185.377H337.443C337.089 186.481 336.673 186.773 335.777 186.773C335.068 186.773 334.61 186.502 334.235 185.918C333.964 185.523 333.923 185.252 333.902 184.731H339.048V184.564ZM333.943 183.648C334.027 182.356 334.631 181.689 335.756 181.689C336.881 181.689 337.464 182.398 337.464 183.46H333.943V183.648Z" fill="black"/>
<path d="M346.044 177.773H344.732V181.585L345.065 181.439C344.607 180.731 343.711 180.314 342.794 180.314C340.982 180.314 339.586 181.939 339.586 184.169C339.586 186.544 340.94 188.169 342.836 188.169C343.794 188.169 344.586 187.752 345.19 186.877L344.857 186.773V187.856H346.232V177.773H346.044ZM342.982 181.71C344.169 181.71 344.732 182.585 344.732 184.273C344.732 185.877 344.169 186.773 342.982 186.773C341.753 186.773 341.128 185.877 341.128 184.252C341.128 182.606 341.753 181.71 342.982 181.71Z" fill="black"/>
<path d="M352.041 180.689V181.71L352.374 181.585C351.812 180.731 351.062 180.314 350.187 180.314C348.499 180.314 347.124 182.064 347.124 184.314C347.124 185.481 347.458 186.46 348.062 187.168C348.583 187.773 349.395 188.168 350.103 188.168C350.937 188.168 351.687 187.731 352.27 186.856L351.937 186.731V187.106C351.937 188.96 351.603 189.46 350.228 189.46C349.27 189.46 348.978 189.273 348.833 188.293H347.333C347.458 189.773 348.687 190.773 350.208 190.773C351.228 190.773 352.208 190.377 352.666 189.814C353.208 189.168 353.458 188.168 353.458 186.543V180.502H352.041V180.689ZM350.291 181.689C351.458 181.689 351.937 182.502 351.937 184.273C351.937 185.981 351.458 186.773 350.291 186.773C349.145 186.773 348.666 185.96 348.666 184.252C348.666 182.543 349.145 181.689 350.291 181.689Z" fill="black"/>
<path d="M361.288 184.564C361.288 183.502 361.204 182.856 361.017 182.335C360.558 181.189 359.308 180.314 357.996 180.314C356.058 180.314 354.6 181.981 354.6 184.273C354.6 186.585 355.996 188.168 357.975 188.168C359.579 188.168 360.871 187.085 361.183 185.377H359.683C359.329 186.481 358.913 186.773 358.017 186.773C357.308 186.773 356.85 186.502 356.475 185.918C356.204 185.523 356.163 185.252 356.142 184.731H361.288V184.564ZM356.183 183.648C356.267 182.356 356.871 181.689 357.996 181.689C359.121 181.689 359.704 182.398 359.704 183.46H356.183V183.648Z" fill="black"/>
<path d="M367.701 182.648C367.701 181.273 366.597 180.314 364.993 180.314C363.368 180.314 362.097 181.335 362.097 182.627C362.097 183.731 362.868 184.418 364.513 184.814L365.555 185.064C366.326 185.252 366.43 185.356 366.43 185.856C366.43 186.523 365.993 186.773 365.013 186.773C364.409 186.773 364.034 186.648 363.763 186.356C363.597 186.168 363.555 186.106 363.472 185.418H361.93C361.993 187.21 363.097 188.168 364.93 188.168C366.68 188.168 367.993 187.127 367.993 185.773C367.993 184.731 367.222 183.981 365.826 183.648L364.763 183.398C363.847 183.168 363.659 183.064 363.659 182.585C363.659 181.918 364.034 181.689 364.951 181.689C365.847 181.689 366.118 181.918 366.138 182.814H367.701V182.648Z" fill="black"/>
<path d="M375.449 180.502H374.47V178.585H372.991V180.502H372.033V181.773H372.991V186.877C372.991 187.606 373.658 188.169 374.533 188.169C374.824 188.169 375.074 188.127 375.637 188.044V186.731C375.283 186.814 375.137 186.835 374.908 186.835C374.428 186.835 374.47 186.877 374.47 186.398V181.773H375.637V180.502H375.449Z" fill="black"/>
<path d="M379.385 180.314C377.406 180.314 376.031 181.898 376.031 184.252C376.031 186.606 377.406 188.168 379.406 188.168C381.364 188.168 382.739 186.585 382.739 184.293C382.739 181.877 381.406 180.314 379.385 180.314ZM379.406 181.689C380.656 181.689 381.198 182.543 381.198 184.273C381.198 185.939 380.635 186.773 379.406 186.773C378.156 186.773 377.593 185.939 377.593 184.252C377.593 182.543 378.156 181.689 379.406 181.689Z" fill="black"/>
<path d="M391.047 185.356V187.856H392.609V185.523H394.005V184.106H392.609V177.856H391.442L387.047 184.064V185.523H391.047V185.356ZM391.234 184.106H388.63L391.38 180.168L391.047 180.043V184.106H391.234Z" fill="black"/>
<path d="M400.647 178.043H395.585L394.835 183.543H396.21C396.814 182.835 397.127 182.668 397.877 182.668C399.147 182.668 399.731 183.356 399.731 184.773C399.731 186.127 399.147 186.773 397.877 186.773C396.835 186.773 396.397 186.439 396.085 185.168H394.522C394.71 186.127 394.897 186.627 395.189 186.981C395.71 187.689 396.835 188.168 397.897 188.168C399.793 188.168 401.314 186.606 401.314 184.606C401.314 182.731 399.897 181.273 398.085 181.273C397.418 181.273 396.731 181.502 396.585 181.606L396.877 179.564H400.835V178.043H400.647Z" fill="black"/>
<path d="M222.405 231.659H223.697V227.826L223.364 227.951C223.947 228.68 224.759 229.055 225.655 229.055C227.468 229.055 228.843 227.43 228.843 225.201C228.843 222.847 227.509 221.201 225.655 221.201C224.697 221.201 223.801 221.68 223.28 222.492L223.614 222.638V221.388H222.197V231.659H222.405ZM225.468 222.597C226.697 222.597 227.28 223.492 227.28 225.159C227.28 226.763 226.676 227.659 225.468 227.659C224.28 227.659 223.697 226.763 223.697 225.138C223.697 223.492 224.28 222.597 225.468 222.597Z" fill="black"/>
<path d="M235.694 228.576V221.388H234.214V225.534C234.214 226.972 233.673 227.722 232.506 227.722C231.631 227.722 231.256 227.367 231.256 226.534V221.388H229.756V226.972C229.756 228.138 230.819 229.055 232.173 229.055C233.214 229.055 234.006 228.638 234.652 227.722L234.319 227.597V228.742H235.694V228.576Z" fill="black"/>
<path d="M239.899 221.388H238.919V219.472H237.44V221.388H236.482V222.659H237.44V227.763C237.44 228.492 238.107 229.055 238.982 229.055C239.274 229.055 239.524 229.013 240.086 228.93V227.617C239.732 227.701 239.586 227.722 239.357 227.722C238.878 227.722 238.919 227.763 238.919 227.284V222.659H240.086V221.388H239.899Z" fill="black"/>
<path d="M249.104 221.576V222.597L249.437 222.472C248.874 221.617 248.124 221.201 247.249 221.201C245.562 221.201 244.187 222.951 244.187 225.201C244.187 226.367 244.52 227.347 245.124 228.055C245.645 228.659 246.458 229.055 247.166 229.055C247.999 229.055 248.749 228.617 249.333 227.742L248.999 227.617V227.992C248.999 229.847 248.666 230.347 247.291 230.347C246.333 230.347 246.041 230.159 245.895 229.18H244.395C244.52 230.659 245.749 231.659 247.27 231.659C248.291 231.659 249.27 231.263 249.729 230.701C250.27 230.055 250.52 229.055 250.52 227.43V221.388H249.104V221.576ZM247.354 222.576C248.52 222.576 248.999 223.388 248.999 225.159C248.999 226.867 248.52 227.659 247.354 227.659C246.208 227.659 245.729 226.847 245.729 225.138C245.729 223.43 246.208 222.576 247.354 222.576Z" fill="black"/>
<path d="M253.35 218.659H252.038V228.742H253.538V218.659H253.35Z" fill="black"/>
<path d="M260.894 228.576V221.388H259.414V225.534C259.414 226.972 258.873 227.722 257.706 227.722C256.831 227.722 256.456 227.367 256.456 226.534V221.388H254.956V226.972C254.956 228.138 256.019 229.055 257.373 229.055C258.414 229.055 259.206 228.638 259.852 227.722L259.519 227.597V228.742H260.894V228.576Z" fill="black"/>
<path d="M268.724 225.451C268.724 224.388 268.64 223.742 268.453 223.222C267.994 222.076 266.744 221.201 265.432 221.201C263.494 221.201 262.036 222.867 262.036 225.159C262.036 227.472 263.432 229.055 265.411 229.055C267.015 229.055 268.307 227.972 268.619 226.263H267.119C266.765 227.367 266.349 227.659 265.453 227.659C264.744 227.659 264.286 227.388 263.911 226.805C263.64 226.409 263.599 226.138 263.578 225.617H268.724V225.451ZM263.619 224.534C263.703 223.242 264.307 222.576 265.432 222.576C266.557 222.576 267.14 223.284 267.14 224.347H263.619V224.534Z" fill="black"/>
<path d="M274.823 221.388H273.51V228.742H275.01V221.388H274.823ZM274.823 218.659H273.51V220.43H275.01V218.659H274.823Z" fill="black"/>
<path d="M276.512 221.576V228.742H278.033V224.722C278.033 223.284 278.574 222.534 279.72 222.534C280.616 222.534 280.97 222.888 280.97 223.722V228.742H282.47V223.284C282.47 222.138 281.408 221.201 280.054 221.201C279.033 221.201 278.199 221.659 277.595 222.617L277.929 222.763V221.388H276.512V221.576Z" fill="black"/>
<path d="M290.299 221.388H289.319V219.472H287.84V221.388H286.882V222.659H287.84V227.763C287.84 228.492 288.507 229.055 289.382 229.055C289.674 229.055 289.924 229.013 290.486 228.93V227.617C290.132 227.701 289.986 227.722 289.757 227.722C289.278 227.722 289.319 227.763 289.319 227.284V222.659H290.486V221.388H290.299Z" fill="black"/>
<path d="M291.339 218.847V228.742H292.839V224.722C292.839 223.284 293.401 222.534 294.547 222.534C294.922 222.534 295.109 222.576 295.38 222.784C295.693 223.013 295.776 223.242 295.776 223.722V228.742H297.276V223.284C297.276 222.117 296.255 221.201 294.88 221.201C293.901 221.201 293.151 221.555 292.505 222.409L292.839 222.534V218.659H291.339V218.847Z" fill="black"/>
<path d="M305.044 225.451C305.044 224.388 304.96 223.742 304.773 223.222C304.314 222.076 303.064 221.201 301.752 221.201C299.814 221.201 298.356 222.867 298.356 225.159C298.356 227.472 299.752 229.055 301.731 229.055C303.335 229.055 304.627 227.972 304.939 226.263H303.439C303.085 227.367 302.669 227.659 301.773 227.659C301.064 227.659 300.606 227.388 300.231 226.805C299.96 226.409 299.919 226.138 299.898 225.617H305.044V225.451ZM299.939 224.534C300.023 223.242 300.627 222.576 301.752 222.576C302.877 222.576 303.46 223.284 303.46 224.347H299.939V224.534Z" fill="black"/>
<path d="M225.114 237.388H224.134V236.492C224.134 236.013 224.218 235.951 224.739 235.951C224.822 235.951 224.864 235.951 225.301 235.992V234.722C224.864 234.638 224.718 234.617 224.489 234.617C223.468 234.617 222.655 235.388 222.655 236.388V237.388H221.718V238.659H222.655V244.742H224.134V238.659H225.301V237.388H225.114Z" fill="black"/>
<path d="M231.987 244.576V237.388H230.508V241.534C230.508 242.972 229.966 243.722 228.799 243.722C227.924 243.722 227.549 243.367 227.549 242.534V237.388H226.049V242.972C226.049 244.138 227.112 245.055 228.466 245.055C229.508 245.055 230.299 244.638 230.945 243.722L230.612 243.597V244.742H231.987V244.576Z" fill="black"/>
<path d="M233.525 237.576V244.742H235.025V240.951C235.046 239.263 235.546 238.68 237.254 238.742V237.263C236.879 237.201 236.775 237.201 236.65 237.201C235.921 237.201 235.234 237.68 234.588 238.722L234.921 238.847V237.388H233.525V237.576Z" fill="black"/>
<path d="M237.965 237.576V244.742H239.465V240.951C239.486 239.263 239.986 238.68 241.694 238.742V237.263C241.319 237.201 241.215 237.201 241.09 237.201C240.361 237.201 239.674 237.68 239.028 238.722L239.361 238.847V237.388H237.965V237.576Z" fill="black"/>
<path d="M245.301 237.201C243.322 237.201 241.947 238.784 241.947 241.138C241.947 243.492 243.322 245.055 245.322 245.055C247.28 245.055 248.655 243.472 248.655 241.18C248.655 238.763 247.322 237.201 245.301 237.201ZM245.322 238.576C246.572 238.576 247.114 239.43 247.114 241.159C247.114 242.826 246.551 243.659 245.322 243.659C244.072 243.659 243.509 242.826 243.509 241.138C243.509 239.43 244.072 238.576 245.322 238.576Z" fill="black"/>
<path d="M256.673 244.576L258.777 237.388H257.11L255.694 243.013H256.069L254.673 237.388H253.006L251.631 243.013H252.006L250.548 237.388H248.923L251.048 244.742H252.589L253.985 239.097H253.589L255.048 244.742H256.61L256.673 244.576Z" fill="black"/>
<path d="M259.674 243.18V244.742H260.466V244.805C260.466 245.722 260.508 245.805 259.674 245.847V246.701C260.758 246.722 261.466 245.909 261.466 244.784V242.992H259.674V243.18Z" fill="black"/>
<path d="M269.567 237.388H268.588V236.492C268.588 236.013 268.671 235.951 269.192 235.951C269.275 235.951 269.317 235.951 269.754 235.992V234.722C269.317 234.638 269.171 234.617 268.942 234.617C267.921 234.617 267.109 235.388 267.109 236.388V237.388H266.171V238.659H267.109V244.742H268.588V238.659H269.754V237.388H269.567Z" fill="black"/>
<path d="M273.461 237.201C271.482 237.201 270.107 238.784 270.107 241.138C270.107 243.492 271.482 245.055 273.482 245.055C275.44 245.055 276.815 243.472 276.815 241.18C276.815 238.763 275.482 237.201 273.461 237.201ZM273.482 238.576C274.732 238.576 275.274 239.43 275.274 241.159C275.274 242.826 274.711 243.659 273.482 243.659C272.232 243.659 271.669 242.826 271.669 241.138C271.669 239.43 272.232 238.576 273.482 238.576Z" fill="black"/>
<path d="M279.27 234.659H277.958V244.742H279.458V234.659H279.27Z" fill="black"/>
<path d="M286.814 234.659H285.501V238.472L285.834 238.326C285.376 237.617 284.48 237.201 283.564 237.201C281.751 237.201 280.355 238.826 280.355 241.055C280.355 243.43 281.709 245.055 283.605 245.055C284.564 245.055 285.355 244.638 285.959 243.763L285.626 243.659V244.742H287.001V234.659H286.814ZM283.751 238.597C284.939 238.597 285.501 239.472 285.501 241.159C285.501 242.763 284.939 243.659 283.751 243.659C282.522 243.659 281.897 242.763 281.897 241.138C281.897 239.492 282.522 238.597 283.751 238.597Z" fill="black"/>
<path d="M297.934 244.576V237.388H296.454V241.534C296.454 242.972 295.913 243.722 294.746 243.722C293.871 243.722 293.496 243.367 293.496 242.534V237.388H291.996V242.972C291.996 244.138 293.059 245.055 294.413 245.055C295.454 245.055 296.246 244.638 296.892 243.722L296.559 243.597V244.742H297.934V244.576Z" fill="black"/>
<path d="M299.472 247.659H300.764V243.826L300.43 243.951C301.014 244.68 301.826 245.055 302.722 245.055C304.534 245.055 305.909 243.43 305.909 241.201C305.909 238.847 304.576 237.201 302.722 237.201C301.764 237.201 300.868 237.68 300.347 238.492L300.68 238.638V237.388H299.264V247.659H299.472ZM302.534 238.597C303.764 238.597 304.347 239.492 304.347 241.159C304.347 242.763 303.743 243.659 302.534 243.659C301.347 243.659 300.764 242.763 300.764 241.138C300.764 239.492 301.347 238.597 302.534 238.597Z" fill="black"/>
<path d="M225.072 253.388H224.093V251.472H222.614V253.388H221.655V254.659H222.614V259.763C222.614 260.492 223.28 261.055 224.155 261.055C224.447 261.055 224.697 261.013 225.259 260.93V259.617C224.905 259.701 224.759 259.722 224.53 259.722C224.051 259.722 224.093 259.763 224.093 259.284V254.659H225.259V253.388H225.072Z" fill="black"/>
<path d="M226.112 250.847V260.742H227.612V256.722C227.612 255.284 228.174 254.534 229.32 254.534C229.695 254.534 229.883 254.576 230.154 254.784C230.466 255.013 230.549 255.242 230.549 255.722V260.742H232.049V255.284C232.049 254.117 231.029 253.201 229.654 253.201C228.674 253.201 227.924 253.555 227.279 254.409L227.612 254.534V250.659H226.112V250.847Z" fill="black"/>
<path d="M239.817 257.451C239.817 256.388 239.734 255.742 239.546 255.222C239.088 254.076 237.838 253.201 236.525 253.201C234.588 253.201 233.129 254.867 233.129 257.159C233.129 259.472 234.525 261.055 236.504 261.055C238.109 261.055 239.4 259.972 239.713 258.263H238.213C237.859 259.367 237.442 259.659 236.546 259.659C235.838 259.659 235.379 259.388 235.004 258.805C234.734 258.409 234.692 258.138 234.671 257.617H239.817V257.451ZM234.713 256.534C234.796 255.242 235.4 254.576 236.525 254.576C237.65 254.576 238.234 255.284 238.234 256.347H234.713V256.534Z" fill="black"/>
<path d="M244.645 253.576V261.576C244.645 262.284 244.645 262.326 243.937 262.326C243.854 262.326 243.833 262.326 243.479 262.284V263.576C243.812 263.638 243.874 263.659 244.041 263.659C245.312 263.659 246.145 262.992 246.145 262.013V253.388H244.645V253.576ZM245.958 250.659H244.645V252.43H246.145V250.659H245.958Z" fill="black"/>
<path d="M250.501 253.201C248.522 253.201 247.147 254.784 247.147 257.138C247.147 259.492 248.522 261.055 250.522 261.055C252.48 261.055 253.855 259.472 253.855 257.18C253.855 254.763 252.522 253.201 250.501 253.201ZM250.522 254.576C251.772 254.576 252.314 255.43 252.314 257.159C252.314 258.826 251.751 259.659 250.522 259.659C249.272 259.659 248.709 258.826 248.709 257.138C248.709 255.43 249.272 254.576 250.522 254.576Z" fill="black"/>
<path d="M256.289 253.388H254.977V260.742H256.477V253.388H256.289ZM256.289 250.659H254.977V252.43H256.477V250.659H256.289Z" fill="black"/>
<path d="M257.979 253.576V260.742H259.499V256.722C259.499 255.284 260.041 254.534 261.187 254.534C262.083 254.534 262.437 254.888 262.437 255.722V260.742H263.937V255.284C263.937 254.138 262.874 253.201 261.52 253.201C260.499 253.201 259.666 253.659 259.062 254.617L259.395 254.763V253.388H257.979V253.576Z" fill="black"/>
<path d="M268.059 253.388H267.079V251.472H265.6V253.388H264.642V254.659H265.6V259.763C265.6 260.492 266.267 261.055 267.142 261.055C267.434 261.055 267.684 261.013 268.246 260.93V259.617C267.892 259.701 267.746 259.722 267.517 259.722C267.038 259.722 267.079 259.763 267.079 259.284V254.659H268.246V253.388H268.059Z" fill="black"/>
<path d="M279.201 259.722C279.097 259.763 279.034 259.763 278.972 259.763C278.576 259.763 278.555 259.742 278.555 259.388V255.284C278.555 254.055 277.472 253.201 275.743 253.201C274.722 253.201 273.764 253.534 273.284 254.055C272.951 254.43 272.764 254.951 272.722 255.826H274.243C274.347 254.805 274.659 254.576 275.701 254.576C276.722 254.576 277.055 254.784 277.055 255.451V255.742C277.055 256.222 277.014 256.201 276.097 256.326C274.534 256.534 274.284 256.576 273.868 256.763C273.055 257.097 272.43 257.909 272.43 258.805C272.43 260.076 273.514 261.055 274.93 261.055C275.805 261.055 276.659 260.68 277.139 260.242C277.18 260.576 277.722 261.055 278.451 261.055C278.68 261.055 278.826 261.013 279.389 260.888V259.68L279.201 259.722ZM277.055 258.367C277.055 258.742 277.014 258.826 276.68 259.138C276.222 259.555 275.826 259.722 275.159 259.722C274.305 259.722 273.993 259.492 273.993 258.784C273.993 258.055 274.284 257.847 275.472 257.68C276.659 257.513 276.889 257.472 277.055 257.388V258.367Z" fill="black"/>
<path d="M280.219 253.576V260.742H281.739V256.722C281.739 255.284 282.281 254.534 283.427 254.534C284.323 254.534 284.677 254.888 284.677 255.722V260.742H286.177V255.284C286.177 254.138 285.114 253.201 283.76 253.201C282.739 253.201 281.906 253.659 281.302 254.617L281.635 254.763V253.388H280.219V253.576Z" fill="black"/>
<path d="M293.507 250.659H292.194V254.472L292.528 254.326C292.069 253.617 291.174 253.201 290.257 253.201C288.444 253.201 287.049 254.826 287.049 257.055C287.049 259.43 288.403 261.055 290.299 261.055C291.257 261.055 292.049 260.638 292.653 259.763L292.319 259.659V260.742H293.694V250.659H293.507ZM290.444 254.597C291.632 254.597 292.194 255.472 292.194 257.159C292.194 258.763 291.632 259.659 290.444 259.659C289.215 259.659 288.59 258.763 288.59 257.138C288.59 255.492 289.215 254.597 290.444 254.597Z" fill="black"/>
<path d="M225.114 269.388H224.134V268.492C224.134 268.013 224.218 267.951 224.739 267.951C224.822 267.951 224.864 267.951 225.301 267.992V266.722C224.864 266.638 224.718 266.617 224.489 266.617C223.468 266.617 222.655 267.388 222.655 268.388V269.388H221.718V270.659H222.655V276.742H224.134V270.659H225.301V269.388H225.114Z" fill="black"/>
<path d="M227.383 269.388H226.07V276.742H227.57V269.388H227.383ZM227.383 266.659H226.07V268.43H227.57V266.659H227.383Z" fill="black"/>
<path d="M230.364 266.659H229.051V276.742H230.551V266.659H230.364Z" fill="black"/>
<path d="M233.324 266.659H232.011V276.742H233.511V266.659H233.324Z" fill="black"/>
<path d="M241.284 273.451C241.284 272.388 241.2 271.742 241.013 271.222C240.554 270.076 239.304 269.201 237.992 269.201C236.054 269.201 234.596 270.867 234.596 273.159C234.596 275.472 235.992 277.055 237.971 277.055C239.575 277.055 240.867 275.972 241.179 274.263H239.679C239.325 275.367 238.909 275.659 238.013 275.659C237.304 275.659 236.846 275.388 236.471 274.805C236.2 274.409 236.159 274.138 236.138 273.617H241.284V273.451ZM236.179 272.534C236.263 271.242 236.867 270.576 237.992 270.576C239.117 270.576 239.7 271.284 239.7 272.347H236.179V272.534Z" fill="black"/>
<path d="M245.072 269.388H244.093V267.472H242.614V269.388H241.655V270.659H242.614V275.763C242.614 276.492 243.28 277.055 244.155 277.055C244.447 277.055 244.697 277.013 245.259 276.93V275.617C244.905 275.701 244.759 275.722 244.53 275.722C244.051 275.722 244.093 275.763 244.093 275.284V270.659H245.259V269.388H245.072Z" fill="black"/>
<path d="M252.485 269.388H251.506V267.472H250.027V269.388H249.069V270.659H250.027V275.763C250.027 276.492 250.694 277.055 251.569 277.055C251.86 277.055 252.11 277.013 252.673 276.93V275.617C252.319 275.701 252.173 275.722 251.944 275.722C251.464 275.722 251.506 275.763 251.506 275.284V270.659H252.673V269.388H252.485Z" fill="black"/>
<path d="M253.525 266.847V276.742H255.025V272.722C255.025 271.284 255.588 270.534 256.734 270.534C257.109 270.534 257.296 270.576 257.567 270.784C257.879 271.013 257.963 271.242 257.963 271.722V276.742H259.463V271.284C259.463 270.117 258.442 269.201 257.067 269.201C256.088 269.201 255.338 269.555 254.692 270.409L255.025 270.534V266.659H253.525V266.847Z" fill="black"/>
<path d="M267.23 273.451C267.23 272.388 267.147 271.742 266.959 271.222C266.501 270.076 265.251 269.201 263.939 269.201C262.001 269.201 260.543 270.867 260.543 273.159C260.543 275.472 261.939 277.055 263.918 277.055C265.522 277.055 266.814 275.972 267.126 274.263H265.626C265.272 275.367 264.855 275.659 263.959 275.659C263.251 275.659 262.793 275.388 262.418 274.805C262.147 274.409 262.105 274.138 262.084 273.617H267.23V273.451ZM262.126 272.534C262.209 271.242 262.814 270.576 263.939 270.576C265.064 270.576 265.647 271.284 265.647 272.347H262.126V272.534Z" fill="black"/>
<path d="M276.517 269.576V270.597L276.85 270.472C276.288 269.617 275.538 269.201 274.663 269.201C272.975 269.201 271.6 270.951 271.6 273.201C271.6 274.367 271.934 275.347 272.538 276.055C273.059 276.659 273.871 277.055 274.579 277.055C275.413 277.055 276.163 276.617 276.746 275.742L276.413 275.617V275.992C276.413 277.847 276.079 278.347 274.704 278.347C273.746 278.347 273.454 278.159 273.309 277.18H271.809C271.934 278.659 273.163 279.659 274.684 279.659C275.704 279.659 276.684 279.263 277.142 278.701C277.684 278.055 277.934 277.055 277.934 275.43V269.388H276.517V269.576ZM274.767 270.576C275.934 270.576 276.413 271.388 276.413 273.159C276.413 274.867 275.934 275.659 274.767 275.659C273.621 275.659 273.142 274.847 273.142 273.138C273.142 271.43 273.621 270.576 274.767 270.576Z" fill="black"/>
<path d="M280.764 266.659H279.451V276.742H280.951V266.659H280.764Z" fill="black"/>
<path d="M288.307 276.576V269.388H286.828V273.534C286.828 274.972 286.286 275.722 285.119 275.722C284.244 275.722 283.869 275.367 283.869 274.534V269.388H282.369V274.972C282.369 276.138 283.432 277.055 284.786 277.055C285.828 277.055 286.619 276.638 287.265 275.722L286.932 275.597V276.742H288.307V276.576Z" fill="black"/>
<path d="M296.137 273.451C296.137 272.388 296.054 271.742 295.866 271.222C295.408 270.076 294.158 269.201 292.845 269.201C290.908 269.201 289.449 270.867 289.449 273.159C289.449 275.472 290.845 277.055 292.824 277.055C294.429 277.055 295.72 275.972 296.033 274.263H294.533C294.179 275.367 293.762 275.659 292.866 275.659C292.158 275.659 291.699 275.388 291.324 274.805C291.054 274.409 291.012 274.138 290.991 273.617H296.137V273.451ZM291.033 272.534C291.116 271.242 291.72 270.576 292.845 270.576C293.97 270.576 294.554 271.284 294.554 272.347H291.033V272.534Z" fill="black"/>
<path d="M303.674 269.388H302.694V268.492C302.694 268.013 302.778 267.951 303.299 267.951C303.382 267.951 303.424 267.951 303.861 267.992V266.722C303.424 266.638 303.278 266.617 303.049 266.617C302.028 266.617 301.215 267.388 301.215 268.388V269.388H300.278V270.659H301.215V276.742H302.694V270.659H303.861V269.388H303.674Z" fill="black"/>
<path d="M307.568 269.201C305.589 269.201 304.214 270.784 304.214 273.138C304.214 275.492 305.589 277.055 307.589 277.055C309.547 277.055 310.922 275.472 310.922 273.18C310.922 270.763 309.589 269.201 307.568 269.201ZM307.589 270.576C308.839 270.576 309.38 271.43 309.38 273.159C309.38 274.826 308.818 275.659 307.589 275.659C306.339 275.659 305.776 274.826 305.776 273.138C305.776 271.43 306.339 270.576 307.589 270.576Z" fill="black"/>
<path d="M312.085 269.576V276.742H313.585V272.951C313.606 271.263 314.106 270.68 315.814 270.742V269.263C315.439 269.201 315.335 269.201 315.21 269.201C314.481 269.201 313.794 269.68 313.148 270.722L313.481 270.847V269.388H312.085V269.576Z" fill="black"/>
<path d="M227.697 287.534C227.697 286.159 226.593 285.201 224.989 285.201C223.364 285.201 222.093 286.222 222.093 287.513C222.093 288.617 222.864 289.305 224.509 289.701L225.551 289.951C226.322 290.138 226.426 290.242 226.426 290.742C226.426 291.409 225.989 291.659 225.009 291.659C224.405 291.659 224.03 291.534 223.759 291.242C223.593 291.055 223.551 290.992 223.468 290.305H221.926C221.989 292.097 223.093 293.055 224.926 293.055C226.676 293.055 227.989 292.013 227.989 290.659C227.989 289.617 227.218 288.867 225.822 288.534L224.759 288.284C223.843 288.055 223.655 287.951 223.655 287.472C223.655 286.805 224.03 286.576 224.947 286.576C225.843 286.576 226.114 286.805 226.134 287.701H227.697V287.534Z" fill="black"/>
<path d="M231.739 285.388H230.759V283.472H229.28V285.388H228.322V286.659H229.28V291.763C229.28 292.492 229.947 293.055 230.822 293.055C231.114 293.055 231.364 293.013 231.926 292.93V291.617C231.572 291.701 231.426 291.722 231.197 291.722C230.718 291.722 230.759 291.763 230.759 291.284V286.659H231.926V285.388H231.739Z" fill="black"/>
<path d="M232.779 285.576V292.742H234.279V288.951C234.299 287.263 234.799 286.68 236.508 286.742V285.263C236.133 285.201 236.029 285.201 235.904 285.201C235.174 285.201 234.487 285.68 233.841 286.722L234.174 286.847V285.388H232.779V285.576Z" fill="black"/>
<path d="M243.51 289.451C243.51 288.388 243.427 287.742 243.239 287.222C242.781 286.076 241.531 285.201 240.219 285.201C238.281 285.201 236.823 286.867 236.823 289.159C236.823 291.472 238.219 293.055 240.198 293.055C241.802 293.055 243.094 291.972 243.406 290.263H241.906C241.552 291.367 241.135 291.659 240.239 291.659C239.531 291.659 239.073 291.388 238.698 290.805C238.427 290.409 238.385 290.138 238.364 289.617H243.51V289.451ZM238.406 288.534C238.489 287.242 239.094 286.576 240.219 286.576C241.344 286.576 241.927 287.284 241.927 288.347H238.406V288.534Z" fill="black"/>
<path d="M244.632 285.576V292.742H246.153V288.722C246.153 287.284 246.694 286.534 247.84 286.534C248.736 286.534 249.09 286.888 249.09 287.722V292.742H250.59V287.284C250.59 286.138 249.528 285.201 248.174 285.201C247.153 285.201 246.319 285.659 245.715 286.617L246.049 286.763V285.388H244.632V285.576Z" fill="black"/>
<path d="M256.504 285.576V286.597L256.837 286.472C256.274 285.617 255.524 285.201 254.649 285.201C252.962 285.201 251.587 286.951 251.587 289.201C251.587 290.367 251.92 291.347 252.524 292.055C253.045 292.659 253.858 293.055 254.566 293.055C255.399 293.055 256.149 292.617 256.733 291.742L256.399 291.617V291.992C256.399 293.847 256.066 294.347 254.691 294.347C253.733 294.347 253.441 294.159 253.295 293.18H251.795C251.92 294.659 253.149 295.659 254.67 295.659C255.691 295.659 256.67 295.263 257.129 294.701C257.67 294.055 257.92 293.055 257.92 291.43V285.388H256.504V285.576ZM254.754 286.576C255.92 286.576 256.399 287.388 256.399 289.159C256.399 290.867 255.92 291.659 254.754 291.659C253.608 291.659 253.129 290.847 253.129 289.138C253.129 287.43 253.608 286.576 254.754 286.576Z" fill="black"/>
<path d="M262.125 285.388H261.146V283.472H259.667V285.388H258.709V286.659H259.667V291.763C259.667 292.492 260.334 293.055 261.209 293.055C261.5 293.055 261.75 293.013 262.313 292.93V291.617C261.959 291.701 261.813 291.722 261.584 291.722C261.104 291.722 261.146 291.763 261.146 291.284V286.659H262.313V285.388H262.125Z" fill="black"/>
<path d="M263.165 282.847V292.742H264.665V288.722C264.665 287.284 265.228 286.534 266.374 286.534C266.749 286.534 266.936 286.576 267.207 286.784C267.519 287.013 267.603 287.242 267.603 287.722V292.742H269.103V287.284C269.103 286.117 268.082 285.201 266.707 285.201C265.728 285.201 264.978 285.555 264.332 286.409L264.665 286.534V282.659H263.165V282.847Z" fill="black"/>
<path d="M18.3594 182.333L35.8073 69.5417L31.5938 68.8907" stroke="black" stroke-width="0.666667"/>
<path d="M31.5938 68.8907L14.1406 181.682L18.3594 182.333" stroke="black" stroke-width="2"/>
<path d="M68.1667 160.594L64.0781 161.807L35.8073 69.5417" stroke="black" stroke-width="2"/>
<path d="M35.8073 69.5417L39.901 68.3229L68.1667 160.594" stroke="black" stroke-width="0.666667"/>
<path d="M35.8073 69.5416L51.8073 37.5416L54.3437 36.2083" stroke="black" stroke-width="1.33333"/>
<path d="M54.3437 36.2083L39.901 68.3229" stroke="black" stroke-width="0.666667"/>
<path d="M31.5938 68.8906L49.4115 35.276L51.8073 37.5416" stroke="black" stroke-width="2"/>
<path d="M54.7448 36.0729L80.0781 113.276L68.1667 160.594" stroke="black" stroke-width="2" stroke-linecap="round"/>
<path d="M18.7448 181.01L34.2083 123.412L38.4739 78.6095" stroke="black" stroke-width="2"/>
<path d="M64.3906 42.4583C65.1875 40.2552 65.6198 37.8802 65.6198 35.4062C65.6198 23.9531 56.3333 14.6666 44.875 14.6666C33.4219 14.6666 24.1354 23.9531 24.1354 35.4062C24.1354 41.1354 26.4583 46.3229 30.2083 50.0729" stroke="black" stroke-width="1.33333" stroke-linecap="round"/>
<path d="M28.151 50.4531L33.9844 53.8177L30.6198 47.9844L28.151 50.4531Z" fill="black"/>
<path d="M63.1771 40.75L62.6094 47.4583L66.4583 41.9323L63.1771 40.75Z" fill="black"/>
<path d="M76.2917 197.12L76.3437 304.745" stroke="black" stroke-width="2"/>
<path d="M96.6901 30.3885C96.5859 30.4302 96.5234 30.4302 96.4609 30.4302C96.0651 30.4302 96.0442 30.4093 96.0442 30.0552V25.951C96.0442 24.7218 94.9609 23.8677 93.2317 23.8677C92.2109 23.8677 91.2526 24.201 90.7734 24.7218C90.4401 25.0968 90.2526 25.6177 90.2109 26.4927H91.7317C91.8359 25.4718 92.1484 25.2427 93.1901 25.2427C94.2109 25.2427 94.5442 25.451 94.5442 26.1177V26.4093C94.5442 26.8885 94.5026 26.8677 93.5859 26.9927C92.0234 27.201 91.7734 27.2427 91.3567 27.4302C90.5442 27.7635 89.9192 28.576 89.9192 29.4718C89.9192 30.7427 91.0026 31.7218 92.4192 31.7218C93.2942 31.7218 94.1484 31.3468 94.6276 30.9093C94.6692 31.2427 95.2109 31.7218 95.9401 31.7218C96.1692 31.7218 96.3151 31.6802 96.8776 31.5552V30.3468L96.6901 30.3885ZM94.5442 29.0343C94.5442 29.4093 94.5026 29.4927 94.1692 29.8052C93.7109 30.2218 93.3151 30.3885 92.6484 30.3885C91.7942 30.3885 91.4817 30.1593 91.4817 29.451C91.4817 28.7218 91.7734 28.5135 92.9609 28.3468C94.1484 28.1802 94.3776 28.1385 94.5442 28.0552V29.0343Z" fill="black"/>
<path d="M100.416 24.0551H99.4367V23.1593C99.4367 22.6801 99.5201 22.6176 100.041 22.6176C100.124 22.6176 100.166 22.6176 100.603 22.6593V21.3885C100.166 21.3051 100.02 21.2843 99.7909 21.2843C98.7701 21.2843 97.9576 22.0551 97.9576 23.0551V24.0551H97.0201V25.326H97.9576V31.4093H99.4367V25.326H100.603V24.0551H100.416Z" fill="black"/>
<path d="M104.081 24.0552H103.102V22.1385H101.623V24.0552H100.664V25.326H101.623V30.4302C101.623 31.1594 102.289 31.7219 103.164 31.7219C103.456 31.7219 103.706 31.6802 104.268 31.5969V30.2844C103.914 30.3677 103.768 30.3886 103.539 30.3886C103.06 30.3886 103.102 30.4302 103.102 29.9511V25.326H104.268V24.0552H104.081Z" fill="black"/>
<path d="M111.413 28.1177C111.413 27.0552 111.329 26.4093 111.142 25.8885C110.683 24.7427 109.433 23.8677 108.121 23.8677C106.183 23.8677 104.725 25.5343 104.725 27.826C104.725 30.1385 106.121 31.7218 108.1 31.7218C109.704 31.7218 110.996 30.6385 111.308 28.9302H109.808C109.454 30.0343 109.038 30.326 108.142 30.326C107.433 30.326 106.975 30.0552 106.6 29.4718C106.329 29.076 106.288 28.8052 106.267 28.2843H111.413V28.1177ZM106.308 27.201C106.392 25.9093 106.996 25.2427 108.121 25.2427C109.246 25.2427 109.829 25.951 109.829 27.0135H106.308V27.201Z" fill="black"/>
<path d="M112.534 24.2427V31.4093H114.034V27.6177C114.055 25.9302 114.555 25.3468 116.263 25.4093V23.9302C115.888 23.8677 115.784 23.8677 115.659 23.8677C114.93 23.8677 114.243 24.3468 113.597 25.3885L113.93 25.5135V24.0552H112.534V24.2427Z" fill="black"/>
<path d="M126.41 26.5968C126.368 25.9093 126.16 25.3468 125.889 24.951C125.41 24.3052 124.452 23.8677 123.473 23.8677C121.577 23.8677 120.16 25.5343 120.16 27.8677C120.16 30.1177 121.556 31.7218 123.452 31.7218C125.118 31.7218 126.368 30.5343 126.514 28.6593H125.014C124.806 29.951 124.431 30.326 123.493 30.326C122.264 30.326 121.702 29.5135 121.702 27.8677C121.702 26.1177 122.243 25.2427 123.452 25.2427C124.389 25.2427 124.785 25.6177 124.931 26.7635H126.431L126.41 26.5968Z" fill="black"/>
<path d="M133.223 31.2427V24.0552H131.743V28.201C131.743 29.6385 131.202 30.3885 130.035 30.3885C129.16 30.3885 128.785 30.0343 128.785 29.201V24.0552H127.285V29.6385C127.285 30.8052 128.348 31.7218 129.702 31.7218C130.743 31.7218 131.535 31.3052 132.181 30.3885L131.848 30.2635V31.4093H133.223V31.2427Z" fill="black"/>
<path d="M137.428 24.0552H136.448V22.1385H134.969V24.0552H134.011V25.326H134.969V30.4302C134.969 31.1594 135.636 31.7219 136.511 31.7219C136.803 31.7219 137.053 31.6802 137.615 31.5969V30.2844C137.261 30.3677 137.115 30.3886 136.886 30.3886C136.407 30.3886 136.448 30.4302 136.448 29.9511V25.326H137.615V24.0552H137.428Z" fill="black"/>
<path d="M141.134 24.0552H140.155V22.1385H138.676V24.0552H137.718V25.326H138.676V30.4302C138.676 31.1594 139.343 31.7219 140.218 31.7219C140.509 31.7219 140.759 31.6802 141.322 31.5969V30.2844C140.968 30.3677 140.822 30.3886 140.593 30.3886C140.113 30.3886 140.155 30.4302 140.155 29.9511V25.326H141.322V24.0552H141.134Z" fill="black"/>
<path d="M143.445 24.0552H142.133V31.4094H143.633V24.0552H143.445ZM143.445 21.326H142.133V23.0969H143.633V21.326H143.445Z" fill="black"/>
<path d="M145.134 24.2427V31.4093H146.655V27.3885C146.655 25.951 147.197 25.201 148.343 25.201C149.238 25.201 149.593 25.5552 149.593 26.3885V31.4093H151.093V25.951C151.093 24.8052 150.03 23.8677 148.676 23.8677C147.655 23.8677 146.822 24.326 146.218 25.2843L146.551 25.4302V24.0552H145.134V24.2427Z" fill="black"/>
<path d="M157.006 24.2427V25.2635L157.339 25.1385C156.777 24.2843 156.027 23.8677 155.152 23.8677C153.464 23.8677 152.089 25.6177 152.089 27.8677C152.089 29.0343 152.423 30.0135 153.027 30.7218C153.548 31.326 154.36 31.7218 155.068 31.7218C155.902 31.7218 156.652 31.2843 157.235 30.4093L156.902 30.2843V30.6593C156.902 32.5135 156.568 33.0135 155.193 33.0135C154.235 33.0135 153.943 32.826 153.798 31.8468H152.298C152.423 33.326 153.652 34.326 155.173 34.326C156.193 34.326 157.173 33.9302 157.631 33.3677C158.173 32.7218 158.423 31.7218 158.423 30.0968V24.0552H157.006V24.2427ZM155.256 25.2427C156.423 25.2427 156.902 26.0552 156.902 27.826C156.902 29.5343 156.423 30.326 155.256 30.326C154.11 30.326 153.631 29.5135 153.631 27.8052C153.631 26.0968 154.11 25.2427 155.256 25.2427Z" fill="black"/>
<path d="M95.6276 40.0552H94.6484V38.1385H93.1692V40.0552H92.2109V41.326H93.1692V46.4302C93.1692 47.1594 93.8359 47.7219 94.7109 47.7219C95.0026 47.7219 95.2526 47.6802 95.8151 47.5969V46.2844C95.4609 46.3677 95.3151 46.3886 95.0859 46.3886C94.6067 46.3886 94.6484 46.4302 94.6484 45.9511V41.326H95.8151V40.0552H95.6276Z" fill="black"/>
<path d="M96.6676 37.5135V47.4094H98.1676V43.3885C98.1676 41.951 98.7301 41.201 99.8759 41.201C100.251 41.201 100.438 41.2427 100.709 41.451C101.022 41.6802 101.105 41.9094 101.105 42.3885V47.4094H102.605V41.951C102.605 40.7844 101.584 39.8677 100.209 39.8677C99.2301 39.8677 98.4801 40.2219 97.8342 41.076L98.1676 41.201V37.326H96.6676V37.5135Z" fill="black"/>
<path d="M110.373 44.1177C110.373 43.0552 110.289 42.4093 110.102 41.8885C109.643 40.7427 108.393 39.8677 107.081 39.8677C105.143 39.8677 103.685 41.5343 103.685 43.826C103.685 46.1385 105.081 47.7218 107.06 47.7218C108.664 47.7218 109.956 46.6385 110.268 44.9302H108.768C108.414 46.0343 107.998 46.326 107.102 46.326C106.393 46.326 105.935 46.0552 105.56 45.4718C105.289 45.076 105.248 44.8052 105.227 44.2843H110.373V44.1177ZM105.268 43.201C105.352 41.9093 105.956 41.2427 107.081 41.2427C108.206 41.2427 108.789 41.951 108.789 43.0135H105.268V43.201Z" fill="black"/>
<path d="M117.868 40.0552H116.888V38.1385H115.409V40.0552H114.451V41.326H115.409V46.4302C115.409 47.1594 116.076 47.7219 116.951 47.7219C117.243 47.7219 117.493 47.6802 118.055 47.5969V46.2844C117.701 46.3677 117.555 46.3886 117.326 46.3886C116.847 46.3886 116.888 46.4302 116.888 45.9511V41.326H118.055V40.0552H117.868Z" fill="black"/>
<path d="M121.803 39.8677C119.824 39.8677 118.449 41.451 118.449 43.8052C118.449 46.1593 119.824 47.7218 121.824 47.7218C123.783 47.7218 125.158 46.1385 125.158 43.8468C125.158 41.4302 123.824 39.8677 121.803 39.8677ZM121.824 41.2427C123.074 41.2427 123.616 42.0968 123.616 43.826C123.616 45.4927 123.053 46.326 121.824 46.326C120.574 46.326 120.012 45.4927 120.012 43.8052C120.012 42.0968 120.574 41.2427 121.824 41.2427Z" fill="black"/>
<path d="M126.321 50.326H127.613V46.4927L127.279 46.6177C127.863 47.3468 128.675 47.7218 129.571 47.7218C131.383 47.7218 132.758 46.0968 132.758 43.8677C132.758 41.5135 131.425 39.8677 129.571 39.8677C128.613 39.8677 127.717 40.3468 127.196 41.1593L127.529 41.3052V40.0552H126.113V50.326H126.321ZM129.383 41.2635C130.613 41.2635 131.196 42.1593 131.196 43.826C131.196 45.4302 130.592 46.326 129.383 46.326C128.196 46.326 127.613 45.4302 127.613 43.8052C127.613 42.1593 128.196 41.2635 129.383 41.2635Z" fill="black"/>
<path d="M138.733 37.326H137.42V47.4094H138.92V37.326H138.733Z" fill="black"/>
<path d="M146.797 46.3885C146.693 46.4302 146.63 46.4302 146.568 46.4302C146.172 46.4302 146.151 46.4093 146.151 46.0552V41.951C146.151 40.7218 145.068 39.8677 143.338 39.8677C142.318 39.8677 141.359 40.201 140.88 40.7218C140.547 41.0968 140.359 41.6177 140.318 42.4927H141.838C141.943 41.4718 142.255 41.2427 143.297 41.2427C144.318 41.2427 144.651 41.451 144.651 42.1177V42.4093C144.651 42.8885 144.609 42.8677 143.693 42.9927C142.13 43.201 141.88 43.2427 141.463 43.4302C140.651 43.7635 140.026 44.576 140.026 45.4718C140.026 46.7427 141.109 47.7218 142.526 47.7218C143.401 47.7218 144.255 47.3468 144.734 46.9093C144.776 47.2427 145.318 47.7218 146.047 47.7218C146.276 47.7218 146.422 47.6802 146.984 47.5552V46.3468L146.797 46.3885ZM144.651 45.0343C144.651 45.4093 144.609 45.4927 144.276 45.8052C143.818 46.2218 143.422 46.3885 142.755 46.3885C141.901 46.3885 141.588 46.1593 141.588 45.451C141.588 44.7218 141.88 44.5135 143.068 44.3468C144.255 44.1802 144.484 44.1385 144.651 44.0552V45.0343Z" fill="black"/>
<path d="M152.064 40.2427L150.127 45.6802H150.502L148.668 40.0552H147.085L149.502 47.2635L149.085 48.3677C148.898 48.8677 148.856 48.8677 148.398 48.8677C148.21 48.8677 148.043 48.826 147.606 48.7427V50.0552C147.877 50.201 148.252 50.326 148.543 50.326C148.918 50.326 149.439 50.1385 149.731 49.9302C150.064 49.6802 150.335 49.2635 150.543 48.701L153.71 40.0552H152.127L152.064 40.2427Z" fill="black"/>
<path d="M160.773 44.1177C160.773 43.0552 160.689 42.4093 160.502 41.8885C160.043 40.7427 158.793 39.8677 157.481 39.8677C155.543 39.8677 154.085 41.5343 154.085 43.826C154.085 46.1385 155.481 47.7218 157.46 47.7218C159.064 47.7218 160.356 46.6385 160.668 44.9302H159.168C158.814 46.0343 158.398 46.326 157.502 46.326C156.793 46.326 156.335 46.0552 155.96 45.4718C155.689 45.076 155.648 44.8052 155.627 44.2843H160.773V44.1177ZM155.668 43.201C155.752 41.9093 156.356 41.2427 157.481 41.2427C158.606 41.2427 159.189 41.951 159.189 43.0135H155.668V43.201Z" fill="black"/>
<path d="M161.894 40.2427V47.4093H163.394V43.6177C163.415 41.9302 163.915 41.3468 165.623 41.4093V39.9302C165.248 39.8677 165.144 39.8677 165.019 39.8677C164.29 39.8677 163.603 40.3468 162.957 41.3885L163.29 41.5135V40.0552H161.894V40.2427Z" fill="black"/>
<path d="M102.023 62.3885C101.919 62.4302 101.857 62.4302 101.794 62.4302C101.398 62.4302 101.378 62.4093 101.378 62.0552V57.951C101.378 56.7218 100.294 55.8677 98.5651 55.8677C97.5442 55.8677 96.5859 56.201 96.1067 56.7218C95.7734 57.0968 95.5859 57.6177 95.5442 58.4927H97.0651C97.1692 57.4718 97.4817 57.2427 98.5234 57.2427C99.5442 57.2427 99.8776 57.451 99.8776 58.1177V58.4093C99.8776 58.8885 99.8359 58.8677 98.9192 58.9927C97.3567 59.201 97.1067 59.2427 96.6901 59.4302C95.8776 59.7635 95.2526 60.576 95.2526 61.4718C95.2526 62.7427 96.3359 63.7218 97.7526 63.7218C98.6276 63.7218 99.4817 63.3468 99.9609 62.9093C100.003 63.2427 100.544 63.7218 101.273 63.7218C101.503 63.7218 101.648 63.6802 102.211 63.5552V62.3468L102.023 62.3885ZM99.8776 61.0343C99.8776 61.4093 99.8359 61.4927 99.5026 61.8052C99.0442 62.2218 98.6484 62.3885 97.9817 62.3885C97.1276 62.3885 96.8151 62.1593 96.8151 61.451C96.8151 60.7218 97.1067 60.5135 98.2942 60.3468C99.4817 60.1802 99.7109 60.1385 99.8776 60.0552V61.0343Z" fill="black"/>
<path d="M103.041 56.2427V63.4093H104.562V59.3885C104.562 57.951 105.103 57.201 106.249 57.201C107.145 57.201 107.499 57.5552 107.499 58.3885V63.4093H108.999V57.951C108.999 56.8052 107.937 55.8677 106.583 55.8677C105.562 55.8677 104.728 56.326 104.124 57.2843L104.458 57.4302V56.0552H103.041V56.2427Z" fill="black"/>
<path d="M116.329 53.326H115.017V57.1385L115.35 56.9927C114.892 56.2844 113.996 55.8677 113.079 55.8677C111.267 55.8677 109.871 57.4927 109.871 59.7219C109.871 62.0969 111.225 63.7219 113.121 63.7219C114.079 63.7219 114.871 63.3052 115.475 62.4302L115.142 62.3261V63.4094H116.517V53.326H116.329ZM113.267 57.2635C114.454 57.2635 115.017 58.1385 115.017 59.826C115.017 61.4302 114.454 62.3261 113.267 62.3261C112.038 62.3261 111.413 61.4302 111.413 59.8052C111.413 58.1594 112.038 57.2635 113.267 57.2635Z" fill="black"/>
<path d="M124.283 56.0551H123.303V55.1593C123.303 54.6801 123.387 54.6176 123.908 54.6176C123.991 54.6176 124.033 54.6176 124.47 54.6593V53.3885C124.033 53.3051 123.887 53.2843 123.658 53.2843C122.637 53.2843 121.824 54.0551 121.824 55.0551V56.0551H120.887V57.326H121.824V63.4093H123.303V57.326H124.47V56.0551H124.283Z" fill="black"/>
<path d="M128.177 55.8677C126.198 55.8677 124.823 57.451 124.823 59.8052C124.823 62.1593 126.198 63.7218 128.198 63.7218C130.156 63.7218 131.531 62.1385 131.531 59.8468C131.531 57.4302 130.198 55.8677 128.177 55.8677ZM128.198 57.2427C129.448 57.2427 129.989 58.0968 129.989 59.826C129.989 61.4927 129.427 62.326 128.198 62.326C126.948 62.326 126.385 61.4927 126.385 59.8052C126.385 58.0968 126.948 57.2427 128.198 57.2427Z" fill="black"/>
<path d="M139.09 62.3885C138.986 62.4302 138.923 62.4302 138.861 62.4302C138.465 62.4302 138.444 62.4093 138.444 62.0552V57.951C138.444 56.7218 137.361 55.8677 135.632 55.8677C134.611 55.8677 133.653 56.201 133.173 56.7218C132.84 57.0968 132.653 57.6177 132.611 58.4927H134.132C134.236 57.4718 134.548 57.2427 135.59 57.2427C136.611 57.2427 136.944 57.451 136.944 58.1177V58.4093C136.944 58.8885 136.903 58.8677 135.986 58.9927C134.423 59.201 134.173 59.2427 133.757 59.4302C132.944 59.7635 132.319 60.576 132.319 61.4718C132.319 62.7427 133.403 63.7218 134.819 63.7218C135.694 63.7218 136.548 63.3468 137.028 62.9093C137.069 63.2427 137.611 63.7218 138.34 63.7218C138.569 63.7218 138.715 63.6802 139.278 63.5552V62.3468L139.09 62.3885ZM136.944 61.0343C136.944 61.4093 136.903 61.4927 136.569 61.8052C136.111 62.2218 135.715 62.3885 135.048 62.3885C134.194 62.3885 133.882 62.1593 133.882 61.451C133.882 60.7218 134.173 60.5135 135.361 60.3468C136.548 60.1802 136.778 60.1385 136.944 60.0552V61.0343Z" fill="black"/>
<path d="M140.108 56.2427V63.4093H141.628V58.8468C141.628 57.826 142.17 57.201 143.066 57.201C143.899 57.201 144.17 57.5343 144.17 58.4302V63.4093H145.67V58.8468C145.67 57.826 146.212 57.201 147.128 57.201C147.941 57.201 148.212 57.5343 148.212 58.4302V63.4093H149.733V57.9927C149.733 56.7427 148.816 55.8677 147.503 55.8677C146.587 55.8677 145.878 56.201 145.399 56.7843C145.087 56.2427 144.399 55.8677 143.483 55.8677C142.545 55.8677 141.774 56.2635 141.191 57.0968L141.524 57.2427V56.0552H140.108V56.2427Z" fill="black"/>
<path d="M151.443 61.8468V63.4093H152.235V63.4718C152.235 64.3885 152.277 64.4718 151.443 64.5135V65.3676C152.527 65.3885 153.235 64.576 153.235 63.451V61.6593H151.443V61.8468Z" fill="black"/>
<path d="M98.0859 69.5135V79.4094H99.4817V78.3469L99.1484 78.4719C99.6692 79.2844 100.523 79.7219 101.503 79.7219C103.336 79.7219 104.732 78.0344 104.732 75.7219C104.732 73.451 103.398 71.8677 101.544 71.8677C100.586 71.8677 99.7734 72.2844 99.2526 73.0552L99.5859 73.201V69.326H98.0859V69.5135ZM101.336 73.2635C102.586 73.2635 103.169 74.1594 103.169 75.826C103.169 77.4302 102.544 78.3261 101.336 78.3261C100.148 78.3261 99.5859 77.4302 99.5859 75.8052C99.5859 74.1594 100.148 73.2635 101.336 73.2635Z" fill="black"/>
<path d="M111.999 76.1177C111.999 75.0552 111.916 74.4093 111.728 73.8885C111.27 72.7427 110.02 71.8677 108.708 71.8677C106.77 71.8677 105.312 73.5343 105.312 75.826C105.312 78.1385 106.708 79.7218 108.687 79.7218C110.291 79.7218 111.583 78.6385 111.895 76.9302H110.395C110.041 78.0343 109.624 78.326 108.728 78.326C108.02 78.326 107.562 78.0552 107.187 77.4718C106.916 77.076 106.874 76.8052 106.853 76.2843H111.999V76.1177ZM106.895 75.201C106.978 73.9093 107.583 73.2427 108.708 73.2427C109.833 73.2427 110.416 73.951 110.416 75.0135H106.895V75.201Z" fill="black"/>
<path d="M113.121 72.2427V79.4093H114.642V75.3885C114.642 73.951 115.183 73.201 116.329 73.201C117.225 73.201 117.579 73.5552 117.579 74.3885V79.4093H119.079V73.951C119.079 72.8052 118.017 71.8677 116.663 71.8677C115.642 71.8677 114.808 72.326 114.204 73.2843L114.538 73.4302V72.0552H113.121V72.2427Z" fill="black"/>
<path d="M126.409 69.326H125.097V73.1385L125.43 72.9927C124.972 72.2844 124.076 71.8677 123.159 71.8677C121.347 71.8677 119.951 73.4927 119.951 75.7219C119.951 78.0969 121.305 79.7219 123.201 79.7219C124.159 79.7219 124.951 79.3052 125.555 78.4302L125.222 78.3261V79.4094H126.597V69.326H126.409ZM123.347 73.2635C124.534 73.2635 125.097 74.1385 125.097 75.826C125.097 77.4302 124.534 78.3261 123.347 78.3261C122.118 78.3261 121.493 77.4302 121.493 75.8052C121.493 74.1594 122.118 73.2635 123.347 73.2635Z" fill="black"/>
<path d="M134.321 72.0552H133.342V70.1385H131.863V72.0552H130.904V73.326H131.863V78.4302C131.863 79.1594 132.529 79.7219 133.404 79.7219C133.696 79.7219 133.946 79.6802 134.508 79.5969V78.2844C134.154 78.3677 134.008 78.3886 133.779 78.3886C133.3 78.3886 133.342 78.4302 133.342 77.9511V73.326H134.508V72.0552H134.321Z" fill="black"/>
<path d="M135.361 69.5135V79.4094H136.861V75.3885C136.861 73.951 137.423 73.201 138.569 73.201C138.944 73.201 139.132 73.2427 139.403 73.451C139.715 73.6802 139.798 73.9094 139.798 74.3885V79.4094H141.298V73.951C141.298 72.7844 140.278 71.8677 138.903 71.8677C137.923 71.8677 137.173 72.2219 136.528 73.076L136.861 73.201V69.326H135.361V69.5135Z" fill="black"/>
<path d="M149.066 76.1177C149.066 75.0552 148.983 74.4093 148.795 73.8885C148.337 72.7427 147.087 71.8677 145.774 71.8677C143.837 71.8677 142.378 73.5343 142.378 75.826C142.378 78.1385 143.774 79.7218 145.753 79.7218C147.358 79.7218 148.649 78.6385 148.962 76.9302H147.462C147.108 78.0343 146.691 78.326 145.795 78.326C145.087 78.326 144.628 78.0552 144.253 77.4718C143.983 77.076 143.941 76.8052 143.92 76.2843H149.066V76.1177ZM143.962 75.201C144.045 73.9093 144.649 73.2427 145.774 73.2427C146.899 73.2427 147.483 73.951 147.483 75.0135H143.962V75.201Z" fill="black"/>
<path d="M106.253 90.201C106.253 88.826 105.148 87.8677 103.544 87.8677C101.919 87.8677 100.648 88.8885 100.648 90.1802C100.648 91.2843 101.419 91.9718 103.065 92.3677L104.107 92.6177C104.878 92.8052 104.982 92.9093 104.982 93.4093C104.982 94.076 104.544 94.326 103.565 94.326C102.961 94.326 102.586 94.201 102.315 93.9093C102.148 93.7218 102.107 93.6593 102.023 92.9718H100.482C100.544 94.7635 101.648 95.7218 103.482 95.7218C105.232 95.7218 106.544 94.6802 106.544 93.326C106.544 92.2843 105.773 91.5343 104.378 91.201L103.315 90.951C102.398 90.7218 102.211 90.6177 102.211 90.1385C102.211 89.4718 102.586 89.2427 103.503 89.2427C104.398 89.2427 104.669 89.4718 104.69 90.3677H106.253V90.201Z" fill="black"/>
<path d="M107.628 85.5135V95.4094H109.128V91.3885C109.128 89.951 109.69 89.201 110.836 89.201C111.211 89.201 111.398 89.2427 111.669 89.451C111.982 89.6802 112.065 89.9094 112.065 90.3885V95.4094H113.565V89.951C113.565 88.7844 112.544 87.8677 111.169 87.8677C110.19 87.8677 109.44 88.2219 108.794 89.076L109.128 89.201V85.326H107.628V85.5135Z" fill="black"/>
<path d="M121.333 92.1177C121.333 91.0552 121.249 90.4093 121.062 89.8885C120.603 88.7427 119.353 87.8677 118.041 87.8677C116.103 87.8677 114.645 89.5343 114.645 91.826C114.645 94.1385 116.041 95.7218 118.02 95.7218C119.624 95.7218 120.916 94.6385 121.228 92.9302H119.728C119.374 94.0343 118.958 94.326 118.062 94.326C117.353 94.326 116.895 94.0552 116.52 93.4718C116.249 93.076 116.208 92.8052 116.187 92.2843H121.333V92.1177ZM116.228 91.201C116.312 89.9093 116.916 89.2427 118.041 89.2427C119.166 89.2427 119.749 89.951 119.749 91.0135H116.228V91.201Z" fill="black"/>
<path d="M128.746 92.1177C128.746 91.0552 128.663 90.4093 128.475 89.8885C128.017 88.7427 126.767 87.8677 125.454 87.8677C123.517 87.8677 122.058 89.5343 122.058 91.826C122.058 94.1385 123.454 95.7218 125.433 95.7218C127.038 95.7218 128.329 94.6385 128.642 92.9302H127.142C126.788 94.0343 126.371 94.326 125.475 94.326C124.767 94.326 124.308 94.0552 123.933 93.4718C123.663 93.076 123.621 92.8052 123.6 92.2843H128.746V92.1177ZM123.642 91.201C123.725 89.9093 124.329 89.2427 125.454 89.2427C126.579 89.2427 127.163 89.951 127.163 91.0135H123.642V91.201Z" fill="black"/>
<path d="M132.534 88.0552H131.555V86.1385H130.076V88.0552H129.118V89.326H130.076V94.4302C130.076 95.1594 130.743 95.7219 131.618 95.7219C131.909 95.7219 132.159 95.6802 132.722 95.5969V94.2844C132.368 94.3677 132.222 94.3886 131.993 94.3886C131.513 94.3886 131.555 94.4302 131.555 93.9511V89.326H132.722V88.0552H132.534Z" fill="black"/>
<path d="M137.073 85.5135V95.4094H138.468V94.3469L138.135 94.4719C138.656 95.2844 139.51 95.7219 140.489 95.7219C142.323 95.7219 143.718 94.0344 143.718 91.7219C143.718 89.451 142.385 87.8677 140.531 87.8677C139.573 87.8677 138.76 88.2844 138.239 89.0552L138.573 89.201V85.326H137.073V85.5135ZM140.323 89.2635C141.573 89.2635 142.156 90.1594 142.156 91.826C142.156 93.4302 141.531 94.3261 140.323 94.3261C139.135 94.3261 138.573 93.4302 138.573 91.8052C138.573 90.1594 139.135 89.2635 140.323 89.2635Z" fill="black"/>
<path d="M151.09 94.3885C150.986 94.4302 150.923 94.4302 150.861 94.4302C150.465 94.4302 150.444 94.4093 150.444 94.0552V89.951C150.444 88.7218 149.361 87.8677 147.632 87.8677C146.611 87.8677 145.653 88.201 145.173 88.7218C144.84 89.0968 144.653 89.6177 144.611 90.4927H146.132C146.236 89.4718 146.548 89.2427 147.59 89.2427C148.611 89.2427 148.944 89.451 148.944 90.1177V90.4093C148.944 90.8885 148.903 90.8677 147.986 90.9927C146.423 91.201 146.173 91.2427 145.757 91.4302C144.944 91.7635 144.319 92.576 144.319 93.4718C144.319 94.7427 145.403 95.7218 146.819 95.7218C147.694 95.7218 148.548 95.3468 149.028 94.9093C149.069 95.2427 149.611 95.7218 150.34 95.7218C150.569 95.7218 150.715 95.6802 151.278 95.5552V94.3468L151.09 94.3885ZM148.944 93.0343C148.944 93.4093 148.903 93.4927 148.569 93.8052C148.111 94.2218 147.715 94.3885 147.048 94.3885C146.194 94.3885 145.882 94.1593 145.882 93.451C145.882 92.7218 146.173 92.5135 147.361 92.3468C148.548 92.1802 148.778 92.1385 148.944 92.0552V93.0343Z" fill="black"/>
<path d="M157.837 90.5968C157.795 89.9093 157.587 89.3468 157.316 88.951C156.837 88.3052 155.878 87.8677 154.899 87.8677C153.003 87.8677 151.587 89.5343 151.587 91.8677C151.587 94.1177 152.983 95.7218 154.878 95.7218C156.545 95.7218 157.795 94.5343 157.941 92.6593H156.441C156.233 93.951 155.858 94.326 154.92 94.326C153.691 94.326 153.128 93.5135 153.128 91.8677C153.128 90.1177 153.67 89.2427 154.878 89.2427C155.816 89.2427 156.212 89.6177 156.358 90.7635H157.858L157.837 90.5968Z" fill="black"/>
<path d="M159.92 85.326H158.628V95.4094H160.108V92.5761L160.962 91.7427L163.253 95.4094H165.066L162.108 90.6802L164.753 88.0552H162.795L159.774 91.076L160.108 91.201V85.326H159.92Z" fill="black"/>
<path d="M105.302 103.868C103.322 103.868 101.947 105.451 101.947 107.805C101.947 110.159 103.322 111.722 105.322 111.722C107.281 111.722 108.656 110.139 108.656 107.847C108.656 105.43 107.322 103.868 105.302 103.868ZM105.322 105.243C106.572 105.243 107.114 106.097 107.114 107.826C107.114 109.493 106.552 110.326 105.322 110.326C104.072 110.326 103.51 109.493 103.51 107.805C103.51 106.097 104.072 105.243 105.322 105.243Z" fill="black"/>
<path d="M109.819 104.243V111.409H111.34V107.389C111.34 105.951 111.882 105.201 113.027 105.201C113.923 105.201 114.277 105.555 114.277 106.389V111.409H115.777V105.951C115.777 104.805 114.715 103.868 113.361 103.868C112.34 103.868 111.507 104.326 110.902 105.284L111.236 105.43V104.055H109.819V104.243Z" fill="black"/>
<path d="M122.21 104.055H120.897V111.409H122.397V104.055H122.21ZM122.21 101.326H120.897V103.097H122.397V101.326H122.21Z" fill="black"/>
<path d="M126.566 104.055H125.587V102.139H124.107V104.055H123.149V105.326H124.107V110.43C124.107 111.159 124.774 111.722 125.649 111.722C125.941 111.722 126.191 111.68 126.753 111.597V110.284C126.399 110.368 126.253 110.389 126.024 110.389C125.545 110.389 125.587 110.43 125.587 109.951V105.326H126.753V104.055H126.566Z" fill="black"/>
<path d="M132.897 106.201C132.897 104.826 131.793 103.868 130.189 103.868C128.564 103.868 127.293 104.889 127.293 106.18C127.293 107.284 128.064 107.972 129.71 108.368L130.752 108.618C131.522 108.805 131.627 108.909 131.627 109.409C131.627 110.076 131.189 110.326 130.21 110.326C129.606 110.326 129.231 110.201 128.96 109.909C128.793 109.722 128.752 109.659 128.668 108.972H127.127C127.189 110.764 128.293 111.722 130.127 111.722C131.877 111.722 133.189 110.68 133.189 109.326C133.189 108.284 132.418 107.534 131.022 107.201L129.96 106.951C129.043 106.722 128.856 106.618 128.856 106.139C128.856 105.472 129.231 105.243 130.147 105.243C131.043 105.243 131.314 105.472 131.335 106.368H132.897V106.201Z" fill="black"/>
<path d="M140.564 108.118C140.564 107.055 140.481 106.409 140.293 105.889C139.835 104.743 138.585 103.868 137.272 103.868C135.335 103.868 133.877 105.534 133.877 107.826C133.877 110.139 135.272 111.722 137.252 111.722C138.856 111.722 140.147 110.639 140.46 108.93H138.96C138.606 110.034 138.189 110.326 137.293 110.326C136.585 110.326 136.127 110.055 135.752 109.472C135.481 109.076 135.439 108.805 135.418 108.284H140.564V108.118ZM135.46 107.201C135.543 105.909 136.147 105.243 137.272 105.243C138.397 105.243 138.981 105.951 138.981 107.014H135.46V107.201Z" fill="black"/>
<path d="M142.977 101.326H141.665V111.409H143.165V101.326H142.977Z" fill="black"/>
<path d="M147.354 104.055H146.375V103.159C146.375 102.68 146.458 102.618 146.979 102.618C147.062 102.618 147.104 102.618 147.542 102.659V101.388C147.104 101.305 146.958 101.284 146.729 101.284C145.708 101.284 144.896 102.055 144.896 103.055V104.055H143.958V105.326H144.896V111.409H146.375V105.326H147.542V104.055H147.354Z" fill="black"/>
<path d="M247.739 29.576V36.7427H249.26V32.1802C249.26 31.1594 249.802 30.5344 250.697 30.5344C251.531 30.5344 251.802 30.8677 251.802 31.7635V36.7427H253.302V32.1802C253.302 31.1594 253.843 30.5344 254.76 30.5344C255.572 30.5344 255.843 30.8677 255.843 31.7635V36.7427H257.364V31.326C257.364 30.076 256.447 29.201 255.135 29.201C254.218 29.201 253.51 29.5344 253.031 30.1177C252.718 29.576 252.031 29.201 251.114 29.201C250.177 29.201 249.406 29.5969 248.822 30.4302L249.156 30.576V29.3885H247.739V29.576Z" fill="black"/>
<path d="M265.242 35.7219C265.137 35.7636 265.075 35.7636 265.012 35.7636C264.617 35.7636 264.596 35.7427 264.596 35.3885V31.2844C264.596 30.0552 263.512 29.201 261.783 29.201C260.762 29.201 259.804 29.5344 259.325 30.0552C258.992 30.4302 258.804 30.951 258.762 31.826H260.283C260.387 30.8052 260.7 30.576 261.742 30.576C262.762 30.576 263.096 30.7844 263.096 31.451V31.7427C263.096 32.2219 263.054 32.201 262.137 32.326C260.575 32.5344 260.325 32.576 259.908 32.7635C259.096 33.0969 258.471 33.9094 258.471 34.8052C258.471 36.0761 259.554 37.0552 260.971 37.0552C261.846 37.0552 262.7 36.6802 263.179 36.2427C263.221 36.5761 263.762 37.0552 264.492 37.0552C264.721 37.0552 264.867 37.0136 265.429 36.8886V35.6802L265.242 35.7219ZM263.096 34.3677C263.096 34.7427 263.054 34.826 262.721 35.1385C262.262 35.5552 261.867 35.7219 261.2 35.7219C260.346 35.7219 260.033 35.4927 260.033 34.7844C260.033 34.0552 260.325 33.8469 261.512 33.6802C262.7 33.5135 262.929 33.4719 263.096 33.3885V34.3677Z" fill="black"/>
<path d="M267.405 26.6593H266.113V36.7426H267.592V33.9093L268.446 33.076L270.738 36.7426H272.551L269.592 32.0135L272.238 29.3885H270.28L267.259 32.4093L267.592 32.5343V26.6593H267.405Z" fill="black"/>
<path d="M279.217 33.451C279.217 32.3885 279.134 31.7427 278.947 31.2219C278.488 30.076 277.238 29.201 275.926 29.201C273.988 29.201 272.53 30.8677 272.53 33.1594C272.53 35.4719 273.926 37.0552 275.905 37.0552C277.509 37.0552 278.801 35.9719 279.113 34.2635H277.613C277.259 35.3677 276.842 35.6594 275.947 35.6594C275.238 35.6594 274.78 35.3885 274.405 34.8052C274.134 34.4094 274.092 34.1385 274.072 33.6177H279.217V33.451ZM274.113 32.5344C274.197 31.2427 274.801 30.576 275.926 30.576C277.051 30.576 277.634 31.2844 277.634 32.3469H274.113V32.5344Z" fill="black"/>
<path d="M290.442 35.7219C290.337 35.7636 290.275 35.7636 290.212 35.7636C289.817 35.7636 289.796 35.7427 289.796 35.3885V31.2844C289.796 30.0552 288.712 29.201 286.983 29.201C285.962 29.201 285.004 29.5344 284.525 30.0552C284.192 30.4302 284.004 30.951 283.962 31.826H285.483C285.587 30.8052 285.9 30.576 286.942 30.576C287.962 30.576 288.296 30.7844 288.296 31.451V31.7427C288.296 32.2219 288.254 32.201 287.337 32.326C285.775 32.5344 285.525 32.576 285.108 32.7635C284.296 33.0969 283.671 33.9094 283.671 34.8052C283.671 36.0761 284.754 37.0552 286.171 37.0552C287.046 37.0552 287.9 36.6802 288.379 36.2427C288.421 36.5761 288.962 37.0552 289.692 37.0552C289.921 37.0552 290.067 37.0136 290.629 36.8886V35.6802L290.442 35.7219ZM288.296 34.3677C288.296 34.7427 288.254 34.826 287.921 35.1385C287.462 35.5552 287.067 35.7219 286.4 35.7219C285.546 35.7219 285.233 35.4927 285.233 34.7844C285.233 34.0552 285.525 33.8469 286.712 33.6802C287.9 33.5135 288.129 33.4719 288.296 33.3885V34.3677Z" fill="black"/>
<path d="M297.874 29.3885H296.895V28.4927C296.895 28.0135 296.978 27.951 297.499 27.951C297.582 27.951 297.624 27.951 298.062 27.9927V26.7218C297.624 26.6385 297.478 26.6177 297.249 26.6177C296.228 26.6177 295.416 27.3885 295.416 28.3885V29.3885H294.478V30.6593H295.416V36.7427H296.895V30.6593H298.062V29.3885H297.874Z" fill="black"/>
<path d="M304.747 36.5761V29.3885H303.268V33.5344C303.268 34.9719 302.727 35.7219 301.56 35.7219C300.685 35.7219 300.31 35.3677 300.31 34.5344V29.3885H298.81V34.9719C298.81 36.1386 299.872 37.0552 301.227 37.0552C302.268 37.0552 303.06 36.6386 303.706 35.7219L303.372 35.5969V36.7427H304.747V36.5761Z" fill="black"/>
<path d="M306.286 29.576V36.7427H307.786V32.951C307.807 31.2635 308.307 30.6802 310.015 30.7427V29.2635C309.64 29.201 309.536 29.201 309.411 29.201C308.682 29.201 307.994 29.6802 307.348 30.7219L307.682 30.8469V29.3885H306.286V29.576Z" fill="black"/>
<path d="M310.726 29.576V36.7427H312.226V32.951C312.247 31.2635 312.747 30.6802 314.455 30.7427V29.2635C314.08 29.201 313.976 29.201 313.851 29.201C313.122 29.201 312.434 29.6802 311.788 30.7219L312.122 30.8469V29.3885H310.726V29.576Z" fill="black"/>
<path d="M318.062 29.201C316.082 29.201 314.707 30.7844 314.707 33.1385C314.707 35.4927 316.082 37.0552 318.082 37.0552C320.041 37.0552 321.416 35.4719 321.416 33.1802C321.416 30.7635 320.082 29.201 318.062 29.201ZM318.082 30.576C319.332 30.576 319.874 31.4302 319.874 33.1594C319.874 34.826 319.312 35.6594 318.082 35.6594C316.832 35.6594 316.27 34.826 316.27 33.1385C316.27 31.4302 316.832 30.576 318.082 30.576Z" fill="black"/>
<path d="M329.433 36.5761L331.537 29.3885H329.871L328.454 35.0135H328.829L327.433 29.3885H325.767L324.392 35.0135H324.767L323.308 29.3885H321.683L323.808 36.7427H325.35L326.746 31.0969H326.35L327.808 36.7427H329.371L329.433 36.5761Z" fill="black"/>
<path d="M342.308 35.7219C342.204 35.7636 342.142 35.7636 342.079 35.7636C341.683 35.7636 341.662 35.7427 341.662 35.3885V31.2844C341.662 30.0552 340.579 29.201 338.85 29.201C337.829 29.201 336.871 29.5344 336.392 30.0552C336.058 30.4302 335.871 30.951 335.829 31.826H337.35C337.454 30.8052 337.767 30.576 338.808 30.576C339.829 30.576 340.162 30.7844 340.162 31.451V31.7427C340.162 32.2219 340.121 32.201 339.204 32.326C337.642 32.5344 337.392 32.576 336.975 32.7635C336.162 33.0969 335.537 33.9094 335.537 34.8052C335.537 36.0761 336.621 37.0552 338.037 37.0552C338.912 37.0552 339.767 36.6802 340.246 36.2427C340.287 36.5761 340.829 37.0552 341.558 37.0552C341.787 37.0552 341.933 37.0136 342.496 36.8886V35.6802L342.308 35.7219ZM340.162 34.3677C340.162 34.7427 340.121 34.826 339.787 35.1385C339.329 35.5552 338.933 35.7219 338.267 35.7219C337.412 35.7219 337.1 35.4927 337.1 34.7844C337.1 34.0552 337.392 33.8469 338.579 33.6802C339.767 33.5135 339.996 33.4719 340.162 33.3885V34.3677Z" fill="black"/>
<path d="M344.617 26.6593H343.305V36.7426H344.805V26.6593H344.617Z" fill="black"/>
<path d="M347.577 26.6593H346.265V36.7426H347.765V26.6593H347.577Z" fill="black"/>
<path d="M355.619 29.3885H354.64V27.4718H353.161V29.3885H352.202V30.6593H353.161V35.7635C353.161 36.4926 353.827 37.0551 354.702 37.0551C354.994 37.0551 355.244 37.0135 355.807 36.9301V35.6176C355.452 35.701 355.307 35.7218 355.077 35.7218C354.598 35.7218 354.64 35.7635 354.64 35.2843V30.6593H355.807V29.3885H355.619Z" fill="black"/>
<path d="M356.659 26.8468V36.7426H358.159V32.7218C358.159 31.2843 358.722 30.5343 359.867 30.5343C360.242 30.5343 360.43 30.576 360.701 30.7843C361.013 31.0135 361.097 31.2426 361.097 31.7218V36.7426H362.597V31.2843C362.597 30.1176 361.576 29.201 360.201 29.201C359.222 29.201 358.472 29.5551 357.826 30.4093L358.159 30.5343V26.6593H356.659V26.8468Z" fill="black"/>
<path d="M370.364 33.451C370.364 32.3885 370.281 31.7427 370.093 31.2219C369.635 30.076 368.385 29.201 367.072 29.201C365.135 29.201 363.677 30.8677 363.677 33.1594C363.677 35.4719 365.072 37.0552 367.052 37.0552C368.656 37.0552 369.947 35.9719 370.26 34.2635H368.76C368.406 35.3677 367.989 35.6594 367.093 35.6594C366.385 35.6594 365.927 35.3885 365.552 34.8052C365.281 34.4094 365.239 34.1385 365.218 33.6177H370.364V33.451ZM365.26 32.5344C365.343 31.2427 365.947 30.576 367.072 30.576C368.197 30.576 368.781 31.2844 368.781 32.3469H365.26V32.5344Z" fill="black"/>
<path d="M254.593 52.5761L256.697 45.3885H255.031L253.614 51.0135H253.989L252.593 45.3885H250.927L249.552 51.0135H249.927L248.468 45.3885H246.843L248.968 52.7427H250.51L251.906 47.0969H251.51L252.968 52.7427H254.531L254.593 52.5761Z" fill="black"/>
<path d="M263.761 51.7219C263.657 51.7636 263.595 51.7636 263.532 51.7636C263.136 51.7636 263.116 51.7427 263.116 51.3885V47.2844C263.116 46.0552 262.032 45.201 260.303 45.201C259.282 45.201 258.324 45.5344 257.845 46.0552C257.511 46.4302 257.324 46.951 257.282 47.826H258.803C258.907 46.8052 259.22 46.576 260.261 46.576C261.282 46.576 261.616 46.7844 261.616 47.451V47.7427C261.616 48.2219 261.574 48.201 260.657 48.326C259.095 48.5344 258.845 48.576 258.428 48.7635C257.616 49.0969 256.991 49.9094 256.991 50.8052C256.991 52.0761 258.074 53.0552 259.491 53.0552C260.366 53.0552 261.22 52.6802 261.699 52.2427C261.741 52.5761 262.282 53.0552 263.011 53.0552C263.241 53.0552 263.386 53.0136 263.949 52.8886V51.6802L263.761 51.7219ZM261.616 50.3677C261.616 50.7427 261.574 50.826 261.241 51.1385C260.782 51.5552 260.386 51.7219 259.72 51.7219C258.866 51.7219 258.553 51.4927 258.553 50.7844C258.553 50.0552 258.845 49.8469 260.032 49.6802C261.22 49.5135 261.449 49.4719 261.616 49.3885V50.3677Z" fill="black"/>
<path d="M269.029 45.576L267.092 51.0135H267.467L265.633 45.3885H264.05L266.467 52.5969L266.05 53.7011C265.862 54.2011 265.821 54.2011 265.362 54.2011C265.175 54.2011 265.008 54.1594 264.571 54.0761V55.3886C264.842 55.5344 265.217 55.6594 265.508 55.6594C265.883 55.6594 266.404 55.4719 266.696 55.2636C267.029 55.0136 267.3 54.5969 267.508 54.0344L270.675 45.3885H269.092L269.029 45.576Z" fill="black"/>
<path d="M277.819 45.3885H276.84V43.4718H275.361V45.3885H274.402V46.6593H275.361V51.7635C275.361 52.4926 276.027 53.0551 276.902 53.0551C277.194 53.0551 277.444 53.0135 278.007 52.9301V51.6176C277.652 51.701 277.507 51.7218 277.277 51.7218C276.798 51.7218 276.84 51.7635 276.84 51.2843V46.6593H278.007V45.3885H277.819Z" fill="black"/>
<path d="M278.859 42.8468V52.7426H280.359V48.7218C280.359 47.2843 280.922 46.5343 282.067 46.5343C282.442 46.5343 282.63 46.576 282.901 46.7843C283.213 47.0135 283.297 47.2426 283.297 47.7218V52.7426H284.797V47.2843C284.797 46.1176 283.776 45.201 282.401 45.201C281.422 45.201 280.672 45.5551 280.026 46.4093L280.359 46.5343V42.6593H278.859V42.8468Z" fill="black"/>
<path d="M286.272 45.576V52.7427H287.772V48.951C287.793 47.2635 288.293 46.6802 290.002 46.7427V45.2635C289.627 45.201 289.522 45.201 289.397 45.201C288.668 45.201 287.981 45.6802 287.335 46.7219L287.668 46.8469V45.3885H286.272V45.576Z" fill="black"/>
<path d="M293.608 45.201C291.629 45.201 290.254 46.7844 290.254 49.1385C290.254 51.4927 291.629 53.0552 293.629 53.0552C295.587 53.0552 296.962 51.4719 296.962 49.1802C296.962 46.7635 295.629 45.201 293.608 45.201ZM293.629 46.576C294.879 46.576 295.421 47.4302 295.421 49.1594C295.421 50.826 294.858 51.6594 293.629 51.6594C292.379 51.6594 291.817 50.826 291.817 49.1385C291.817 47.4302 292.379 46.576 293.629 46.576Z" fill="black"/>
<path d="M304.001 52.5761V45.3885H302.522V49.5344C302.522 50.9719 301.98 51.7219 300.813 51.7219C299.938 51.7219 299.563 51.3677 299.563 50.5344V45.3885H298.063V50.9719C298.063 52.1386 299.126 53.0552 300.48 53.0552C301.522 53.0552 302.313 52.6386 302.959 51.7219L302.626 51.5969V52.7427H304.001V52.5761Z" fill="black"/>
<path d="M309.997 45.576V46.5969L310.331 46.4719C309.768 45.6177 309.018 45.201 308.143 45.201C306.456 45.201 305.081 46.951 305.081 49.201C305.081 50.3677 305.414 51.3469 306.018 52.0552C306.539 52.6594 307.352 53.0552 308.06 53.0552C308.893 53.0552 309.643 52.6177 310.227 51.7427L309.893 51.6177V51.9927C309.893 53.8469 309.56 54.3469 308.185 54.3469C307.227 54.3469 306.935 54.1594 306.789 53.1802H305.289C305.414 54.6594 306.643 55.6594 308.164 55.6594C309.185 55.6594 310.164 55.2636 310.622 54.7011C311.164 54.0552 311.414 53.0552 311.414 51.4302V45.3885H309.997V45.576ZM308.247 46.576C309.414 46.576 309.893 47.3885 309.893 49.1594C309.893 50.8677 309.414 51.6594 308.247 51.6594C307.102 51.6594 306.622 50.8469 306.622 49.1385C306.622 47.4302 307.102 46.576 308.247 46.576Z" fill="black"/>
<path d="M312.952 42.8468V52.7426H314.452V48.7218C314.452 47.2843 315.015 46.5343 316.161 46.5343C316.536 46.5343 316.723 46.576 316.994 46.7843C317.307 47.0135 317.39 47.2426 317.39 47.7218V52.7426H318.89V47.2843C318.89 46.1176 317.869 45.201 316.494 45.201C315.515 45.201 314.765 45.5551 314.119 46.4093L314.452 46.5343V42.6593H312.952V42.8468Z" fill="black"/>
<path d="M326.739 45.3885H325.76V43.4718H324.281V45.3885H323.322V46.6593H324.281V51.7635C324.281 52.4926 324.947 53.0551 325.822 53.0551C326.114 53.0551 326.364 53.0135 326.927 52.9301V51.6176C326.572 51.701 326.427 51.7218 326.197 51.7218C325.718 51.7218 325.76 51.7635 325.76 51.2843V46.6593H326.927V45.3885H326.739Z" fill="black"/>
<path d="M327.779 42.8468V52.7426H329.279V48.7218C329.279 47.2843 329.842 46.5343 330.987 46.5343C331.362 46.5343 331.55 46.576 331.821 46.7843C332.133 47.0135 332.217 47.2426 332.217 47.7218V52.7426H333.717V47.2843C333.717 46.1176 332.696 45.201 331.321 45.201C330.342 45.201 329.592 45.5551 328.946 46.4093L329.279 46.5343V42.6593H327.779V42.8468Z" fill="black"/>
<path d="M341.484 49.451C341.484 48.3885 341.401 47.7427 341.213 47.2219C340.755 46.076 339.505 45.201 338.192 45.201C336.255 45.201 334.797 46.8677 334.797 49.1594C334.797 51.4719 336.192 53.0552 338.172 53.0552C339.776 53.0552 341.067 51.9719 341.38 50.2635H339.88C339.526 51.3677 339.109 51.6594 338.213 51.6594C337.505 51.6594 337.047 51.3885 336.672 50.8052C336.401 50.4094 336.359 50.1385 336.338 49.6177H341.484V49.451ZM336.38 48.5344C336.463 47.2427 337.067 46.576 338.192 46.576C339.317 46.576 339.901 47.2844 339.901 48.3469H336.38V48.5344Z" fill="black"/>
<path d="M250.447 61.3885H249.468V60.4927C249.468 60.0135 249.552 59.951 250.072 59.951C250.156 59.951 250.197 59.951 250.635 59.9927V58.7218C250.197 58.6385 250.052 58.6177 249.822 58.6177C248.802 58.6177 247.989 59.3885 247.989 60.3885V61.3885H247.052V62.6593H247.989V68.7427H249.468V62.6593H250.635V61.3885H250.447Z" fill="black"/>
<path d="M254.342 61.201C252.362 61.201 250.987 62.7844 250.987 65.1385C250.987 67.4927 252.362 69.0552 254.362 69.0552C256.321 69.0552 257.696 67.4719 257.696 65.1802C257.696 62.7635 256.362 61.201 254.342 61.201ZM254.362 62.576C255.612 62.576 256.154 63.4302 256.154 65.1594C256.154 66.826 255.592 67.6594 254.362 67.6594C253.112 67.6594 252.55 66.826 252.55 65.1385C252.55 63.4302 253.112 62.576 254.362 62.576Z" fill="black"/>
<path d="M265.255 67.7219C265.151 67.7636 265.088 67.7636 265.026 67.7636C264.63 67.7636 264.609 67.7427 264.609 67.3885V63.2844C264.609 62.0552 263.526 61.201 261.797 61.201C260.776 61.201 259.817 61.5344 259.338 62.0552C259.005 62.4302 258.817 62.951 258.776 63.826H260.297C260.401 62.8052 260.713 62.576 261.755 62.576C262.776 62.576 263.109 62.7844 263.109 63.451V63.7427C263.109 64.2219 263.067 64.201 262.151 64.326C260.588 64.5344 260.338 64.576 259.922 64.7635C259.109 65.0969 258.484 65.9094 258.484 66.8052C258.484 68.0761 259.567 69.0552 260.984 69.0552C261.859 69.0552 262.713 68.6802 263.192 68.2427C263.234 68.5761 263.776 69.0552 264.505 69.0552C264.734 69.0552 264.88 69.0136 265.442 68.8886V67.6802L265.255 67.7219ZM263.109 66.3677C263.109 66.7427 263.067 66.826 262.734 67.1385C262.276 67.5552 261.88 67.7219 261.213 67.7219C260.359 67.7219 260.047 67.4927 260.047 66.7844C260.047 66.0552 260.338 65.8469 261.526 65.6802C262.713 65.5135 262.942 65.4719 263.109 65.3885V66.3677Z" fill="black"/>
<path d="M266.272 61.576V68.7427H267.793V64.1802C267.793 63.1594 268.335 62.5344 269.231 62.5344C270.064 62.5344 270.335 62.8677 270.335 63.7635V68.7427H271.835V64.1802C271.835 63.1594 272.377 62.5344 273.293 62.5344C274.106 62.5344 274.377 62.8677 274.377 63.7635V68.7427H275.897V63.326C275.897 62.076 274.981 61.201 273.668 61.201C272.752 61.201 272.043 61.5344 271.564 62.1177C271.252 61.576 270.564 61.201 269.647 61.201C268.71 61.201 267.939 61.5969 267.356 62.4302L267.689 62.576V61.3885H266.272V61.576Z" fill="black"/>
</svg>
