<svg width="518" height="377" viewBox="0 0 518 377" fill="none" xmlns="http://www.w3.org/2000/svg">
<g clip-path="url(#clip0_549_709)">
<rect width="518" height="377" fill="white"/>
<path d="M160.297 337.01V207.724H36.5625V358.479H160.297V345.281" fill="white"/>
<path d="M160.297 337.01V207.724H36.5625V358.479H160.297V345.281" stroke="black" stroke-width="2"/>
<path d="M196.292 160.49L154.63 91.0832L70.8542 91.1353" stroke="black" stroke-width="2" stroke-linecap="round"/>
<path d="M70.8542 91.1353L30.0885 160.49" stroke="black" stroke-width="2" stroke-linecap="round"/>
<path d="M30.0885 175.302H196.292" stroke="black" stroke-width="2"/>
<path d="M30.0885 172.776H196.292" stroke="black" stroke-width="0.666667"/>
<path d="M30.0885 161.193H101.047" stroke="black" stroke-width="2"/>
<path d="M118.844 161.193H196.292" stroke="black" stroke-width="2"/>
<path d="M30.0885 163.719H99.8437" stroke="black" stroke-width="0.666667"/>
<path d="M120.047 163.719H196.292" stroke="black" stroke-width="0.666667"/>
<path d="M196.292 161.193V175.302" stroke="black" stroke-width="2" stroke-linecap="round"/>
<path d="M30.0885 161.193V175.302" stroke="black" stroke-width="2" stroke-linecap="round"/>
<path d="M339.958 352.531L367.682 361.349L366 346.651L337.021 337.828L339.958 352.531Z" fill="white"/>
<path d="M296.714 326.172V231.396L283.328 227.755" fill="white"/>
<path d="M296.714 326.172V231.396L283.328 227.755" stroke="black" stroke-width="1.33333"/>
<path d="M375.307 364.13L291.615 337.896Z" fill="white"/>
<mask id="mask0_549_709" style="mask-type:luminance" maskUnits="userSpaceOnUse" x="279" y="326" width="109" height="42">
<path d="M279.667 326.333H387.667V367.042H279.667V326.333Z" fill="white"/>
</mask>
<g mask="url(#mask0_549_709)">
<path d="M375.307 364.13L291.615 337.896" stroke="black" stroke-width="2"/>
</g>
<path d="M297.052 325.438L331.542 302.542Z" fill="white"/>
<path d="M297.052 325.438L331.542 302.542" stroke="black" stroke-width="1.33333"/>
<path d="M334.193 300.781L351.505 289.292Z" fill="white"/>
<path d="M334.193 300.781L351.505 289.292" stroke="black" stroke-width="1.33333"/>
<path d="M362.849 281.76L354.214 287.495L351.505 289.292" fill="white"/>
<path d="M362.849 281.76L354.214 287.495L351.505 289.292" stroke="black" stroke-width="1.33333"/>
<path d="M296.714 231.396L362.99 214.948Z" fill="white"/>
<path d="M296.714 231.396L362.99 214.948" stroke="black" stroke-width="1.33333" stroke-linecap="round"/>
<path d="M283.87 227.266L351.792 213.057Z" fill="white"/>
<path d="M283.87 227.266L351.792 213.057" stroke="black" stroke-width="2" stroke-linecap="round"/>
<path d="M351.651 213.161L362.396 214.703Z" fill="white"/>
<path d="M351.651 213.161L362.396 214.703" stroke="black" stroke-width="2" stroke-linecap="round"/>
<path d="M375.833 364.151L418.677 307.344Z" fill="white"/>
<mask id="mask1_549_709" style="mask-type:luminance" maskUnits="userSpaceOnUse" x="363" y="295" width="68" height="73">
<path d="M363.667 295.667H430.333V367.042H363.667V295.667Z" fill="white"/>
</mask>
<g mask="url(#mask1_549_709)">
<path d="M375.833 364.151L418.677 307.344" stroke="black" stroke-width="2" stroke-linecap="round"/>
</g>
<path d="M418.568 307.661V296.323" stroke="black" stroke-width="2" stroke-linecap="round"/>
<path d="M418.677 294.953L362.849 281.76V215.229" fill="white"/>
<path d="M418.677 294.953L362.849 281.76V215.229" stroke="black" stroke-width="2" stroke-linecap="round"/>
<path d="M285.641 228.49L285.911 327.693Z" fill="white"/>
<path d="M285.641 228.49L285.911 327.693" stroke="black" stroke-width="0.666667"/>
<path d="M294.25 231.219L294.042 327.609Z" fill="white"/>
<path d="M294.25 231.219L294.042 327.609" stroke="black" stroke-width="0.666667"/>
<path d="M287.25 228.281L352.771 214Z" fill="white"/>
<path d="M287.25 228.281L352.771 214" stroke="black" stroke-width="0.666667"/>
<path d="M294.25 230.24L359.208 214.844Z" fill="white"/>
<path d="M294.25 230.24L359.208 214.844" stroke="black" stroke-width="0.666667"/>
<path d="M292.214 335.495L374.609 361.557Z" fill="white"/>
<path d="M292.214 335.495L374.609 361.557" stroke="black" stroke-width="0.666667"/>
<path d="M294.042 327.609L375.068 352.562Z" fill="white"/>
<path d="M294.042 327.609L375.068 352.562" stroke="black" stroke-width="0.666667"/>
<path d="M375.307 353.089L418.568 299.401Z" fill="white"/>
<path d="M375.307 353.089L418.568 299.401" stroke="black" stroke-width="0.666667"/>
<path d="M375.307 360.932L418.292 304.443Z" fill="white"/>
<path d="M375.307 360.932L418.292 304.443" stroke="black" stroke-width="0.666667"/>
<path d="M375.307 363.729V350.073" stroke="black" stroke-width="0.666667" stroke-linecap="round"/>
<path d="M375.307 350.073L296.385 326.01Z" fill="white"/>
<path d="M375.307 350.073L296.385 326.01" stroke="black" stroke-width="1.33333" stroke-linecap="round"/>
<path d="M375.307 350.073L418.01 296.88Z" fill="white"/>
<path d="M375.307 350.073L418.01 296.88" stroke="black" stroke-width="1.33333" stroke-linecap="round"/>
<path d="M283.083 227.719L283.214 326.495Z" fill="white"/>
<path d="M283.083 227.719L283.214 326.495" stroke="black" stroke-width="2" stroke-linecap="round"/>
<path d="M297.052 325.438L288.312 331.896" stroke="black" stroke-width="0.666667" stroke-linecap="round"/>
<path d="M110.052 91.3385V97.2969" stroke="black" stroke-width="1.33333" stroke-linecap="round"/>
<path d="M110.052 122.198V172.146" stroke="black" stroke-width="1.33333" stroke-linecap="round"/>
<path d="M107.063 90.1355L101.062 160.297C101.062 160.297 101.354 167.073 110.052 167.073C118.755 167.073 119.047 160.297 119.047 160.297L114.646 107.495" stroke="black" stroke-width="2"/>
<path d="M100.047 163.797C100.047 163.797 102.146 169.297 110.245 169.297C118.344 169.297 120.344 163.594 120.344 163.594" stroke="black" stroke-width="0.666667"/>
<path d="M126.844 186.094L114.844 69.6979H127.448L160.734 186.661L126.844 186.094Z" fill="white"/>
<path d="M126.844 186.094L114.844 69.6978H127.448L160.734 186.661L126.844 186.094Z" stroke="black" stroke-width="2"/>
<path d="M127.448 183.396L159.693 183.844" stroke="black" stroke-width="0.666667"/>
<path d="M121.365 53.2604C121.365 53.2604 121.74 52.1979 120.151 51.1927Z" fill="white"/>
<path d="M121.365 53.2604C121.365 53.2604 121.74 52.1979 120.151 51.1927" stroke="black" stroke-width="2"/>
<path d="M114.203 50.323C113.667 50.1355 113.078 51.099 113.078 51.099Z" fill="white"/>
<path d="M114.203 50.323C113.667 50.1355 113.078 51.099 113.078 51.099" stroke="black" stroke-width="2"/>
<path d="M121.219 53.8177C121.219 53.8177 121.036 52.625 120.245 51.5052Z" fill="white"/>
<path d="M121.219 53.8177C121.219 53.8177 121.036 52.625 120.245 51.5052" stroke="black" stroke-width="2"/>
<path d="M113.078 51.099L107.75 119.505C107.75 119.505 108.354 121.443 110.052 121.896C111.755 122.349 112.807 120.922 112.807 120.922L121.365 53.2605C121.365 53.2605 121.828 55.3542 117.182 54.6563C113.042 54.0365 113.078 51.099 113.078 51.099Z" fill="white"/>
<path d="M113.078 51.0989L107.75 119.505C107.75 119.505 108.354 121.443 110.052 121.896C111.755 122.349 112.807 120.922 112.807 120.922L121.365 53.2603C121.365 53.2603 121.828 55.3541 117.182 54.6562C113.042 54.0364 113.078 51.0989 113.078 51.0989Z" stroke="black" stroke-width="2"/>
<path d="M112.141 64.1823C112.141 64.1823 113.083 66.3178 116.047 67.0261C118.693 67.6459 119.755 65.9428 119.755 65.9428" fill="white"/>
<path d="M112.141 64.1823C112.141 64.1823 113.083 66.3178 116.047 67.0261C118.693 67.6459 119.755 65.9428 119.755 65.9428" stroke="black" stroke-width="1.33333"/>
<path d="M119.427 54.5729L111.771 121.141Z" fill="white"/>
<path d="M119.427 54.5729L111.771 121.141" stroke="black" stroke-width="0.666667"/>
<path d="M120.214 52.5469L120.474 49.3125L122.641 47.4271L117.479 17.7031L114.12 51.5781" fill="white"/>
<path d="M120.214 52.5469L120.474 49.3125L122.641 47.4271L117.479 17.7031L114.12 51.5781" stroke="black" stroke-width="2"/>
<path d="M120.719 47.6406L116.349 20.9844Z" fill="white"/>
<path d="M120.719 47.6406L116.349 20.9844" stroke="black" stroke-width="0.666667"/>
<path d="M119.292 54.8541C119.292 54.8541 119.266 53.0468 118.094 51.7448Z" fill="white"/>
<path d="M119.292 54.8541C119.292 54.8541 119.266 53.0468 118.094 51.7448" stroke="black" stroke-width="0.666667"/>
<path d="M120.995 53.5C120.995 53.5 120.271 52.1198 117.219 51.5208C115.135 51.1146 113.464 51.625 113.464 51.625" stroke="black" stroke-width="1.33333"/>
<path d="M338.016 118.182H385.13" stroke="black" stroke-width="2" stroke-linecap="round"/>
<path d="M299.646 148.849L337.823 118.182" stroke="black" stroke-width="2" stroke-linecap="round"/>
<path d="M299.646 165.307H484.323" stroke="black" stroke-width="2"/>
<path d="M299.646 162.495H484.323" stroke="black" stroke-width="0.666667"/>
<path d="M299.646 149.625H378.49" stroke="black" stroke-width="2"/>
<path d="M398.266 149.625H484.323" stroke="black" stroke-width="2"/>
<path d="M299.646 152.432H377.156" stroke="black" stroke-width="0.666667"/>
<path d="M399.599 152.432H484.323" stroke="black" stroke-width="0.666667"/>
<path d="M484.323 149.625V165.307" stroke="black" stroke-width="2" stroke-linecap="round"/>
<path d="M299.646 149.625V165.307" stroke="black" stroke-width="2" stroke-linecap="round"/>
<path d="M388.49 119.88L388.5 149.964V161.797" stroke="black" stroke-width="1.33333" stroke-linecap="round"/>
<path d="M391.797 118.182L398.49 148.63C398.49 148.63 398.167 156.156 388.5 156.156C378.833 156.156 378.51 148.63 378.51 148.63L385.13 118.182" stroke="black" stroke-width="2"/>
<path d="M377.38 152.516C377.38 152.516 379.714 158.63 388.714 158.63C397.714 158.63 399.932 152.297 399.932 152.297" stroke="black" stroke-width="0.666667"/>
<path d="M391.797 118.182H444.24L484.323 148.849" stroke="black" stroke-width="2" stroke-linecap="round"/>
<path d="M385.406 117.88C385.406 117.88 387.073 119.88 388.49 119.88C389.906 119.88 391.573 118.182 391.573 118.182" stroke="black" stroke-width="1.33333" stroke-linecap="round"/>
<path d="M462.375 84.9011C462.375 84.9011 463.682 84.1615 462.969 81.7605Z" fill="white"/>
<path d="M462.375 84.9011C462.375 84.9011 463.682 84.1615 462.969 81.7605" stroke="black" stroke-width="2"/>
<path d="M457.75 75.677C457.375 75.0155 455.938 75.4635 455.938 75.4635Z" fill="white"/>
<path d="M457.75 75.677C457.375 75.0155 455.938 75.4635 455.938 75.4635" stroke="black" stroke-width="2"/>
<path d="M461.74 85.3333C461.74 85.3333 462.599 83.9739 462.786 82.1562Z" fill="white"/>
<path d="M461.74 85.3333C461.74 85.3333 462.599 83.9739 462.786 82.1562" stroke="black" stroke-width="2"/>
<path d="M455.938 75.4636L390.635 139.542C390.635 139.542 389.547 142.016 390.859 143.964C392.177 145.906 394.484 145.396 394.484 145.396L462.375 84.9011C462.375 84.9011 461.005 87.4115 456.948 82.6407C453.328 78.3907 455.938 75.4636 455.938 75.4636Z" fill="white"/>
<path d="M455.938 75.4634L390.635 139.542C390.635 139.542 389.547 142.016 390.859 143.963C392.177 145.906 394.484 145.396 394.484 145.396L462.375 84.9009C462.375 84.9009 461.005 87.4114 456.948 82.6405C453.328 78.3905 455.938 75.4634 455.938 75.4634Z" stroke="black" stroke-width="2"/>
<path d="M443.537 87.7916C443.537 87.7916 442.609 90.7656 444.969 94.0781C447.083 97.0156 449.641 96.2395 449.641 96.2395" fill="white"/>
<path d="M443.537 87.7916C443.537 87.7916 442.609 90.7656 444.969 94.0781C447.083 97.0156 449.641 96.2395 449.641 96.2395" stroke="black" stroke-width="1.33333"/>
<path d="M459.271 84.5209L393.25 144.714Z" fill="white"/>
<path d="M459.271 84.5209L393.25 144.714" stroke="black" stroke-width="0.666667"/>
<path d="M461.844 83.177L464.937 80.1562H468.766L489.625 45.7655L456.568 76.8645" fill="white"/>
<path d="M461.844 83.177L464.937 80.1562H468.766L489.625 45.7655L456.568 76.8645" stroke="black" stroke-width="2"/>
<path d="M466.651 78.6875L485.62 48.0729Z" fill="white"/>
<path d="M466.651 78.6875L485.62 48.0729" stroke="black" stroke-width="0.666667"/>
<path d="M458.891 84.6875C458.891 84.6875 460.448 82.8542 460.417 80.5156Z" fill="white"/>
<path d="M458.891 84.6875C458.891 84.6875 460.448 82.8542 460.417 80.5156" stroke="black" stroke-width="0.666667"/>
<path d="M461.792 84.8176C461.792 84.8176 462.276 82.7916 459.734 79.5208C457.995 77.2864 455.865 76.3333 455.865 76.3333" stroke="black" stroke-width="1.33333"/>
<path d="M36.5625 266.036H37.9844" stroke="black" stroke-width="0.666667"/>
<path d="M129.005 266.036H159.583" stroke="black" stroke-width="0.666667"/>
<path d="M36.5625 270.516H86.6927" stroke="black" stroke-width="2"/>
<path d="M126.875 270.516H159.583" stroke="black" stroke-width="2"/>
<path d="M36.5625 261.552H71.4063" stroke="black" stroke-width="2"/>
<path d="M128.297 261.552H159.583" stroke="black" stroke-width="2"/>
<path d="M126.49 269.271C129.719 269.193 128.964 264.25 128.964 264.25C128.964 264.25 125.818 248.495 125.036 245.943C124.25 243.396 120.208 244.38 120.208 244.38C120.208 244.38 90.8333 250.677 87.2135 251.453C83.599 252.229 83.2708 254.052 83.2708 254.052" stroke="black" stroke-width="1.33333"/>
<path d="M83.5833 254.359C83.5833 254.359 86.2969 267.016 87.4635 272.437C88.625 277.865 94.6302 276.104 94.6302 276.104L104.573 273.969" stroke="black" stroke-width="2" stroke-linecap="round"/>
<path d="M126.219 269.094C126.219 269.094 140.391 292.094 143.24 296.339C146.089 300.583 143.703 303.099 143.703 303.099C143.703 303.099 143.208 303.412 140.594 306.234C139.938 306.943 139.156 307.255 138.349 307.339" stroke="black" stroke-width="1.33333"/>
<path d="M138.349 307.339C135.927 307.573 133.292 305.667 133.292 305.667L104.073 273.839" stroke="black" stroke-width="2"/>
<path d="M84.1667 257.073L78.9688 258.187L66.6719 263.661" stroke="black" stroke-width="1.33333"/>
<path d="M66.6719 263.661L67.1563 265.922" stroke="black" stroke-width="2"/>
<path d="M86.2969 267.016L81.099 268.13L67.6406 268.182L67.1562 265.922" stroke="black" stroke-width="2"/>
<path d="M128.104 258.052L132.495 256.943" stroke="black" stroke-width="2" stroke-linecap="square"/>
<path d="M133.302 256.938L131.172 246.995L125.974 248.109" stroke="black" stroke-width="1.33333" stroke-linecap="square"/>
<path d="M133.911 254.672L142.896 252.667" stroke="black" stroke-width="2" stroke-linecap="square"/>
<path d="M143.354 252.604L142.005 247.078L132.557 249.146" stroke="black" stroke-width="1.33333"/>
<path d="M67.9635 266.104L79.5208 266.281L85.7917 264.937" stroke="black" stroke-width="0.666667"/>
<path d="M78.3594 258.375L80.4323 268.036" stroke="black" stroke-width="0.666667"/>
<path d="M127.583 255.62L132.5 254.568" stroke="black" stroke-width="0.666667"/>
<path d="M86.1823 255.99L89.5937 271.922C89.5937 271.922 90.7812 274.151 93.4948 273.568C96.2083 272.984 104.51 271.203 104.51 271.203C104.51 271.203 106.969 271.922 107.937 273.13C108.906 274.339 134.937 303.151 134.937 303.151C134.937 303.151 137.068 304.818 138.714 303.401" stroke="black" stroke-width="0.666667"/>
<path d="M133.016 252.724L142.724 250.646" stroke="black" stroke-width="0.666667"/>
<mask id="mask2_549_709" style="mask-type:luminance" maskUnits="userSpaceOnUse" x="133" y="298" width="74" height="70">
<path d="M133 298.333H206.333V367.042H133V298.333Z" fill="white"/>
</mask>
<g mask="url(#mask2_549_709)">
<path d="M140.594 306.234C140.594 306.234 152.604 306.865 153.526 317.26C154.453 327.661 155.146 346.151 168.781 352.625C182.417 359.094 192.583 357.245 197.672 366.719" stroke="black" stroke-width="1.33333"/>
</g>
<mask id="mask3_549_709" style="mask-type:luminance" maskUnits="userSpaceOnUse" x="138" y="299" width="67" height="69">
<path d="M138.333 299.667H205V367.042H138.333V299.667Z" fill="white"/>
</mask>
<g mask="url(#mask3_549_709)">
<path d="M143.422 303.979C143.422 303.979 155.432 304.609 156.359 315.011C157.281 325.412 157.974 343.896 171.609 350.37C185.245 356.839 195.417 354.99 200.5 364.469" stroke="black" stroke-width="0.666667"/>
</g>
<path d="M66.7864 267.813C66.7864 267.813 62.8229 266.443 60.7812 266.5C58.7396 266.563 55.7448 268.25 51.6302 266.818C45.7969 265.422 42.8177 270.068 39.625 268.474C37.026 267.182 39.8385 264.531 39.8385 264.531" stroke="black" stroke-width="1.33333" stroke-linecap="round"/>
<path d="M39.8385 264.531C39.8385 264.531 45.0833 262.198 48.3437 263.198C51.6094 264.198 53.4167 264.797 56.3437 265.094C58.4531 265.307 59.8854 263.557 61.2292 263.521C64.4531 263.443 65.8958 264.672 65.8958 264.672" stroke="black" stroke-width="0.666667"/>
<path d="M99.3542 270.037C99.8542 269.75 100.021 269.115 99.7344 268.615L94.0156 258.708C93.7292 258.208 93.0938 258.042 92.5938 258.328C92.099 258.615 91.9271 259.25 92.2136 259.75L97.9323 269.656C98.2188 270.151 98.8594 270.323 99.3542 270.037Z" stroke="black" stroke-width="0.666667" stroke-linecap="round"/>
<path d="M104.036 268.995C104.531 268.708 104.703 268.073 104.417 267.573L98.6927 257.667C98.4063 257.172 97.7708 257 97.276 257.287C96.776 257.573 96.6042 258.208 96.8958 258.708L102.615 268.615C102.901 269.115 103.536 269.281 104.036 268.995Z" stroke="black" stroke-width="0.666667" stroke-linecap="round"/>
<path d="M108.573 268.042C109.068 267.755 109.24 267.12 108.953 266.62L103.229 256.714C102.943 256.219 102.307 256.047 101.807 256.333C101.313 256.62 101.141 257.255 101.427 257.755L107.151 267.662C107.438 268.162 108.073 268.328 108.573 268.042Z" stroke="black" stroke-width="0.666667" stroke-linecap="round"/>
<path d="M285.911 326.193C285.911 326.193 285.911 333.693 292.214 335.495" stroke="black" stroke-width="0.666667" stroke-linecap="round"/>
<path d="M283.214 326.495C283.214 326.495 282.01 335.193 291.615 337.896" stroke="black" stroke-width="2"/>
<path d="M320.911 316.297L335.026 301.536L322.161 291.687" stroke="black" stroke-width="1.33333" stroke-linecap="round"/>
<path d="M331.479 302.359L319.365 293.141L312.615 314.797L317.047 317.76L331.479 302.359Z" fill="white"/>
<path d="M331.479 302.359L319.365 293.141L312.615 314.797L317.047 317.76L331.479 302.359Z" stroke="black" stroke-width="0.666667" stroke-linecap="round"/>
<path d="M312.615 314.797L319.365 293.141L322.161 291.687" stroke="black" stroke-width="1.33333" stroke-linecap="round"/>
<path d="M331.542 302.542L334.51 301.495" stroke="black" stroke-width="0.666667" stroke-linecap="round"/>
<path d="M317.714 317.698L320.911 316.297" stroke="black" stroke-width="1.33333" stroke-linecap="round"/>
<path d="M327.911 315.995L340.214 305.797L339.01 301.896L348.01 300.396L341.714 315.396L341.411 309.094L328.813 321.995L327.911 315.995Z" stroke="black" stroke-width="0.666667" stroke-linecap="square"/>
<path d="M189.316 77.1294V69.9419H187.837V74.0877C187.837 75.5252 187.295 76.2752 186.129 76.2752C185.254 76.2752 184.879 75.9211 184.879 75.0877V69.9419H183.379V75.5252C183.379 76.6919 184.441 77.6086 185.795 77.6086C186.837 77.6086 187.629 77.1919 188.274 76.2752L187.941 76.1502V77.2961H189.316V77.1294Z" fill="black"/>
<path d="M196.146 72.0877C196.146 70.7127 195.042 69.7544 193.438 69.7544C191.813 69.7544 190.542 70.7752 190.542 72.0669C190.542 73.1711 191.313 73.8586 192.959 74.2544L194 74.5044C194.771 74.6919 194.875 74.7961 194.875 75.2961C194.875 75.9627 194.438 76.2127 193.459 76.2127C192.855 76.2127 192.48 76.0877 192.209 75.7961C192.042 75.6086 192 75.5461 191.917 74.8586H190.375C190.438 76.6502 191.542 77.6086 193.375 77.6086C195.125 77.6086 196.438 76.5669 196.438 75.2127C196.438 74.1711 195.667 73.4211 194.271 73.0877L193.209 72.8377C192.292 72.6086 192.105 72.5044 192.105 72.0252C192.105 71.3586 192.48 71.1294 193.396 71.1294C194.292 71.1294 194.563 71.3586 194.584 72.2544H196.146V72.0877Z" fill="black"/>
<path d="M203.813 74.0044C203.813 72.9419 203.73 72.2961 203.542 71.7752C203.084 70.6294 201.834 69.7544 200.521 69.7544C198.584 69.7544 197.125 71.4211 197.125 73.7127C197.125 76.0252 198.521 77.6086 200.5 77.6086C202.105 77.6086 203.396 76.5252 203.709 74.8169H202.209C201.855 75.9211 201.438 76.2127 200.542 76.2127C199.834 76.2127 199.375 75.9419 199 75.3586C198.73 74.9627 198.688 74.6919 198.667 74.1711H203.813V74.0044ZM198.709 73.0877C198.792 71.7961 199.396 71.1294 200.521 71.1294C201.646 71.1294 202.23 71.8377 202.23 72.9002H198.709V73.0877Z" fill="black"/>
<path d="M211.308 69.9418H210.329V68.0251H208.849V69.9418H207.891V71.2126H208.849V76.3168C208.849 77.046 209.516 77.6085 210.391 77.6085C210.683 77.6085 210.933 77.5668 211.495 77.4835V76.171C211.141 76.2543 210.995 76.2751 210.766 76.2751C210.287 76.2751 210.329 76.3168 210.329 75.8376V71.2126H211.495V69.9418H211.308Z" fill="black"/>
<path d="M212.348 67.4001V77.296H213.848V73.2751C213.848 71.8376 214.41 71.0876 215.556 71.0876C215.931 71.0876 216.119 71.1293 216.389 71.3376C216.702 71.5668 216.785 71.796 216.785 72.2751V77.296H218.285V71.8376C218.285 70.671 217.264 69.7543 215.889 69.7543C214.91 69.7543 214.16 70.1085 213.514 70.9626L213.848 71.0876V67.2126H212.348V67.4001Z" fill="black"/>
<path d="M226.053 74.0044C226.053 72.9419 225.969 72.2961 225.782 71.7752C225.324 70.6294 224.074 69.7544 222.761 69.7544C220.824 69.7544 219.365 71.4211 219.365 73.7127C219.365 76.0252 220.761 77.6086 222.74 77.6086C224.344 77.6086 225.636 76.5252 225.949 74.8169H224.449C224.094 75.9211 223.678 76.2127 222.782 76.2127C222.074 76.2127 221.615 75.9419 221.24 75.3586C220.969 74.9627 220.928 74.6919 220.907 74.1711H226.053V74.0044ZM220.949 73.0877C221.032 71.7961 221.636 71.1294 222.761 71.1294C223.886 71.1294 224.469 71.8377 224.469 72.9002H220.949V73.0877Z" fill="black"/>
<path d="M230.673 67.4001V77.296H232.069V76.2335L231.735 76.3585C232.256 77.171 233.11 77.6085 234.09 77.6085C235.923 77.6085 237.319 75.921 237.319 73.6085C237.319 71.3376 235.985 69.7543 234.131 69.7543C233.173 69.7543 232.36 70.171 231.84 70.9418L232.173 71.0876V67.2126H230.673V67.4001ZM233.923 71.1501C235.173 71.1501 235.756 72.046 235.756 73.7126C235.756 75.3168 235.131 76.2126 233.923 76.2126C232.735 76.2126 232.173 75.3168 232.173 73.6918C232.173 72.046 232.735 71.1501 233.923 71.1501Z" fill="black"/>
<path d="M244.17 77.1294V69.9419H242.69V74.0877C242.69 75.5252 242.149 76.2752 240.982 76.2752C240.107 76.2752 239.732 75.9211 239.732 75.0877V69.9419H238.232V75.5252C238.232 76.6919 239.295 77.6086 240.649 77.6086C241.69 77.6086 242.482 77.1919 243.128 76.2752L242.795 76.1502V77.2961H244.17V77.1294Z" fill="black"/>
<path d="M248.375 69.9418H247.395V68.0251H245.916V69.9418H244.958V71.2126H245.916V76.3168C245.916 77.046 246.583 77.6085 247.458 77.6085C247.75 77.6085 248 77.5668 248.562 77.4835V76.171C248.208 76.2543 248.062 76.2751 247.833 76.2751C247.354 76.2751 247.395 76.3168 247.395 75.8376V71.2126H248.562V69.9418H248.375Z" fill="black"/>
<path d="M252.081 69.9418H251.102V68.0251H249.623V69.9418H248.665V71.2126H249.623V76.3168C249.623 77.046 250.29 77.6085 251.165 77.6085C251.456 77.6085 251.706 77.5668 252.269 77.4835V76.171C251.915 76.2543 251.769 76.2751 251.54 76.2751C251.06 76.2751 251.102 76.3168 251.102 75.8376V71.2126H252.269V69.9418H252.081Z" fill="black"/>
<path d="M259.724 69.7544C257.745 69.7544 256.37 71.3377 256.37 73.6919C256.37 76.0461 257.745 77.6086 259.745 77.6086C261.703 77.6086 263.078 76.0252 263.078 73.7336C263.078 71.3169 261.745 69.7544 259.724 69.7544ZM259.745 71.1294C260.995 71.1294 261.536 71.9836 261.536 73.7127C261.536 75.3794 260.974 76.2127 259.745 76.2127C258.495 76.2127 257.932 75.3794 257.932 73.6919C257.932 71.9836 258.495 71.1294 259.745 71.1294Z" fill="black"/>
<path d="M266.95 69.9419H265.97V69.046C265.97 68.5669 266.054 68.5044 266.575 68.5044C266.658 68.5044 266.7 68.5044 267.137 68.546V67.2752C266.7 67.1919 266.554 67.171 266.325 67.171C265.304 67.171 264.491 67.9419 264.491 68.9419V69.9419H263.554V71.2127H264.491V77.296H265.97V71.2127H267.137V69.9419H266.95Z" fill="black"/>
<path d="M187.691 86.1293L185.754 91.5668H186.129L184.295 85.9418H182.712L185.129 93.1501L184.712 94.2543C184.525 94.7543 184.483 94.7543 184.025 94.7543C183.837 94.7543 183.67 94.7126 183.233 94.6293V95.9418C183.504 96.0876 183.879 96.2126 184.17 96.2126C184.545 96.2126 185.066 96.0251 185.358 95.8168C185.691 95.5668 185.962 95.1501 186.17 94.5876L189.337 85.9418H187.754L187.691 86.1293Z" fill="black"/>
<path d="M193.004 85.7543C191.025 85.7543 189.65 87.3376 189.65 89.6918C189.65 92.0459 191.025 93.6084 193.025 93.6084C194.983 93.6084 196.358 92.0251 196.358 89.7334C196.358 87.3168 195.025 85.7543 193.004 85.7543ZM193.025 87.1293C194.275 87.1293 194.816 87.9834 194.816 89.7126C194.816 91.3793 194.254 92.2126 193.025 92.2126C191.775 92.2126 191.212 91.3793 191.212 89.6918C191.212 87.9834 191.775 87.1293 193.025 87.1293Z" fill="black"/>
<path d="M203.396 93.1293V85.9418H201.917V90.0876C201.917 91.5251 201.375 92.2751 200.209 92.2751C199.334 92.2751 198.959 91.9209 198.959 91.0876V85.9418H197.459V91.5251C197.459 92.6918 198.521 93.6084 199.875 93.6084C200.917 93.6084 201.709 93.1918 202.354 92.2751L202.021 92.1501V93.2959H203.396V93.1293Z" fill="black"/>
<path d="M204.934 86.1293V93.2959H206.434V89.5043C206.455 87.8168 206.955 87.2334 208.664 87.2959V85.8168C208.289 85.7543 208.184 85.7543 208.059 85.7543C207.33 85.7543 206.643 86.2334 205.997 87.2751L206.33 87.4001V85.9418H204.934V86.1293Z" fill="black"/>
<path d="M214.227 83.2126H212.935V93.296H214.414V90.4626L215.269 89.6293L217.56 93.296H219.373L216.415 88.5668L219.06 85.9418H217.102L214.081 88.9626L214.414 89.0876V83.2126H214.227Z" fill="black"/>
<path d="M219.748 86.1293V93.2959H221.269V89.2751C221.269 87.8376 221.81 87.0876 222.956 87.0876C223.852 87.0876 224.206 87.4418 224.206 88.2751V93.2959H225.706V87.8376C225.706 86.6918 224.644 85.7543 223.29 85.7543C222.269 85.7543 221.435 86.2126 220.831 87.1709L221.164 87.3168V85.9418H219.748V86.1293Z" fill="black"/>
<path d="M228.432 85.9418H227.12V93.296H228.62V85.9418H228.432ZM228.432 83.2126H227.12V84.9835H228.62V83.2126H228.432Z" fill="black"/>
<path d="M232.83 85.9417H231.85V85.0459C231.85 84.5667 231.934 84.5042 232.455 84.5042C232.538 84.5042 232.58 84.5042 233.017 84.5459V83.2751C232.58 83.1917 232.434 83.1709 232.205 83.1709C231.184 83.1709 230.371 83.9417 230.371 84.9417V85.9417H229.434V87.2126H230.371V93.2959H231.85V87.2126H233.017V85.9417H232.83Z" fill="black"/>
<path d="M240.12 90.0043C240.12 88.9418 240.036 88.2959 239.849 87.7751C239.39 86.6293 238.14 85.7543 236.828 85.7543C234.89 85.7543 233.432 87.4209 233.432 89.7126C233.432 92.0251 234.828 93.6084 236.807 93.6084C238.411 93.6084 239.703 92.5251 240.015 90.8168H238.515C238.161 91.9209 237.745 92.2126 236.849 92.2126C236.14 92.2126 235.682 91.9418 235.307 91.3584C235.036 90.9626 234.995 90.6918 234.974 90.1709H240.12V90.0043ZM235.015 89.0876C235.099 87.7959 235.703 87.1293 236.828 87.1293C237.953 87.1293 238.536 87.8376 238.536 88.9001H235.015V89.0876Z" fill="black"/>
<path d="M247.615 85.9418H246.635V84.0251H245.156V85.9418H244.198V87.2126H245.156V92.3168C245.156 93.046 245.823 93.6085 246.698 93.6085C246.99 93.6085 247.24 93.5668 247.802 93.4835V92.171C247.448 92.2543 247.302 92.2751 247.073 92.2751C246.594 92.2751 246.635 92.3168 246.635 91.8376V87.2126H247.802V85.9418H247.615Z" fill="black"/>
<path d="M251.55 85.7543C249.571 85.7543 248.196 87.3376 248.196 89.6918C248.196 92.0459 249.571 93.6084 251.571 93.6084C253.53 93.6084 254.905 92.0251 254.905 89.7334C254.905 87.3168 253.571 85.7543 251.55 85.7543ZM251.571 87.1293C252.821 87.1293 253.363 87.9834 253.363 89.7126C253.363 91.3793 252.8 92.2126 251.571 92.2126C250.321 92.2126 249.759 91.3793 249.759 89.6918C249.759 87.9834 250.321 87.1293 251.571 87.1293Z" fill="black"/>
<path d="M259.775 86.1293V93.2959H261.295V88.7334C261.295 87.7126 261.837 87.0876 262.733 87.0876C263.566 87.0876 263.837 87.4209 263.837 88.3168V93.2959H265.337V88.7334C265.337 87.7126 265.879 87.0876 266.795 87.0876C267.608 87.0876 267.879 87.4209 267.879 88.3168V93.2959H269.4V87.8793C269.4 86.6293 268.483 85.7543 267.17 85.7543C266.254 85.7543 265.545 86.0876 265.066 86.6709C264.754 86.1293 264.066 85.7543 263.15 85.7543C262.212 85.7543 261.441 86.1501 260.858 86.9834L261.191 87.1293V85.9418H259.775V86.1293Z" fill="black"/>
<path d="M277.277 92.2751C277.173 92.3168 277.11 92.3168 277.048 92.3168C276.652 92.3168 276.631 92.2959 276.631 91.9418V87.8376C276.631 86.6084 275.548 85.7543 273.819 85.7543C272.798 85.7543 271.84 86.0876 271.36 86.6084C271.027 86.9834 270.84 87.5043 270.798 88.3793H272.319C272.423 87.3584 272.735 87.1293 273.777 87.1293C274.798 87.1293 275.131 87.3376 275.131 88.0043V88.2959C275.131 88.7751 275.09 88.7543 274.173 88.8793C272.61 89.0876 272.36 89.1293 271.944 89.3168C271.131 89.6501 270.506 90.4626 270.506 91.3584C270.506 92.6293 271.59 93.6084 273.006 93.6084C273.881 93.6084 274.735 93.2334 275.215 92.7959C275.256 93.1293 275.798 93.6084 276.527 93.6084C276.756 93.6084 276.902 93.5668 277.465 93.4418V92.2334L277.277 92.2751ZM275.131 90.9209C275.131 91.2959 275.09 91.3793 274.756 91.6918C274.298 92.1084 273.902 92.2751 273.235 92.2751C272.381 92.2751 272.069 92.0459 272.069 91.3376C272.069 90.6084 272.36 90.4001 273.548 90.2334C274.735 90.0668 274.965 90.0251 275.131 89.9418V90.9209Z" fill="black"/>
<path d="M279.44 83.2126H278.149V93.296H279.628V90.4626L280.482 89.6293L282.774 93.296H284.586L281.628 88.5668L284.274 85.9418H282.315L279.295 88.9626L279.628 89.0876V83.2126H279.44Z" fill="black"/>
<path d="M291.253 90.0043C291.253 88.9418 291.17 88.2959 290.982 87.7751C290.524 86.6293 289.274 85.7543 287.961 85.7543C286.024 85.7543 284.565 87.4209 284.565 89.7126C284.565 92.0251 285.961 93.6084 287.94 93.6084C289.545 93.6084 290.836 92.5251 291.149 90.8168H289.649C289.295 91.9209 288.878 92.2126 287.982 92.2126C287.274 92.2126 286.815 91.9418 286.44 91.3584C286.17 90.9626 286.128 90.6918 286.107 90.1709H291.253V90.0043ZM286.149 89.0876C286.232 87.7959 286.836 87.1293 287.961 87.1293C289.086 87.1293 289.67 87.8376 289.67 88.9001H286.149V89.0876Z" fill="black"/>
<path d="M189.837 108.275C189.733 108.317 189.67 108.317 189.608 108.317C189.212 108.317 189.191 108.296 189.191 107.942V103.838C189.191 102.608 188.108 101.754 186.379 101.754C185.358 101.754 184.399 102.088 183.92 102.608C183.587 102.983 183.399 103.504 183.358 104.379H184.879C184.983 103.358 185.295 103.129 186.337 103.129C187.358 103.129 187.691 103.338 187.691 104.004V104.296C187.691 104.775 187.649 104.754 186.733 104.879C185.17 105.088 184.92 105.129 184.504 105.317C183.691 105.65 183.066 106.463 183.066 107.358C183.066 108.629 184.149 109.608 185.566 109.608C186.441 109.608 187.295 109.233 187.774 108.796C187.816 109.129 188.358 109.608 189.087 109.608C189.316 109.608 189.462 109.567 190.024 109.442V108.233L189.837 108.275ZM187.691 106.921C187.691 107.296 187.649 107.379 187.316 107.692C186.858 108.108 186.462 108.275 185.795 108.275C184.941 108.275 184.629 108.046 184.629 107.338C184.629 106.608 184.92 106.4 186.108 106.233C187.295 106.067 187.524 106.025 187.691 105.942V106.921Z" fill="black"/>
<path d="M197.269 101.942H196.29V101.046C196.29 100.567 196.374 100.504 196.894 100.504C196.978 100.504 197.019 100.504 197.457 100.546V99.2751C197.019 99.1917 196.874 99.1709 196.644 99.1709C195.624 99.1709 194.811 99.9417 194.811 100.942V101.942H193.874V103.213H194.811V109.296H196.29V103.213H197.457V101.942H197.269Z" fill="black"/>
<path d="M204.143 109.129V101.942H202.664V106.088C202.664 107.525 202.122 108.275 200.955 108.275C200.08 108.275 199.705 107.921 199.705 107.088V101.942H198.205V107.525C198.205 108.692 199.268 109.608 200.622 109.608C201.664 109.608 202.455 109.192 203.101 108.275L202.768 108.15V109.296H204.143V109.129Z" fill="black"/>
<path d="M205.681 102.129V109.296H207.181V105.504C207.202 103.817 207.702 103.233 209.41 103.296V101.817C209.035 101.754 208.931 101.754 208.806 101.754C208.077 101.754 207.389 102.233 206.744 103.275L207.077 103.4V101.942H205.681V102.129Z" fill="black"/>
<path d="M210.121 102.129V109.296H211.621V105.504C211.642 103.817 212.142 103.233 213.85 103.296V101.817C213.475 101.754 213.371 101.754 213.246 101.754C212.517 101.754 211.83 102.233 211.184 103.275L211.517 103.4V101.942H210.121V102.129Z" fill="black"/>
<path d="M217.457 101.754C215.478 101.754 214.103 103.338 214.103 105.692C214.103 108.046 215.478 109.608 217.478 109.608C219.436 109.608 220.811 108.025 220.811 105.733C220.811 103.317 219.478 101.754 217.457 101.754ZM217.478 103.129C218.728 103.129 219.269 103.983 219.269 105.713C219.269 107.379 218.707 108.213 217.478 108.213C216.228 108.213 215.665 107.379 215.665 105.692C215.665 103.983 216.228 103.129 217.478 103.129Z" fill="black"/>
<path d="M228.829 109.129L230.933 101.942H229.266L227.849 107.567H228.224L226.829 101.942H225.162L223.787 107.567H224.162L222.704 101.942H221.079L223.204 109.296H224.745L226.141 103.65H225.745L227.204 109.296H228.766L228.829 109.129Z" fill="black"/>
<path d="M336.566 176.733V186.629H337.962V185.567L337.629 185.692C338.149 186.504 339.004 186.942 339.983 186.942C341.816 186.942 343.212 185.254 343.212 182.942C343.212 180.671 341.879 179.088 340.024 179.088C339.066 179.088 338.254 179.504 337.733 180.275L338.066 180.421V176.546H336.566V176.733ZM339.816 180.483C341.066 180.483 341.649 181.379 341.649 183.046C341.649 184.65 341.024 185.546 339.816 185.546C338.629 185.546 338.066 184.65 338.066 183.025C338.066 181.379 338.629 180.483 339.816 180.483Z" fill="black"/>
<path d="M344.188 179.463V186.629H345.688V182.838C345.709 181.15 346.209 180.567 347.917 180.629V179.15C347.542 179.088 347.438 179.088 347.313 179.088C346.584 179.088 345.896 179.567 345.25 180.608L345.584 180.733V179.275H344.188V179.463Z" fill="black"/>
<path d="M354.92 183.338C354.92 182.275 354.836 181.629 354.649 181.108C354.19 179.963 352.94 179.088 351.628 179.088C349.69 179.088 348.232 180.754 348.232 183.046C348.232 185.358 349.628 186.942 351.607 186.942C353.211 186.942 354.503 185.858 354.815 184.15H353.315C352.961 185.254 352.545 185.546 351.649 185.546C350.94 185.546 350.482 185.275 350.107 184.692C349.836 184.296 349.795 184.025 349.774 183.504H354.92V183.338ZM349.815 182.421C349.899 181.129 350.503 180.463 351.628 180.463C352.753 180.463 353.336 181.171 353.336 182.233H349.815V182.421Z" fill="black"/>
<path d="M362.437 185.608C362.333 185.65 362.27 185.65 362.208 185.65C361.812 185.65 361.791 185.629 361.791 185.275V181.171C361.791 179.942 360.708 179.088 358.979 179.088C357.958 179.088 357 179.421 356.52 179.942C356.187 180.317 356 180.838 355.958 181.713H357.479C357.583 180.692 357.895 180.463 358.937 180.463C359.958 180.463 360.291 180.671 360.291 181.338V181.629C360.291 182.108 360.25 182.088 359.333 182.213C357.77 182.421 357.52 182.463 357.104 182.65C356.291 182.983 355.666 183.796 355.666 184.692C355.666 185.963 356.75 186.942 358.166 186.942C359.041 186.942 359.895 186.567 360.375 186.129C360.416 186.463 360.958 186.942 361.687 186.942C361.916 186.942 362.062 186.9 362.625 186.775V185.567L362.437 185.608ZM360.291 184.254C360.291 184.629 360.25 184.713 359.916 185.025C359.458 185.442 359.062 185.608 358.395 185.608C357.541 185.608 357.229 185.379 357.229 184.671C357.229 183.942 357.52 183.733 358.708 183.567C359.895 183.4 360.125 183.358 360.291 183.275V184.254Z" fill="black"/>
<path d="M364.6 176.546H363.309V186.629H364.788V183.796L365.642 182.963L367.934 186.629H369.746L366.788 181.9L369.434 179.275H367.475L364.455 182.296L364.788 182.421V176.546H364.6Z" fill="black"/>
<path d="M376.494 179.275H375.515V177.358H374.036V179.275H373.078V180.546H374.036V185.65C374.036 186.379 374.703 186.942 375.578 186.942C375.869 186.942 376.119 186.9 376.682 186.817V185.504C376.328 185.588 376.182 185.608 375.953 185.608C375.474 185.608 375.515 185.65 375.515 185.171V180.546H376.682V179.275H376.494Z" fill="black"/>
<path d="M377.534 176.733V186.629H379.034V182.608C379.034 181.171 379.597 180.421 380.743 180.421C381.118 180.421 381.305 180.463 381.576 180.671C381.889 180.9 381.972 181.129 381.972 181.608V186.629H383.472V181.171C383.472 180.004 382.451 179.088 381.076 179.088C380.097 179.088 379.347 179.442 378.701 180.296L379.034 180.421V176.546H377.534V176.733Z" fill="black"/>
<path d="M391.24 183.338C391.24 182.275 391.156 181.629 390.969 181.108C390.51 179.963 389.26 179.088 387.948 179.088C386.01 179.088 384.552 180.754 384.552 183.046C384.552 185.358 385.948 186.942 387.927 186.942C389.531 186.942 390.823 185.858 391.135 184.15H389.635C389.281 185.254 388.865 185.546 387.969 185.546C387.26 185.546 386.802 185.275 386.427 184.692C386.156 184.296 386.115 184.025 386.094 183.504H391.24V183.338ZM386.135 182.421C386.219 181.129 386.823 180.463 387.948 180.463C389.073 180.463 389.656 181.171 389.656 182.233H386.135V182.421Z" fill="black"/>
<path d="M402.359 183.338C402.359 182.275 402.276 181.629 402.089 181.108C401.63 179.963 400.38 179.088 399.068 179.088C397.13 179.088 395.672 180.754 395.672 183.046C395.672 185.358 397.068 186.942 399.047 186.942C400.651 186.942 401.943 185.858 402.255 184.15H400.755C400.401 185.254 399.984 185.546 399.089 185.546C398.38 185.546 397.922 185.275 397.547 184.692C397.276 184.296 397.234 184.025 397.214 183.504H402.359V183.338ZM397.255 182.421C397.339 181.129 397.943 180.463 399.068 180.463C400.193 180.463 400.776 181.171 400.776 182.233H397.255V182.421Z" fill="black"/>
<path d="M409.356 176.546H408.044V180.358L408.377 180.213C407.919 179.504 407.023 179.088 406.106 179.088C404.294 179.088 402.898 180.713 402.898 182.942C402.898 185.317 404.252 186.942 406.148 186.942C407.106 186.942 407.898 186.525 408.502 185.65L408.169 185.546V186.629H409.544V176.546H409.356ZM406.294 180.483C407.481 180.483 408.044 181.358 408.044 183.046C408.044 184.65 407.481 185.546 406.294 185.546C405.064 185.546 404.439 184.65 404.439 183.025C404.439 181.379 405.064 180.483 406.294 180.483Z" fill="black"/>
<path d="M415.353 179.463V180.483L415.686 180.358C415.124 179.504 414.374 179.088 413.499 179.088C411.811 179.088 410.436 180.838 410.436 183.088C410.436 184.254 410.769 185.233 411.374 185.942C411.894 186.546 412.707 186.942 413.415 186.942C414.249 186.942 414.999 186.504 415.582 185.629L415.249 185.504V185.879C415.249 187.733 414.915 188.233 413.54 188.233C412.582 188.233 412.29 188.046 412.144 187.067H410.644C410.769 188.546 411.999 189.546 413.519 189.546C414.54 189.546 415.519 189.15 415.978 188.588C416.519 187.942 416.769 186.942 416.769 185.317V179.275H415.353V179.463ZM413.603 180.463C414.769 180.463 415.249 181.275 415.249 183.046C415.249 184.754 414.769 185.546 413.603 185.546C412.457 185.546 411.978 184.733 411.978 183.025C411.978 181.317 412.457 180.463 413.603 180.463Z" fill="black"/>
<path d="M424.599 183.338C424.599 182.275 424.516 181.629 424.329 181.108C423.87 179.963 422.62 179.088 421.308 179.088C419.37 179.088 417.912 180.754 417.912 183.046C417.912 185.358 419.308 186.942 421.287 186.942C422.891 186.942 424.183 185.858 424.495 184.15H422.995C422.641 185.254 422.224 185.546 421.329 185.546C420.62 185.546 420.162 185.275 419.787 184.692C419.516 184.296 419.474 184.025 419.454 183.504H424.599V183.338ZM419.495 182.421C419.579 181.129 420.183 180.463 421.308 180.463C422.433 180.463 423.016 181.171 423.016 182.233H419.495V182.421Z" fill="black"/>
<path d="M431.013 181.421C431.013 180.046 429.909 179.088 428.305 179.088C426.68 179.088 425.409 180.108 425.409 181.4C425.409 182.504 426.18 183.192 427.825 183.588L428.867 183.838C429.638 184.025 429.742 184.129 429.742 184.629C429.742 185.296 429.305 185.546 428.325 185.546C427.721 185.546 427.346 185.421 427.075 185.129C426.909 184.942 426.867 184.879 426.784 184.192H425.242C425.305 185.983 426.409 186.942 428.242 186.942C429.992 186.942 431.305 185.9 431.305 184.546C431.305 183.504 430.534 182.754 429.138 182.421L428.075 182.171C427.159 181.942 426.971 181.838 426.971 181.358C426.971 180.692 427.346 180.463 428.263 180.463C429.159 180.463 429.43 180.692 429.45 181.588H431.013V181.421Z" fill="black"/>
<path d="M438.761 179.275H437.782V177.358H436.303V179.275H435.344V180.546H436.303V185.65C436.303 186.379 436.969 186.942 437.844 186.942C438.136 186.942 438.386 186.9 438.949 186.817V185.504C438.594 185.588 438.449 185.608 438.219 185.608C437.74 185.608 437.782 185.65 437.782 185.171V180.546H438.949V179.275H438.761Z" fill="black"/>
<path d="M442.697 179.088C440.718 179.088 439.343 180.671 439.343 183.025C439.343 185.379 440.718 186.942 442.718 186.942C444.676 186.942 446.051 185.358 446.051 183.067C446.051 180.65 444.718 179.088 442.697 179.088ZM442.718 180.463C443.968 180.463 444.51 181.317 444.51 183.046C444.51 184.713 443.947 185.546 442.718 185.546C441.468 185.546 440.905 184.713 440.905 183.025C440.905 181.317 441.468 180.463 442.718 180.463Z" fill="black"/>
<path d="M454.359 184.129V186.629H455.921V184.296H457.317V182.879H455.921V176.629H454.755L450.359 182.838V184.296H454.359V184.129ZM454.546 182.879H451.942L454.692 178.942L454.359 178.817V182.879H454.546Z" fill="black"/>
<path d="M463.96 176.817H458.897L458.147 182.317H459.522C460.126 181.608 460.439 181.442 461.189 181.442C462.46 181.442 463.043 182.129 463.043 183.546C463.043 184.9 462.46 185.546 461.189 185.546C460.147 185.546 459.71 185.213 459.397 183.942H457.835C458.022 184.9 458.21 185.4 458.501 185.754C459.022 186.463 460.147 186.942 461.21 186.942C463.105 186.942 464.626 185.379 464.626 183.379C464.626 181.504 463.21 180.046 461.397 180.046C460.73 180.046 460.043 180.275 459.897 180.379L460.189 178.338H464.147V176.817H463.96Z" fill="black"/>
<path d="M176.775 229.546H178.066V225.713L177.733 225.838C178.316 226.567 179.129 226.942 180.025 226.942C181.837 226.942 183.212 225.317 183.212 223.088C183.212 220.733 181.879 219.088 180.025 219.088C179.066 219.088 178.17 219.567 177.65 220.379L177.983 220.525V219.275H176.566V229.546H176.775ZM179.837 220.483C181.066 220.483 181.65 221.379 181.65 223.046C181.65 224.65 181.045 225.546 179.837 225.546C178.65 225.546 178.066 224.65 178.066 223.025C178.066 221.379 178.65 220.483 179.837 220.483Z" fill="black"/>
<path d="M190.063 226.463V219.275H188.584V223.421C188.584 224.858 188.042 225.608 186.875 225.608C186 225.608 185.625 225.254 185.625 224.421V219.275H184.125V224.858C184.125 226.025 185.188 226.942 186.542 226.942C187.584 226.942 188.375 226.525 189.021 225.608L188.688 225.483V226.629H190.063V226.463Z" fill="black"/>
<path d="M194.268 219.275H193.289V217.358H191.81V219.275H190.851V220.546H191.81V225.65C191.81 226.379 192.476 226.942 193.351 226.942C193.643 226.942 193.893 226.9 194.455 226.817V225.504C194.101 225.588 193.955 225.608 193.726 225.608C193.247 225.608 193.289 225.65 193.289 225.171V220.546H194.455V219.275H194.268Z" fill="black"/>
<path d="M205.41 225.608C205.306 225.65 205.244 225.65 205.181 225.65C204.785 225.65 204.765 225.629 204.765 225.275V221.171C204.765 219.942 203.681 219.088 201.952 219.088C200.931 219.088 199.973 219.421 199.494 219.942C199.16 220.317 198.973 220.838 198.931 221.713H200.452C200.556 220.692 200.869 220.463 201.91 220.463C202.931 220.463 203.265 220.671 203.265 221.338V221.629C203.265 222.108 203.223 222.088 202.306 222.213C200.744 222.421 200.494 222.463 200.077 222.65C199.265 222.983 198.64 223.796 198.64 224.692C198.64 225.963 199.723 226.942 201.14 226.942C202.015 226.942 202.869 226.567 203.348 226.129C203.39 226.463 203.931 226.942 204.66 226.942C204.89 226.942 205.035 226.9 205.598 226.775V225.567L205.41 225.608ZM203.265 224.254C203.265 224.629 203.223 224.713 202.89 225.025C202.431 225.442 202.035 225.608 201.369 225.608C200.515 225.608 200.202 225.379 200.202 224.671C200.202 223.942 200.494 223.733 201.681 223.567C202.869 223.4 203.098 223.358 203.265 223.275V224.254Z" fill="black"/>
<path d="M176.566 232.734V242.629H177.962V241.567L177.629 241.692C178.15 242.504 179.004 242.942 179.983 242.942C181.816 242.942 183.212 241.254 183.212 238.942C183.212 236.671 181.879 235.088 180.025 235.088C179.066 235.088 178.254 235.504 177.733 236.275L178.066 236.421V232.546H176.566V232.734ZM179.816 236.484C181.066 236.484 181.65 237.379 181.65 239.046C181.65 240.65 181.025 241.546 179.816 241.546C178.629 241.546 178.066 240.65 178.066 239.025C178.066 237.379 178.629 236.484 179.816 236.484Z" fill="black"/>
<path d="M190.48 239.338C190.48 238.275 190.396 237.629 190.209 237.108C189.75 235.963 188.5 235.088 187.188 235.088C185.25 235.088 183.792 236.754 183.792 239.046C183.792 241.358 185.188 242.942 187.167 242.942C188.771 242.942 190.063 241.858 190.375 240.15H188.875C188.521 241.254 188.105 241.546 187.209 241.546C186.5 241.546 186.042 241.275 185.667 240.692C185.396 240.296 185.355 240.025 185.334 239.504H190.48V239.338ZM185.375 238.421C185.459 237.129 186.063 236.463 187.188 236.463C188.313 236.463 188.896 237.171 188.896 238.233H185.375V238.421Z" fill="black"/>
<path d="M197.997 241.608C197.893 241.65 197.83 241.65 197.768 241.65C197.372 241.65 197.351 241.629 197.351 241.275V237.171C197.351 235.942 196.268 235.088 194.539 235.088C193.518 235.088 192.56 235.421 192.08 235.942C191.747 236.317 191.56 236.838 191.518 237.713H193.039C193.143 236.692 193.455 236.463 194.497 236.463C195.518 236.463 195.851 236.671 195.851 237.338V237.629C195.851 238.108 195.81 238.088 194.893 238.213C193.33 238.421 193.08 238.463 192.664 238.65C191.851 238.983 191.226 239.796 191.226 240.692C191.226 241.963 192.31 242.942 193.726 242.942C194.601 242.942 195.455 242.567 195.935 242.129C195.976 242.463 196.518 242.942 197.247 242.942C197.476 242.942 197.622 242.9 198.185 242.775V241.567L197.997 241.608ZM195.851 240.254C195.851 240.629 195.81 240.713 195.476 241.025C195.018 241.442 194.622 241.608 193.955 241.608C193.101 241.608 192.789 241.379 192.789 240.671C192.789 239.942 193.08 239.733 194.268 239.567C195.455 239.4 195.685 239.358 195.851 239.275V240.254Z" fill="black"/>
<path d="M204.89 232.546H203.577V236.359L203.91 236.213C203.452 235.504 202.556 235.088 201.64 235.088C199.827 235.088 198.431 236.713 198.431 238.942C198.431 241.317 199.785 242.942 201.681 242.942C202.64 242.942 203.431 242.525 204.035 241.65L203.702 241.546V242.629H205.077V232.546H204.89ZM201.827 236.484C203.015 236.484 203.577 237.359 203.577 239.046C203.577 240.65 203.015 241.546 201.827 241.546C200.598 241.546 199.973 240.65 199.973 239.025C199.973 237.379 200.598 236.484 201.827 236.484Z" fill="black"/>
<path d="M213.03 235.088C211.051 235.088 209.676 236.671 209.676 239.025C209.676 241.379 211.051 242.942 213.051 242.942C215.01 242.942 216.385 241.358 216.385 239.067C216.385 236.65 215.051 235.088 213.03 235.088ZM213.051 236.463C214.301 236.463 214.843 237.317 214.843 239.046C214.843 240.713 214.28 241.546 213.051 241.546C211.801 241.546 211.239 240.713 211.239 239.025C211.239 237.317 211.801 236.463 213.051 236.463Z" fill="black"/>
<path d="M220.256 235.275H219.277V234.379C219.277 233.9 219.36 233.838 219.881 233.838C219.965 233.838 220.006 233.838 220.444 233.879V232.609C220.006 232.525 219.86 232.504 219.631 232.504C218.61 232.504 217.798 233.275 217.798 234.275V235.275H216.86V236.546H217.798V242.629H219.277V236.546H220.444V235.275H220.256Z" fill="black"/>
<path d="M176.775 248.733V258.629H178.275V254.608C178.275 253.171 178.837 252.421 179.983 252.421C180.358 252.421 180.545 252.463 180.816 252.671C181.129 252.9 181.212 253.129 181.212 253.608V258.629H182.712V253.171C182.712 252.004 181.691 251.088 180.316 251.088C179.337 251.088 178.587 251.442 177.941 252.296L178.275 252.421V248.546H176.775V248.733Z" fill="black"/>
<path d="M187.084 251.088C185.105 251.088 183.73 252.671 183.73 255.025C183.73 257.379 185.105 258.942 187.105 258.942C189.063 258.942 190.438 257.358 190.438 255.067C190.438 252.65 189.105 251.088 187.084 251.088ZM187.105 252.463C188.355 252.463 188.896 253.317 188.896 255.046C188.896 256.713 188.334 257.546 187.105 257.546C185.855 257.546 185.292 256.713 185.292 255.025C185.292 253.317 185.855 252.463 187.105 252.463Z" fill="black"/>
<path d="M194.268 251.275H193.289V249.358H191.81V251.275H190.851V252.546H191.81V257.65C191.81 258.379 192.476 258.942 193.351 258.942C193.643 258.942 193.893 258.9 194.455 258.817V257.504C194.101 257.588 193.955 257.608 193.726 257.608C193.247 257.608 193.289 257.65 193.289 257.171V252.546H194.455V251.275H194.268Z" fill="black"/>
<path d="M199.015 251.463V258.629H200.535V254.067C200.535 253.046 201.077 252.421 201.973 252.421C202.806 252.421 203.077 252.754 203.077 253.65V258.629H204.577V254.067C204.577 253.046 205.119 252.421 206.035 252.421C206.848 252.421 207.119 252.754 207.119 253.65V258.629H208.64V253.213C208.64 251.963 207.723 251.088 206.41 251.088C205.494 251.088 204.785 251.421 204.306 252.004C203.994 251.463 203.306 251.088 202.39 251.088C201.452 251.088 200.681 251.483 200.098 252.317L200.431 252.463V251.275H199.015V251.463Z" fill="black"/>
<path d="M216.413 255.338C216.413 254.275 216.33 253.629 216.142 253.108C215.684 251.963 214.434 251.088 213.121 251.088C211.184 251.088 209.725 252.754 209.725 255.046C209.725 257.358 211.121 258.942 213.1 258.942C214.705 258.942 215.996 257.858 216.309 256.15H214.809C214.455 257.254 214.038 257.546 213.142 257.546C212.434 257.546 211.975 257.275 211.6 256.692C211.33 256.296 211.288 256.025 211.267 255.504H216.413V255.338ZM211.309 254.421C211.392 253.129 211.996 252.463 213.121 252.463C214.246 252.463 214.83 253.171 214.83 254.233H211.309V254.421Z" fill="black"/>
<path d="M218.826 248.546H217.514V258.629H219.014V248.546H218.826Z" fill="black"/>
<path d="M223.161 251.275H222.182V249.358H220.703V251.275H219.745V252.546H220.703V257.65C220.703 258.379 221.37 258.942 222.245 258.942C222.536 258.942 222.786 258.9 223.349 258.817V257.504C222.995 257.588 222.849 257.608 222.62 257.608C222.14 257.608 222.182 257.65 222.182 257.171V252.546H223.349V251.275H223.161Z" fill="black"/>
<path d="M178.045 267.275H176.733V274.629H178.233V267.275H178.045ZM178.045 264.546H176.733V266.317H178.233V264.546H178.045Z" fill="black"/>
<path d="M179.735 267.463V274.629H181.255V270.608C181.255 269.171 181.797 268.421 182.943 268.421C183.839 268.421 184.193 268.775 184.193 269.608V274.629H185.693V269.171C185.693 268.025 184.63 267.088 183.276 267.088C182.255 267.088 181.422 267.546 180.818 268.504L181.151 268.65V267.275H179.735V267.463Z" fill="black"/>
<path d="M193.521 267.275H192.542V265.358H191.063V267.275H190.105V268.546H191.063V273.65C191.063 274.379 191.73 274.942 192.605 274.942C192.896 274.942 193.146 274.9 193.709 274.817V273.504C193.355 273.588 193.209 273.608 192.98 273.608C192.5 273.608 192.542 273.65 192.542 273.171V268.546H193.709V267.275H193.521Z" fill="black"/>
<path d="M194.561 264.733V274.629H196.061V270.608C196.061 269.171 196.624 268.421 197.77 268.421C198.145 268.421 198.332 268.463 198.603 268.671C198.915 268.9 198.999 269.129 198.999 269.608V274.629H200.499V269.171C200.499 268.004 199.478 267.088 198.103 267.088C197.124 267.088 196.374 267.442 195.728 268.296L196.061 268.421V264.546H194.561V264.733Z" fill="black"/>
<path d="M208.266 271.338C208.266 270.275 208.183 269.629 207.995 269.108C207.537 267.963 206.287 267.088 204.975 267.088C203.037 267.088 201.579 268.754 201.579 271.046C201.579 273.358 202.975 274.942 204.954 274.942C206.558 274.942 207.85 273.858 208.162 272.15H206.662C206.308 273.254 205.891 273.546 204.995 273.546C204.287 273.546 203.829 273.275 203.454 272.692C203.183 272.296 203.141 272.025 203.12 271.504H208.266V271.338ZM203.162 270.421C203.245 269.129 203.85 268.463 204.975 268.463C206.1 268.463 206.683 269.171 206.683 270.233H203.162V270.421Z" fill="black"/>
<path d="M179.483 283.275H178.504V282.379C178.504 281.9 178.587 281.838 179.108 281.838C179.191 281.838 179.233 281.838 179.67 281.879V280.609C179.233 280.525 179.087 280.504 178.858 280.504C177.837 280.504 177.025 281.275 177.025 282.275V283.275H176.087V284.546H177.025V290.629H178.504V284.546H179.67V283.275H179.483Z" fill="black"/>
<path d="M186.356 290.463V283.275H184.877V287.421C184.877 288.858 184.335 289.608 183.169 289.608C182.294 289.608 181.919 289.254 181.919 288.421V283.275H180.419V288.858C180.419 290.025 181.481 290.942 182.835 290.942C183.877 290.942 184.669 290.525 185.315 289.608L184.981 289.483V290.629H186.356V290.463Z" fill="black"/>
<path d="M187.895 283.463V290.629H189.395V286.838C189.415 285.15 189.915 284.567 191.624 284.629V283.15C191.249 283.088 191.145 283.088 191.02 283.088C190.29 283.088 189.603 283.567 188.957 284.608L189.29 284.733V283.275H187.895V283.463Z" fill="black"/>
<path d="M192.335 283.463V290.629H193.835V286.838C193.855 285.15 194.355 284.567 196.064 284.629V283.15C195.689 283.088 195.585 283.088 195.46 283.088C194.73 283.088 194.043 283.567 193.397 284.608L193.73 284.733V283.275H192.335V283.463Z" fill="black"/>
<path d="M199.67 283.088C197.691 283.088 196.316 284.671 196.316 287.025C196.316 289.379 197.691 290.942 199.691 290.942C201.65 290.942 203.025 289.358 203.025 287.067C203.025 284.65 201.691 283.088 199.67 283.088ZM199.691 284.463C200.941 284.463 201.483 285.317 201.483 287.046C201.483 288.713 200.92 289.546 199.691 289.546C198.441 289.546 197.879 288.713 197.879 287.025C197.879 285.317 198.441 284.463 199.691 284.463Z" fill="black"/>
<path d="M211.042 290.463L213.146 283.275H211.48L210.063 288.9H210.438L209.042 283.275H207.375L206 288.9H206.375L204.917 283.275H203.292L205.417 290.629H206.959L208.355 284.983H207.959L209.417 290.629H210.98L211.042 290.463Z" fill="black"/>
<path d="M383.483 220.608H382.504V219.713C382.504 219.233 382.587 219.171 383.108 219.171C383.191 219.171 383.233 219.171 383.67 219.213V217.942C383.233 217.858 383.087 217.838 382.858 217.838C381.837 217.838 381.025 218.608 381.025 219.608V220.608H380.087V221.879H381.025V227.963H382.504V221.879H383.67V220.608H383.483Z" fill="black"/>
<path d="M387.377 220.421C385.398 220.421 384.023 222.004 384.023 224.358C384.023 226.713 385.398 228.275 387.398 228.275C389.356 228.275 390.731 226.692 390.731 224.4C390.731 221.983 389.398 220.421 387.377 220.421ZM387.398 221.796C388.648 221.796 389.19 222.65 389.19 224.379C389.19 226.046 388.627 226.879 387.398 226.879C386.148 226.879 385.585 226.046 385.585 224.358C385.585 222.65 386.148 221.796 387.398 221.796Z" fill="black"/>
<path d="M391.895 220.796V227.963H393.395V224.171C393.415 222.483 393.915 221.9 395.624 221.963V220.483C395.249 220.421 395.145 220.421 395.02 220.421C394.29 220.421 393.603 220.9 392.957 221.942L393.29 222.067V220.608H391.895V220.796Z" fill="black"/>
<path d="M406.437 226.942C406.333 226.983 406.27 226.983 406.208 226.983C405.812 226.983 405.791 226.963 405.791 226.608V222.504C405.791 221.275 404.708 220.421 402.979 220.421C401.958 220.421 401 220.754 400.52 221.275C400.187 221.65 400 222.171 399.958 223.046H401.479C401.583 222.025 401.895 221.796 402.937 221.796C403.958 221.796 404.291 222.004 404.291 222.671V222.963C404.291 223.442 404.25 223.421 403.333 223.546C401.77 223.754 401.52 223.796 401.104 223.983C400.291 224.317 399.666 225.129 399.666 226.025C399.666 227.296 400.75 228.275 402.166 228.275C403.041 228.275 403.895 227.9 404.375 227.463C404.416 227.796 404.958 228.275 405.687 228.275C405.916 228.275 406.062 228.233 406.625 228.108V226.9L406.437 226.942ZM404.291 225.588C404.291 225.963 404.25 226.046 403.916 226.358C403.458 226.775 403.062 226.942 402.395 226.942C401.541 226.942 401.229 226.713 401.229 226.004C401.229 225.275 401.52 225.067 402.708 224.9C403.895 224.733 404.125 224.692 404.291 224.608V225.588Z" fill="black"/>
<path d="M416.453 222.754C416.453 221.379 415.349 220.421 413.745 220.421C412.12 220.421 410.849 221.442 410.849 222.733C410.849 223.838 411.62 224.525 413.265 224.921L414.307 225.171C415.078 225.358 415.182 225.463 415.182 225.963C415.182 226.629 414.745 226.879 413.765 226.879C413.161 226.879 412.786 226.754 412.515 226.463C412.349 226.275 412.307 226.213 412.224 225.525H410.682C410.745 227.317 411.849 228.275 413.682 228.275C415.432 228.275 416.745 227.233 416.745 225.879C416.745 224.838 415.974 224.088 414.578 223.754L413.515 223.504C412.599 223.275 412.411 223.171 412.411 222.692C412.411 222.025 412.786 221.796 413.703 221.796C414.599 221.796 414.87 222.025 414.89 222.921H416.453V222.754Z" fill="black"/>
<path d="M420.495 220.609H419.515V218.692H418.036V220.609H417.078V221.879H418.036V226.984C418.036 227.713 418.703 228.275 419.578 228.275C419.87 228.275 420.12 228.234 420.682 228.15V226.838C420.328 226.921 420.182 226.942 419.953 226.942C419.474 226.942 419.515 226.984 419.515 226.504V221.879H420.682V220.609H420.495Z" fill="black"/>
<path d="M421.535 220.796V227.963H423.035V224.171C423.055 222.483 423.555 221.9 425.264 221.963V220.483C424.889 220.421 424.785 220.421 424.66 220.421C423.93 220.421 423.243 220.9 422.597 221.942L422.93 222.067V220.608H421.535V220.796Z" fill="black"/>
<path d="M428.87 220.421C426.891 220.421 425.516 222.004 425.516 224.358C425.516 226.713 426.891 228.275 428.891 228.275C430.85 228.275 432.225 226.692 432.225 224.4C432.225 221.983 430.891 220.421 428.87 220.421ZM428.891 221.796C430.141 221.796 430.683 222.65 430.683 224.379C430.683 226.046 430.12 226.879 428.891 226.879C427.641 226.879 427.079 226.046 427.079 224.358C427.079 222.65 427.641 221.796 428.891 221.796Z" fill="black"/>
<path d="M433.388 220.796V227.963H434.909V223.942C434.909 222.504 435.451 221.754 436.596 221.754C437.492 221.754 437.846 222.108 437.846 222.942V227.963H439.346V222.504C439.346 221.358 438.284 220.421 436.93 220.421C435.909 220.421 435.076 220.879 434.471 221.838L434.805 221.983V220.608H433.388V220.796Z" fill="black"/>
<path d="M445.26 220.796V221.817L445.593 221.692C445.03 220.838 444.28 220.421 443.405 220.421C441.718 220.421 440.343 222.171 440.343 224.421C440.343 225.588 440.676 226.567 441.28 227.275C441.801 227.879 442.614 228.275 443.322 228.275C444.155 228.275 444.905 227.838 445.489 226.963L445.155 226.838V227.213C445.155 229.067 444.822 229.567 443.447 229.567C442.489 229.567 442.197 229.379 442.051 228.4H440.551C440.676 229.879 441.905 230.879 443.426 230.879C444.447 230.879 445.426 230.483 445.885 229.921C446.426 229.275 446.676 228.275 446.676 226.65V220.608H445.26V220.796ZM443.51 221.796C444.676 221.796 445.155 222.608 445.155 224.379C445.155 226.088 444.676 226.879 443.51 226.879C442.364 226.879 441.885 226.067 441.885 224.358C441.885 222.65 442.364 221.796 443.51 221.796Z" fill="black"/>
<path d="M454.506 224.671C454.506 223.608 454.423 222.963 454.235 222.442C453.777 221.296 452.527 220.421 451.215 220.421C449.277 220.421 447.819 222.088 447.819 224.379C447.819 226.692 449.215 228.275 451.194 228.275C452.798 228.275 454.09 227.192 454.402 225.483H452.902C452.548 226.588 452.131 226.879 451.235 226.879C450.527 226.879 450.069 226.608 449.694 226.025C449.423 225.629 449.381 225.358 449.36 224.838H454.506V224.671ZM449.402 223.754C449.485 222.463 450.09 221.796 451.215 221.796C452.34 221.796 452.923 222.504 452.923 223.567H449.402V223.754Z" fill="black"/>
<path d="M455.628 220.796V227.963H457.128V224.171C457.149 222.483 457.649 221.9 459.357 221.963V220.483C458.982 220.421 458.878 220.421 458.753 220.421C458.024 220.421 457.336 220.9 456.69 221.942L457.024 222.067V220.608H455.628V220.796Z" fill="black"/>
<path d="M463.775 220.796V228.796C463.775 229.504 463.775 229.546 463.066 229.546C462.983 229.546 462.962 229.546 462.608 229.504V230.796C462.941 230.859 463.004 230.879 463.17 230.879C464.441 230.879 465.275 230.213 465.275 229.234V220.609H463.775V220.796ZM465.087 217.879H463.775V219.65H465.275V217.879H465.087Z" fill="black"/>
<path d="M469.63 220.421C467.651 220.421 466.276 222.004 466.276 224.358C466.276 226.713 467.651 228.275 469.651 228.275C471.61 228.275 472.985 226.692 472.985 224.4C472.985 221.983 471.651 220.421 469.63 220.421ZM469.651 221.796C470.901 221.796 471.443 222.65 471.443 224.379C471.443 226.046 470.88 226.879 469.651 226.879C468.401 226.879 467.839 226.046 467.839 224.358C467.839 222.65 468.401 221.796 469.651 221.796Z" fill="black"/>
<path d="M475.419 220.609H474.106V227.963H475.606V220.609H475.419ZM475.419 217.879H474.106V219.65H475.606V217.879H475.419Z" fill="black"/>
<path d="M477.108 220.796V227.963H478.629V223.942C478.629 222.504 479.17 221.754 480.316 221.754C481.212 221.754 481.566 222.108 481.566 222.942V227.963H483.066V222.504C483.066 221.358 482.004 220.421 480.65 220.421C479.629 220.421 478.795 220.879 478.191 221.838L478.525 221.983V220.608H477.108V220.796Z" fill="black"/>
<path d="M487.188 220.609H486.209V218.692H484.73V220.609H483.771V221.879H484.73V226.984C484.73 227.713 485.396 228.275 486.271 228.275C486.563 228.275 486.813 228.234 487.375 228.15V226.838C487.021 226.921 486.875 226.942 486.646 226.942C486.167 226.942 486.209 226.984 486.209 226.504V221.879H487.375V220.609H487.188Z" fill="black"/>
<path d="M488.457 226.4V227.963H489.249V228.025C489.249 228.942 489.29 229.025 488.457 229.067V229.921C489.54 229.942 490.249 229.129 490.249 228.004V226.213H488.457V226.4Z" fill="black"/>
<path d="M383.483 236.608H382.504V235.713C382.504 235.233 382.587 235.171 383.108 235.171C383.191 235.171 383.233 235.171 383.67 235.213V233.942C383.233 233.858 383.087 233.838 382.858 233.838C381.837 233.838 381.025 234.608 381.025 235.608V236.608H380.087V237.879H381.025V243.963H382.504V237.879H383.67V236.608H383.483Z" fill="black"/>
<path d="M385.752 236.609H384.44V243.963H385.94V236.609H385.752ZM385.752 233.879H384.44V235.65H385.94V233.879H385.752Z" fill="black"/>
<path d="M388.733 233.879H387.42V243.963H388.92V233.879H388.733Z" fill="black"/>
<path d="M391.693 233.879H390.38V243.963H391.88V233.879H391.693Z" fill="black"/>
<path d="M399.653 240.671C399.653 239.608 399.57 238.963 399.382 238.442C398.924 237.296 397.674 236.421 396.361 236.421C394.424 236.421 392.965 238.088 392.965 240.379C392.965 242.692 394.361 244.275 396.34 244.275C397.945 244.275 399.236 243.192 399.549 241.483H398.049C397.695 242.588 397.278 242.879 396.382 242.879C395.674 242.879 395.215 242.608 394.84 242.025C394.57 241.629 394.528 241.358 394.507 240.838H399.653V240.671ZM394.549 239.754C394.632 238.463 395.236 237.796 396.361 237.796C397.486 237.796 398.07 238.504 398.07 239.567H394.549V239.754Z" fill="black"/>
<path d="M403.441 236.609H402.462V234.692H400.983V236.609H400.025V237.879H400.983V242.984C400.983 243.713 401.65 244.275 402.525 244.275C402.816 244.275 403.066 244.234 403.629 244.15V242.838C403.275 242.921 403.129 242.942 402.9 242.942C402.42 242.942 402.462 242.984 402.462 242.504V237.879H403.629V236.609H403.441Z" fill="black"/>
<path d="M410.855 236.609H409.875V234.692H408.396V236.609H407.438V237.879H408.396V242.984C408.396 243.713 409.063 244.275 409.938 244.275C410.23 244.275 410.48 244.234 411.042 244.15V242.838C410.688 242.921 410.542 242.942 410.313 242.942C409.834 242.942 409.875 242.984 409.875 242.504V237.879H411.042V236.609H410.855Z" fill="black"/>
<path d="M411.895 234.067V243.963H413.395V239.942C413.395 238.504 413.957 237.754 415.103 237.754C415.478 237.754 415.665 237.796 415.936 238.004C416.249 238.234 416.332 238.463 416.332 238.942V243.963H417.832V238.504C417.832 237.338 416.811 236.421 415.436 236.421C414.457 236.421 413.707 236.775 413.061 237.629L413.395 237.754V233.879H411.895V234.067Z" fill="black"/>
<path d="M425.6 240.671C425.6 239.608 425.516 238.963 425.329 238.442C424.871 237.296 423.621 236.421 422.308 236.421C420.371 236.421 418.912 238.088 418.912 240.379C418.912 242.692 420.308 244.275 422.287 244.275C423.891 244.275 425.183 243.192 425.496 241.483H423.996C423.641 242.588 423.225 242.879 422.329 242.879C421.621 242.879 421.162 242.608 420.787 242.025C420.516 241.629 420.475 241.358 420.454 240.838H425.6V240.671ZM420.496 239.754C420.579 238.463 421.183 237.796 422.308 237.796C423.433 237.796 424.016 238.504 424.016 239.567H420.496V239.754Z" fill="black"/>
<path d="M434.886 236.796V237.817L435.22 237.692C434.657 236.838 433.907 236.421 433.032 236.421C431.345 236.421 429.97 238.171 429.97 240.421C429.97 241.588 430.303 242.567 430.907 243.275C431.428 243.879 432.24 244.275 432.949 244.275C433.782 244.275 434.532 243.838 435.115 242.963L434.782 242.838V243.213C434.782 245.067 434.449 245.567 433.074 245.567C432.115 245.567 431.824 245.379 431.678 244.4H430.178C430.303 245.879 431.532 246.879 433.053 246.879C434.074 246.879 435.053 246.483 435.511 245.921C436.053 245.275 436.303 244.275 436.303 242.65V236.608H434.886V236.796ZM433.136 237.796C434.303 237.796 434.782 238.608 434.782 240.379C434.782 242.088 434.303 242.879 433.136 242.879C431.99 242.879 431.511 242.067 431.511 240.358C431.511 238.65 431.99 237.796 433.136 237.796Z" fill="black"/>
<path d="M439.133 233.879H437.82V243.963H439.32V233.879H439.133Z" fill="black"/>
<path d="M446.676 243.796V236.608H445.197V240.754C445.197 242.192 444.655 242.942 443.489 242.942C442.614 242.942 442.239 242.588 442.239 241.754V236.608H440.739V242.192C440.739 243.358 441.801 244.275 443.155 244.275C444.197 244.275 444.989 243.858 445.635 242.942L445.301 242.817V243.963H446.676V243.796Z" fill="black"/>
<path d="M454.506 240.671C454.506 239.608 454.423 238.963 454.235 238.442C453.777 237.296 452.527 236.421 451.215 236.421C449.277 236.421 447.819 238.088 447.819 240.379C447.819 242.692 449.215 244.275 451.194 244.275C452.798 244.275 454.09 243.192 454.402 241.483H452.902C452.548 242.588 452.131 242.879 451.235 242.879C450.527 242.879 450.069 242.608 449.694 242.025C449.423 241.629 449.381 241.358 449.36 240.838H454.506V240.671ZM449.402 239.754C449.485 238.463 450.09 237.796 451.215 237.796C452.34 237.796 452.923 238.504 452.923 239.567H449.402V239.754Z" fill="black"/>
<path d="M466.189 243.796L468.293 236.608H466.626L465.21 242.233H465.585L464.189 236.608H462.522L461.147 242.233H461.522L460.064 236.608H458.439L460.564 243.963H462.105L463.501 238.317H463.105L464.564 243.963H466.126L466.189 243.796Z" fill="black"/>
<path d="M470.232 236.609H468.92V243.963H470.42V236.609H470.232ZM470.232 233.879H468.92V235.65H470.42V233.879H470.232Z" fill="black"/>
<path d="M474.588 236.609H473.609V234.692H472.13V236.609H471.171V237.879H472.13V242.984C472.13 243.713 472.796 244.275 473.671 244.275C473.963 244.275 474.213 244.234 474.775 244.15V242.838C474.421 242.921 474.275 242.942 474.046 242.942C473.567 242.942 473.609 242.984 473.609 242.504V237.879H474.775V236.609H474.588Z" fill="black"/>
<path d="M475.628 234.067V243.963H477.128V239.942C477.128 238.504 477.69 237.754 478.836 237.754C479.211 237.754 479.399 237.796 479.67 238.004C479.982 238.234 480.065 238.463 480.065 238.942V243.963H481.565V238.504C481.565 237.338 480.545 236.421 479.17 236.421C478.19 236.421 477.44 236.775 476.795 237.629L477.128 237.754V233.879H475.628V234.067Z" fill="black"/>
<path d="M493.144 242.942C493.04 242.983 492.977 242.983 492.915 242.983C492.519 242.983 492.498 242.963 492.498 242.608V238.504C492.498 237.275 491.415 236.421 489.685 236.421C488.665 236.421 487.706 236.754 487.227 237.275C486.894 237.65 486.706 238.171 486.665 239.046H488.185C488.29 238.025 488.602 237.796 489.644 237.796C490.665 237.796 490.998 238.004 490.998 238.671V238.963C490.998 239.442 490.956 239.421 490.04 239.546C488.477 239.754 488.227 239.796 487.81 239.983C486.998 240.317 486.373 241.129 486.373 242.025C486.373 243.296 487.456 244.275 488.873 244.275C489.748 244.275 490.602 243.9 491.081 243.463C491.123 243.796 491.665 244.275 492.394 244.275C492.623 244.275 492.769 244.233 493.331 244.108V242.9L493.144 242.942ZM490.998 241.588C490.998 241.963 490.956 242.046 490.623 242.358C490.165 242.775 489.769 242.942 489.102 242.942C488.248 242.942 487.935 242.713 487.935 242.004C487.935 241.275 488.227 241.067 489.415 240.9C490.602 240.733 490.831 240.692 490.998 240.608V241.588Z" fill="black"/>
<path d="M386.066 254.754C386.066 253.379 384.962 252.421 383.358 252.421C381.733 252.421 380.462 253.442 380.462 254.733C380.462 255.838 381.233 256.525 382.879 256.921L383.92 257.171C384.691 257.358 384.795 257.463 384.795 257.963C384.795 258.629 384.358 258.879 383.379 258.879C382.775 258.879 382.4 258.754 382.129 258.463C381.962 258.275 381.92 258.213 381.837 257.525H380.295C380.358 259.317 381.462 260.275 383.295 260.275C385.045 260.275 386.358 259.233 386.358 257.879C386.358 256.838 385.587 256.088 384.191 255.754L383.129 255.504C382.212 255.275 382.025 255.171 382.025 254.692C382.025 254.025 382.4 253.796 383.316 253.796C384.212 253.796 384.483 254.025 384.504 254.921H386.066V254.754Z" fill="black"/>
<path d="M393.17 255.15C393.129 254.463 392.92 253.9 392.65 253.504C392.17 252.858 391.212 252.421 390.233 252.421C388.337 252.421 386.92 254.088 386.92 256.421C386.92 258.671 388.316 260.275 390.212 260.275C391.879 260.275 393.129 259.088 393.275 257.213H391.775C391.566 258.504 391.191 258.879 390.254 258.879C389.025 258.879 388.462 258.067 388.462 256.421C388.462 254.671 389.004 253.796 390.212 253.796C391.15 253.796 391.545 254.171 391.691 255.317H393.191L393.17 255.15Z" fill="black"/>
<path d="M394.108 252.796V259.963H395.608V256.171C395.629 254.483 396.129 253.9 397.837 253.963V252.483C397.462 252.421 397.358 252.421 397.233 252.421C396.504 252.421 395.816 252.9 395.17 253.942L395.504 254.067V252.608H394.108V252.796Z" fill="black"/>
<path d="M404.944 258.942C404.84 258.983 404.777 258.983 404.715 258.983C404.319 258.983 404.298 258.963 404.298 258.608V254.504C404.298 253.275 403.215 252.421 401.485 252.421C400.465 252.421 399.506 252.754 399.027 253.275C398.694 253.65 398.506 254.171 398.465 255.046H399.985C400.09 254.025 400.402 253.796 401.444 253.796C402.465 253.796 402.798 254.004 402.798 254.671V254.963C402.798 255.442 402.756 255.421 401.84 255.546C400.277 255.754 400.027 255.796 399.61 255.983C398.798 256.317 398.173 257.129 398.173 258.025C398.173 259.296 399.256 260.275 400.673 260.275C401.548 260.275 402.402 259.9 402.881 259.463C402.923 259.796 403.465 260.275 404.194 260.275C404.423 260.275 404.569 260.233 405.131 260.108V258.9L404.944 258.942ZM402.798 257.588C402.798 257.963 402.756 258.046 402.423 258.358C401.965 258.775 401.569 258.942 400.902 258.942C400.048 258.942 399.735 258.713 399.735 258.004C399.735 257.275 400.027 257.067 401.215 256.9C402.402 256.733 402.631 256.692 402.798 256.608V257.588Z" fill="black"/>
<path d="M405.961 262.879H407.253V259.046L406.92 259.171C407.503 259.9 408.315 260.275 409.211 260.275C411.024 260.275 412.399 258.65 412.399 256.421C412.399 254.067 411.065 252.421 409.211 252.421C408.253 252.421 407.357 252.9 406.836 253.713L407.17 253.858V252.608H405.753V262.879H405.961ZM409.024 253.817C410.253 253.817 410.836 254.713 410.836 256.379C410.836 257.983 410.232 258.879 409.024 258.879C407.836 258.879 407.253 257.983 407.253 256.358C407.253 254.713 407.836 253.817 409.024 253.817Z" fill="black"/>
<path d="M419.977 252.421C417.998 252.421 416.623 254.004 416.623 256.358C416.623 258.713 417.998 260.275 419.998 260.275C421.956 260.275 423.331 258.692 423.331 256.4C423.331 253.983 421.998 252.421 419.977 252.421ZM419.998 253.796C421.248 253.796 421.79 254.65 421.79 256.379C421.79 258.046 421.227 258.879 419.998 258.879C418.748 258.879 418.185 258.046 418.185 256.358C418.185 254.65 418.748 253.796 419.998 253.796Z" fill="black"/>
<path d="M427.203 252.608H426.224V251.713C426.224 251.233 426.307 251.171 426.828 251.171C426.911 251.171 426.953 251.171 427.39 251.213V249.942C426.953 249.858 426.807 249.838 426.578 249.838C425.557 249.838 424.745 250.608 424.745 251.608V252.608H423.807V253.879H424.745V259.963H426.224V253.879H427.39V252.608H427.203Z" fill="black"/>
<path d="M434.616 252.608H433.637V251.713C433.637 251.233 433.72 251.171 434.241 251.171C434.325 251.171 434.366 251.171 434.804 251.213V249.942C434.366 249.858 434.22 249.838 433.991 249.838C432.97 249.838 432.158 250.608 432.158 251.608V252.608H431.22V253.879H432.158V259.963H433.637V253.879H434.804V252.608H434.616Z" fill="black"/>
<path d="M438.51 252.421C436.531 252.421 435.156 254.004 435.156 256.358C435.156 258.713 436.531 260.275 438.531 260.275C440.49 260.275 441.865 258.692 441.865 256.4C441.865 253.983 440.531 252.421 438.51 252.421ZM438.531 253.796C439.781 253.796 440.323 254.65 440.323 256.379C440.323 258.046 439.76 258.879 438.531 258.879C437.281 258.879 436.719 258.046 436.719 256.358C436.719 254.65 437.281 253.796 438.531 253.796Z" fill="black"/>
<path d="M449.424 258.942C449.32 258.983 449.257 258.983 449.195 258.983C448.799 258.983 448.778 258.963 448.778 258.608V254.504C448.778 253.275 447.695 252.421 445.965 252.421C444.945 252.421 443.986 252.754 443.507 253.275C443.174 253.65 442.986 254.171 442.945 255.046H444.465C444.57 254.025 444.882 253.796 445.924 253.796C446.945 253.796 447.278 254.004 447.278 254.671V254.963C447.278 255.442 447.236 255.421 446.32 255.546C444.757 255.754 444.507 255.796 444.09 255.983C443.278 256.317 442.653 257.129 442.653 258.025C442.653 259.296 443.736 260.275 445.153 260.275C446.028 260.275 446.882 259.9 447.361 259.463C447.403 259.796 447.945 260.275 448.674 260.275C448.903 260.275 449.049 260.233 449.611 260.108V258.9L449.424 258.942ZM447.278 257.588C447.278 257.963 447.236 258.046 446.903 258.358C446.445 258.775 446.049 258.942 445.382 258.942C444.528 258.942 444.215 258.713 444.215 258.004C444.215 257.275 444.507 257.067 445.695 256.9C446.882 256.733 447.111 256.692 447.278 256.608V257.588Z" fill="black"/>
<path d="M450.441 252.796V259.963H451.962V255.4C451.962 254.379 452.504 253.754 453.4 253.754C454.233 253.754 454.504 254.088 454.504 254.983V259.963H456.004V255.4C456.004 254.379 456.545 253.754 457.462 253.754C458.275 253.754 458.545 254.088 458.545 254.983V259.963H460.066V254.546C460.066 253.296 459.15 252.421 457.837 252.421C456.92 252.421 456.212 252.754 455.733 253.338C455.42 252.796 454.733 252.421 453.816 252.421C452.879 252.421 452.108 252.817 451.525 253.65L451.858 253.796V252.608H450.441V252.796Z" fill="black"/>
<path d="M467.277 255.15C467.235 254.463 467.027 253.9 466.756 253.504C466.277 252.858 465.319 252.421 464.34 252.421C462.444 252.421 461.027 254.088 461.027 256.421C461.027 258.671 462.423 260.275 464.319 260.275C465.985 260.275 467.235 259.088 467.381 257.213H465.881C465.673 258.504 465.298 258.879 464.36 258.879C463.131 258.879 462.569 258.067 462.569 256.421C462.569 254.671 463.11 253.796 464.319 253.796C465.256 253.796 465.652 254.171 465.798 255.317H467.298L467.277 255.15Z" fill="black"/>
<path d="M471.11 252.421C469.131 252.421 467.756 254.004 467.756 256.358C467.756 258.713 469.131 260.275 471.131 260.275C473.09 260.275 474.465 258.692 474.465 256.4C474.465 253.983 473.131 252.421 471.11 252.421ZM471.131 253.796C472.381 253.796 472.923 254.65 472.923 256.379C472.923 258.046 472.36 258.879 471.131 258.879C469.881 258.879 469.319 258.046 469.319 256.358C469.319 254.65 469.881 253.796 471.131 253.796Z" fill="black"/>
<path d="M475.628 252.796V259.963H477.128V256.171C477.149 254.483 477.649 253.9 479.357 253.963V252.483C478.982 252.421 478.878 252.421 478.753 252.421C478.024 252.421 477.336 252.9 476.69 253.942L477.024 254.067V252.608H475.628V252.796Z" fill="black"/>
<path d="M486.36 256.671C486.36 255.608 486.276 254.963 486.089 254.442C485.63 253.296 484.38 252.421 483.068 252.421C481.13 252.421 479.672 254.088 479.672 256.379C479.672 258.692 481.068 260.275 483.047 260.275C484.651 260.275 485.943 259.192 486.255 257.483H484.755C484.401 258.588 483.985 258.879 483.089 258.879C482.38 258.879 481.922 258.608 481.547 258.025C481.276 257.629 481.235 257.358 481.214 256.838H486.36V256.671ZM481.255 255.754C481.339 254.463 481.943 253.796 483.068 253.796C484.193 253.796 484.776 254.504 484.776 255.567H481.255V255.754Z" fill="black"/>
</g>
<defs>
<clipPath id="clip0_549_709">
<rect width="518" height="377" fill="white"/>
</clipPath>
</defs>
</svg>
