<svg width="531" height="263" viewBox="0 0 531 263" fill="none" xmlns="http://www.w3.org/2000/svg">
<rect width="531" height="263" fill="white"/>
<path d="M226.359 188.615V25.9478H35.25V188.615H226.359Z" stroke="black" stroke-width="4"/>
<path d="M93.7135 138.724C93.7135 144.625 88.9271 149.406 83.026 149.406C77.125 149.406 72.3438 144.625 72.3438 138.724V92.7239C72.3438 86.8229 77.125 82.0364 83.026 82.0364C88.9271 82.0364 93.7135 86.8229 93.7135 92.7239V138.724Z" stroke="black" stroke-width="1.33333"/>
<path d="M84.3594 141.75V90.0833H81.6927V141.75H84.3594Z" stroke="black" stroke-width="0.666667"/>
<path d="M113.141 241.974V140.667H71.474V241.974H113.141Z" fill="white"/>
<mask id="mask0_547_650" style="mask-type:luminance" maskUnits="userSpaceOnUse" x="70" y="139" width="44" height="104">
<path d="M70 139.333H114V242.641H70V139.333Z" fill="white"/>
</mask>
<g mask="url(#mask0_547_650)">
<path d="M113.141 241.974V140.666H71.474V241.974H113.141Z" stroke="black" stroke-width="1.33333"/>
</g>
<path d="M83.026 92.3332V139.333" stroke="black" stroke-width="1.33333" stroke-dasharray="2.67 5.33 2.67 5.33"/>
<mask id="mask1_547_650" style="mask-type:luminance" maskUnits="userSpaceOnUse" x="302" y="23" width="196" height="169">
<path d="M302 23.3334H497.641V191.333H302V23.3334Z" fill="white"/>
</mask>
<g mask="url(#mask1_547_650)">
<path d="M495.641 188.557V25.8906H304.526V188.557H495.641Z" stroke="black" stroke-width="4"/>
</g>
<path d="M362.99 138.667C362.99 144.568 358.203 149.354 352.307 149.354C346.406 149.354 341.62 144.568 341.62 138.667V92.6667C341.62 86.7657 346.406 81.9844 352.307 81.9844C358.203 81.9844 362.99 86.7657 362.99 92.6667V138.667Z" stroke="black" stroke-width="1.33333"/>
<path d="M353.641 141.698V90.0313H350.974V141.698H353.641Z" stroke="black" stroke-width="0.666667"/>
<path d="M340.141 183.224H441.443V141.557H340.141V183.224Z" fill="white"/>
<path d="M340.141 183.224H441.443V141.557H340.141V183.224Z" stroke="black" stroke-width="1.33333"/>
<path d="M352.307 92.2812V139.281" stroke="black" stroke-width="1.33333" stroke-dasharray="2.67 5.33 2.67 5.33"/>
<path d="M114.359 50.3334V197.891H133.026V50.3334H114.359Z" fill="white"/>
<path d="M114.359 50.3333V197.891H133.026V50.3333H114.359Z" stroke="black" stroke-width="2"/>
<path d="M123.693 220.031C126.297 220.031 128.406 217.776 128.406 215C128.406 212.224 126.297 209.974 123.693 209.974C121.089 209.974 118.979 212.224 118.979 215C118.979 217.776 121.089 220.031 123.693 220.031Z" fill="black"/>
<path d="M123.693 209.974V198.557" stroke="black" stroke-width="2.66667" stroke-linecap="square"/>
<path d="M125.255 218.135C126.141 218.135 126.859 217.422 126.859 216.537C126.859 215.651 126.141 214.932 125.255 214.932C124.37 214.932 123.656 215.651 123.656 216.537C123.656 217.422 124.37 218.135 125.255 218.135Z" fill="white"/>
<path d="M129.693 197.891V50.224H117.693V197.891H129.693Z" stroke="black" stroke-width="0.666667" stroke-linecap="square"/>
<path d="M442.359 50.3334V197.891H461.026V50.3334H442.359Z" fill="white"/>
<path d="M442.359 50.3333V197.891H461.026V50.3333H442.359Z" stroke="black" stroke-width="2"/>
<path d="M451.693 220.031C454.297 220.031 456.406 217.776 456.406 215C456.406 212.224 454.297 209.974 451.693 209.974C449.089 209.974 446.979 212.224 446.979 215C446.979 217.776 449.089 220.031 451.693 220.031Z" fill="black"/>
<path d="M451.693 209.974V198.557" stroke="black" stroke-width="2.66667" stroke-linecap="square"/>
<path d="M453.255 218.135C454.141 218.135 454.859 217.422 454.859 216.537C454.859 215.651 454.141 214.932 453.255 214.932C452.37 214.932 451.656 215.651 451.656 216.537C451.656 217.422 452.37 218.135 453.255 218.135Z" fill="white"/>
<path d="M457.693 197.891V50.224H445.693V197.891H457.693Z" stroke="black" stroke-width="0.666667" stroke-linecap="square"/>
<path d="M155.784 227.612L153.847 233.05H154.222L152.389 227.425H150.805L153.222 234.633L152.805 235.737C152.618 236.237 152.576 236.237 152.118 236.237C151.93 236.237 151.764 236.196 151.326 236.112V237.425C151.597 237.571 151.972 237.696 152.264 237.696C152.639 237.696 153.159 237.508 153.451 237.3C153.784 237.05 154.055 236.633 154.264 236.071L157.43 227.425H155.847L155.784 227.612Z" fill="black"/>
<path d="M164.493 231.487C164.493 230.425 164.409 229.779 164.222 229.258C163.764 228.112 162.514 227.237 161.201 227.237C159.264 227.237 157.805 228.904 157.805 231.196C157.805 233.508 159.201 235.091 161.18 235.091C162.784 235.091 164.076 234.008 164.389 232.3H162.889C162.534 233.404 162.118 233.696 161.222 233.696C160.514 233.696 160.055 233.425 159.68 232.841C159.409 232.446 159.368 232.175 159.347 231.654H164.493V231.487ZM159.389 230.571C159.472 229.279 160.076 228.612 161.201 228.612C162.326 228.612 162.909 229.321 162.909 230.383H159.389V230.571Z" fill="black"/>
<path d="M170.906 229.571C170.906 228.196 169.802 227.237 168.198 227.237C166.573 227.237 165.302 228.258 165.302 229.55C165.302 230.654 166.073 231.341 167.719 231.737L168.76 231.987C169.531 232.175 169.635 232.279 169.635 232.779C169.635 233.446 169.198 233.696 168.219 233.696C167.615 233.696 167.24 233.571 166.969 233.279C166.802 233.091 166.76 233.029 166.677 232.341H165.135C165.198 234.133 166.302 235.091 168.135 235.091C169.885 235.091 171.198 234.05 171.198 232.696C171.198 231.654 170.427 230.904 169.031 230.571L167.969 230.321C167.052 230.091 166.865 229.987 166.865 229.508C166.865 228.841 167.24 228.612 168.156 228.612C169.052 228.612 169.323 228.841 169.344 229.737H170.906V229.571Z" fill="black"/>
<path d="M367.534 227.612V234.779H369.055V230.758C369.055 229.321 369.597 228.571 370.743 228.571C371.639 228.571 371.993 228.925 371.993 229.758V234.779H373.493V229.321C373.493 228.175 372.43 227.237 371.076 227.237C370.055 227.237 369.222 227.696 368.618 228.654L368.951 228.8V227.425H367.534V227.612Z" fill="black"/>
<path d="M377.844 227.237C375.865 227.237 374.49 228.821 374.49 231.175C374.49 233.529 375.865 235.092 377.865 235.092C379.823 235.092 381.198 233.508 381.198 231.217C381.198 228.8 379.865 227.237 377.844 227.237ZM377.865 228.612C379.115 228.612 379.656 229.467 379.656 231.196C379.656 232.862 379.094 233.696 377.865 233.696C376.615 233.696 376.052 232.862 376.052 231.175C376.052 229.467 376.615 228.612 377.865 228.612Z" fill="black"/>
<path d="M385.028 227.425H384.049V225.508H382.569V227.425H381.611V228.696H382.569V233.8C382.569 234.529 383.236 235.092 384.111 235.092C384.403 235.092 384.653 235.05 385.215 234.967V233.654C384.861 233.737 384.715 233.758 384.486 233.758C384.007 233.758 384.049 233.8 384.049 233.321V228.696H385.215V227.425H385.028Z" fill="black"/>
<path d="M396.066 231.487C396.066 230.425 395.983 229.779 395.795 229.258C395.337 228.112 394.087 227.237 392.774 227.237C390.837 227.237 389.379 228.904 389.379 231.196C389.379 233.508 390.774 235.092 392.754 235.092C394.358 235.092 395.649 234.008 395.962 232.3H394.462C394.108 233.404 393.691 233.696 392.795 233.696C392.087 233.696 391.629 233.425 391.254 232.842C390.983 232.446 390.941 232.175 390.92 231.654H396.066V231.487ZM390.962 230.571C391.045 229.279 391.649 228.612 392.774 228.612C393.899 228.612 394.483 229.321 394.483 230.383H390.962V230.571Z" fill="black"/>
<path d="M400.438 234.612L403.188 227.425H401.542L399.521 233.279H399.896L397.98 227.425H396.334L398.917 234.779H400.375L400.438 234.612Z" fill="black"/>
<path d="M410.146 231.487C410.146 230.425 410.063 229.779 409.875 229.258C409.417 228.112 408.167 227.237 406.855 227.237C404.917 227.237 403.459 228.904 403.459 231.196C403.459 233.508 404.855 235.092 406.834 235.092C408.438 235.092 409.73 234.008 410.042 232.3H408.542C408.188 233.404 407.771 233.696 406.875 233.696C406.167 233.696 405.709 233.425 405.334 232.842C405.063 232.446 405.021 232.175 405 231.654H410.146V231.487ZM405.042 230.571C405.125 229.279 405.73 228.612 406.855 228.612C407.98 228.612 408.563 229.321 408.563 230.383H405.042V230.571Z" fill="black"/>
<path d="M411.268 227.612V234.779H412.768V230.987C412.789 229.3 413.289 228.717 414.997 228.779V227.3C414.622 227.237 414.518 227.237 414.393 227.237C413.664 227.237 412.976 227.717 412.33 228.758L412.664 228.883V227.425H411.268V227.612Z" fill="black"/>
</svg>
